  0
SECTION
  2
HEADER
  9
$ACADVER
  1
AC1009
  9
$INSBASE
 10
0.0
 20
0.0
 30
0.0
  9
$EXTMIN
 10
4.845262
 20
3.02933
 30
0.0
  9
$EXTMAX
 10
8.847323
 20
6.850559
 30
0.0
  9
$LIMMIN
 10
0.0
 20
0.0
  9
$LIMMAX
 10
12.0
 20
9.0
  9
$ORTHOMODE
 70
     0
  9
$REGENMODE
 70
     1
  9
$FILLMODE
 70
     1
  9
$QTEXTMODE
 70
     0
  9
$MIRRTEXT
 70
     1
  9
$DRAGMODE
 70
     2
  9
$LTSCALE
 40
1.0
  9
$OSMODE
 70
     0
  9
$ATTMODE
 70
     1
  9
$TEXTSIZE
 40
0.2
  9
$TRACEWID
 40
0.05
  9
$TEXTSTYLE
  7
STANDARD
  9
$CLAYER
  8
0
  9
$CELTYPE
  6
BYLAYER
  9
$CECOLOR
 62
   256
  9
$DIMSCALE
 40
1.0
  9
$DIMASZ
 40
0.18
  9
$DIMEXO
 40
0.0625
  9
$DIMDLI
 40
0.38
  9
$DIMRND
 40
0.0
  9
$DIMDLE
 40
0.0
  9
$DIMEXE
 40
0.18
  9
$DIMTP
 40
0.0
  9
$DIMTM
 40
0.0
  9
$DIMTXT
 40
0.18
  9
$DIMCEN
 40
0.09
  9
$DIMTSZ
 40
0.0
  9
$DIMTOL
 70
     0
  9
$DIMLIM
 70
     0
  9
$DIMTIH
 70
     1
  9
$DIMTOH
 70
     1
  9
$DIMSE1
 70
     0
  9
$DIMSE2
 70
     0
  9
$DIMTAD
 70
     0
  9
$DIMZIN
 70
     0
  9
$DIMBLK
  1

  9
$DIMASO
 70
     1
  9
$DIMSHO
 70
     1
  9
$DIMPOST
  1

  9
$DIMAPOST
  1

  9
$DIMALT
 70
     0
  9
$DIMALTD
 70
     2
  9
$DIMALTF
 40
25.4
  9
$DIMLFAC
 40
1.0
  9
$DIMTOFL
 70
     0
  9
$DIMTVP
 40
0.0
  9
$DIMTIX
 70
     0
  9
$DIMSOXD
 70
     0
  9
$DIMSAH
 70
     0
  9
$DIMBLK1
  1

  9
$DIMBLK2
  1

  9
$DIMSTYLE
  2
*UNNAMED
  9
$DIMCLRD
 70
     0
  9
$DIMCLRE
 70
     0
  9
$DIMCLRT
 70
     0
  9
$DIMTFAC
 40
1.0
  9
$DIMGAP
 40
0.09
  9
$LUNITS
 70
     2
  9
$LUPREC
 70
     4
  9
$SKETCHINC
 40
0.1
  9
$FILLETRAD
 40
0.0
  9
$AUNITS
 70
     0
  9
$AUPREC
 70
     0
  9
$MENU
  1
aDXF
  9
$ELEVATION
 40
0.0
  9
$PELEVATION
 40
0.0
  9
$THICKNESS
 40
0.0
  9
$LIMCHECK
 70
     0
  9
$BLIPMODE
 70
     1
  9
$CHAMFERA
 40
0.0
  9
$CHAMFERB
 40
0.0
  9
$SKPOLY
 70
     0
  9
$TDCREATE
 40
2450406.327857407
  9
$TDUPDATE
 40
2450406.327857407
  9
$TDINDWG
 40
0.0000000000
  9
$TDUSRTIMER
 40
0.0000000000
  9
$USRTIMER
 70
     1
  9
$ANGBASE
 50
0.0
  9
$ANGDIR
 70
     0
  9
$PDMODE
 70
     0
  9
$PDSIZE
 40
0.0
  9
$PLINEWID
 40
0.0
  9
$COORDS
 70
     1
  9
$SPLFRAME
 70
     0
  9
$SPLINETYPE
 70
     6
  9
$SPLINESEGS
 70
     8
  9
$ATTDIA
 70
     0
  9
$ATTREQ
 70
     1
  9
$HANDLING
 70
     0
  9
$HANDSEED
  5
0
  9
$SURFTAB1
 70
     6
  9
$SURFTAB2
 70
     6
  9
$SURFTYPE
 70
     6
  9
$SURFU
 70
     6
  9
$SURFV
 70
     6
  9
$UCSNAME
  2

  9
$UCSORG
 10
0.0
 20
0.0
 30
0.0
  9
$UCSXDIR
 10
1.0
 20
0.0
 30
0.0
  9
$UCSYDIR
 10
0.0
 20
1.0
 30
0.0
  9
$PUCSNAME
  2

  9
$PUCSORG
 10
0.0
 20
0.0
 30
0.0
  9
$PUCSXDIR
 10
1.0
 20
0.0
 30
0.0
  9
$PUCSYDIR
 10
0.0
 20
1.0
 30
0.0
  9
$USERI1
 70
     0
  9
$USERI2
 70
     0
  9
$USERI3
 70
     0
  9
$USERI4
 70
     0
  9
$USERI5
 70
     0
  9
$USERR1
 40
0.0
  9
$USERR2
 40
0.0
  9
$USERR3
 40
0.0
  9
$USERR4
 40
0.0
  9
$USERR5
 40
0.0
  9
$WORLDVIEW
 70
     1
  9
$SHADEDGE
 70
     3
  9
$SHADEDIF
 70
    70
  9
$TILEMODE
 70
     1
  9
$MAXACTVP
 70
    16
  9
$PINSBASE
 10
0.0
 20
0.0
 30
0.0
  9
$PLIMCHECK
 70
     0
  9
$PEXTMIN
 10
1.000000E+20
 20
1.000000E+20
 30
1.000000E+20
  9
$PEXTMAX
 10
-1.000000E+20
 20
-1.000000E+20
 30
-1.000000E+20
  9
$PLIMMIN
 10
0.0
 20
0.0
  9
$PLIMMAX
 10
12.0
 20
9.0
  9
$UNITMODE
 70
     0
  9
$VISRETAIN
 70
     0
  9
$PLINEGEN
 70
     0
  9
$PSLTSCALE
 70
     1
  9
$TREEDEPTH
 70
  3020
  9
$DWGCODEPAGE
  3
iso8859-1
  0
ENDSEC
  0
SECTION
  2
TABLES
  0
TABLE
  2
VPORT
 70
     2
  0
VPORT
  2
*ACTIVE
 70
     0
 10
0.0
 20
0.0
 11
1.0
 21
1.0
 12
7.953782
 22
4.5
 13
0.0
 23
0.0
 14
1.0
 24
1.0
 15
0.0
 25
0.0
 16
0.0
 26
0.0
 36
1.0
 17
0.0
 27
0.0
 37
0.0
 40
9.0
 41
1.767507
 42
50.0
 43
0.0
 44
0.0
 50
0.0
 51
0.0
 71
     0
 72
   100
 73
     1
 74
     1
 75
     0
 76
     0
 77
     0
 78
     0
  0
ENDTAB
  0
TABLE
  2
LTYPE
 70
     1
  0
LTYPE
  2
CONTINUOUS
 70
    64
  3
Solid line
 72
    65
 73
     0
 40
0.0
  0
ENDTAB
  0
TABLE
  2
LAYER
 70
     1
  0
LAYER
  2
0
 70
     0
 62
     7
  6
CONTINUOUS
  0
ENDTAB
  0
TABLE
  2
STYLE
 70
     1
  0
STYLE
  2
STANDARD
 70
     0
 40
0.0
 41
1.0
 50
0.0
 71
     0
 42
0.2
  3
txt
  4

  0
ENDTAB
  0
TABLE
  2
VIEW
 70
     0
  0
ENDTAB
  0
TABLE
  2
UCS
 70
     0
  0
ENDTAB
  0
TABLE
  2
APPID
 70
     1
  0
APPID
  2
ADXF
 70
    64
  0
ENDTAB
  0
TABLE
  2
DIMSTYLE
 70
     0
  0
ENDTAB
  0
ENDSEC
  0
SECTION
  2
BLOCKS
  0
ENDSEC
  0
SECTION
  2
ENTITIES
  0
POLYLINE
  8
0
 66
1
  0
VERTEX
  8
0
 10
568.534058
 20
-300.678528
  0
VERTEX
  8
0
 10
570.534058
 20
-300.678528
  0
VERTEX
  8
0
 10
570.534058
 20
-312.678528
  0
VERTEX
  8
0
 10
568.534058
 20
-312.678528
  0
VERTEX
  8
0
 10
568.534058
 20
-300.678528
  0
SEQEND
  8
0
  0
POLYLINE
  8
0
 66
1
  0
VERTEX
  8
0
 10
571.034058
 20
-300.678528
  0
VERTEX
  8
0
 10
573.034058
 20
-300.678528
  0
VERTEX
  8
0
 10
573.034058
 20
-312.678528
  0
VERTEX
  8
0
 10
571.034058
 20
-312.678528
  0
VERTEX
  8
0
 10
571.034058
 20
-300.678528
  0
SEQEND
  8
0
  0
POLYLINE
  8
0
 66
1
  0
VERTEX
  8
0
 10
573.534058
 20
-300.678528
  0
VERTEX
  8
0
 10
575.534058
 20
-300.678528
  0
VERTEX
  8
0
 10
575.534058
 20
-312.678528
  0
VERTEX
  8
0
 10
573.534058
 20
-312.678528
  0
VERTEX
  8
0
 10
573.534058
 20
-300.678528
  0
SEQEND
  8
0
  0
POLYLINE
  8
0
 66
1
  0
VERTEX
  8
0
 10
576.034058
 20
-300.678528
  0
VERTEX
  8
0
 10
578.034058
 20
-300.678528
  0
VERTEX
  8
0
 10
578.034058
 20
-312.678528
  0
VERTEX
  8
0
 10
576.034058
 20
-312.678528
  0
VERTEX
  8
0
 10
576.034058
 20
-300.678528
  0
SEQEND
  8
0
  0
POLYLINE
  8
0
 66
1
  0
VERTEX
  8
0
 10
578.534058
 20
-300.678528
  0
VERTEX
  8
0
 10
580.534058
 20
-300.678528
  0
VERTEX
  8
0
 10
580.534058
 20
-312.678528
  0
VERTEX
  8
0
 10
578.534058
 20
-312.678528
  0
VERTEX
  8
0
 10
578.534058
 20
-300.678528
  0
SEQEND
  8
0
  0
CIRCLE
  8
0
 10
604.634033
 20
-204.628540
 40
1.500000
  0
CIRCLE
  8
0
 10
654.634033
 20
-204.628540
 40
1.500000
  0
POLYLINE
  8
0
 66
1
  0
VERTEX
  8
0
 10
594.634033
 20
-211.628540
  0
VERTEX
  8
0
 10
594.634033
 20
-201.628540
 42
-0.414214
  0
VERTEX
  8
0
 10
599.634033
 20
-196.628540
  0
VERTEX
  8
0
 10
659.634033
 20
-196.628540
 42
-0.414214
  0
VERTEX
  8
0
 10
664.634033
 20
-201.628540
  0
VERTEX
  8
0
 10
664.634033
 20
-211.628540
  0
SEQEND
  8
0
  0
POLYLINE
  8
0
 66
1
  0
VERTEX
  8
0
 10
664.634033
 20
-211.628540
  0
VERTEX
  8
0
 10
699.134033
 20
-211.628540
 42
-0.414214
  0
VERTEX
  8
0
 10
704.134033
 20
-216.628540
  0
VERTEX
  8
0
 10
704.134033
 20
-355.628540
 42
-0.414211
  0
VERTEX
  8
0
 10
699.134033
 20
-360.628510
  0
VERTEX
  8
0
 10
560.134033
 20
-360.628510
 42
-0.414211
  0
VERTEX
  8
0
 10
555.134033
 20
-355.628510
  0
VERTEX
  8
0
 10
555.134033
 20
-216.628540
 42
-0.414214
  0
VERTEX
  8
0
 10
560.134033
 20
-211.628540
  0
VERTEX
  8
0
 10
594.634033
 20
-211.628525
  0
SEQEND
  8
0
  0
POLYLINE
  8
0
 66
1
  0
VERTEX
  8
0
 10
568.534058
 20
-318.678528
  0
VERTEX
  8
0
 10
570.534058
 20
-318.678528
  0
VERTEX
  8
0
 10
570.534058
 20
-330.678528
  0
VERTEX
  8
0
 10
568.534058
 20
-330.678528
  0
VERTEX
  8
0
 10
568.534058
 20
-318.678528
  0
SEQEND
  8
0
  0
POLYLINE
  8
0
 66
1
  0
VERTEX
  8
0
 10
571.034058
 20
-318.678528
  0
VERTEX
  8
0
 10
573.034058
 20
-318.678528
  0
VERTEX
  8
0
 10
573.034058
 20
-330.678528
  0
VERTEX
  8
0
 10
571.034058
 20
-330.678528
  0
VERTEX
  8
0
 10
571.034058
 20
-318.678528
  0
SEQEND
  8
0
  0
POLYLINE
  8
0
 66
1
  0
VERTEX
  8
0
 10
573.534058
 20
-318.678528
  0
VERTEX
  8
0
 10
575.534058
 20
-318.678528
  0
VERTEX
  8
0
 10
575.534058
 20
-330.678528
  0
VERTEX
  8
0
 10
573.534058
 20
-330.678528
  0
VERTEX
  8
0
 10
573.534058
 20
-318.678528
  0
SEQEND
  8
0
  0
POLYLINE
  8
0
 66
1
  0
VERTEX
  8
0
 10
576.034058
 20
-318.678528
  0
VERTEX
  8
0
 10
578.034058
 20
-318.678528
  0
VERTEX
  8
0
 10
578.034058
 20
-330.678528
  0
VERTEX
  8
0
 10
576.034058
 20
-330.678528
  0
VERTEX
  8
0
 10
576.034058
 20
-318.678528
  0
SEQEND
  8
0
  0
POLYLINE
  8
0
 66
1
  0
VERTEX
  8
0
 10
578.534058
 20
-318.678528
  0
VERTEX
  8
0
 10
580.534058
 20
-318.678528
  0
VERTEX
  8
0
 10
580.534058
 20
-330.678528
  0
VERTEX
  8
0
 10
578.534058
 20
-330.678528
  0
VERTEX
  8
0
 10
578.534058
 20
-318.678528
  0
SEQEND
  8
0
  0
POLYLINE
  8
0
 66
1
  0
VERTEX
  8
0
 10
568.534058
 20
-336.678528
  0
VERTEX
  8
0
 10
570.534058
 20
-336.678528
  0
VERTEX
  8
0
 10
570.534058
 20
-348.678528
  0
VERTEX
  8
0
 10
568.534058
 20
-348.678528
  0
VERTEX
  8
0
 10
568.534058
 20
-336.678528
  0
SEQEND
  8
0
  0
POLYLINE
  8
0
 66
1
  0
VERTEX
  8
0
 10
571.034058
 20
-336.678528
  0
VERTEX
  8
0
 10
573.034058
 20
-336.678528
  0
VERTEX
  8
0
 10
573.034058
 20
-348.678528
  0
VERTEX
  8
0
 10
571.034058
 20
-348.678528
  0
VERTEX
  8
0
 10
571.034058
 20
-336.678528
  0
SEQEND
  8
0
  0
POLYLINE
  8
0
 66
1
  0
VERTEX
  8
0
 10
573.534058
 20
-336.678528
  0
VERTEX
  8
0
 10
575.534058
 20
-336.678528
  0
VERTEX
  8
0
 10
575.534058
 20
-348.678528
  0
VERTEX
  8
0
 10
573.534058
 20
-348.678528
  0
VERTEX
  8
0
 10
573.534058
 20
-336.678528
  0
SEQEND
  8
0
  0
POLYLINE
  8
0
 66
1
  0
VERTEX
  8
0
 10
576.034058
 20
-336.678528
  0
VERTEX
  8
0
 10
578.034058
 20
-336.678528
  0
VERTEX
  8
0
 10
578.034058
 20
-348.678528
  0
VERTEX
  8
0
 10
576.034058
 20
-348.678528
  0
VERTEX
  8
0
 10
576.034058
 20
-336.678528
  0
SEQEND
  8
0
  0
POLYLINE
  8
0
 66
1
  0
VERTEX
  8
0
 10
578.534058
 20
-336.678528
  0
VERTEX
  8
0
 10
580.534058
 20
-336.678528
  0
VERTEX
  8
0
 10
580.534058
 20
-348.678528
  0
VERTEX
  8
0
 10
578.534058
 20
-348.678528
  0
VERTEX
  8
0
 10
578.534058
 20
-336.678528
  0
SEQEND
  8
0
  0
POLYLINE
  8
0
 66
1
  0
VERTEX
  8
0
 10
588.534058
 20
-300.678528
  0
VERTEX
  8
0
 10
590.534058
 20
-300.678528
  0
VERTEX
  8
0
 10
590.534058
 20
-312.678528
  0
VERTEX
  8
0
 10
588.534058
 20
-312.678528
  0
VERTEX
  8
0
 10
588.534058
 20
-300.678528
  0
SEQEND
  8
0
  0
POLYLINE
  8
0
 66
1
  0
VERTEX
  8
0
 10
591.034058
 20
-300.678528
  0
VERTEX
  8
0
 10
593.034058
 20
-300.678528
  0
VERTEX
  8
0
 10
593.034058
 20
-312.678528
  0
VERTEX
  8
0
 10
591.034058
 20
-312.678528
  0
VERTEX
  8
0
 10
591.034058
 20
-300.678528
  0
SEQEND
  8
0
  0
POLYLINE
  8
0
 66
1
  0
VERTEX
  8
0
 10
593.534058
 20
-300.678528
  0
VERTEX
  8
0
 10
595.534058
 20
-300.678528
  0
VERTEX
  8
0
 10
595.534058
 20
-312.678528
  0
VERTEX
  8
0
 10
593.534058
 20
-312.678528
  0
VERTEX
  8
0
 10
593.534058
 20
-300.678528
  0
SEQEND
  8
0
  0
POLYLINE
  8
0
 66
1
  0
VERTEX
  8
0
 10
596.034058
 20
-300.678528
  0
VERTEX
  8
0
 10
598.034058
 20
-300.678528
  0
VERTEX
  8
0
 10
598.034058
 20
-312.678528
  0
VERTEX
  8
0
 10
596.034058
 20
-312.678528
  0
VERTEX
  8
0
 10
596.034058
 20
-300.678528
  0
SEQEND
  8
0
  0
POLYLINE
  8
0
 66
1
  0
VERTEX
  8
0
 10
598.534058
 20
-300.678528
  0
VERTEX
  8
0
 10
600.534058
 20
-300.678528
  0
VERTEX
  8
0
 10
600.534058
 20
-312.678528
  0
VERTEX
  8
0
 10
598.534058
 20
-312.678528
  0
VERTEX
  8
0
 10
598.534058
 20
-300.678528
  0
SEQEND
  8
0
  0
POLYLINE
  8
0
 66
1
  0
VERTEX
  8
0
 10
588.534058
 20
-318.678528
  0
VERTEX
  8
0
 10
590.534058
 20
-318.678528
  0
VERTEX
  8
0
 10
590.534058
 20
-330.678528
  0
VERTEX
  8
0
 10
588.534058
 20
-330.678528
  0
VERTEX
  8
0
 10
588.534058
 20
-318.678528
  0
SEQEND
  8
0
  0
POLYLINE
  8
0
 66
1
  0
VERTEX
  8
0
 10
591.034058
 20
-318.678528
  0
VERTEX
  8
0
 10
593.034058
 20
-318.678528
  0
VERTEX
  8
0
 10
593.034058
 20
-330.678528
  0
VERTEX
  8
0
 10
591.034058
 20
-330.678528
  0
VERTEX
  8
0
 10
591.034058
 20
-318.678528
  0
SEQEND
  8
0
  0
POLYLINE
  8
0
 66
1
  0
VERTEX
  8
0
 10
593.534058
 20
-318.678528
  0
VERTEX
  8
0
 10
595.534058
 20
-318.678528
  0
VERTEX
  8
0
 10
595.534058
 20
-330.678528
  0
VERTEX
  8
0
 10
593.534058
 20
-330.678528
  0
VERTEX
  8
0
 10
593.534058
 20
-318.678528
  0
SEQEND
  8
0
  0
POLYLINE
  8
0
 66
1
  0
VERTEX
  8
0
 10
596.034058
 20
-318.678528
  0
VERTEX
  8
0
 10
598.034058
 20
-318.678528
  0
VERTEX
  8
0
 10
598.034058
 20
-330.678528
  0
VERTEX
  8
0
 10
596.034058
 20
-330.678528
  0
VERTEX
  8
0
 10
596.034058
 20
-318.678528
  0
SEQEND
  8
0
  0
POLYLINE
  8
0
 66
1
  0
VERTEX
  8
0
 10
598.534058
 20
-318.678528
  0
VERTEX
  8
0
 10
600.534058
 20
-318.678528
  0
VERTEX
  8
0
 10
600.534058
 20
-330.678528
  0
VERTEX
  8
0
 10
598.534058
 20
-330.678528
  0
VERTEX
  8
0
 10
598.534058
 20
-318.678528
  0
SEQEND
  8
0
  0
POLYLINE
  8
0
 66
1
  0
VERTEX
  8
0
 10
588.534058
 20
-336.678528
  0
VERTEX
  8
0
 10
590.534058
 20
-336.678528
  0
VERTEX
  8
0
 10
590.534058
 20
-348.678528
  0
VERTEX
  8
0
 10
588.534058
 20
-348.678528
  0
VERTEX
  8
0
 10
588.534058
 20
-336.678528
  0
SEQEND
  8
0
  0
POLYLINE
  8
0
 66
1
  0
VERTEX
  8
0
 10
591.034058
 20
-336.678528
  0
VERTEX
  8
0
 10
593.034058
 20
-336.678528
  0
VERTEX
  8
0
 10
593.034058
 20
-348.678528
  0
VERTEX
  8
0
 10
591.034058
 20
-348.678528
  0
VERTEX
  8
0
 10
591.034058
 20
-336.678528
  0
SEQEND
  8
0
  0
POLYLINE
  8
0
 66
1
  0
VERTEX
  8
0
 10
593.534058
 20
-336.678528
  0
VERTEX
  8
0
 10
595.534058
 20
-336.678528
  0
VERTEX
  8
0
 10
595.534058
 20
-348.678528
  0
VERTEX
  8
0
 10
593.534058
 20
-348.678528
  0
VERTEX
  8
0
 10
593.534058
 20
-336.678528
  0
SEQEND
  8
0
  0
POLYLINE
  8
0
 66
1
  0
VERTEX
  8
0
 10
596.034058
 20
-336.678528
  0
VERTEX
  8
0
 10
598.034058
 20
-336.678528
  0
VERTEX
  8
0
 10
598.034058
 20
-348.678528
  0
VERTEX
  8
0
 10
596.034058
 20
-348.678528
  0
VERTEX
  8
0
 10
596.034058
 20
-336.678528
  0
SEQEND
  8
0
  0
POLYLINE
  8
0
 66
1
  0
VERTEX
  8
0
 10
598.534058
 20
-336.678528
  0
VERTEX
  8
0
 10
600.534058
 20
-336.678528
  0
VERTEX
  8
0
 10
600.534058
 20
-348.678528
  0
VERTEX
  8
0
 10
598.534058
 20
-348.678528
  0
VERTEX
  8
0
 10
598.534058
 20
-336.678528
  0
SEQEND
  8
0
  0
POLYLINE
  8
0
 66
1
  0
VERTEX
  8
0
 10
608.534058
 20
-300.678528
  0
VERTEX
  8
0
 10
610.534058
 20
-300.678528
  0
VERTEX
  8
0
 10
610.534058
 20
-312.678528
  0
VERTEX
  8
0
 10
608.534058
 20
-312.678528
  0
VERTEX
  8
0
 10
608.534058
 20
-300.678528
  0
SEQEND
  8
0
  0
POLYLINE
  8
0
 66
1
  0
VERTEX
  8
0
 10
611.034058
 20
-300.678528
  0
VERTEX
  8
0
 10
613.034058
 20
-300.678528
  0
VERTEX
  8
0
 10
613.034058
 20
-312.678528
  0
VERTEX
  8
0
 10
611.034058
 20
-312.678528
  0
VERTEX
  8
0
 10
611.034058
 20
-300.678528
  0
SEQEND
  8
0
  0
POLYLINE
  8
0
 66
1
  0
VERTEX
  8
0
 10
613.534058
 20
-300.678528
  0
VERTEX
  8
0
 10
615.534058
 20
-300.678528
  0
VERTEX
  8
0
 10
615.534058
 20
-312.678528
  0
VERTEX
  8
0
 10
613.534058
 20
-312.678528
  0
VERTEX
  8
0
 10
613.534058
 20
-300.678528
  0
SEQEND
  8
0
  0
POLYLINE
  8
0
 66
1
  0
VERTEX
  8
0
 10
616.034058
 20
-300.678528
  0
VERTEX
  8
0
 10
618.034058
 20
-300.678528
  0
VERTEX
  8
0
 10
618.034058
 20
-312.678528
  0
VERTEX
  8
0
 10
616.034058
 20
-312.678528
  0
VERTEX
  8
0
 10
616.034058
 20
-300.678528
  0
SEQEND
  8
0
  0
POLYLINE
  8
0
 66
1
  0
VERTEX
  8
0
 10
618.534058
 20
-300.678528
  0
VERTEX
  8
0
 10
620.534058
 20
-300.678528
  0
VERTEX
  8
0
 10
620.534058
 20
-312.678528
  0
VERTEX
  8
0
 10
618.534058
 20
-312.678528
  0
VERTEX
  8
0
 10
618.534058
 20
-300.678528
  0
SEQEND
  8
0
  0
POLYLINE
  8
0
 66
1
  0
VERTEX
  8
0
 10
608.534058
 20
-318.678528
  0
VERTEX
  8
0
 10
610.534058
 20
-318.678528
  0
VERTEX
  8
0
 10
610.534058
 20
-330.678528
  0
VERTEX
  8
0
 10
608.534058
 20
-330.678528
  0
VERTEX
  8
0
 10
608.534058
 20
-318.678528
  0
SEQEND
  8
0
  0
POLYLINE
  8
0
 66
1
  0
VERTEX
  8
0
 10
611.034058
 20
-318.678528
  0
VERTEX
  8
0
 10
613.034058
 20
-318.678528
  0
VERTEX
  8
0
 10
613.034058
 20
-330.678528
  0
VERTEX
  8
0
 10
611.034058
 20
-330.678528
  0
VERTEX
  8
0
 10
611.034058
 20
-318.678528
  0
SEQEND
  8
0
  0
POLYLINE
  8
0
 66
1
  0
VERTEX
  8
0
 10
613.534058
 20
-318.678528
  0
VERTEX
  8
0
 10
615.534058
 20
-318.678528
  0
VERTEX
  8
0
 10
615.534058
 20
-330.678528
  0
VERTEX
  8
0
 10
613.534058
 20
-330.678528
  0
VERTEX
  8
0
 10
613.534058
 20
-318.678528
  0
SEQEND
  8
0
  0
POLYLINE
  8
0
 66
1
  0
VERTEX
  8
0
 10
616.034058
 20
-318.678528
  0
VERTEX
  8
0
 10
618.034058
 20
-318.678528
  0
VERTEX
  8
0
 10
618.034058
 20
-330.678528
  0
VERTEX
  8
0
 10
616.034058
 20
-330.678528
  0
VERTEX
  8
0
 10
616.034058
 20
-318.678528
  0
SEQEND
  8
0
  0
POLYLINE
  8
0
 66
1
  0
VERTEX
  8
0
 10
618.534058
 20
-318.678528
  0
VERTEX
  8
0
 10
620.534058
 20
-318.678528
  0
VERTEX
  8
0
 10
620.534058
 20
-330.678528
  0
VERTEX
  8
0
 10
618.534058
 20
-330.678528
  0
VERTEX
  8
0
 10
618.534058
 20
-318.678528
  0
SEQEND
  8
0
  0
POLYLINE
  8
0
 66
1
  0
VERTEX
  8
0
 10
608.534058
 20
-336.678528
  0
VERTEX
  8
0
 10
610.534058
 20
-336.678528
  0
VERTEX
  8
0
 10
610.534058
 20
-348.678528
  0
VERTEX
  8
0
 10
608.534058
 20
-348.678528
  0
VERTEX
  8
0
 10
608.534058
 20
-336.678528
  0
SEQEND
  8
0
  0
POLYLINE
  8
0
 66
1
  0
VERTEX
  8
0
 10
611.034058
 20
-336.678528
  0
VERTEX
  8
0
 10
613.034058
 20
-336.678528
  0
VERTEX
  8
0
 10
613.034058
 20
-348.678528
  0
VERTEX
  8
0
 10
611.034058
 20
-348.678528
  0
VERTEX
  8
0
 10
611.034058
 20
-336.678528
  0
SEQEND
  8
0
  0
POLYLINE
  8
0
 66
1
  0
VERTEX
  8
0
 10
613.534058
 20
-336.678528
  0
VERTEX
  8
0
 10
615.534058
 20
-336.678528
  0
VERTEX
  8
0
 10
615.534058
 20
-348.678528
  0
VERTEX
  8
0
 10
613.534058
 20
-348.678528
  0
VERTEX
  8
0
 10
613.534058
 20
-336.678528
  0
SEQEND
  8
0
  0
POLYLINE
  8
0
 66
1
  0
VERTEX
  8
0
 10
616.034058
 20
-336.678528
  0
VERTEX
  8
0
 10
618.034058
 20
-336.678528
  0
VERTEX
  8
0
 10
618.034058
 20
-348.678528
  0
VERTEX
  8
0
 10
616.034058
 20
-348.678528
  0
VERTEX
  8
0
 10
616.034058
 20
-336.678528
  0
SEQEND
  8
0
  0
POLYLINE
  8
0
 66
1
  0
VERTEX
  8
0
 10
618.534058
 20
-336.678528
  0
VERTEX
  8
0
 10
620.534058
 20
-336.678528
  0
VERTEX
  8
0
 10
620.534058
 20
-348.678528
  0
VERTEX
  8
0
 10
618.534058
 20
-348.678528
  0
VERTEX
  8
0
 10
618.534058
 20
-336.678528
  0
SEQEND
  8
0
  0
POLYLINE
  8
0
 66
1
  0
VERTEX
  8
0
 10
638.534058
 20
-300.678528
  0
VERTEX
  8
0
 10
640.534058
 20
-300.678528
  0
VERTEX
  8
0
 10
640.534058
 20
-312.678528
  0
VERTEX
  8
0
 10
638.534058
 20
-312.678528
  0
VERTEX
  8
0
 10
638.534058
 20
-300.678528
  0
SEQEND
  8
0
  0
POLYLINE
  8
0
 66
1
  0
VERTEX
  8
0
 10
641.034058
 20
-300.678528
  0
VERTEX
  8
0
 10
643.034058
 20
-300.678528
  0
VERTEX
  8
0
 10
643.034058
 20
-312.678528
  0
VERTEX
  8
0
 10
641.034058
 20
-312.678528
  0
VERTEX
  8
0
 10
641.034058
 20
-300.678528
  0
SEQEND
  8
0
  0
POLYLINE
  8
0
 66
1
  0
VERTEX
  8
0
 10
643.534058
 20
-300.678528
  0
VERTEX
  8
0
 10
645.534058
 20
-300.678528
  0
VERTEX
  8
0
 10
645.534058
 20
-312.678528
  0
VERTEX
  8
0
 10
643.534058
 20
-312.678528
  0
VERTEX
  8
0
 10
643.534058
 20
-300.678528
  0
SEQEND
  8
0
  0
POLYLINE
  8
0
 66
1
  0
VERTEX
  8
0
 10
646.034058
 20
-300.678528
  0
VERTEX
  8
0
 10
648.034058
 20
-300.678528
  0
VERTEX
  8
0
 10
648.034058
 20
-312.678528
  0
VERTEX
  8
0
 10
646.034058
 20
-312.678528
  0
VERTEX
  8
0
 10
646.034058
 20
-300.678528
  0
SEQEND
  8
0
  0
POLYLINE
  8
0
 66
1
  0
VERTEX
  8
0
 10
648.534058
 20
-300.678528
  0
VERTEX
  8
0
 10
650.534058
 20
-300.678528
  0
VERTEX
  8
0
 10
650.534058
 20
-312.678528
  0
VERTEX
  8
0
 10
648.534058
 20
-312.678528
  0
VERTEX
  8
0
 10
648.534058
 20
-300.678528
  0
SEQEND
  8
0
  0
POLYLINE
  8
0
 66
1
  0
VERTEX
  8
0
 10
638.534058
 20
-318.678528
  0
VERTEX
  8
0
 10
640.534058
 20
-318.678528
  0
VERTEX
  8
0
 10
640.534058
 20
-330.678528
  0
VERTEX
  8
0
 10
638.534058
 20
-330.678528
  0
VERTEX
  8
0
 10
638.534058
 20
-318.678528
  0
SEQEND
  8
0
  0
POLYLINE
  8
0
 66
1
  0
VERTEX
  8
0
 10
641.034058
 20
-318.678528
  0
VERTEX
  8
0
 10
643.034058
 20
-318.678528
  0
VERTEX
  8
0
 10
643.034058
 20
-330.678528
  0
VERTEX
  8
0
 10
641.034058
 20
-330.678528
  0
VERTEX
  8
0
 10
641.034058
 20
-318.678528
  0
SEQEND
  8
0
  0
POLYLINE
  8
0
 66
1
  0
VERTEX
  8
0
 10
643.534058
 20
-318.678528
  0
VERTEX
  8
0
 10
645.534058
 20
-318.678528
  0
VERTEX
  8
0
 10
645.534058
 20
-330.678528
  0
VERTEX
  8
0
 10
643.534058
 20
-330.678528
  0
VERTEX
  8
0
 10
643.534058
 20
-318.678528
  0
SEQEND
  8
0
  0
POLYLINE
  8
0
 66
1
  0
VERTEX
  8
0
 10
646.034058
 20
-318.678528
  0
VERTEX
  8
0
 10
648.034058
 20
-318.678528
  0
VERTEX
  8
0
 10
648.034058
 20
-330.678528
  0
VERTEX
  8
0
 10
646.034058
 20
-330.678528
  0
VERTEX
  8
0
 10
646.034058
 20
-318.678528
  0
SEQEND
  8
0
  0
POLYLINE
  8
0
 66
1
  0
VERTEX
  8
0
 10
648.534058
 20
-318.678528
  0
VERTEX
  8
0
 10
650.534058
 20
-318.678528
  0
VERTEX
  8
0
 10
650.534058
 20
-330.678528
  0
VERTEX
  8
0
 10
648.534058
 20
-330.678528
  0
VERTEX
  8
0
 10
648.534058
 20
-318.678528
  0
SEQEND
  8
0
  0
POLYLINE
  8
0
 66
1
  0
VERTEX
  8
0
 10
638.534058
 20
-336.678528
  0
VERTEX
  8
0
 10
640.534058
 20
-336.678528
  0
VERTEX
  8
0
 10
640.534058
 20
-348.678528
  0
VERTEX
  8
0
 10
638.534058
 20
-348.678528
  0
VERTEX
  8
0
 10
638.534058
 20
-336.678528
  0
SEQEND
  8
0
  0
POLYLINE
  8
0
 66
1
  0
VERTEX
  8
0
 10
641.034058
 20
-336.678528
  0
VERTEX
  8
0
 10
643.034058
 20
-336.678528
  0
VERTEX
  8
0
 10
643.034058
 20
-348.678528
  0
VERTEX
  8
0
 10
641.034058
 20
-348.678528
  0
VERTEX
  8
0
 10
641.034058
 20
-336.678528
  0
SEQEND
  8
0
  0
POLYLINE
  8
0
 66
1
  0
VERTEX
  8
0
 10
643.534058
 20
-336.678528
  0
VERTEX
  8
0
 10
645.534058
 20
-336.678528
  0
VERTEX
  8
0
 10
645.534058
 20
-348.678528
  0
VERTEX
  8
0
 10
643.534058
 20
-348.678528
  0
VERTEX
  8
0
 10
643.534058
 20
-336.678528
  0
SEQEND
  8
0
  0
POLYLINE
  8
0
 66
1
  0
VERTEX
  8
0
 10
646.034058
 20
-336.678528
  0
VERTEX
  8
0
 10
648.034058
 20
-336.678528
  0
VERTEX
  8
0
 10
648.034058
 20
-348.678528
  0
VERTEX
  8
0
 10
646.034058
 20
-348.678528
  0
VERTEX
  8
0
 10
646.034058
 20
-336.678528
  0
SEQEND
  8
0
  0
POLYLINE
  8
0
 66
1
  0
VERTEX
  8
0
 10
648.534058
 20
-336.678528
  0
VERTEX
  8
0
 10
650.534058
 20
-336.678528
  0
VERTEX
  8
0
 10
650.534058
 20
-348.678528
  0
VERTEX
  8
0
 10
648.534058
 20
-348.678528
  0
VERTEX
  8
0
 10
648.534058
 20
-336.678528
  0
SEQEND
  8
0
  0
POLYLINE
  8
0
 66
1
  0
VERTEX
  8
0
 10
658.534058
 20
-300.678528
  0
VERTEX
  8
0
 10
660.534058
 20
-300.678528
  0
VERTEX
  8
0
 10
660.534058
 20
-312.678528
  0
VERTEX
  8
0
 10
658.534058
 20
-312.678528
  0
VERTEX
  8
0
 10
658.534058
 20
-300.678528
  0
SEQEND
  8
0
  0
POLYLINE
  8
0
 66
1
  0
VERTEX
  8
0
 10
661.034058
 20
-300.678528
  0
VERTEX
  8
0
 10
663.034058
 20
-300.678528
  0
VERTEX
  8
0
 10
663.034058
 20
-312.678528
  0
VERTEX
  8
0
 10
661.034058
 20
-312.678528
  0
VERTEX
  8
0
 10
661.034058
 20
-300.678528
  0
SEQEND
  8
0
  0
POLYLINE
  8
0
 66
1
  0
VERTEX
  8
0
 10
663.534058
 20
-300.678528
  0
VERTEX
  8
0
 10
665.534058
 20
-300.678528
  0
VERTEX
  8
0
 10
665.534058
 20
-312.678528
  0
VERTEX
  8
0
 10
663.534058
 20
-312.678528
  0
VERTEX
  8
0
 10
663.534058
 20
-300.678528
  0
SEQEND
  8
0
  0
POLYLINE
  8
0
 66
1
  0
VERTEX
  8
0
 10
666.034058
 20
-300.678528
  0
VERTEX
  8
0
 10
668.034058
 20
-300.678528
  0
VERTEX
  8
0
 10
668.034058
 20
-312.678528
  0
VERTEX
  8
0
 10
666.034058
 20
-312.678528
  0
VERTEX
  8
0
 10
666.034058
 20
-300.678528
  0
SEQEND
  8
0
  0
POLYLINE
  8
0
 66
1
  0
VERTEX
  8
0
 10
668.534058
 20
-300.678528
  0
VERTEX
  8
0
 10
670.534058
 20
-300.678528
  0
VERTEX
  8
0
 10
670.534058
 20
-312.678528
  0
VERTEX
  8
0
 10
668.534058
 20
-312.678528
  0
VERTEX
  8
0
 10
668.534058
 20
-300.678528
  0
SEQEND
  8
0
  0
POLYLINE
  8
0
 66
1
  0
VERTEX
  8
0
 10
658.534058
 20
-318.678528
  0
VERTEX
  8
0
 10
660.534058
 20
-318.678528
  0
VERTEX
  8
0
 10
660.534058
 20
-330.678528
  0
VERTEX
  8
0
 10
658.534058
 20
-330.678528
  0
VERTEX
  8
0
 10
658.534058
 20
-318.678528
  0
SEQEND
  8
0
  0
POLYLINE
  8
0
 66
1
  0
VERTEX
  8
0
 10
661.034058
 20
-318.678528
  0
VERTEX
  8
0
 10
663.034058
 20
-318.678528
  0
VERTEX
  8
0
 10
663.034058
 20
-330.678528
  0
VERTEX
  8
0
 10
661.034058
 20
-330.678528
  0
VERTEX
  8
0
 10
661.034058
 20
-318.678528
  0
SEQEND
  8
0
  0
POLYLINE
  8
0
 66
1
  0
VERTEX
  8
0
 10
663.534058
 20
-318.678528
  0
VERTEX
  8
0
 10
665.534058
 20
-318.678528
  0
VERTEX
  8
0
 10
665.534058
 20
-330.678528
  0
VERTEX
  8
0
 10
663.534058
 20
-330.678528
  0
VERTEX
  8
0
 10
663.534058
 20
-318.678528
  0
SEQEND
  8
0
  0
POLYLINE
  8
0
 66
1
  0
VERTEX
  8
0
 10
666.034058
 20
-318.678528
  0
VERTEX
  8
0
 10
668.034058
 20
-318.678528
  0
VERTEX
  8
0
 10
668.034058
 20
-330.678528
  0
VERTEX
  8
0
 10
666.034058
 20
-330.678528
  0
VERTEX
  8
0
 10
666.034058
 20
-318.678528
  0
SEQEND
  8
0
  0
POLYLINE
  8
0
 66
1
  0
VERTEX
  8
0
 10
668.534058
 20
-318.678528
  0
VERTEX
  8
0
 10
670.534058
 20
-318.678528
  0
VERTEX
  8
0
 10
670.534058
 20
-330.678528
  0
VERTEX
  8
0
 10
668.534058
 20
-330.678528
  0
VERTEX
  8
0
 10
668.534058
 20
-318.678528
  0
SEQEND
  8
0
  0
POLYLINE
  8
0
 66
1
  0
VERTEX
  8
0
 10
658.534058
 20
-336.678528
  0
VERTEX
  8
0
 10
660.534058
 20
-336.678528
  0
VERTEX
  8
0
 10
660.534058
 20
-348.678528
  0
VERTEX
  8
0
 10
658.534058
 20
-348.678528
  0
VERTEX
  8
0
 10
658.534058
 20
-336.678528
  0
SEQEND
  8
0
  0
POLYLINE
  8
0
 66
1
  0
VERTEX
  8
0
 10
661.034058
 20
-336.678528
  0
VERTEX
  8
0
 10
663.034058
 20
-336.678528
  0
VERTEX
  8
0
 10
663.034058
 20
-348.678528
  0
VERTEX
  8
0
 10
661.034058
 20
-348.678528
  0
VERTEX
  8
0
 10
661.034058
 20
-336.678528
  0
SEQEND
  8
0
  0
POLYLINE
  8
0
 66
1
  0
VERTEX
  8
0
 10
663.534058
 20
-336.678528
  0
VERTEX
  8
0
 10
665.534058
 20
-336.678528
  0
VERTEX
  8
0
 10
665.534058
 20
-348.678528
  0
VERTEX
  8
0
 10
663.534058
 20
-348.678528
  0
VERTEX
  8
0
 10
663.534058
 20
-336.678528
  0
SEQEND
  8
0
  0
POLYLINE
  8
0
 66
1
  0
VERTEX
  8
0
 10
666.034058
 20
-336.678528
  0
VERTEX
  8
0
 10
668.034058
 20
-336.678528
  0
VERTEX
  8
0
 10
668.034058
 20
-348.678528
  0
VERTEX
  8
0
 10
666.034058
 20
-348.678528
  0
VERTEX
  8
0
 10
666.034058
 20
-336.678528
  0
SEQEND
  8
0
  0
POLYLINE
  8
0
 66
1
  0
VERTEX
  8
0
 10
668.534058
 20
-336.678528
  0
VERTEX
  8
0
 10
670.534058
 20
-336.678528
  0
VERTEX
  8
0
 10
670.534058
 20
-348.678528
  0
VERTEX
  8
0
 10
668.534058
 20
-348.678528
  0
VERTEX
  8
0
 10
668.534058
 20
-336.678528
  0
SEQEND
  8
0
  0
POLYLINE
  8
0
 66
1
  0
VERTEX
  8
0
 10
678.534058
 20
-300.678528
  0
VERTEX
  8
0
 10
680.534058
 20
-300.678528
  0
VERTEX
  8
0
 10
680.534058
 20
-312.678528
  0
VERTEX
  8
0
 10
678.534058
 20
-312.678528
  0
VERTEX
  8
0
 10
678.534058
 20
-300.678528
  0
SEQEND
  8
0
  0
POLYLINE
  8
0
 66
1
  0
VERTEX
  8
0
 10
681.034058
 20
-300.678528
  0
VERTEX
  8
0
 10
683.034058
 20
-300.678528
  0
VERTEX
  8
0
 10
683.034058
 20
-312.678528
  0
VERTEX
  8
0
 10
681.034058
 20
-312.678528
  0
VERTEX
  8
0
 10
681.034058
 20
-300.678528
  0
SEQEND
  8
0
  0
POLYLINE
  8
0
 66
1
  0
VERTEX
  8
0
 10
683.534058
 20
-300.678528
  0
VERTEX
  8
0
 10
685.534058
 20
-300.678528
  0
VERTEX
  8
0
 10
685.534058
 20
-312.678528
  0
VERTEX
  8
0
 10
683.534058
 20
-312.678528
  0
VERTEX
  8
0
 10
683.534058
 20
-300.678528
  0
SEQEND
  8
0
  0
POLYLINE
  8
0
 66
1
  0
VERTEX
  8
0
 10
686.034058
 20
-300.678528
  0
VERTEX
  8
0
 10
688.034058
 20
-300.678528
  0
VERTEX
  8
0
 10
688.034058
 20
-312.678528
  0
VERTEX
  8
0
 10
686.034058
 20
-312.678528
  0
VERTEX
  8
0
 10
686.034058
 20
-300.678528
  0
SEQEND
  8
0
  0
POLYLINE
  8
0
 66
1
  0
VERTEX
  8
0
 10
688.534058
 20
-300.678528
  0
VERTEX
  8
0
 10
690.534058
 20
-300.678528
  0
VERTEX
  8
0
 10
690.534058
 20
-312.678528
  0
VERTEX
  8
0
 10
688.534058
 20
-312.678528
  0
VERTEX
  8
0
 10
688.534058
 20
-300.678528
  0
SEQEND
  8
0
  0
POLYLINE
  8
0
 66
1
  0
VERTEX
  8
0
 10
678.534058
 20
-318.678528
  0
VERTEX
  8
0
 10
680.534058
 20
-318.678528
  0
VERTEX
  8
0
 10
680.534058
 20
-330.678528
  0
VERTEX
  8
0
 10
678.534058
 20
-330.678528
  0
VERTEX
  8
0
 10
678.534058
 20
-318.678528
  0
SEQEND
  8
0
  0
POLYLINE
  8
0
 66
1
  0
VERTEX
  8
0
 10
681.034058
 20
-318.678528
  0
VERTEX
  8
0
 10
683.034058
 20
-318.678528
  0
VERTEX
  8
0
 10
683.034058
 20
-330.678528
  0
VERTEX
  8
0
 10
681.034058
 20
-330.678528
  0
VERTEX
  8
0
 10
681.034058
 20
-318.678528
  0
SEQEND
  8
0
  0
POLYLINE
  8
0
 66
1
  0
VERTEX
  8
0
 10
683.534058
 20
-318.678528
  0
VERTEX
  8
0
 10
685.534058
 20
-318.678528
  0
VERTEX
  8
0
 10
685.534058
 20
-330.678528
  0
VERTEX
  8
0
 10
683.534058
 20
-330.678528
  0
VERTEX
  8
0
 10
683.534058
 20
-318.678528
  0
SEQEND
  8
0
  0
POLYLINE
  8
0
 66
1
  0
VERTEX
  8
0
 10
686.034058
 20
-318.678528
  0
VERTEX
  8
0
 10
688.034058
 20
-318.678528
  0
VERTEX
  8
0
 10
688.034058
 20
-330.678528
  0
VERTEX
  8
0
 10
686.034058
 20
-330.678528
  0
VERTEX
  8
0
 10
686.034058
 20
-318.678528
  0
SEQEND
  8
0
  0
POLYLINE
  8
0
 66
1
  0
VERTEX
  8
0
 10
688.534058
 20
-318.678528
  0
VERTEX
  8
0
 10
690.534058
 20
-318.678528
  0
VERTEX
  8
0
 10
690.534058
 20
-330.678528
  0
VERTEX
  8
0
 10
688.534058
 20
-330.678528
  0
VERTEX
  8
0
 10
688.534058
 20
-318.678528
  0
SEQEND
  8
0
  0
POLYLINE
  8
0
 66
1
  0
VERTEX
  8
0
 10
678.534058
 20
-336.678528
  0
VERTEX
  8
0
 10
680.534058
 20
-336.678528
  0
VERTEX
  8
0
 10
680.534058
 20
-348.678528
  0
VERTEX
  8
0
 10
678.534058
 20
-348.678528
  0
VERTEX
  8
0
 10
678.534058
 20
-336.678528
  0
SEQEND
  8
0
  0
POLYLINE
  8
0
 66
1
  0
VERTEX
  8
0
 10
681.034058
 20
-336.678528
  0
VERTEX
  8
0
 10
683.034058
 20
-336.678528
  0
VERTEX
  8
0
 10
683.034058
 20
-348.678528
  0
VERTEX
  8
0
 10
681.034058
 20
-348.678528
  0
VERTEX
  8
0
 10
681.034058
 20
-336.678528
  0
SEQEND
  8
0
  0
POLYLINE
  8
0
 66
1
  0
VERTEX
  8
0
 10
683.534058
 20
-336.678528
  0
VERTEX
  8
0
 10
685.534058
 20
-336.678528
  0
VERTEX
  8
0
 10
685.534058
 20
-348.678528
  0
VERTEX
  8
0
 10
683.534058
 20
-348.678528
  0
VERTEX
  8
0
 10
683.534058
 20
-336.678528
  0
SEQEND
  8
0
  0
POLYLINE
  8
0
 66
1
  0
VERTEX
  8
0
 10
686.034058
 20
-336.678528
  0
VERTEX
  8
0
 10
688.034058
 20
-336.678528
  0
VERTEX
  8
0
 10
688.034058
 20
-348.678528
  0
VERTEX
  8
0
 10
686.034058
 20
-348.678528
  0
VERTEX
  8
0
 10
686.034058
 20
-336.678528
  0
SEQEND
  8
0
  0
POLYLINE
  8
0
 66
1
  0
VERTEX
  8
0
 10
688.534058
 20
-336.678528
  0
VERTEX
  8
0
 10
690.534058
 20
-336.678528
  0
VERTEX
  8
0
 10
690.534058
 20
-348.678528
  0
VERTEX
  8
0
 10
688.534058
 20
-348.678528
  0
VERTEX
  8
0
 10
688.534058
 20
-336.678528
  0
SEQEND
  8
0
  0
POLYLINE
  8
0
 66
1
  0
VERTEX
  8
0
 10
576.133972
 20
-224.028625
  0
VERTEX
  8
0
 10
576.133972
 20
-223.528564
  0
VERTEX
  8
0
 10
573.133972
 20
-223.528564
  0
VERTEX
  8
0
 10
573.133972
 20
-224.028625
  0
VERTEX
  8
0
 10
573.133972
 20
-226.128601
  0
VERTEX
  8
0
 10
574.134094
 20
-226.128601
  0
VERTEX
  8
0
 10
574.134094
 20
-229.128601
  0
VERTEX
  8
0
 10
573.134094
 20
-229.128601
  0
VERTEX
  8
0
 10
573.134094
 20
-232.128601
  0
VERTEX
  8
0
 10
576.134094
 20
-232.128601
  0
VERTEX
  8
0
 10
576.134094
 20
-229.128601
  0
VERTEX
  8
0
 10
575.134094
 20
-229.128601
  0
VERTEX
  8
0
 10
575.134094
 20
-226.128601
  0
VERTEX
  8
0
 10
576.133972
 20
-226.128601
  0
VERTEX
  8
0
 10
576.133972
 20
-224.028625
  0
SEQEND
  8
0
  0
POLYLINE
  8
0
 66
1
  0
VERTEX
  8
0
 10
581.133972
 20
-224.028625
  0
VERTEX
  8
0
 10
581.133972
 20
-223.528564
  0
VERTEX
  8
0
 10
578.133972
 20
-223.528564
  0
VERTEX
  8
0
 10
578.133972
 20
-224.028625
  0
VERTEX
  8
0
 10
578.133972
 20
-226.128601
  0
VERTEX
  8
0
 10
579.134094
 20
-226.128601
  0
VERTEX
  8
0
 10
579.134094
 20
-229.128601
  0
VERTEX
  8
0
 10
578.134094
 20
-229.128601
  0
VERTEX
  8
0
 10
578.134094
 20
-232.128601
  0
VERTEX
  8
0
 10
581.134094
 20
-232.128601
  0
VERTEX
  8
0
 10
581.134094
 20
-229.128601
  0
VERTEX
  8
0
 10
580.134094
 20
-229.128601
  0
VERTEX
  8
0
 10
580.134094
 20
-226.128601
  0
VERTEX
  8
0
 10
581.133972
 20
-226.128601
  0
VERTEX
  8
0
 10
581.133972
 20
-224.028625
  0
SEQEND
  8
0
  0
POLYLINE
  8
0
 66
1
  0
VERTEX
  8
0
 10
586.133972
 20
-224.028625
  0
VERTEX
  8
0
 10
586.133972
 20
-223.528564
  0
VERTEX
  8
0
 10
583.133972
 20
-223.528564
  0
VERTEX
  8
0
 10
583.133972
 20
-224.028625
  0
VERTEX
  8
0
 10
583.133972
 20
-226.128601
  0
VERTEX
  8
0
 10
584.134094
 20
-226.128601
  0
VERTEX
  8
0
 10
584.134094
 20
-229.128601
  0
VERTEX
  8
0
 10
583.134094
 20
-229.128601
  0
VERTEX
  8
0
 10
583.134094
 20
-232.128601
  0
VERTEX
  8
0
 10
586.134094
 20
-232.128601
  0
VERTEX
  8
0
 10
586.134094
 20
-229.128601
  0
VERTEX
  8
0
 10
585.134094
 20
-229.128601
  0
VERTEX
  8
0
 10
585.134094
 20
-226.128601
  0
VERTEX
  8
0
 10
586.133972
 20
-226.128601
  0
VERTEX
  8
0
 10
586.133972
 20
-224.028625
  0
SEQEND
  8
0
  0
POLYLINE
  8
0
 66
1
  0
VERTEX
  8
0
 10
576.133972
 20
-244.228577
  0
VERTEX
  8
0
 10
576.133972
 20
-244.728638
  0
VERTEX
  8
0
 10
573.133972
 20
-244.728638
  0
VERTEX
  8
0
 10
573.133972
 20
-244.228577
  0
VERTEX
  8
0
 10
573.133972
 20
-242.128601
  0
VERTEX
  8
0
 10
574.134094
 20
-242.128601
  0
VERTEX
  8
0
 10
574.134094
 20
-239.128601
  0
VERTEX
  8
0
 10
573.134094
 20
-239.128601
  0
VERTEX
  8
0
 10
573.134094
 20
-236.128601
  0
VERTEX
  8
0
 10
576.134094
 20
-236.128601
  0
VERTEX
  8
0
 10
576.134094
 20
-239.128601
  0
VERTEX
  8
0
 10
575.134094
 20
-239.128601
  0
VERTEX
  8
0
 10
575.134094
 20
-242.128601
  0
VERTEX
  8
0
 10
576.133972
 20
-242.128601
  0
VERTEX
  8
0
 10
576.133972
 20
-244.228577
  0
SEQEND
  8
0
  0
POLYLINE
  8
0
 66
1
  0
VERTEX
  8
0
 10
581.133972
 20
-244.228577
  0
VERTEX
  8
0
 10
581.133972
 20
-244.728638
  0
VERTEX
  8
0
 10
578.133972
 20
-244.728638
  0
VERTEX
  8
0
 10
578.133972
 20
-244.228577
  0
VERTEX
  8
0
 10
578.133972
 20
-242.128601
  0
VERTEX
  8
0
 10
579.134094
 20
-242.128601
  0
VERTEX
  8
0
 10
579.134094
 20
-239.128601
  0
VERTEX
  8
0
 10
578.134094
 20
-239.128601
  0
VERTEX
  8
0
 10
578.134094
 20
-236.128601
  0
VERTEX
  8
0
 10
581.134094
 20
-236.128601
  0
VERTEX
  8
0
 10
581.134094
 20
-239.128601
  0
VERTEX
  8
0
 10
580.134094
 20
-239.128601
  0
VERTEX
  8
0
 10
580.134094
 20
-242.128601
  0
VERTEX
  8
0
 10
581.133972
 20
-242.128601
  0
VERTEX
  8
0
 10
581.133972
 20
-244.228577
  0
SEQEND
  8
0
  0
POLYLINE
  8
0
 66
1
  0
VERTEX
  8
0
 10
586.133972
 20
-244.228577
  0
VERTEX
  8
0
 10
586.133972
 20
-244.728638
  0
VERTEX
  8
0
 10
583.133972
 20
-244.728638
  0
VERTEX
  8
0
 10
583.133972
 20
-244.228577
  0
VERTEX
  8
0
 10
583.133972
 20
-242.128601
  0
VERTEX
  8
0
 10
584.134094
 20
-242.128601
  0
VERTEX
  8
0
 10
584.134094
 20
-239.128601
  0
VERTEX
  8
0
 10
583.134094
 20
-239.128601
  0
VERTEX
  8
0
 10
583.134094
 20
-236.128601
  0
VERTEX
  8
0
 10
586.134094
 20
-236.128601
  0
VERTEX
  8
0
 10
586.134094
 20
-239.128601
  0
VERTEX
  8
0
 10
585.134094
 20
-239.128601
  0
VERTEX
  8
0
 10
585.134094
 20
-242.128601
  0
VERTEX
  8
0
 10
586.133972
 20
-242.128601
  0
VERTEX
  8
0
 10
586.133972
 20
-244.228577
  0
SEQEND
  8
0
  0
POLYLINE
  8
0
 66
1
  0
VERTEX
  8
0
 10
569.034180
 20
-229.128601
  0
VERTEX
  8
0
 10
571.634155
 20
-229.128601
  0
VERTEX
  8
0
 10
571.634155
 20
-239.128601
  0
VERTEX
  8
0
 10
569.034180
 20
-239.128601
  0
VERTEX
  8
0
 10
569.034180
 20
-229.128601
  0
SEQEND
  8
0
  0
POLYLINE
  8
0
 66
1
  0
VERTEX
  8
0
 10
590.234009
 20
-229.128601
  0
VERTEX
  8
0
 10
587.634033
 20
-229.128601
  0
VERTEX
  8
0
 10
587.634033
 20
-239.128601
  0
VERTEX
  8
0
 10
590.234009
 20
-239.128601
  0
VERTEX
  8
0
 10
590.234009
 20
-229.128601
  0
SEQEND
  8
0
  0
POLYLINE
  8
0
 66
1
  0
VERTEX
  8
0
 10
601.133972
 20
-224.028625
  0
VERTEX
  8
0
 10
601.133972
 20
-223.528564
  0
VERTEX
  8
0
 10
598.133972
 20
-223.528564
  0
VERTEX
  8
0
 10
598.133972
 20
-224.028625
  0
VERTEX
  8
0
 10
598.133972
 20
-226.128601
  0
VERTEX
  8
0
 10
599.134094
 20
-226.128601
  0
VERTEX
  8
0
 10
599.134094
 20
-229.128601
  0
VERTEX
  8
0
 10
598.134094
 20
-229.128601
  0
VERTEX
  8
0
 10
598.134094
 20
-232.128601
  0
VERTEX
  8
0
 10
601.134094
 20
-232.128601
  0
VERTEX
  8
0
 10
601.134094
 20
-229.128601
  0
VERTEX
  8
0
 10
600.134094
 20
-229.128601
  0
VERTEX
  8
0
 10
600.134094
 20
-226.128601
  0
VERTEX
  8
0
 10
601.133972
 20
-226.128601
  0
VERTEX
  8
0
 10
601.133972
 20
-224.028625
  0
SEQEND
  8
0
  0
POLYLINE
  8
0
 66
1
  0
VERTEX
  8
0
 10
606.133972
 20
-224.028625
  0
VERTEX
  8
0
 10
606.133972
 20
-223.528564
  0
VERTEX
  8
0
 10
603.133972
 20
-223.528564
  0
VERTEX
  8
0
 10
603.133972
 20
-224.028625
  0
VERTEX
  8
0
 10
603.133972
 20
-226.128601
  0
VERTEX
  8
0
 10
604.134094
 20
-226.128601
  0
VERTEX
  8
0
 10
604.134094
 20
-229.128601
  0
VERTEX
  8
0
 10
603.134094
 20
-229.128601
  0
VERTEX
  8
0
 10
603.134094
 20
-232.128601
  0
VERTEX
  8
0
 10
606.134094
 20
-232.128601
  0
VERTEX
  8
0
 10
606.134094
 20
-229.128601
  0
VERTEX
  8
0
 10
605.134094
 20
-229.128601
  0
VERTEX
  8
0
 10
605.134094
 20
-226.128601
  0
VERTEX
  8
0
 10
606.133972
 20
-226.128601
  0
VERTEX
  8
0
 10
606.133972
 20
-224.028625
  0
SEQEND
  8
0
  0
POLYLINE
  8
0
 66
1
  0
VERTEX
  8
0
 10
611.133972
 20
-224.028625
  0
VERTEX
  8
0
 10
611.133972
 20
-223.528564
  0
VERTEX
  8
0
 10
608.133972
 20
-223.528564
  0
VERTEX
  8
0
 10
608.133972
 20
-224.028625
  0
VERTEX
  8
0
 10
608.133972
 20
-226.128601
  0
VERTEX
  8
0
 10
609.134094
 20
-226.128601
  0
VERTEX
  8
0
 10
609.134094
 20
-229.128601
  0
VERTEX
  8
0
 10
608.134094
 20
-229.128601
  0
VERTEX
  8
0
 10
608.134094
 20
-232.128601
  0
VERTEX
  8
0
 10
611.134094
 20
-232.128601
  0
VERTEX
  8
0
 10
611.134094
 20
-229.128601
  0
VERTEX
  8
0
 10
610.134094
 20
-229.128601
  0
VERTEX
  8
0
 10
610.134094
 20
-226.128601
  0
VERTEX
  8
0
 10
611.133972
 20
-226.128601
  0
VERTEX
  8
0
 10
611.133972
 20
-224.028625
  0
SEQEND
  8
0
  0
POLYLINE
  8
0
 66
1
  0
VERTEX
  8
0
 10
601.133972
 20
-244.228577
  0
VERTEX
  8
0
 10
601.133972
 20
-244.728638
  0
VERTEX
  8
0
 10
598.133972
 20
-244.728638
  0
VERTEX
  8
0
 10
598.133972
 20
-244.228577
  0
VERTEX
  8
0
 10
598.133972
 20
-242.128601
  0
VERTEX
  8
0
 10
599.134094
 20
-242.128601
  0
VERTEX
  8
0
 10
599.134094
 20
-239.128601
  0
VERTEX
  8
0
 10
598.134094
 20
-239.128601
  0
VERTEX
  8
0
 10
598.134094
 20
-236.128601
  0
VERTEX
  8
0
 10
601.134094
 20
-236.128601
  0
VERTEX
  8
0
 10
601.134094
 20
-239.128601
  0
VERTEX
  8
0
 10
600.134094
 20
-239.128601
  0
VERTEX
  8
0
 10
600.134094
 20
-242.128601
  0
VERTEX
  8
0
 10
601.133972
 20
-242.128601
  0
VERTEX
  8
0
 10
601.133972
 20
-244.228577
  0
SEQEND
  8
0
  0
POLYLINE
  8
0
 66
1
  0
VERTEX
  8
0
 10
606.133972
 20
-244.228577
  0
VERTEX
  8
0
 10
606.133972
 20
-244.728638
  0
VERTEX
  8
0
 10
603.133972
 20
-244.728638
  0
VERTEX
  8
0
 10
603.133972
 20
-244.228577
  0
VERTEX
  8
0
 10
603.133972
 20
-242.128601
  0
VERTEX
  8
0
 10
604.134094
 20
-242.128601
  0
VERTEX
  8
0
 10
604.134094
 20
-239.128601
  0
VERTEX
  8
0
 10
603.134094
 20
-239.128601
  0
VERTEX
  8
0
 10
603.134094
 20
-236.128601
  0
VERTEX
  8
0
 10
606.134094
 20
-236.128601
  0
VERTEX
  8
0
 10
606.134094
 20
-239.128601
  0
VERTEX
  8
0
 10
605.134094
 20
-239.128601
  0
VERTEX
  8
0
 10
605.134094
 20
-242.128601
  0
VERTEX
  8
0
 10
606.133972
 20
-242.128601
  0
VERTEX
  8
0
 10
606.133972
 20
-244.228577
  0
SEQEND
  8
0
  0
POLYLINE
  8
0
 66
1
  0
VERTEX
  8
0
 10
611.133972
 20
-244.228577
  0
VERTEX
  8
0
 10
611.133972
 20
-244.728638
  0
VERTEX
  8
0
 10
608.133972
 20
-244.728638
  0
VERTEX
  8
0
 10
608.133972
 20
-244.228577
  0
VERTEX
  8
0
 10
608.133972
 20
-242.128601
  0
VERTEX
  8
0
 10
609.134094
 20
-242.128601
  0
VERTEX
  8
0
 10
609.134094
 20
-239.128601
  0
VERTEX
  8
0
 10
608.134094
 20
-239.128601
  0
VERTEX
  8
0
 10
608.134094
 20
-236.128601
  0
VERTEX
  8
0
 10
611.134094
 20
-236.128601
  0
VERTEX
  8
0
 10
611.134094
 20
-239.128601
  0
VERTEX
  8
0
 10
610.134094
 20
-239.128601
  0
VERTEX
  8
0
 10
610.134094
 20
-242.128601
  0
VERTEX
  8
0
 10
611.133972
 20
-242.128601
  0
VERTEX
  8
0
 10
611.133972
 20
-244.228577
  0
SEQEND
  8
0
  0
POLYLINE
  8
0
 66
1
  0
VERTEX
  8
0
 10
594.034180
 20
-229.128601
  0
VERTEX
  8
0
 10
596.634155
 20
-229.128601
  0
VERTEX
  8
0
 10
596.634155
 20
-239.128601
  0
VERTEX
  8
0
 10
594.034180
 20
-239.128601
  0
VERTEX
  8
0
 10
594.034180
 20
-229.128601
  0
SEQEND
  8
0
  0
POLYLINE
  8
0
 66
1
  0
VERTEX
  8
0
 10
615.234009
 20
-229.128601
  0
VERTEX
  8
0
 10
612.634033
 20
-229.128601
  0
VERTEX
  8
0
 10
612.634033
 20
-239.128601
  0
VERTEX
  8
0
 10
615.234009
 20
-239.128601
  0
VERTEX
  8
0
 10
615.234009
 20
-229.128601
  0
SEQEND
  8
0
  0
POLYLINE
  8
0
 66
1
  0
VERTEX
  8
0
 10
576.133972
 20
-249.028625
  0
VERTEX
  8
0
 10
576.133972
 20
-248.528564
  0
VERTEX
  8
0
 10
573.133972
 20
-248.528564
  0
VERTEX
  8
0
 10
573.133972
 20
-249.028625
  0
VERTEX
  8
0
 10
573.133972
 20
-251.128601
  0
VERTEX
  8
0
 10
574.134094
 20
-251.128601
  0
VERTEX
  8
0
 10
574.134094
 20
-254.128601
  0
VERTEX
  8
0
 10
573.134094
 20
-254.128601
  0
VERTEX
  8
0
 10
573.134094
 20
-257.128601
  0
VERTEX
  8
0
 10
576.134094
 20
-257.128601
  0
VERTEX
  8
0
 10
576.134094
 20
-254.128601
  0
VERTEX
  8
0
 10
575.134094
 20
-254.128601
  0
VERTEX
  8
0
 10
575.134094
 20
-251.128601
  0
VERTEX
  8
0
 10
576.133972
 20
-251.128601
  0
VERTEX
  8
0
 10
576.133972
 20
-249.028625
  0
SEQEND
  8
0
  0
POLYLINE
  8
0
 66
1
  0
VERTEX
  8
0
 10
581.133972
 20
-249.028625
  0
VERTEX
  8
0
 10
581.133972
 20
-248.528564
  0
VERTEX
  8
0
 10
578.133972
 20
-248.528564
  0
VERTEX
  8
0
 10
578.133972
 20
-249.028625
  0
VERTEX
  8
0
 10
578.133972
 20
-251.128601
  0
VERTEX
  8
0
 10
579.134094
 20
-251.128601
  0
VERTEX
  8
0
 10
579.134094
 20
-254.128601
  0
VERTEX
  8
0
 10
578.134094
 20
-254.128601
  0
VERTEX
  8
0
 10
578.134094
 20
-257.128601
  0
VERTEX
  8
0
 10
581.134094
 20
-257.128601
  0
VERTEX
  8
0
 10
581.134094
 20
-254.128601
  0
VERTEX
  8
0
 10
580.134094
 20
-254.128601
  0
VERTEX
  8
0
 10
580.134094
 20
-251.128601
  0
VERTEX
  8
0
 10
581.133972
 20
-251.128601
  0
VERTEX
  8
0
 10
581.133972
 20
-249.028625
  0
SEQEND
  8
0
  0
POLYLINE
  8
0
 66
1
  0
VERTEX
  8
0
 10
586.133972
 20
-249.028625
  0
VERTEX
  8
0
 10
586.133972
 20
-248.528564
  0
VERTEX
  8
0
 10
583.133972
 20
-248.528564
  0
VERTEX
  8
0
 10
583.133972
 20
-249.028625
  0
VERTEX
  8
0
 10
583.133972
 20
-251.128601
  0
VERTEX
  8
0
 10
584.134094
 20
-251.128601
  0
VERTEX
  8
0
 10
584.134094
 20
-254.128601
  0
VERTEX
  8
0
 10
583.134094
 20
-254.128601
  0
VERTEX
  8
0
 10
583.134094
 20
-257.128601
  0
VERTEX
  8
0
 10
586.134094
 20
-257.128601
  0
VERTEX
  8
0
 10
586.134094
 20
-254.128601
  0
VERTEX
  8
0
 10
585.134094
 20
-254.128601
  0
VERTEX
  8
0
 10
585.134094
 20
-251.128601
  0
VERTEX
  8
0
 10
586.133972
 20
-251.128601
  0
VERTEX
  8
0
 10
586.133972
 20
-249.028625
  0
SEQEND
  8
0
  0
POLYLINE
  8
0
 66
1
  0
VERTEX
  8
0
 10
576.133972
 20
-269.228577
  0
VERTEX
  8
0
 10
576.133972
 20
-269.728638
  0
VERTEX
  8
0
 10
573.133972
 20
-269.728638
  0
VERTEX
  8
0
 10
573.133972
 20
-269.228577
  0
VERTEX
  8
0
 10
573.133972
 20
-267.128601
  0
VERTEX
  8
0
 10
574.134094
 20
-267.128601
  0
VERTEX
  8
0
 10
574.134094
 20
-264.128601
  0
VERTEX
  8
0
 10
573.134094
 20
-264.128601
  0
VERTEX
  8
0
 10
573.134094
 20
-261.128601
  0
VERTEX
  8
0
 10
576.134094
 20
-261.128601
  0
VERTEX
  8
0
 10
576.134094
 20
-264.128601
  0
VERTEX
  8
0
 10
575.134094
 20
-264.128601
  0
VERTEX
  8
0
 10
575.134094
 20
-267.128601
  0
VERTEX
  8
0
 10
576.133972
 20
-267.128601
  0
VERTEX
  8
0
 10
576.133972
 20
-269.228577
  0
SEQEND
  8
0
  0
POLYLINE
  8
0
 66
1
  0
VERTEX
  8
0
 10
581.133972
 20
-269.228577
  0
VERTEX
  8
0
 10
581.133972
 20
-269.728638
  0
VERTEX
  8
0
 10
578.133972
 20
-269.728638
  0
VERTEX
  8
0
 10
578.133972
 20
-269.228577
  0
VERTEX
  8
0
 10
578.133972
 20
-267.128601
  0
VERTEX
  8
0
 10
579.134094
 20
-267.128601
  0
VERTEX
  8
0
 10
579.134094
 20
-264.128601
  0
VERTEX
  8
0
 10
578.134094
 20
-264.128601
  0
VERTEX
  8
0
 10
578.134094
 20
-261.128601
  0
VERTEX
  8
0
 10
581.134094
 20
-261.128601
  0
VERTEX
  8
0
 10
581.134094
 20
-264.128601
  0
VERTEX
  8
0
 10
580.134094
 20
-264.128601
  0
VERTEX
  8
0
 10
580.134094
 20
-267.128601
  0
VERTEX
  8
0
 10
581.133972
 20
-267.128601
  0
VERTEX
  8
0
 10
581.133972
 20
-269.228577
  0
SEQEND
  8
0
  0
POLYLINE
  8
0
 66
1
  0
VERTEX
  8
0
 10
586.133972
 20
-269.228577
  0
VERTEX
  8
0
 10
586.133972
 20
-269.728638
  0
VERTEX
  8
0
 10
583.133972
 20
-269.728638
  0
VERTEX
  8
0
 10
583.133972
 20
-269.228577
  0
VERTEX
  8
0
 10
583.133972
 20
-267.128601
  0
VERTEX
  8
0
 10
584.134094
 20
-267.128601
  0
VERTEX
  8
0
 10
584.134094
 20
-264.128601
  0
VERTEX
  8
0
 10
583.134094
 20
-264.128601
  0
VERTEX
  8
0
 10
583.134094
 20
-261.128601
  0
VERTEX
  8
0
 10
586.134094
 20
-261.128601
  0
VERTEX
  8
0
 10
586.134094
 20
-264.128601
  0
VERTEX
  8
0
 10
585.134094
 20
-264.128601
  0
VERTEX
  8
0
 10
585.134094
 20
-267.128601
  0
VERTEX
  8
0
 10
586.133972
 20
-267.128601
  0
VERTEX
  8
0
 10
586.133972
 20
-269.228577
  0
SEQEND
  8
0
  0
POLYLINE
  8
0
 66
1
  0
VERTEX
  8
0
 10
569.034180
 20
-254.128601
  0
VERTEX
  8
0
 10
571.634155
 20
-254.128601
  0
VERTEX
  8
0
 10
571.634155
 20
-264.128601
  0
VERTEX
  8
0
 10
569.034180
 20
-264.128601
  0
VERTEX
  8
0
 10
569.034180
 20
-254.128601
  0
SEQEND
  8
0
  0
POLYLINE
  8
0
 66
1
  0
VERTEX
  8
0
 10
590.234009
 20
-254.128601
  0
VERTEX
  8
0
 10
587.634033
 20
-254.128601
  0
VERTEX
  8
0
 10
587.634033
 20
-264.128601
  0
VERTEX
  8
0
 10
590.234009
 20
-264.128601
  0
VERTEX
  8
0
 10
590.234009
 20
-254.128601
  0
SEQEND
  8
0
  0
POLYLINE
  8
0
 66
1
  0
VERTEX
  8
0
 10
601.133972
 20
-249.028625
  0
VERTEX
  8
0
 10
601.133972
 20
-248.528564
  0
VERTEX
  8
0
 10
598.133972
 20
-248.528564
  0
VERTEX
  8
0
 10
598.133972
 20
-249.028625
  0
VERTEX
  8
0
 10
598.133972
 20
-251.128601
  0
VERTEX
  8
0
 10
599.134094
 20
-251.128601
  0
VERTEX
  8
0
 10
599.134094
 20
-254.128601
  0
VERTEX
  8
0
 10
598.134094
 20
-254.128601
  0
VERTEX
  8
0
 10
598.134094
 20
-257.128601
  0
VERTEX
  8
0
 10
601.134094
 20
-257.128601
  0
VERTEX
  8
0
 10
601.134094
 20
-254.128601
  0
VERTEX
  8
0
 10
600.134094
 20
-254.128601
  0
VERTEX
  8
0
 10
600.134094
 20
-251.128601
  0
VERTEX
  8
0
 10
601.133972
 20
-251.128601
  0
VERTEX
  8
0
 10
601.133972
 20
-249.028625
  0
SEQEND
  8
0
  0
POLYLINE
  8
0
 66
1
  0
VERTEX
  8
0
 10
606.133972
 20
-249.028625
  0
VERTEX
  8
0
 10
606.133972
 20
-248.528564
  0
VERTEX
  8
0
 10
603.133972
 20
-248.528564
  0
VERTEX
  8
0
 10
603.133972
 20
-249.028625
  0
VERTEX
  8
0
 10
603.133972
 20
-251.128601
  0
VERTEX
  8
0
 10
604.134094
 20
-251.128601
  0
VERTEX
  8
0
 10
604.134094
 20
-254.128601
  0
VERTEX
  8
0
 10
603.134094
 20
-254.128601
  0
VERTEX
  8
0
 10
603.134094
 20
-257.128601
  0
VERTEX
  8
0
 10
606.134094
 20
-257.128601
  0
VERTEX
  8
0
 10
606.134094
 20
-254.128601
  0
VERTEX
  8
0
 10
605.134094
 20
-254.128601
  0
VERTEX
  8
0
 10
605.134094
 20
-251.128601
  0
VERTEX
  8
0
 10
606.133972
 20
-251.128601
  0
VERTEX
  8
0
 10
606.133972
 20
-249.028625
  0
SEQEND
  8
0
  0
POLYLINE
  8
0
 66
1
  0
VERTEX
  8
0
 10
611.133972
 20
-249.028625
  0
VERTEX
  8
0
 10
611.133972
 20
-248.528564
  0
VERTEX
  8
0
 10
608.133972
 20
-248.528564
  0
VERTEX
  8
0
 10
608.133972
 20
-249.028625
  0
VERTEX
  8
0
 10
608.133972
 20
-251.128601
  0
VERTEX
  8
0
 10
609.134094
 20
-251.128601
  0
VERTEX
  8
0
 10
609.134094
 20
-254.128601
  0
VERTEX
  8
0
 10
608.134094
 20
-254.128601
  0
VERTEX
  8
0
 10
608.134094
 20
-257.128601
  0
VERTEX
  8
0
 10
611.134094
 20
-257.128601
  0
VERTEX
  8
0
 10
611.134094
 20
-254.128601
  0
VERTEX
  8
0
 10
610.134094
 20
-254.128601
  0
VERTEX
  8
0
 10
610.134094
 20
-251.128601
  0
VERTEX
  8
0
 10
611.133972
 20
-251.128601
  0
VERTEX
  8
0
 10
611.133972
 20
-249.028625
  0
SEQEND
  8
0
  0
POLYLINE
  8
0
 66
1
  0
VERTEX
  8
0
 10
601.133972
 20
-269.228577
  0
VERTEX
  8
0
 10
601.133972
 20
-269.728638
  0
VERTEX
  8
0
 10
598.133972
 20
-269.728638
  0
VERTEX
  8
0
 10
598.133972
 20
-269.228577
  0
VERTEX
  8
0
 10
598.133972
 20
-267.128601
  0
VERTEX
  8
0
 10
599.134094
 20
-267.128601
  0
VERTEX
  8
0
 10
599.134094
 20
-264.128601
  0
VERTEX
  8
0
 10
598.134094
 20
-264.128601
  0
VERTEX
  8
0
 10
598.134094
 20
-261.128601
  0
VERTEX
  8
0
 10
601.134094
 20
-261.128601
  0
VERTEX
  8
0
 10
601.134094
 20
-264.128601
  0
VERTEX
  8
0
 10
600.134094
 20
-264.128601
  0
VERTEX
  8
0
 10
600.134094
 20
-267.128601
  0
VERTEX
  8
0
 10
601.133972
 20
-267.128601
  0
VERTEX
  8
0
 10
601.133972
 20
-269.228577
  0
SEQEND
  8
0
  0
POLYLINE
  8
0
 66
1
  0
VERTEX
  8
0
 10
606.133972
 20
-269.228577
  0
VERTEX
  8
0
 10
606.133972
 20
-269.728638
  0
VERTEX
  8
0
 10
603.133972
 20
-269.728638
  0
VERTEX
  8
0
 10
603.133972
 20
-269.228577
  0
VERTEX
  8
0
 10
603.133972
 20
-267.128601
  0
VERTEX
  8
0
 10
604.134094
 20
-267.128601
  0
VERTEX
  8
0
 10
604.134094
 20
-264.128601
  0
VERTEX
  8
0
 10
603.134094
 20
-264.128601
  0
VERTEX
  8
0
 10
603.134094
 20
-261.128601
  0
VERTEX
  8
0
 10
606.134094
 20
-261.128601
  0
VERTEX
  8
0
 10
606.134094
 20
-264.128601
  0
VERTEX
  8
0
 10
605.134094
 20
-264.128601
  0
VERTEX
  8
0
 10
605.134094
 20
-267.128601
  0
VERTEX
  8
0
 10
606.133972
 20
-267.128601
  0
VERTEX
  8
0
 10
606.133972
 20
-269.228577
  0
SEQEND
  8
0
  0
POLYLINE
  8
0
 66
1
  0
VERTEX
  8
0
 10
611.133972
 20
-269.228577
  0
VERTEX
  8
0
 10
611.133972
 20
-269.728638
  0
VERTEX
  8
0
 10
608.133972
 20
-269.728638
  0
VERTEX
  8
0
 10
608.133972
 20
-269.228577
  0
VERTEX
  8
0
 10
608.133972
 20
-267.128601
  0
VERTEX
  8
0
 10
609.134094
 20
-267.128601
  0
VERTEX
  8
0
 10
609.134094
 20
-264.128601
  0
VERTEX
  8
0
 10
608.134094
 20
-264.128601
  0
VERTEX
  8
0
 10
608.134094
 20
-261.128601
  0
VERTEX
  8
0
 10
611.134094
 20
-261.128601
  0
VERTEX
  8
0
 10
611.134094
 20
-264.128601
  0
VERTEX
  8
0
 10
610.134094
 20
-264.128601
  0
VERTEX
  8
0
 10
610.134094
 20
-267.128601
  0
VERTEX
  8
0
 10
611.133972
 20
-267.128601
  0
VERTEX
  8
0
 10
611.133972
 20
-269.228577
  0
SEQEND
  8
0
  0
POLYLINE
  8
0
 66
1
  0
VERTEX
  8
0
 10
594.034180
 20
-254.128601
  0
VERTEX
  8
0
 10
596.634155
 20
-254.128601
  0
VERTEX
  8
0
 10
596.634155
 20
-264.128601
  0
VERTEX
  8
0
 10
594.034180
 20
-264.128601
  0
VERTEX
  8
0
 10
594.034180
 20
-254.128601
  0
SEQEND
  8
0
  0
POLYLINE
  8
0
 66
1
  0
VERTEX
  8
0
 10
615.234009
 20
-254.128601
  0
VERTEX
  8
0
 10
612.634033
 20
-254.128601
  0
VERTEX
  8
0
 10
612.634033
 20
-264.128601
  0
VERTEX
  8
0
 10
615.234009
 20
-264.128601
  0
VERTEX
  8
0
 10
615.234009
 20
-254.128601
  0
SEQEND
  8
0
  0
POLYLINE
  8
0
 66
1
  0
VERTEX
  8
0
 10
576.133972
 20
-274.028625
  0
VERTEX
  8
0
 10
576.133972
 20
-273.528564
  0
VERTEX
  8
0
 10
573.133972
 20
-273.528564
  0
VERTEX
  8
0
 10
573.133972
 20
-274.028625
  0
VERTEX
  8
0
 10
573.133972
 20
-276.128601
  0
VERTEX
  8
0
 10
574.134094
 20
-276.128601
  0
VERTEX
  8
0
 10
574.134094
 20
-279.128601
  0
VERTEX
  8
0
 10
573.134094
 20
-279.128601
  0
VERTEX
  8
0
 10
573.134094
 20
-282.128601
  0
VERTEX
  8
0
 10
576.134094
 20
-282.128601
  0
VERTEX
  8
0
 10
576.134094
 20
-279.128601
  0
VERTEX
  8
0
 10
575.134094
 20
-279.128601
  0
VERTEX
  8
0
 10
575.134094
 20
-276.128601
  0
VERTEX
  8
0
 10
576.133972
 20
-276.128601
  0
VERTEX
  8
0
 10
576.133972
 20
-274.028625
  0
SEQEND
  8
0
  0
POLYLINE
  8
0
 66
1
  0
VERTEX
  8
0
 10
581.133972
 20
-274.028625
  0
VERTEX
  8
0
 10
581.133972
 20
-273.528564
  0
VERTEX
  8
0
 10
578.133972
 20
-273.528564
  0
VERTEX
  8
0
 10
578.133972
 20
-274.028625
  0
VERTEX
  8
0
 10
578.133972
 20
-276.128601
  0
VERTEX
  8
0
 10
579.134094
 20
-276.128601
  0
VERTEX
  8
0
 10
579.134094
 20
-279.128601
  0
VERTEX
  8
0
 10
578.134094
 20
-279.128601
  0
VERTEX
  8
0
 10
578.134094
 20
-282.128601
  0
VERTEX
  8
0
 10
581.134094
 20
-282.128601
  0
VERTEX
  8
0
 10
581.134094
 20
-279.128601
  0
VERTEX
  8
0
 10
580.134094
 20
-279.128601
  0
VERTEX
  8
0
 10
580.134094
 20
-276.128601
  0
VERTEX
  8
0
 10
581.133972
 20
-276.128601
  0
VERTEX
  8
0
 10
581.133972
 20
-274.028625
  0
SEQEND
  8
0
  0
POLYLINE
  8
0
 66
1
  0
VERTEX
  8
0
 10
586.133972
 20
-274.028625
  0
VERTEX
  8
0
 10
586.133972
 20
-273.528564
  0
VERTEX
  8
0
 10
583.133972
 20
-273.528564
  0
VERTEX
  8
0
 10
583.133972
 20
-274.028625
  0
VERTEX
  8
0
 10
583.133972
 20
-276.128601
  0
VERTEX
  8
0
 10
584.134094
 20
-276.128601
  0
VERTEX
  8
0
 10
584.134094
 20
-279.128601
  0
VERTEX
  8
0
 10
583.134094
 20
-279.128601
  0
VERTEX
  8
0
 10
583.134094
 20
-282.128601
  0
VERTEX
  8
0
 10
586.134094
 20
-282.128601
  0
VERTEX
  8
0
 10
586.134094
 20
-279.128601
  0
VERTEX
  8
0
 10
585.134094
 20
-279.128601
  0
VERTEX
  8
0
 10
585.134094
 20
-276.128601
  0
VERTEX
  8
0
 10
586.133972
 20
-276.128601
  0
VERTEX
  8
0
 10
586.133972
 20
-274.028625
  0
SEQEND
  8
0
  0
POLYLINE
  8
0
 66
1
  0
VERTEX
  8
0
 10
576.133972
 20
-294.228577
  0
VERTEX
  8
0
 10
576.133972
 20
-294.728638
  0
VERTEX
  8
0
 10
573.133972
 20
-294.728638
  0
VERTEX
  8
0
 10
573.133972
 20
-294.228577
  0
VERTEX
  8
0
 10
573.133972
 20
-292.128601
  0
VERTEX
  8
0
 10
574.134094
 20
-292.128601
  0
VERTEX
  8
0
 10
574.134094
 20
-289.128601
  0
VERTEX
  8
0
 10
573.134094
 20
-289.128601
  0
VERTEX
  8
0
 10
573.134094
 20
-286.128601
  0
VERTEX
  8
0
 10
576.134094
 20
-286.128601
  0
VERTEX
  8
0
 10
576.134094
 20
-289.128601
  0
VERTEX
  8
0
 10
575.134094
 20
-289.128601
  0
VERTEX
  8
0
 10
575.134094
 20
-292.128601
  0
VERTEX
  8
0
 10
576.133972
 20
-292.128601
  0
VERTEX
  8
0
 10
576.133972
 20
-294.228577
  0
SEQEND
  8
0
  0
POLYLINE
  8
0
 66
1
  0
VERTEX
  8
0
 10
581.133972
 20
-294.228577
  0
VERTEX
  8
0
 10
581.133972
 20
-294.728638
  0
VERTEX
  8
0
 10
578.133972
 20
-294.728638
  0
VERTEX
  8
0
 10
578.133972
 20
-294.228577
  0
VERTEX
  8
0
 10
578.133972
 20
-292.128601
  0
VERTEX
  8
0
 10
579.134094
 20
-292.128601
  0
VERTEX
  8
0
 10
579.134094
 20
-289.128601
  0
VERTEX
  8
0
 10
578.134094
 20
-289.128601
  0
VERTEX
  8
0
 10
578.134094
 20
-286.128601
  0
VERTEX
  8
0
 10
581.134094
 20
-286.128601
  0
VERTEX
  8
0
 10
581.134094
 20
-289.128601
  0
VERTEX
  8
0
 10
580.134094
 20
-289.128601
  0
VERTEX
  8
0
 10
580.134094
 20
-292.128601
  0
VERTEX
  8
0
 10
581.133972
 20
-292.128601
  0
VERTEX
  8
0
 10
581.133972
 20
-294.228577
  0
SEQEND
  8
0
  0
POLYLINE
  8
0
 66
1
  0
VERTEX
  8
0
 10
586.133972
 20
-294.228577
  0
VERTEX
  8
0
 10
586.133972
 20
-294.728638
  0
VERTEX
  8
0
 10
583.133972
 20
-294.728638
  0
VERTEX
  8
0
 10
583.133972
 20
-294.228577
  0
VERTEX
  8
0
 10
583.133972
 20
-292.128601
  0
VERTEX
  8
0
 10
584.134094
 20
-292.128601
  0
VERTEX
  8
0
 10
584.134094
 20
-289.128601
  0
VERTEX
  8
0
 10
583.134094
 20
-289.128601
  0
VERTEX
  8
0
 10
583.134094
 20
-286.128601
  0
VERTEX
  8
0
 10
586.134094
 20
-286.128601
  0
VERTEX
  8
0
 10
586.134094
 20
-289.128601
  0
VERTEX
  8
0
 10
585.134094
 20
-289.128601
  0
VERTEX
  8
0
 10
585.134094
 20
-292.128601
  0
VERTEX
  8
0
 10
586.133972
 20
-292.128601
  0
VERTEX
  8
0
 10
586.133972
 20
-294.228577
  0
SEQEND
  8
0
  0
POLYLINE
  8
0
 66
1
  0
VERTEX
  8
0
 10
569.034180
 20
-279.128601
  0
VERTEX
  8
0
 10
571.634155
 20
-279.128601
  0
VERTEX
  8
0
 10
571.634155
 20
-289.128601
  0
VERTEX
  8
0
 10
569.034180
 20
-289.128601
  0
VERTEX
  8
0
 10
569.034180
 20
-279.128601
  0
SEQEND
  8
0
  0
POLYLINE
  8
0
 66
1
  0
VERTEX
  8
0
 10
590.234009
 20
-279.128601
  0
VERTEX
  8
0
 10
587.634033
 20
-279.128601
  0
VERTEX
  8
0
 10
587.634033
 20
-289.128601
  0
VERTEX
  8
0
 10
590.234009
 20
-289.128601
  0
VERTEX
  8
0
 10
590.234009
 20
-279.128601
  0
SEQEND
  8
0
  0
POLYLINE
  8
0
 66
1
  0
VERTEX
  8
0
 10
601.133972
 20
-274.028625
  0
VERTEX
  8
0
 10
601.133972
 20
-273.528564
  0
VERTEX
  8
0
 10
598.133972
 20
-273.528564
  0
VERTEX
  8
0
 10
598.133972
 20
-274.028625
  0
VERTEX
  8
0
 10
598.133972
 20
-276.128601
  0
VERTEX
  8
0
 10
599.134094
 20
-276.128601
  0
VERTEX
  8
0
 10
599.134094
 20
-279.128601
  0
VERTEX
  8
0
 10
598.134094
 20
-279.128601
  0
VERTEX
  8
0
 10
598.134094
 20
-282.128601
  0
VERTEX
  8
0
 10
601.134094
 20
-282.128601
  0
VERTEX
  8
0
 10
601.134094
 20
-279.128601
  0
VERTEX
  8
0
 10
600.134094
 20
-279.128601
  0
VERTEX
  8
0
 10
600.134094
 20
-276.128601
  0
VERTEX
  8
0
 10
601.133972
 20
-276.128601
  0
VERTEX
  8
0
 10
601.133972
 20
-274.028625
  0
SEQEND
  8
0
  0
POLYLINE
  8
0
 66
1
  0
VERTEX
  8
0
 10
606.133972
 20
-274.028625
  0
VERTEX
  8
0
 10
606.133972
 20
-273.528564
  0
VERTEX
  8
0
 10
603.133972
 20
-273.528564
  0
VERTEX
  8
0
 10
603.133972
 20
-274.028625
  0
VERTEX
  8
0
 10
603.133972
 20
-276.128601
  0
VERTEX
  8
0
 10
604.134094
 20
-276.128601
  0
VERTEX
  8
0
 10
604.134094
 20
-279.128601
  0
VERTEX
  8
0
 10
603.134094
 20
-279.128601
  0
VERTEX
  8
0
 10
603.134094
 20
-282.128601
  0
VERTEX
  8
0
 10
606.134094
 20
-282.128601
  0
VERTEX
  8
0
 10
606.134094
 20
-279.128601
  0
VERTEX
  8
0
 10
605.134094
 20
-279.128601
  0
VERTEX
  8
0
 10
605.134094
 20
-276.128601
  0
VERTEX
  8
0
 10
606.133972
 20
-276.128601
  0
VERTEX
  8
0
 10
606.133972
 20
-274.028625
  0
SEQEND
  8
0
  0
POLYLINE
  8
0
 66
1
  0
VERTEX
  8
0
 10
611.133972
 20
-274.028625
  0
VERTEX
  8
0
 10
611.133972
 20
-273.528564
  0
VERTEX
  8
0
 10
608.133972
 20
-273.528564
  0
VERTEX
  8
0
 10
608.133972
 20
-274.028625
  0
VERTEX
  8
0
 10
608.133972
 20
-276.128601
  0
VERTEX
  8
0
 10
609.134094
 20
-276.128601
  0
VERTEX
  8
0
 10
609.134094
 20
-279.128601
  0
VERTEX
  8
0
 10
608.134094
 20
-279.128601
  0
VERTEX
  8
0
 10
608.134094
 20
-282.128601
  0
VERTEX
  8
0
 10
611.134094
 20
-282.128601
  0
VERTEX
  8
0
 10
611.134094
 20
-279.128601
  0
VERTEX
  8
0
 10
610.134094
 20
-279.128601
  0
VERTEX
  8
0
 10
610.134094
 20
-276.128601
  0
VERTEX
  8
0
 10
611.133972
 20
-276.128601
  0
VERTEX
  8
0
 10
611.133972
 20
-274.028625
  0
SEQEND
  8
0
  0
POLYLINE
  8
0
 66
1
  0
VERTEX
  8
0
 10
601.133972
 20
-294.228577
  0
VERTEX
  8
0
 10
601.133972
 20
-294.728638
  0
VERTEX
  8
0
 10
598.133972
 20
-294.728638
  0
VERTEX
  8
0
 10
598.133972
 20
-294.228577
  0
VERTEX
  8
0
 10
598.133972
 20
-292.128601
  0
VERTEX
  8
0
 10
599.134094
 20
-292.128601
  0
VERTEX
  8
0
 10
599.134094
 20
-289.128601
  0
VERTEX
  8
0
 10
598.134094
 20
-289.128601
  0
VERTEX
  8
0
 10
598.134094
 20
-286.128601
  0
VERTEX
  8
0
 10
601.134094
 20
-286.128601
  0
VERTEX
  8
0
 10
601.134094
 20
-289.128601
  0
VERTEX
  8
0
 10
600.134094
 20
-289.128601
  0
VERTEX
  8
0
 10
600.134094
 20
-292.128601
  0
VERTEX
  8
0
 10
601.133972
 20
-292.128601
  0
VERTEX
  8
0
 10
601.133972
 20
-294.228577
  0
SEQEND
  8
0
  0
POLYLINE
  8
0
 66
1
  0
VERTEX
  8
0
 10
606.133972
 20
-294.228577
  0
VERTEX
  8
0
 10
606.133972
 20
-294.728638
  0
VERTEX
  8
0
 10
603.133972
 20
-294.728638
  0
VERTEX
  8
0
 10
603.133972
 20
-294.228577
  0
VERTEX
  8
0
 10
603.133972
 20
-292.128601
  0
VERTEX
  8
0
 10
604.134094
 20
-292.128601
  0
VERTEX
  8
0
 10
604.134094
 20
-289.128601
  0
VERTEX
  8
0
 10
603.134094
 20
-289.128601
  0
VERTEX
  8
0
 10
603.134094
 20
-286.128601
  0
VERTEX
  8
0
 10
606.134094
 20
-286.128601
  0
VERTEX
  8
0
 10
606.134094
 20
-289.128601
  0
VERTEX
  8
0
 10
605.134094
 20
-289.128601
  0
VERTEX
  8
0
 10
605.134094
 20
-292.128601
  0
VERTEX
  8
0
 10
606.133972
 20
-292.128601
  0
VERTEX
  8
0
 10
606.133972
 20
-294.228577
  0
SEQEND
  8
0
  0
POLYLINE
  8
0
 66
1
  0
VERTEX
  8
0
 10
611.133972
 20
-294.228577
  0
VERTEX
  8
0
 10
611.133972
 20
-294.728638
  0
VERTEX
  8
0
 10
608.133972
 20
-294.728638
  0
VERTEX
  8
0
 10
608.133972
 20
-294.228577
  0
VERTEX
  8
0
 10
608.133972
 20
-292.128601
  0
VERTEX
  8
0
 10
609.134094
 20
-292.128601
  0
VERTEX
  8
0
 10
609.134094
 20
-289.128601
  0
VERTEX
  8
0
 10
608.134094
 20
-289.128601
  0
VERTEX
  8
0
 10
608.134094
 20
-286.128601
  0
VERTEX
  8
0
 10
611.134094
 20
-286.128601
  0
VERTEX
  8
0
 10
611.134094
 20
-289.128601
  0
VERTEX
  8
0
 10
610.134094
 20
-289.128601
  0
VERTEX
  8
0
 10
610.134094
 20
-292.128601
  0
VERTEX
  8
0
 10
611.133972
 20
-292.128601
  0
VERTEX
  8
0
 10
611.133972
 20
-294.228577
  0
SEQEND
  8
0
  0
POLYLINE
  8
0
 66
1
  0
VERTEX
  8
0
 10
594.034180
 20
-279.128601
  0
VERTEX
  8
0
 10
596.634155
 20
-279.128601
  0
VERTEX
  8
0
 10
596.634155
 20
-289.128601
  0
VERTEX
  8
0
 10
594.034180
 20
-289.128601
  0
VERTEX
  8
0
 10
594.034180
 20
-279.128601
  0
SEQEND
  8
0
  0
POLYLINE
  8
0
 66
1
  0
VERTEX
  8
0
 10
615.234009
 20
-279.128601
  0
VERTEX
  8
0
 10
612.634033
 20
-279.128601
  0
VERTEX
  8
0
 10
612.634033
 20
-289.128601
  0
VERTEX
  8
0
 10
615.234009
 20
-289.128601
  0
VERTEX
  8
0
 10
615.234009
 20
-279.128601
  0
SEQEND
  8
0
  0
POLYLINE
  8
0
 66
1
  0
VERTEX
  8
0
 10
626.133972
 20
-224.028625
  0
VERTEX
  8
0
 10
626.133972
 20
-223.528564
  0
VERTEX
  8
0
 10
623.133972
 20
-223.528564
  0
VERTEX
  8
0
 10
623.133972
 20
-224.028625
  0
VERTEX
  8
0
 10
623.133972
 20
-226.128601
  0
VERTEX
  8
0
 10
624.134094
 20
-226.128601
  0
VERTEX
  8
0
 10
624.134094
 20
-229.128601
  0
VERTEX
  8
0
 10
623.134094
 20
-229.128601
  0
VERTEX
  8
0
 10
623.134094
 20
-232.128601
  0
VERTEX
  8
0
 10
626.134094
 20
-232.128601
  0
VERTEX
  8
0
 10
626.134094
 20
-229.128601
  0
VERTEX
  8
0
 10
625.134094
 20
-229.128601
  0
VERTEX
  8
0
 10
625.134094
 20
-226.128601
  0
VERTEX
  8
0
 10
626.133972
 20
-226.128601
  0
VERTEX
  8
0
 10
626.133972
 20
-224.028625
  0
SEQEND
  8
0
  0
POLYLINE
  8
0
 66
1
  0
VERTEX
  8
0
 10
631.133972
 20
-224.028625
  0
VERTEX
  8
0
 10
631.133972
 20
-223.528564
  0
VERTEX
  8
0
 10
628.133972
 20
-223.528564
  0
VERTEX
  8
0
 10
628.133972
 20
-224.028625
  0
VERTEX
  8
0
 10
628.133972
 20
-226.128601
  0
VERTEX
  8
0
 10
629.134094
 20
-226.128601
  0
VERTEX
  8
0
 10
629.134094
 20
-229.128601
  0
VERTEX
  8
0
 10
628.134094
 20
-229.128601
  0
VERTEX
  8
0
 10
628.134094
 20
-232.128601
  0
VERTEX
  8
0
 10
631.134094
 20
-232.128601
  0
VERTEX
  8
0
 10
631.134094
 20
-229.128601
  0
VERTEX
  8
0
 10
630.134094
 20
-229.128601
  0
VERTEX
  8
0
 10
630.134094
 20
-226.128601
  0
VERTEX
  8
0
 10
631.133972
 20
-226.128601
  0
VERTEX
  8
0
 10
631.133972
 20
-224.028625
  0
SEQEND
  8
0
  0
POLYLINE
  8
0
 66
1
  0
VERTEX
  8
0
 10
636.133972
 20
-224.028625
  0
VERTEX
  8
0
 10
636.133972
 20
-223.528564
  0
VERTEX
  8
0
 10
633.133972
 20
-223.528564
  0
VERTEX
  8
0
 10
633.133972
 20
-224.028625
  0
VERTEX
  8
0
 10
633.133972
 20
-226.128601
  0
VERTEX
  8
0
 10
634.134094
 20
-226.128601
  0
VERTEX
  8
0
 10
634.134094
 20
-229.128601
  0
VERTEX
  8
0
 10
633.134094
 20
-229.128601
  0
VERTEX
  8
0
 10
633.134094
 20
-232.128601
  0
VERTEX
  8
0
 10
636.134094
 20
-232.128601
  0
VERTEX
  8
0
 10
636.134094
 20
-229.128601
  0
VERTEX
  8
0
 10
635.134094
 20
-229.128601
  0
VERTEX
  8
0
 10
635.134094
 20
-226.128601
  0
VERTEX
  8
0
 10
636.133972
 20
-226.128601
  0
VERTEX
  8
0
 10
636.133972
 20
-224.028625
  0
SEQEND
  8
0
  0
POLYLINE
  8
0
 66
1
  0
VERTEX
  8
0
 10
626.133972
 20
-244.228577
  0
VERTEX
  8
0
 10
626.133972
 20
-244.728638
  0
VERTEX
  8
0
 10
623.133972
 20
-244.728638
  0
VERTEX
  8
0
 10
623.133972
 20
-244.228577
  0
VERTEX
  8
0
 10
623.133972
 20
-242.128601
  0
VERTEX
  8
0
 10
624.134094
 20
-242.128601
  0
VERTEX
  8
0
 10
624.134094
 20
-239.128601
  0
VERTEX
  8
0
 10
623.134094
 20
-239.128601
  0
VERTEX
  8
0
 10
623.134094
 20
-236.128601
  0
VERTEX
  8
0
 10
626.134094
 20
-236.128601
  0
VERTEX
  8
0
 10
626.134094
 20
-239.128601
  0
VERTEX
  8
0
 10
625.134094
 20
-239.128601
  0
VERTEX
  8
0
 10
625.134094
 20
-242.128601
  0
VERTEX
  8
0
 10
626.133972
 20
-242.128601
  0
VERTEX
  8
0
 10
626.133972
 20
-244.228577
  0
SEQEND
  8
0
  0
POLYLINE
  8
0
 66
1
  0
VERTEX
  8
0
 10
631.133972
 20
-244.228577
  0
VERTEX
  8
0
 10
631.133972
 20
-244.728638
  0
VERTEX
  8
0
 10
628.133972
 20
-244.728638
  0
VERTEX
  8
0
 10
628.133972
 20
-244.228577
  0
VERTEX
  8
0
 10
628.133972
 20
-242.128601
  0
VERTEX
  8
0
 10
629.134094
 20
-242.128601
  0
VERTEX
  8
0
 10
629.134094
 20
-239.128601
  0
VERTEX
  8
0
 10
628.134094
 20
-239.128601
  0
VERTEX
  8
0
 10
628.134094
 20
-236.128601
  0
VERTEX
  8
0
 10
631.134094
 20
-236.128601
  0
VERTEX
  8
0
 10
631.134094
 20
-239.128601
  0
VERTEX
  8
0
 10
630.134094
 20
-239.128601
  0
VERTEX
  8
0
 10
630.134094
 20
-242.128601
  0
VERTEX
  8
0
 10
631.133972
 20
-242.128601
  0
VERTEX
  8
0
 10
631.133972
 20
-244.228577
  0
SEQEND
  8
0
  0
POLYLINE
  8
0
 66
1
  0
VERTEX
  8
0
 10
636.133972
 20
-244.228577
  0
VERTEX
  8
0
 10
636.133972
 20
-244.728638
  0
VERTEX
  8
0
 10
633.133972
 20
-244.728638
  0
VERTEX
  8
0
 10
633.133972
 20
-244.228577
  0
VERTEX
  8
0
 10
633.133972
 20
-242.128601
  0
VERTEX
  8
0
 10
634.134094
 20
-242.128601
  0
VERTEX
  8
0
 10
634.134094
 20
-239.128601
  0
VERTEX
  8
0
 10
633.134094
 20
-239.128601
  0
VERTEX
  8
0
 10
633.134094
 20
-236.128601
  0
VERTEX
  8
0
 10
636.134094
 20
-236.128601
  0
VERTEX
  8
0
 10
636.134094
 20
-239.128601
  0
VERTEX
  8
0
 10
635.134094
 20
-239.128601
  0
VERTEX
  8
0
 10
635.134094
 20
-242.128601
  0
VERTEX
  8
0
 10
636.133972
 20
-242.128601
  0
VERTEX
  8
0
 10
636.133972
 20
-244.228577
  0
SEQEND
  8
0
  0
POLYLINE
  8
0
 66
1
  0
VERTEX
  8
0
 10
619.034180
 20
-229.128601
  0
VERTEX
  8
0
 10
621.634155
 20
-229.128601
  0
VERTEX
  8
0
 10
621.634155
 20
-239.128601
  0
VERTEX
  8
0
 10
619.034180
 20
-239.128601
  0
VERTEX
  8
0
 10
619.034180
 20
-229.128601
  0
SEQEND
  8
0
  0
POLYLINE
  8
0
 66
1
  0
VERTEX
  8
0
 10
640.234009
 20
-229.128601
  0
VERTEX
  8
0
 10
637.634033
 20
-229.128601
  0
VERTEX
  8
0
 10
637.634033
 20
-239.128601
  0
VERTEX
  8
0
 10
640.234009
 20
-239.128601
  0
VERTEX
  8
0
 10
640.234009
 20
-229.128601
  0
SEQEND
  8
0
  0
POLYLINE
  8
0
 66
1
  0
VERTEX
  8
0
 10
651.133972
 20
-224.028625
  0
VERTEX
  8
0
 10
651.133972
 20
-223.528564
  0
VERTEX
  8
0
 10
648.133972
 20
-223.528564
  0
VERTEX
  8
0
 10
648.133972
 20
-224.028625
  0
VERTEX
  8
0
 10
648.133972
 20
-226.128601
  0
VERTEX
  8
0
 10
649.134094
 20
-226.128601
  0
VERTEX
  8
0
 10
649.134094
 20
-229.128601
  0
VERTEX
  8
0
 10
648.134094
 20
-229.128601
  0
VERTEX
  8
0
 10
648.134094
 20
-232.128601
  0
VERTEX
  8
0
 10
651.134094
 20
-232.128601
  0
VERTEX
  8
0
 10
651.134094
 20
-229.128601
  0
VERTEX
  8
0
 10
650.134094
 20
-229.128601
  0
VERTEX
  8
0
 10
650.134094
 20
-226.128601
  0
VERTEX
  8
0
 10
651.133972
 20
-226.128601
  0
VERTEX
  8
0
 10
651.133972
 20
-224.028625
  0
SEQEND
  8
0
  0
POLYLINE
  8
0
 66
1
  0
VERTEX
  8
0
 10
656.133972
 20
-224.028625
  0
VERTEX
  8
0
 10
656.133972
 20
-223.528564
  0
VERTEX
  8
0
 10
653.133972
 20
-223.528564
  0
VERTEX
  8
0
 10
653.133972
 20
-224.028625
  0
VERTEX
  8
0
 10
653.133972
 20
-226.128601
  0
VERTEX
  8
0
 10
654.134094
 20
-226.128601
  0
VERTEX
  8
0
 10
654.134094
 20
-229.128601
  0
VERTEX
  8
0
 10
653.134094
 20
-229.128601
  0
VERTEX
  8
0
 10
653.134094
 20
-232.128601
  0
VERTEX
  8
0
 10
656.134094
 20
-232.128601
  0
VERTEX
  8
0
 10
656.134094
 20
-229.128601
  0
VERTEX
  8
0
 10
655.134094
 20
-229.128601
  0
VERTEX
  8
0
 10
655.134094
 20
-226.128601
  0
VERTEX
  8
0
 10
656.133972
 20
-226.128601
  0
VERTEX
  8
0
 10
656.133972
 20
-224.028625
  0
SEQEND
  8
0
  0
POLYLINE
  8
0
 66
1
  0
VERTEX
  8
0
 10
661.133972
 20
-224.028625
  0
VERTEX
  8
0
 10
661.133972
 20
-223.528564
  0
VERTEX
  8
0
 10
658.133972
 20
-223.528564
  0
VERTEX
  8
0
 10
658.133972
 20
-224.028625
  0
VERTEX
  8
0
 10
658.133972
 20
-226.128601
  0
VERTEX
  8
0
 10
659.134094
 20
-226.128601
  0
VERTEX
  8
0
 10
659.134094
 20
-229.128601
  0
VERTEX
  8
0
 10
658.134094
 20
-229.128601
  0
VERTEX
  8
0
 10
658.134094
 20
-232.128601
  0
VERTEX
  8
0
 10
661.134094
 20
-232.128601
  0
VERTEX
  8
0
 10
661.134094
 20
-229.128601
  0
VERTEX
  8
0
 10
660.134094
 20
-229.128601
  0
VERTEX
  8
0
 10
660.134094
 20
-226.128601
  0
VERTEX
  8
0
 10
661.133972
 20
-226.128601
  0
VERTEX
  8
0
 10
661.133972
 20
-224.028625
  0
SEQEND
  8
0
  0
POLYLINE
  8
0
 66
1
  0
VERTEX
  8
0
 10
651.133972
 20
-244.228577
  0
VERTEX
  8
0
 10
651.133972
 20
-244.728638
  0
VERTEX
  8
0
 10
648.133972
 20
-244.728638
  0
VERTEX
  8
0
 10
648.133972
 20
-244.228577
  0
VERTEX
  8
0
 10
648.133972
 20
-242.128601
  0
VERTEX
  8
0
 10
649.134094
 20
-242.128601
  0
VERTEX
  8
0
 10
649.134094
 20
-239.128601
  0
VERTEX
  8
0
 10
648.134094
 20
-239.128601
  0
VERTEX
  8
0
 10
648.134094
 20
-236.128601
  0
VERTEX
  8
0
 10
651.134094
 20
-236.128601
  0
VERTEX
  8
0
 10
651.134094
 20
-239.128601
  0
VERTEX
  8
0
 10
650.134094
 20
-239.128601
  0
VERTEX
  8
0
 10
650.134094
 20
-242.128601
  0
VERTEX
  8
0
 10
651.133972
 20
-242.128601
  0
VERTEX
  8
0
 10
651.133972
 20
-244.228577
  0
SEQEND
  8
0
  0
POLYLINE
  8
0
 66
1
  0
VERTEX
  8
0
 10
656.133972
 20
-244.228577
  0
VERTEX
  8
0
 10
656.133972
 20
-244.728638
  0
VERTEX
  8
0
 10
653.133972
 20
-244.728638
  0
VERTEX
  8
0
 10
653.133972
 20
-244.228577
  0
VERTEX
  8
0
 10
653.133972
 20
-242.128601
  0
VERTEX
  8
0
 10
654.134094
 20
-242.128601
  0
VERTEX
  8
0
 10
654.134094
 20
-239.128601
  0
VERTEX
  8
0
 10
653.134094
 20
-239.128601
  0
VERTEX
  8
0
 10
653.134094
 20
-236.128601
  0
VERTEX
  8
0
 10
656.134094
 20
-236.128601
  0
VERTEX
  8
0
 10
656.134094
 20
-239.128601
  0
VERTEX
  8
0
 10
655.134094
 20
-239.128601
  0
VERTEX
  8
0
 10
655.134094
 20
-242.128601
  0
VERTEX
  8
0
 10
656.133972
 20
-242.128601
  0
VERTEX
  8
0
 10
656.133972
 20
-244.228577
  0
SEQEND
  8
0
  0
POLYLINE
  8
0
 66
1
  0
VERTEX
  8
0
 10
661.133972
 20
-244.228577
  0
VERTEX
  8
0
 10
661.133972
 20
-244.728638
  0
VERTEX
  8
0
 10
658.133972
 20
-244.728638
  0
VERTEX
  8
0
 10
658.133972
 20
-244.228577
  0
VERTEX
  8
0
 10
658.133972
 20
-242.128601
  0
VERTEX
  8
0
 10
659.134094
 20
-242.128601
  0
VERTEX
  8
0
 10
659.134094
 20
-239.128601
  0
VERTEX
  8
0
 10
658.134094
 20
-239.128601
  0
VERTEX
  8
0
 10
658.134094
 20
-236.128601
  0
VERTEX
  8
0
 10
661.134094
 20
-236.128601
  0
VERTEX
  8
0
 10
661.134094
 20
-239.128601
  0
VERTEX
  8
0
 10
660.134094
 20
-239.128601
  0
VERTEX
  8
0
 10
660.134094
 20
-242.128601
  0
VERTEX
  8
0
 10
661.133972
 20
-242.128601
  0
VERTEX
  8
0
 10
661.133972
 20
-244.228577
  0
SEQEND
  8
0
  0
POLYLINE
  8
0
 66
1
  0
VERTEX
  8
0
 10
644.034180
 20
-229.128601
  0
VERTEX
  8
0
 10
646.634155
 20
-229.128601
  0
VERTEX
  8
0
 10
646.634155
 20
-239.128601
  0
VERTEX
  8
0
 10
644.034180
 20
-239.128601
  0
VERTEX
  8
0
 10
644.034180
 20
-229.128601
  0
SEQEND
  8
0
  0
POLYLINE
  8
0
 66
1
  0
VERTEX
  8
0
 10
665.234009
 20
-229.128601
  0
VERTEX
  8
0
 10
662.634033
 20
-229.128601
  0
VERTEX
  8
0
 10
662.634033
 20
-239.128601
  0
VERTEX
  8
0
 10
665.234009
 20
-239.128601
  0
VERTEX
  8
0
 10
665.234009
 20
-229.128601
  0
SEQEND
  8
0
  0
POLYLINE
  8
0
 66
1
  0
VERTEX
  8
0
 10
626.133972
 20
-249.028625
  0
VERTEX
  8
0
 10
626.133972
 20
-248.528564
  0
VERTEX
  8
0
 10
623.133972
 20
-248.528564
  0
VERTEX
  8
0
 10
623.133972
 20
-249.028625
  0
VERTEX
  8
0
 10
623.133972
 20
-251.128601
  0
VERTEX
  8
0
 10
624.134094
 20
-251.128601
  0
VERTEX
  8
0
 10
624.134094
 20
-254.128601
  0
VERTEX
  8
0
 10
623.134094
 20
-254.128601
  0
VERTEX
  8
0
 10
623.134094
 20
-257.128601
  0
VERTEX
  8
0
 10
626.134094
 20
-257.128601
  0
VERTEX
  8
0
 10
626.134094
 20
-254.128601
  0
VERTEX
  8
0
 10
625.134094
 20
-254.128601
  0
VERTEX
  8
0
 10
625.134094
 20
-251.128601
  0
VERTEX
  8
0
 10
626.133972
 20
-251.128601
  0
VERTEX
  8
0
 10
626.133972
 20
-249.028625
  0
SEQEND
  8
0
  0
POLYLINE
  8
0
 66
1
  0
VERTEX
  8
0
 10
631.133972
 20
-249.028625
  0
VERTEX
  8
0
 10
631.133972
 20
-248.528564
  0
VERTEX
  8
0
 10
628.133972
 20
-248.528564
  0
VERTEX
  8
0
 10
628.133972
 20
-249.028625
  0
VERTEX
  8
0
 10
628.133972
 20
-251.128601
  0
VERTEX
  8
0
 10
629.134094
 20
-251.128601
  0
VERTEX
  8
0
 10
629.134094
 20
-254.128601
  0
VERTEX
  8
0
 10
628.134094
 20
-254.128601
  0
VERTEX
  8
0
 10
628.134094
 20
-257.128601
  0
VERTEX
  8
0
 10
631.134094
 20
-257.128601
  0
VERTEX
  8
0
 10
631.134094
 20
-254.128601
  0
VERTEX
  8
0
 10
630.134094
 20
-254.128601
  0
VERTEX
  8
0
 10
630.134094
 20
-251.128601
  0
VERTEX
  8
0
 10
631.133972
 20
-251.128601
  0
VERTEX
  8
0
 10
631.133972
 20
-249.028625
  0
SEQEND
  8
0
  0
POLYLINE
  8
0
 66
1
  0
VERTEX
  8
0
 10
636.133972
 20
-249.028625
  0
VERTEX
  8
0
 10
636.133972
 20
-248.528564
  0
VERTEX
  8
0
 10
633.133972
 20
-248.528564
  0
VERTEX
  8
0
 10
633.133972
 20
-249.028625
  0
VERTEX
  8
0
 10
633.133972
 20
-251.128601
  0
VERTEX
  8
0
 10
634.134094
 20
-251.128601
  0
VERTEX
  8
0
 10
634.134094
 20
-254.128601
  0
VERTEX
  8
0
 10
633.134094
 20
-254.128601
  0
VERTEX
  8
0
 10
633.134094
 20
-257.128601
  0
VERTEX
  8
0
 10
636.134094
 20
-257.128601
  0
VERTEX
  8
0
 10
636.134094
 20
-254.128601
  0
VERTEX
  8
0
 10
635.134094
 20
-254.128601
  0
VERTEX
  8
0
 10
635.134094
 20
-251.128601
  0
VERTEX
  8
0
 10
636.133972
 20
-251.128601
  0
VERTEX
  8
0
 10
636.133972
 20
-249.028625
  0
SEQEND
  8
0
  0
POLYLINE
  8
0
 66
1
  0
VERTEX
  8
0
 10
626.133972
 20
-269.228577
  0
VERTEX
  8
0
 10
626.133972
 20
-269.728638
  0
VERTEX
  8
0
 10
623.133972
 20
-269.728638
  0
VERTEX
  8
0
 10
623.133972
 20
-269.228577
  0
VERTEX
  8
0
 10
623.133972
 20
-267.128601
  0
VERTEX
  8
0
 10
624.134094
 20
-267.128601
  0
VERTEX
  8
0
 10
624.134094
 20
-264.128601
  0
VERTEX
  8
0
 10
623.134094
 20
-264.128601
  0
VERTEX
  8
0
 10
623.134094
 20
-261.128601
  0
VERTEX
  8
0
 10
626.134094
 20
-261.128601
  0
VERTEX
  8
0
 10
626.134094
 20
-264.128601
  0
VERTEX
  8
0
 10
625.134094
 20
-264.128601
  0
VERTEX
  8
0
 10
625.134094
 20
-267.128601
  0
VERTEX
  8
0
 10
626.133972
 20
-267.128601
  0
VERTEX
  8
0
 10
626.133972
 20
-269.228577
  0
SEQEND
  8
0
  0
POLYLINE
  8
0
 66
1
  0
VERTEX
  8
0
 10
631.133972
 20
-269.228577
  0
VERTEX
  8
0
 10
631.133972
 20
-269.728638
  0
VERTEX
  8
0
 10
628.133972
 20
-269.728638
  0
VERTEX
  8
0
 10
628.133972
 20
-269.228577
  0
VERTEX
  8
0
 10
628.133972
 20
-267.128601
  0
VERTEX
  8
0
 10
629.134094
 20
-267.128601
  0
VERTEX
  8
0
 10
629.134094
 20
-264.128601
  0
VERTEX
  8
0
 10
628.134094
 20
-264.128601
  0
VERTEX
  8
0
 10
628.134094
 20
-261.128601
  0
VERTEX
  8
0
 10
631.134094
 20
-261.128601
  0
VERTEX
  8
0
 10
631.134094
 20
-264.128601
  0
VERTEX
  8
0
 10
630.134094
 20
-264.128601
  0
VERTEX
  8
0
 10
630.134094
 20
-267.128601
  0
VERTEX
  8
0
 10
631.133972
 20
-267.128601
  0
VERTEX
  8
0
 10
631.133972
 20
-269.228577
  0
SEQEND
  8
0
  0
POLYLINE
  8
0
 66
1
  0
VERTEX
  8
0
 10
636.133972
 20
-269.228577
  0
VERTEX
  8
0
 10
636.133972
 20
-269.728638
  0
VERTEX
  8
0
 10
633.133972
 20
-269.728638
  0
VERTEX
  8
0
 10
633.133972
 20
-269.228577
  0
VERTEX
  8
0
 10
633.133972
 20
-267.128601
  0
VERTEX
  8
0
 10
634.134094
 20
-267.128601
  0
VERTEX
  8
0
 10
634.134094
 20
-264.128601
  0
VERTEX
  8
0
 10
633.134094
 20
-264.128601
  0
VERTEX
  8
0
 10
633.134094
 20
-261.128601
  0
VERTEX
  8
0
 10
636.134094
 20
-261.128601
  0
VERTEX
  8
0
 10
636.134094
 20
-264.128601
  0
VERTEX
  8
0
 10
635.134094
 20
-264.128601
  0
VERTEX
  8
0
 10
635.134094
 20
-267.128601
  0
VERTEX
  8
0
 10
636.133972
 20
-267.128601
  0
VERTEX
  8
0
 10
636.133972
 20
-269.228577
  0
SEQEND
  8
0
  0
POLYLINE
  8
0
 66
1
  0
VERTEX
  8
0
 10
619.034180
 20
-254.128601
  0
VERTEX
  8
0
 10
621.634155
 20
-254.128601
  0
VERTEX
  8
0
 10
621.634155
 20
-264.128601
  0
VERTEX
  8
0
 10
619.034180
 20
-264.128601
  0
VERTEX
  8
0
 10
619.034180
 20
-254.128601
  0
SEQEND
  8
0
  0
POLYLINE
  8
0
 66
1
  0
VERTEX
  8
0
 10
640.234009
 20
-254.128601
  0
VERTEX
  8
0
 10
637.634033
 20
-254.128601
  0
VERTEX
  8
0
 10
637.634033
 20
-264.128601
  0
VERTEX
  8
0
 10
640.234009
 20
-264.128601
  0
VERTEX
  8
0
 10
640.234009
 20
-254.128601
  0
SEQEND
  8
0
  0
POLYLINE
  8
0
 66
1
  0
VERTEX
  8
0
 10
651.133972
 20
-249.028625
  0
VERTEX
  8
0
 10
651.133972
 20
-248.528564
  0
VERTEX
  8
0
 10
648.133972
 20
-248.528564
  0
VERTEX
  8
0
 10
648.133972
 20
-249.028625
  0
VERTEX
  8
0
 10
648.133972
 20
-251.128601
  0
VERTEX
  8
0
 10
649.134094
 20
-251.128601
  0
VERTEX
  8
0
 10
649.134094
 20
-254.128601
  0
VERTEX
  8
0
 10
648.134094
 20
-254.128601
  0
VERTEX
  8
0
 10
648.134094
 20
-257.128601
  0
VERTEX
  8
0
 10
651.134094
 20
-257.128601
  0
VERTEX
  8
0
 10
651.134094
 20
-254.128601
  0
VERTEX
  8
0
 10
650.134094
 20
-254.128601
  0
VERTEX
  8
0
 10
650.134094
 20
-251.128601
  0
VERTEX
  8
0
 10
651.133972
 20
-251.128601
  0
VERTEX
  8
0
 10
651.133972
 20
-249.028625
  0
SEQEND
  8
0
  0
POLYLINE
  8
0
 66
1
  0
VERTEX
  8
0
 10
656.133972
 20
-249.028625
  0
VERTEX
  8
0
 10
656.133972
 20
-248.528564
  0
VERTEX
  8
0
 10
653.133972
 20
-248.528564
  0
VERTEX
  8
0
 10
653.133972
 20
-249.028625
  0
VERTEX
  8
0
 10
653.133972
 20
-251.128601
  0
VERTEX
  8
0
 10
654.134094
 20
-251.128601
  0
VERTEX
  8
0
 10
654.134094
 20
-254.128601
  0
VERTEX
  8
0
 10
653.134094
 20
-254.128601
  0
VERTEX
  8
0
 10
653.134094
 20
-257.128601
  0
VERTEX
  8
0
 10
656.134094
 20
-257.128601
  0
VERTEX
  8
0
 10
656.134094
 20
-254.128601
  0
VERTEX
  8
0
 10
655.134094
 20
-254.128601
  0
VERTEX
  8
0
 10
655.134094
 20
-251.128601
  0
VERTEX
  8
0
 10
656.133972
 20
-251.128601
  0
VERTEX
  8
0
 10
656.133972
 20
-249.028625
  0
SEQEND
  8
0
  0
POLYLINE
  8
0
 66
1
  0
VERTEX
  8
0
 10
661.133972
 20
-249.028625
  0
VERTEX
  8
0
 10
661.133972
 20
-248.528564
  0
VERTEX
  8
0
 10
658.133972
 20
-248.528564
  0
VERTEX
  8
0
 10
658.133972
 20
-249.028625
  0
VERTEX
  8
0
 10
658.133972
 20
-251.128601
  0
VERTEX
  8
0
 10
659.134094
 20
-251.128601
  0
VERTEX
  8
0
 10
659.134094
 20
-254.128601
  0
VERTEX
  8
0
 10
658.134094
 20
-254.128601
  0
VERTEX
  8
0
 10
658.134094
 20
-257.128601
  0
VERTEX
  8
0
 10
661.134094
 20
-257.128601
  0
VERTEX
  8
0
 10
661.134094
 20
-254.128601
  0
VERTEX
  8
0
 10
660.134094
 20
-254.128601
  0
VERTEX
  8
0
 10
660.134094
 20
-251.128601
  0
VERTEX
  8
0
 10
661.133972
 20
-251.128601
  0
VERTEX
  8
0
 10
661.133972
 20
-249.028625
  0
SEQEND
  8
0
  0
POLYLINE
  8
0
 66
1
  0
VERTEX
  8
0
 10
651.133972
 20
-269.228577
  0
VERTEX
  8
0
 10
651.133972
 20
-269.728638
  0
VERTEX
  8
0
 10
648.133972
 20
-269.728638
  0
VERTEX
  8
0
 10
648.133972
 20
-269.228577
  0
VERTEX
  8
0
 10
648.133972
 20
-267.128601
  0
VERTEX
  8
0
 10
649.134094
 20
-267.128601
  0
VERTEX
  8
0
 10
649.134094
 20
-264.128601
  0
VERTEX
  8
0
 10
648.134094
 20
-264.128601
  0
VERTEX
  8
0
 10
648.134094
 20
-261.128601
  0
VERTEX
  8
0
 10
651.134094
 20
-261.128601
  0
VERTEX
  8
0
 10
651.134094
 20
-264.128601
  0
VERTEX
  8
0
 10
650.134094
 20
-264.128601
  0
VERTEX
  8
0
 10
650.134094
 20
-267.128601
  0
VERTEX
  8
0
 10
651.133972
 20
-267.128601
  0
VERTEX
  8
0
 10
651.133972
 20
-269.228577
  0
SEQEND
  8
0
  0
POLYLINE
  8
0
 66
1
  0
VERTEX
  8
0
 10
656.133972
 20
-269.228577
  0
VERTEX
  8
0
 10
656.133972
 20
-269.728638
  0
VERTEX
  8
0
 10
653.133972
 20
-269.728638
  0
VERTEX
  8
0
 10
653.133972
 20
-269.228577
  0
VERTEX
  8
0
 10
653.133972
 20
-267.128601
  0
VERTEX
  8
0
 10
654.134094
 20
-267.128601
  0
VERTEX
  8
0
 10
654.134094
 20
-264.128601
  0
VERTEX
  8
0
 10
653.134094
 20
-264.128601
  0
VERTEX
  8
0
 10
653.134094
 20
-261.128601
  0
VERTEX
  8
0
 10
656.134094
 20
-261.128601
  0
VERTEX
  8
0
 10
656.134094
 20
-264.128601
  0
VERTEX
  8
0
 10
655.134094
 20
-264.128601
  0
VERTEX
  8
0
 10
655.134094
 20
-267.128601
  0
VERTEX
  8
0
 10
656.133972
 20
-267.128601
  0
VERTEX
  8
0
 10
656.133972
 20
-269.228577
  0
SEQEND
  8
0
  0
POLYLINE
  8
0
 66
1
  0
VERTEX
  8
0
 10
661.133972
 20
-269.228577
  0
VERTEX
  8
0
 10
661.133972
 20
-269.728638
  0
VERTEX
  8
0
 10
658.133972
 20
-269.728638
  0
VERTEX
  8
0
 10
658.133972
 20
-269.228577
  0
VERTEX
  8
0
 10
658.133972
 20
-267.128601
  0
VERTEX
  8
0
 10
659.134094
 20
-267.128601
  0
VERTEX
  8
0
 10
659.134094
 20
-264.128601
  0
VERTEX
  8
0
 10
658.134094
 20
-264.128601
  0
VERTEX
  8
0
 10
658.134094
 20
-261.128601
  0
VERTEX
  8
0
 10
661.134094
 20
-261.128601
  0
VERTEX
  8
0
 10
661.134094
 20
-264.128601
  0
VERTEX
  8
0
 10
660.134094
 20
-264.128601
  0
VERTEX
  8
0
 10
660.134094
 20
-267.128601
  0
VERTEX
  8
0
 10
661.133972
 20
-267.128601
  0
VERTEX
  8
0
 10
661.133972
 20
-269.228577
  0
SEQEND
  8
0
  0
POLYLINE
  8
0
 66
1
  0
VERTEX
  8
0
 10
644.034180
 20
-254.128601
  0
VERTEX
  8
0
 10
646.634155
 20
-254.128601
  0
VERTEX
  8
0
 10
646.634155
 20
-264.128601
  0
VERTEX
  8
0
 10
644.034180
 20
-264.128601
  0
VERTEX
  8
0
 10
644.034180
 20
-254.128601
  0
SEQEND
  8
0
  0
POLYLINE
  8
0
 66
1
  0
VERTEX
  8
0
 10
665.234009
 20
-254.128601
  0
VERTEX
  8
0
 10
662.634033
 20
-254.128601
  0
VERTEX
  8
0
 10
662.634033
 20
-264.128601
  0
VERTEX
  8
0
 10
665.234009
 20
-264.128601
  0
VERTEX
  8
0
 10
665.234009
 20
-254.128601
  0
SEQEND
  8
0
  0
POLYLINE
  8
0
 66
1
  0
VERTEX
  8
0
 10
626.133972
 20
-274.028625
  0
VERTEX
  8
0
 10
626.133972
 20
-273.528564
  0
VERTEX
  8
0
 10
623.133972
 20
-273.528564
  0
VERTEX
  8
0
 10
623.133972
 20
-274.028625
  0
VERTEX
  8
0
 10
623.133972
 20
-276.128601
  0
VERTEX
  8
0
 10
624.134094
 20
-276.128601
  0
VERTEX
  8
0
 10
624.134094
 20
-279.128601
  0
VERTEX
  8
0
 10
623.134094
 20
-279.128601
  0
VERTEX
  8
0
 10
623.134094
 20
-282.128601
  0
VERTEX
  8
0
 10
626.134094
 20
-282.128601
  0
VERTEX
  8
0
 10
626.134094
 20
-279.128601
  0
VERTEX
  8
0
 10
625.134094
 20
-279.128601
  0
VERTEX
  8
0
 10
625.134094
 20
-276.128601
  0
VERTEX
  8
0
 10
626.133972
 20
-276.128601
  0
VERTEX
  8
0
 10
626.133972
 20
-274.028625
  0
SEQEND
  8
0
  0
POLYLINE
  8
0
 66
1
  0
VERTEX
  8
0
 10
631.133972
 20
-274.028625
  0
VERTEX
  8
0
 10
631.133972
 20
-273.528564
  0
VERTEX
  8
0
 10
628.133972
 20
-273.528564
  0
VERTEX
  8
0
 10
628.133972
 20
-274.028625
  0
VERTEX
  8
0
 10
628.133972
 20
-276.128601
  0
VERTEX
  8
0
 10
629.134094
 20
-276.128601
  0
VERTEX
  8
0
 10
629.134094
 20
-279.128601
  0
VERTEX
  8
0
 10
628.134094
 20
-279.128601
  0
VERTEX
  8
0
 10
628.134094
 20
-282.128601
  0
VERTEX
  8
0
 10
631.134094
 20
-282.128601
  0
VERTEX
  8
0
 10
631.134094
 20
-279.128601
  0
VERTEX
  8
0
 10
630.134094
 20
-279.128601
  0
VERTEX
  8
0
 10
630.134094
 20
-276.128601
  0
VERTEX
  8
0
 10
631.133972
 20
-276.128601
  0
VERTEX
  8
0
 10
631.133972
 20
-274.028625
  0
SEQEND
  8
0
  0
POLYLINE
  8
0
 66
1
  0
VERTEX
  8
0
 10
636.133972
 20
-274.028625
  0
VERTEX
  8
0
 10
636.133972
 20
-273.528564
  0
VERTEX
  8
0
 10
633.133972
 20
-273.528564
  0
VERTEX
  8
0
 10
633.133972
 20
-274.028625
  0
VERTEX
  8
0
 10
633.133972
 20
-276.128601
  0
VERTEX
  8
0
 10
634.134094
 20
-276.128601
  0
VERTEX
  8
0
 10
634.134094
 20
-279.128601
  0
VERTEX
  8
0
 10
633.134094
 20
-279.128601
  0
VERTEX
  8
0
 10
633.134094
 20
-282.128601
  0
VERTEX
  8
0
 10
636.134094
 20
-282.128601
  0
VERTEX
  8
0
 10
636.134094
 20
-279.128601
  0
VERTEX
  8
0
 10
635.134094
 20
-279.128601
  0
VERTEX
  8
0
 10
635.134094
 20
-276.128601
  0
VERTEX
  8
0
 10
636.133972
 20
-276.128601
  0
VERTEX
  8
0
 10
636.133972
 20
-274.028625
  0
SEQEND
  8
0
  0
POLYLINE
  8
0
 66
1
  0
VERTEX
  8
0
 10
626.133972
 20
-294.228577
  0
VERTEX
  8
0
 10
626.133972
 20
-294.728638
  0
VERTEX
  8
0
 10
623.133972
 20
-294.728638
  0
VERTEX
  8
0
 10
623.133972
 20
-294.228577
  0
VERTEX
  8
0
 10
623.133972
 20
-292.128601
  0
VERTEX
  8
0
 10
624.134094
 20
-292.128601
  0
VERTEX
  8
0
 10
624.134094
 20
-289.128601
  0
VERTEX
  8
0
 10
623.134094
 20
-289.128601
  0
VERTEX
  8
0
 10
623.134094
 20
-286.128601
  0
VERTEX
  8
0
 10
626.134094
 20
-286.128601
  0
VERTEX
  8
0
 10
626.134094
 20
-289.128601
  0
VERTEX
  8
0
 10
625.134094
 20
-289.128601
  0
VERTEX
  8
0
 10
625.134094
 20
-292.128601
  0
VERTEX
  8
0
 10
626.133972
 20
-292.128601
  0
VERTEX
  8
0
 10
626.133972
 20
-294.228577
  0
SEQEND
  8
0
  0
POLYLINE
  8
0
 66
1
  0
VERTEX
  8
0
 10
631.133972
 20
-294.228577
  0
VERTEX
  8
0
 10
631.133972
 20
-294.728638
  0
VERTEX
  8
0
 10
628.133972
 20
-294.728638
  0
VERTEX
  8
0
 10
628.133972
 20
-294.228577
  0
VERTEX
  8
0
 10
628.133972
 20
-292.128601
  0
VERTEX
  8
0
 10
629.134094
 20
-292.128601
  0
VERTEX
  8
0
 10
629.134094
 20
-289.128601
  0
VERTEX
  8
0
 10
628.134094
 20
-289.128601
  0
VERTEX
  8
0
 10
628.134094
 20
-286.128601
  0
VERTEX
  8
0
 10
631.134094
 20
-286.128601
  0
VERTEX
  8
0
 10
631.134094
 20
-289.128601
  0
VERTEX
  8
0
 10
630.134094
 20
-289.128601
  0
VERTEX
  8
0
 10
630.134094
 20
-292.128601
  0
VERTEX
  8
0
 10
631.133972
 20
-292.128601
  0
VERTEX
  8
0
 10
631.133972
 20
-294.228577
  0
SEQEND
  8
0
  0
POLYLINE
  8
0
 66
1
  0
VERTEX
  8
0
 10
636.133972
 20
-294.228577
  0
VERTEX
  8
0
 10
636.133972
 20
-294.728638
  0
VERTEX
  8
0
 10
633.133972
 20
-294.728638
  0
VERTEX
  8
0
 10
633.133972
 20
-294.228577
  0
VERTEX
  8
0
 10
633.133972
 20
-292.128601
  0
VERTEX
  8
0
 10
634.134094
 20
-292.128601
  0
VERTEX
  8
0
 10
634.134094
 20
-289.128601
  0
VERTEX
  8
0
 10
633.134094
 20
-289.128601
  0
VERTEX
  8
0
 10
633.134094
 20
-286.128601
  0
VERTEX
  8
0
 10
636.134094
 20
-286.128601
  0
VERTEX
  8
0
 10
636.134094
 20
-289.128601
  0
VERTEX
  8
0
 10
635.134094
 20
-289.128601
  0
VERTEX
  8
0
 10
635.134094
 20
-292.128601
  0
VERTEX
  8
0
 10
636.133972
 20
-292.128601
  0
VERTEX
  8
0
 10
636.133972
 20
-294.228577
  0
SEQEND
  8
0
  0
POLYLINE
  8
0
 66
1
  0
VERTEX
  8
0
 10
619.034180
 20
-279.128601
  0
VERTEX
  8
0
 10
621.634155
 20
-279.128601
  0
VERTEX
  8
0
 10
621.634155
 20
-289.128601
  0
VERTEX
  8
0
 10
619.034180
 20
-289.128601
  0
VERTEX
  8
0
 10
619.034180
 20
-279.128601
  0
SEQEND
  8
0
  0
POLYLINE
  8
0
 66
1
  0
VERTEX
  8
0
 10
640.234009
 20
-279.128601
  0
VERTEX
  8
0
 10
637.634033
 20
-279.128601
  0
VERTEX
  8
0
 10
637.634033
 20
-289.128601
  0
VERTEX
  8
0
 10
640.234009
 20
-289.128601
  0
VERTEX
  8
0
 10
640.234009
 20
-279.128601
  0
SEQEND
  8
0
  0
POLYLINE
  8
0
 66
1
  0
VERTEX
  8
0
 10
651.133972
 20
-274.028625
  0
VERTEX
  8
0
 10
651.133972
 20
-273.528564
  0
VERTEX
  8
0
 10
648.133972
 20
-273.528564
  0
VERTEX
  8
0
 10
648.133972
 20
-274.028625
  0
VERTEX
  8
0
 10
648.133972
 20
-276.128601
  0
VERTEX
  8
0
 10
649.134094
 20
-276.128601
  0
VERTEX
  8
0
 10
649.134094
 20
-279.128601
  0
VERTEX
  8
0
 10
648.134094
 20
-279.128601
  0
VERTEX
  8
0
 10
648.134094
 20
-282.128601
  0
VERTEX
  8
0
 10
651.134094
 20
-282.128601
  0
VERTEX
  8
0
 10
651.134094
 20
-279.128601
  0
VERTEX
  8
0
 10
650.134094
 20
-279.128601
  0
VERTEX
  8
0
 10
650.134094
 20
-276.128601
  0
VERTEX
  8
0
 10
651.133972
 20
-276.128601
  0
VERTEX
  8
0
 10
651.133972
 20
-274.028625
  0
SEQEND
  8
0
  0
POLYLINE
  8
0
 66
1
  0
VERTEX
  8
0
 10
656.133972
 20
-274.028625
  0
VERTEX
  8
0
 10
656.133972
 20
-273.528564
  0
VERTEX
  8
0
 10
653.133972
 20
-273.528564
  0
VERTEX
  8
0
 10
653.133972
 20
-274.028625
  0
VERTEX
  8
0
 10
653.133972
 20
-276.128601
  0
VERTEX
  8
0
 10
654.134094
 20
-276.128601
  0
VERTEX
  8
0
 10
654.134094
 20
-279.128601
  0
VERTEX
  8
0
 10
653.134094
 20
-279.128601
  0
VERTEX
  8
0
 10
653.134094
 20
-282.128601
  0
VERTEX
  8
0
 10
656.134094
 20
-282.128601
  0
VERTEX
  8
0
 10
656.134094
 20
-279.128601
  0
VERTEX
  8
0
 10
655.134094
 20
-279.128601
  0
VERTEX
  8
0
 10
655.134094
 20
-276.128601
  0
VERTEX
  8
0
 10
656.133972
 20
-276.128601
  0
VERTEX
  8
0
 10
656.133972
 20
-274.028625
  0
SEQEND
  8
0
  0
POLYLINE
  8
0
 66
1
  0
VERTEX
  8
0
 10
661.133972
 20
-274.028625
  0
VERTEX
  8
0
 10
661.133972
 20
-273.528564
  0
VERTEX
  8
0
 10
658.133972
 20
-273.528564
  0
VERTEX
  8
0
 10
658.133972
 20
-274.028625
  0
VERTEX
  8
0
 10
658.133972
 20
-276.128601
  0
VERTEX
  8
0
 10
659.134094
 20
-276.128601
  0
VERTEX
  8
0
 10
659.134094
 20
-279.128601
  0
VERTEX
  8
0
 10
658.134094
 20
-279.128601
  0
VERTEX
  8
0
 10
658.134094
 20
-282.128601
  0
VERTEX
  8
0
 10
661.134094
 20
-282.128601
  0
VERTEX
  8
0
 10
661.134094
 20
-279.128601
  0
VERTEX
  8
0
 10
660.134094
 20
-279.128601
  0
VERTEX
  8
0
 10
660.134094
 20
-276.128601
  0
VERTEX
  8
0
 10
661.133972
 20
-276.128601
  0
VERTEX
  8
0
 10
661.133972
 20
-274.028625
  0
SEQEND
  8
0
  0
POLYLINE
  8
0
 66
1
  0
VERTEX
  8
0
 10
651.133972
 20
-294.228577
  0
VERTEX
  8
0
 10
651.133972
 20
-294.728638
  0
VERTEX
  8
0
 10
648.133972
 20
-294.728638
  0
VERTEX
  8
0
 10
648.133972
 20
-294.228577
  0
VERTEX
  8
0
 10
648.133972
 20
-292.128601
  0
VERTEX
  8
0
 10
649.134094
 20
-292.128601
  0
VERTEX
  8
0
 10
649.134094
 20
-289.128601
  0
VERTEX
  8
0
 10
648.134094
 20
-289.128601
  0
VERTEX
  8
0
 10
648.134094
 20
-286.128601
  0
VERTEX
  8
0
 10
651.134094
 20
-286.128601
  0
VERTEX
  8
0
 10
651.134094
 20
-289.128601
  0
VERTEX
  8
0
 10
650.134094
 20
-289.128601
  0
VERTEX
  8
0
 10
650.134094
 20
-292.128601
  0
VERTEX
  8
0
 10
651.133972
 20
-292.128601
  0
VERTEX
  8
0
 10
651.133972
 20
-294.228577
  0
SEQEND
  8
0
  0
POLYLINE
  8
0
 66
1
  0
VERTEX
  8
0
 10
656.133972
 20
-294.228577
  0
VERTEX
  8
0
 10
656.133972
 20
-294.728638
  0
VERTEX
  8
0
 10
653.133972
 20
-294.728638
  0
VERTEX
  8
0
 10
653.133972
 20
-294.228577
  0
VERTEX
  8
0
 10
653.133972
 20
-292.128601
  0
VERTEX
  8
0
 10
654.134094
 20
-292.128601
  0
VERTEX
  8
0
 10
654.134094
 20
-289.128601
  0
VERTEX
  8
0
 10
653.134094
 20
-289.128601
  0
VERTEX
  8
0
 10
653.134094
 20
-286.128601
  0
VERTEX
  8
0
 10
656.134094
 20
-286.128601
  0
VERTEX
  8
0
 10
656.134094
 20
-289.128601
  0
VERTEX
  8
0
 10
655.134094
 20
-289.128601
  0
VERTEX
  8
0
 10
655.134094
 20
-292.128601
  0
VERTEX
  8
0
 10
656.133972
 20
-292.128601
  0
VERTEX
  8
0
 10
656.133972
 20
-294.228577
  0
SEQEND
  8
0
  0
POLYLINE
  8
0
 66
1
  0
VERTEX
  8
0
 10
661.133972
 20
-294.228577
  0
VERTEX
  8
0
 10
661.133972
 20
-294.728638
  0
VERTEX
  8
0
 10
658.133972
 20
-294.728638
  0
VERTEX
  8
0
 10
658.133972
 20
-294.228577
  0
VERTEX
  8
0
 10
658.133972
 20
-292.128601
  0
VERTEX
  8
0
 10
659.134094
 20
-292.128601
  0
VERTEX
  8
0
 10
659.134094
 20
-289.128601
  0
VERTEX
  8
0
 10
658.134094
 20
-289.128601
  0
VERTEX
  8
0
 10
658.134094
 20
-286.128601
  0
VERTEX
  8
0
 10
661.134094
 20
-286.128601
  0
VERTEX
  8
0
 10
661.134094
 20
-289.128601
  0
VERTEX
  8
0
 10
660.134094
 20
-289.128601
  0
VERTEX
  8
0
 10
660.134094
 20
-292.128601
  0
VERTEX
  8
0
 10
661.133972
 20
-292.128601
  0
VERTEX
  8
0
 10
661.133972
 20
-294.228577
  0
SEQEND
  8
0
  0
POLYLINE
  8
0
 66
1
  0
VERTEX
  8
0
 10
644.034180
 20
-279.128601
  0
VERTEX
  8
0
 10
646.634155
 20
-279.128601
  0
VERTEX
  8
0
 10
646.634155
 20
-289.128601
  0
VERTEX
  8
0
 10
644.034180
 20
-289.128601
  0
VERTEX
  8
0
 10
644.034180
 20
-279.128601
  0
SEQEND
  8
0
  0
POLYLINE
  8
0
 66
1
  0
VERTEX
  8
0
 10
665.234009
 20
-279.128601
  0
VERTEX
  8
0
 10
662.634033
 20
-279.128601
  0
VERTEX
  8
0
 10
662.634033
 20
-289.128601
  0
VERTEX
  8
0
 10
665.234009
 20
-289.128601
  0
VERTEX
  8
0
 10
665.234009
 20
-279.128601
  0
SEQEND
  8
0
  0
POLYLINE
  8
0
 66
1
  0
VERTEX
  8
0
 10
676.133972
 20
-224.028625
  0
VERTEX
  8
0
 10
676.133972
 20
-223.528564
  0
VERTEX
  8
0
 10
673.133972
 20
-223.528564
  0
VERTEX
  8
0
 10
673.133972
 20
-224.028625
  0
VERTEX
  8
0
 10
673.133972
 20
-226.128601
  0
VERTEX
  8
0
 10
674.134094
 20
-226.128601
  0
VERTEX
  8
0
 10
674.134094
 20
-229.128601
  0
VERTEX
  8
0
 10
673.134094
 20
-229.128601
  0
VERTEX
  8
0
 10
673.134094
 20
-232.128601
  0
VERTEX
  8
0
 10
676.134094
 20
-232.128601
  0
VERTEX
  8
0
 10
676.134094
 20
-229.128601
  0
VERTEX
  8
0
 10
675.134094
 20
-229.128601
  0
VERTEX
  8
0
 10
675.134094
 20
-226.128601
  0
VERTEX
  8
0
 10
676.133972
 20
-226.128601
  0
VERTEX
  8
0
 10
676.133972
 20
-224.028625
  0
SEQEND
  8
0
  0
POLYLINE
  8
0
 66
1
  0
VERTEX
  8
0
 10
681.133972
 20
-224.028625
  0
VERTEX
  8
0
 10
681.133972
 20
-223.528564
  0
VERTEX
  8
0
 10
678.133972
 20
-223.528564
  0
VERTEX
  8
0
 10
678.133972
 20
-224.028625
  0
VERTEX
  8
0
 10
678.133972
 20
-226.128601
  0
VERTEX
  8
0
 10
679.134094
 20
-226.128601
  0
VERTEX
  8
0
 10
679.134094
 20
-229.128601
  0
VERTEX
  8
0
 10
678.134094
 20
-229.128601
  0
VERTEX
  8
0
 10
678.134094
 20
-232.128601
  0
VERTEX
  8
0
 10
681.134094
 20
-232.128601
  0
VERTEX
  8
0
 10
681.134094
 20
-229.128601
  0
VERTEX
  8
0
 10
680.134094
 20
-229.128601
  0
VERTEX
  8
0
 10
680.134094
 20
-226.128601
  0
VERTEX
  8
0
 10
681.133972
 20
-226.128601
  0
VERTEX
  8
0
 10
681.133972
 20
-224.028625
  0
SEQEND
  8
0
  0
POLYLINE
  8
0
 66
1
  0
VERTEX
  8
0
 10
686.133972
 20
-224.028625
  0
VERTEX
  8
0
 10
686.133972
 20
-223.528564
  0
VERTEX
  8
0
 10
683.133972
 20
-223.528564
  0
VERTEX
  8
0
 10
683.133972
 20
-224.028625
  0
VERTEX
  8
0
 10
683.133972
 20
-226.128601
  0
VERTEX
  8
0
 10
684.134094
 20
-226.128601
  0
VERTEX
  8
0
 10
684.134094
 20
-229.128601
  0
VERTEX
  8
0
 10
683.134094
 20
-229.128601
  0
VERTEX
  8
0
 10
683.134094
 20
-232.128601
  0
VERTEX
  8
0
 10
686.134094
 20
-232.128601
  0
VERTEX
  8
0
 10
686.134094
 20
-229.128601
  0
VERTEX
  8
0
 10
685.134094
 20
-229.128601
  0
VERTEX
  8
0
 10
685.134094
 20
-226.128601
  0
VERTEX
  8
0
 10
686.133972
 20
-226.128601
  0
VERTEX
  8
0
 10
686.133972
 20
-224.028625
  0
SEQEND
  8
0
  0
POLYLINE
  8
0
 66
1
  0
VERTEX
  8
0
 10
676.133972
 20
-244.228577
  0
VERTEX
  8
0
 10
676.133972
 20
-244.728638
  0
VERTEX
  8
0
 10
673.133972
 20
-244.728638
  0
VERTEX
  8
0
 10
673.133972
 20
-244.228577
  0
VERTEX
  8
0
 10
673.133972
 20
-242.128601
  0
VERTEX
  8
0
 10
674.134094
 20
-242.128601
  0
VERTEX
  8
0
 10
674.134094
 20
-239.128601
  0
VERTEX
  8
0
 10
673.134094
 20
-239.128601
  0
VERTEX
  8
0
 10
673.134094
 20
-236.128601
  0
VERTEX
  8
0
 10
676.134094
 20
-236.128601
  0
VERTEX
  8
0
 10
676.134094
 20
-239.128601
  0
VERTEX
  8
0
 10
675.134094
 20
-239.128601
  0
VERTEX
  8
0
 10
675.134094
 20
-242.128601
  0
VERTEX
  8
0
 10
676.133972
 20
-242.128601
  0
VERTEX
  8
0
 10
676.133972
 20
-244.228577
  0
SEQEND
  8
0
  0
POLYLINE
  8
0
 66
1
  0
VERTEX
  8
0
 10
681.133972
 20
-244.228577
  0
VERTEX
  8
0
 10
681.133972
 20
-244.728638
  0
VERTEX
  8
0
 10
678.133972
 20
-244.728638
  0
VERTEX
  8
0
 10
678.133972
 20
-244.228577
  0
VERTEX
  8
0
 10
678.133972
 20
-242.128601
  0
VERTEX
  8
0
 10
679.134094
 20
-242.128601
  0
VERTEX
  8
0
 10
679.134094
 20
-239.128601
  0
VERTEX
  8
0
 10
678.134094
 20
-239.128601
  0
VERTEX
  8
0
 10
678.134094
 20
-236.128601
  0
VERTEX
  8
0
 10
681.134094
 20
-236.128601
  0
VERTEX
  8
0
 10
681.134094
 20
-239.128601
  0
VERTEX
  8
0
 10
680.134094
 20
-239.128601
  0
VERTEX
  8
0
 10
680.134094
 20
-242.128601
  0
VERTEX
  8
0
 10
681.133972
 20
-242.128601
  0
VERTEX
  8
0
 10
681.133972
 20
-244.228577
  0
SEQEND
  8
0
  0
POLYLINE
  8
0
 66
1
  0
VERTEX
  8
0
 10
686.133972
 20
-244.228577
  0
VERTEX
  8
0
 10
686.133972
 20
-244.728638
  0
VERTEX
  8
0
 10
683.133972
 20
-244.728638
  0
VERTEX
  8
0
 10
683.133972
 20
-244.228577
  0
VERTEX
  8
0
 10
683.133972
 20
-242.128601
  0
VERTEX
  8
0
 10
684.134094
 20
-242.128601
  0
VERTEX
  8
0
 10
684.134094
 20
-239.128601
  0
VERTEX
  8
0
 10
683.134094
 20
-239.128601
  0
VERTEX
  8
0
 10
683.134094
 20
-236.128601
  0
VERTEX
  8
0
 10
686.134094
 20
-236.128601
  0
VERTEX
  8
0
 10
686.134094
 20
-239.128601
  0
VERTEX
  8
0
 10
685.134094
 20
-239.128601
  0
VERTEX
  8
0
 10
685.134094
 20
-242.128601
  0
VERTEX
  8
0
 10
686.133972
 20
-242.128601
  0
VERTEX
  8
0
 10
686.133972
 20
-244.228577
  0
SEQEND
  8
0
  0
POLYLINE
  8
0
 66
1
  0
VERTEX
  8
0
 10
669.034180
 20
-229.128601
  0
VERTEX
  8
0
 10
671.634155
 20
-229.128601
  0
VERTEX
  8
0
 10
671.634155
 20
-239.128601
  0
VERTEX
  8
0
 10
669.034180
 20
-239.128601
  0
VERTEX
  8
0
 10
669.034180
 20
-229.128601
  0
SEQEND
  8
0
  0
POLYLINE
  8
0
 66
1
  0
VERTEX
  8
0
 10
690.234009
 20
-229.128601
  0
VERTEX
  8
0
 10
687.634033
 20
-229.128601
  0
VERTEX
  8
0
 10
687.634033
 20
-239.128601
  0
VERTEX
  8
0
 10
690.234009
 20
-239.128601
  0
VERTEX
  8
0
 10
690.234009
 20
-229.128601
  0
SEQEND
  8
0
  0
POLYLINE
  8
0
 66
1
  0
VERTEX
  8
0
 10
676.133972
 20
-249.028625
  0
VERTEX
  8
0
 10
676.133972
 20
-248.528564
  0
VERTEX
  8
0
 10
673.133972
 20
-248.528564
  0
VERTEX
  8
0
 10
673.133972
 20
-249.028625
  0
VERTEX
  8
0
 10
673.133972
 20
-251.128601
  0
VERTEX
  8
0
 10
674.134094
 20
-251.128601
  0
VERTEX
  8
0
 10
674.134094
 20
-254.128601
  0
VERTEX
  8
0
 10
673.134094
 20
-254.128601
  0
VERTEX
  8
0
 10
673.134094
 20
-257.128601
  0
VERTEX
  8
0
 10
676.134094
 20
-257.128601
  0
VERTEX
  8
0
 10
676.134094
 20
-254.128601
  0
VERTEX
  8
0
 10
675.134094
 20
-254.128601
  0
VERTEX
  8
0
 10
675.134094
 20
-251.128601
  0
VERTEX
  8
0
 10
676.133972
 20
-251.128601
  0
VERTEX
  8
0
 10
676.133972
 20
-249.028625
  0
SEQEND
  8
0
  0
POLYLINE
  8
0
 66
1
  0
VERTEX
  8
0
 10
681.133972
 20
-249.028625
  0
VERTEX
  8
0
 10
681.133972
 20
-248.528564
  0
VERTEX
  8
0
 10
678.133972
 20
-248.528564
  0
VERTEX
  8
0
 10
678.133972
 20
-249.028625
  0
VERTEX
  8
0
 10
678.133972
 20
-251.128601
  0
VERTEX
  8
0
 10
679.134094
 20
-251.128601
  0
VERTEX
  8
0
 10
679.134094
 20
-254.128601
  0
VERTEX
  8
0
 10
678.134094
 20
-254.128601
  0
VERTEX
  8
0
 10
678.134094
 20
-257.128601
  0
VERTEX
  8
0
 10
681.134094
 20
-257.128601
  0
VERTEX
  8
0
 10
681.134094
 20
-254.128601
  0
VERTEX
  8
0
 10
680.134094
 20
-254.128601
  0
VERTEX
  8
0
 10
680.134094
 20
-251.128601
  0
VERTEX
  8
0
 10
681.133972
 20
-251.128601
  0
VERTEX
  8
0
 10
681.133972
 20
-249.028625
  0
SEQEND
  8
0
  0
POLYLINE
  8
0
 66
1
  0
VERTEX
  8
0
 10
686.133972
 20
-249.028625
  0
VERTEX
  8
0
 10
686.133972
 20
-248.528564
  0
VERTEX
  8
0
 10
683.133972
 20
-248.528564
  0
VERTEX
  8
0
 10
683.133972
 20
-249.028625
  0
VERTEX
  8
0
 10
683.133972
 20
-251.128601
  0
VERTEX
  8
0
 10
684.134094
 20
-251.128601
  0
VERTEX
  8
0
 10
684.134094
 20
-254.128601
  0
VERTEX
  8
0
 10
683.134094
 20
-254.128601
  0
VERTEX
  8
0
 10
683.134094
 20
-257.128601
  0
VERTEX
  8
0
 10
686.134094
 20
-257.128601
  0
VERTEX
  8
0
 10
686.134094
 20
-254.128601
  0
VERTEX
  8
0
 10
685.134094
 20
-254.128601
  0
VERTEX
  8
0
 10
685.134094
 20
-251.128601
  0
VERTEX
  8
0
 10
686.133972
 20
-251.128601
  0
VERTEX
  8
0
 10
686.133972
 20
-249.028625
  0
SEQEND
  8
0
  0
POLYLINE
  8
0
 66
1
  0
VERTEX
  8
0
 10
676.133972
 20
-269.228577
  0
VERTEX
  8
0
 10
676.133972
 20
-269.728638
  0
VERTEX
  8
0
 10
673.133972
 20
-269.728638
  0
VERTEX
  8
0
 10
673.133972
 20
-269.228577
  0
VERTEX
  8
0
 10
673.133972
 20
-267.128601
  0
VERTEX
  8
0
 10
674.134094
 20
-267.128601
  0
VERTEX
  8
0
 10
674.134094
 20
-264.128601
  0
VERTEX
  8
0
 10
673.134094
 20
-264.128601
  0
VERTEX
  8
0
 10
673.134094
 20
-261.128601
  0
VERTEX
  8
0
 10
676.134094
 20
-261.128601
  0
VERTEX
  8
0
 10
676.134094
 20
-264.128601
  0
VERTEX
  8
0
 10
675.134094
 20
-264.128601
  0
VERTEX
  8
0
 10
675.134094
 20
-267.128601
  0
VERTEX
  8
0
 10
676.133972
 20
-267.128601
  0
VERTEX
  8
0
 10
676.133972
 20
-269.228577
  0
SEQEND
  8
0
  0
POLYLINE
  8
0
 66
1
  0
VERTEX
  8
0
 10
681.133972
 20
-269.228577
  0
VERTEX
  8
0
 10
681.133972
 20
-269.728638
  0
VERTEX
  8
0
 10
678.133972
 20
-269.728638
  0
VERTEX
  8
0
 10
678.133972
 20
-269.228577
  0
VERTEX
  8
0
 10
678.133972
 20
-267.128601
  0
VERTEX
  8
0
 10
679.134094
 20
-267.128601
  0
VERTEX
  8
0
 10
679.134094
 20
-264.128601
  0
VERTEX
  8
0
 10
678.134094
 20
-264.128601
  0
VERTEX
  8
0
 10
678.134094
 20
-261.128601
  0
VERTEX
  8
0
 10
681.134094
 20
-261.128601
  0
VERTEX
  8
0
 10
681.134094
 20
-264.128601
  0
VERTEX
  8
0
 10
680.134094
 20
-264.128601
  0
VERTEX
  8
0
 10
680.134094
 20
-267.128601
  0
VERTEX
  8
0
 10
681.133972
 20
-267.128601
  0
VERTEX
  8
0
 10
681.133972
 20
-269.228577
  0
SEQEND
  8
0
  0
POLYLINE
  8
0
 66
1
  0
VERTEX
  8
0
 10
686.133972
 20
-269.228577
  0
VERTEX
  8
0
 10
686.133972
 20
-269.728638
  0
VERTEX
  8
0
 10
683.133972
 20
-269.728638
  0
VERTEX
  8
0
 10
683.133972
 20
-269.228577
  0
VERTEX
  8
0
 10
683.133972
 20
-267.128601
  0
VERTEX
  8
0
 10
684.134094
 20
-267.128601
  0
VERTEX
  8
0
 10
684.134094
 20
-264.128601
  0
VERTEX
  8
0
 10
683.134094
 20
-264.128601
  0
VERTEX
  8
0
 10
683.134094
 20
-261.128601
  0
VERTEX
  8
0
 10
686.134094
 20
-261.128601
  0
VERTEX
  8
0
 10
686.134094
 20
-264.128601
  0
VERTEX
  8
0
 10
685.134094
 20
-264.128601
  0
VERTEX
  8
0
 10
685.134094
 20
-267.128601
  0
VERTEX
  8
0
 10
686.133972
 20
-267.128601
  0
VERTEX
  8
0
 10
686.133972
 20
-269.228577
  0
SEQEND
  8
0
  0
POLYLINE
  8
0
 66
1
  0
VERTEX
  8
0
 10
669.034180
 20
-254.128601
  0
VERTEX
  8
0
 10
671.634155
 20
-254.128601
  0
VERTEX
  8
0
 10
671.634155
 20
-264.128601
  0
VERTEX
  8
0
 10
669.034180
 20
-264.128601
  0
VERTEX
  8
0
 10
669.034180
 20
-254.128601
  0
SEQEND
  8
0
  0
POLYLINE
  8
0
 66
1
  0
VERTEX
  8
0
 10
690.234009
 20
-254.128601
  0
VERTEX
  8
0
 10
687.634033
 20
-254.128601
  0
VERTEX
  8
0
 10
687.634033
 20
-264.128601
  0
VERTEX
  8
0
 10
690.234009
 20
-264.128601
  0
VERTEX
  8
0
 10
690.234009
 20
-254.128601
  0
SEQEND
  8
0
  0
POLYLINE
  8
0
 66
1
  0
VERTEX
  8
0
 10
676.133972
 20
-274.028625
  0
VERTEX
  8
0
 10
676.133972
 20
-273.528564
  0
VERTEX
  8
0
 10
673.133972
 20
-273.528564
  0
VERTEX
  8
0
 10
673.133972
 20
-274.028625
  0
VERTEX
  8
0
 10
673.133972
 20
-276.128601
  0
VERTEX
  8
0
 10
674.134094
 20
-276.128601
  0
VERTEX
  8
0
 10
674.134094
 20
-279.128601
  0
VERTEX
  8
0
 10
673.134094
 20
-279.128601
  0
VERTEX
  8
0
 10
673.134094
 20
-282.128601
  0
VERTEX
  8
0
 10
676.134094
 20
-282.128601
  0
VERTEX
  8
0
 10
676.134094
 20
-279.128601
  0
VERTEX
  8
0
 10
675.134094
 20
-279.128601
  0
VERTEX
  8
0
 10
675.134094
 20
-276.128601
  0
VERTEX
  8
0
 10
676.133972
 20
-276.128601
  0
VERTEX
  8
0
 10
676.133972
 20
-274.028625
  0
SEQEND
  8
0
  0
POLYLINE
  8
0
 66
1
  0
VERTEX
  8
0
 10
681.133972
 20
-274.028625
  0
VERTEX
  8
0
 10
681.133972
 20
-273.528564
  0
VERTEX
  8
0
 10
678.133972
 20
-273.528564
  0
VERTEX
  8
0
 10
678.133972
 20
-274.028625
  0
VERTEX
  8
0
 10
678.133972
 20
-276.128601
  0
VERTEX
  8
0
 10
679.134094
 20
-276.128601
  0
VERTEX
  8
0
 10
679.134094
 20
-279.128601
  0
VERTEX
  8
0
 10
678.134094
 20
-279.128601
  0
VERTEX
  8
0
 10
678.134094
 20
-282.128601
  0
VERTEX
  8
0
 10
681.134094
 20
-282.128601
  0
VERTEX
  8
0
 10
681.134094
 20
-279.128601
  0
VERTEX
  8
0
 10
680.134094
 20
-279.128601
  0
VERTEX
  8
0
 10
680.134094
 20
-276.128601
  0
VERTEX
  8
0
 10
681.133972
 20
-276.128601
  0
VERTEX
  8
0
 10
681.133972
 20
-274.028625
  0
SEQEND
  8
0
  0
POLYLINE
  8
0
 66
1
  0
VERTEX
  8
0
 10
686.133972
 20
-274.028625
  0
VERTEX
  8
0
 10
686.133972
 20
-273.528564
  0
VERTEX
  8
0
 10
683.133972
 20
-273.528564
  0
VERTEX
  8
0
 10
683.133972
 20
-274.028625
  0
VERTEX
  8
0
 10
683.133972
 20
-276.128601
  0
VERTEX
  8
0
 10
684.134094
 20
-276.128601
  0
VERTEX
  8
0
 10
684.134094
 20
-279.128601
  0
VERTEX
  8
0
 10
683.134094
 20
-279.128601
  0
VERTEX
  8
0
 10
683.134094
 20
-282.128601
  0
VERTEX
  8
0
 10
686.134094
 20
-282.128601
  0
VERTEX
  8
0
 10
686.134094
 20
-279.128601
  0
VERTEX
  8
0
 10
685.134094
 20
-279.128601
  0
VERTEX
  8
0
 10
685.134094
 20
-276.128601
  0
VERTEX
  8
0
 10
686.133972
 20
-276.128601
  0
VERTEX
  8
0
 10
686.133972
 20
-274.028625
  0
SEQEND
  8
0
  0
POLYLINE
  8
0
 66
1
  0
VERTEX
  8
0
 10
676.133972
 20
-294.228577
  0
VERTEX
  8
0
 10
676.133972
 20
-294.728638
  0
VERTEX
  8
0
 10
673.133972
 20
-294.728638
  0
VERTEX
  8
0
 10
673.133972
 20
-294.228577
  0
VERTEX
  8
0
 10
673.133972
 20
-292.128601
  0
VERTEX
  8
0
 10
674.134094
 20
-292.128601
  0
VERTEX
  8
0
 10
674.134094
 20
-289.128601
  0
VERTEX
  8
0
 10
673.134094
 20
-289.128601
  0
VERTEX
  8
0
 10
673.134094
 20
-286.128601
  0
VERTEX
  8
0
 10
676.134094
 20
-286.128601
  0
VERTEX
  8
0
 10
676.134094
 20
-289.128601
  0
VERTEX
  8
0
 10
675.134094
 20
-289.128601
  0
VERTEX
  8
0
 10
675.134094
 20
-292.128601
  0
VERTEX
  8
0
 10
676.133972
 20
-292.128601
  0
VERTEX
  8
0
 10
676.133972
 20
-294.228577
  0
SEQEND
  8
0
  0
POLYLINE
  8
0
 66
1
  0
VERTEX
  8
0
 10
681.133972
 20
-294.228577
  0
VERTEX
  8
0
 10
681.133972
 20
-294.728638
  0
VERTEX
  8
0
 10
678.133972
 20
-294.728638
  0
VERTEX
  8
0
 10
678.133972
 20
-294.228577
  0
VERTEX
  8
0
 10
678.133972
 20
-292.128601
  0
VERTEX
  8
0
 10
679.134094
 20
-292.128601
  0
VERTEX
  8
0
 10
679.134094
 20
-289.128601
  0
VERTEX
  8
0
 10
678.134094
 20
-289.128601
  0
VERTEX
  8
0
 10
678.134094
 20
-286.128601
  0
VERTEX
  8
0
 10
681.134094
 20
-286.128601
  0
VERTEX
  8
0
 10
681.134094
 20
-289.128601
  0
VERTEX
  8
0
 10
680.134094
 20
-289.128601
  0
VERTEX
  8
0
 10
680.134094
 20
-292.128601
  0
VERTEX
  8
0
 10
681.133972
 20
-292.128601
  0
VERTEX
  8
0
 10
681.133972
 20
-294.228577
  0
SEQEND
  8
0
  0
POLYLINE
  8
0
 66
1
  0
VERTEX
  8
0
 10
686.133972
 20
-294.228577
  0
VERTEX
  8
0
 10
686.133972
 20
-294.728638
  0
VERTEX
  8
0
 10
683.133972
 20
-294.728638
  0
VERTEX
  8
0
 10
683.133972
 20
-294.228577
  0
VERTEX
  8
0
 10
683.133972
 20
-292.128601
  0
VERTEX
  8
0
 10
684.134094
 20
-292.128601
  0
VERTEX
  8
0
 10
684.134094
 20
-289.128601
  0
VERTEX
  8
0
 10
683.134094
 20
-289.128601
  0
VERTEX
  8
0
 10
683.134094
 20
-286.128601
  0
VERTEX
  8
0
 10
686.134094
 20
-286.128601
  0
VERTEX
  8
0
 10
686.134094
 20
-289.128601
  0
VERTEX
  8
0
 10
685.134094
 20
-289.128601
  0
VERTEX
  8
0
 10
685.134094
 20
-292.128601
  0
VERTEX
  8
0
 10
686.133972
 20
-292.128601
  0
VERTEX
  8
0
 10
686.133972
 20
-294.228577
  0
SEQEND
  8
0
  0
POLYLINE
  8
0
 66
1
  0
VERTEX
  8
0
 10
669.034180
 20
-279.128601
  0
VERTEX
  8
0
 10
671.634155
 20
-279.128601
  0
VERTEX
  8
0
 10
671.634155
 20
-289.128601
  0
VERTEX
  8
0
 10
669.034180
 20
-289.128601
  0
VERTEX
  8
0
 10
669.034180
 20
-279.128601
  0
SEQEND
  8
0
  0
POLYLINE
  8
0
 66
1
  0
VERTEX
  8
0
 10
690.234009
 20
-279.128601
  0
VERTEX
  8
0
 10
687.634033
 20
-279.128601
  0
VERTEX
  8
0
 10
687.634033
 20
-289.128601
  0
VERTEX
  8
0
 10
690.234009
 20
-289.128601
  0
VERTEX
  8
0
 10
690.234009
 20
-279.128601
  0
SEQEND
  8
0
  0
ENDSEC
  0
EOF
