  0
SECTION
  2
HEADER
  9
$ACADVER
  1
AC1015
  9
$ACADMAINTVER
 70
     6
  9
$DWGCODEPAGE
  3
ANSI_936
  9
$INSBASE
 10
0.0
 20
0.0
 30
0.0
  9
$EXTMIN
 10
0.0
 20
0.0
 30
0.0
  9
$EXTMAX
 10
297.0
 20
210.0
 30
0.0
  9
$LIMMIN
 10
0.0
 20
0.0
  9
$LIMMAX
 10
297.0
 20
210.0
  9
$ORTHOMODE
 70
     0
  9
$REGENMODE
 70
     1
  9
$FILLMODE
 70
     1
  9
$QTEXTMODE
 70
     0
  9
$MIRRTEXT
 70
     1
  9
$LTSCALE
 40
1.0
  9
$ATTMODE
 70
     1
  9
$TEXTSIZE
 40
3.5
  9
$TRACEWID
 40
1.0
  9
$TEXTSTYLE
  7
Standard
  9
$CLAYER
  8
0
  9
$CELTYPE
  6
ByLayer
  9
$CECOLOR
 62
   256
  9
$CELTSCALE
 40
1.0
  9
$DISPSILH
 70
     0
  9
$DIMSCALE
 40
1.0
  9
$DIMASZ
 40
3.5
  9
$DIMEXO
 40
1.5
  9
$DIMDLI
 40
3.75
  9
$DIMRND
 40
0.0
  9
$DIMDLE
 40
0.0
  9
$DIMEXE
 40
1.5
  9
$DIMTP
 40
0.0
  9
$DIMTM
 40
0.0
  9
$DIMTXT
 40
3.5
  9
$DIMCEN
 40
2.5
  9
$DIMTSZ
 40
0.0
  9
$DIMTOL
 70
     0
  9
$DIMLIM
 70
     0
  9
$DIMTIH
 70
     1
  9
$DIMTOH
 70
     1
  9
$DIMSE1
 70
     0
  9
$DIMSE2
 70
     0
  9
$DIMTAD
 70
     1
  9
$DIMZIN
 70
     0
  9
$DIMBLK
  1

  9
$DIMASO
 70
     1
  9
$DIMSHO
 70
     1
  9
$DIMPOST
  1

  9
$DIMAPOST
  1

  9
$DIMALT
 70
     0
  9
$DIMALTD
 70
     3
  9
$DIMALTF
 40
0.0393700787
  9
$DIMLFAC
 40
0.5
  9
$DIMTOFL
 70
     1
  9
$DIMTVP
 40
0.0
  9
$DIMTIX
 70
     0
  9
$DIMSOXD
 70
     0
  9
$DIMSAH
 70
     0
  9
$DIMBLK1
  1

  9
$DIMBLK2
  1

  9
$DIMSTYLE
  2
ISO-25
  9
$DIMCLRD
 70
     0
  9
$DIMCLRE
 70
     0
  9
$DIMCLRT
 70
     0
  9
$DIMTFAC
 40
1.0
  9
$DIMGAP
 40
3.0
  9
$DIMJUST
 70
     0
  9
$DIMSD1
 70
     0
  9
$DIMSD2
 70
     0
  9
$DIMTOLJ
 70
     0
  9
$DIMTZIN
 70
     0
  9
$DIMALTZ
 70
     0
  9
$DIMALTTZ
 70
     0
  9
$DIMUPT
 70
     0
  9
$DIMDEC
 70
     1
  9
$DIMTDEC
 70
     1
  9
$DIMALTU
 70
     2
  9
$DIMALTTD
 70
     3
  9
$DIMTXSTY
  7
Standard
  9
$DIMAUNIT
 70
     0
  9
$DIMADEC
 70
     2
  9
$DIMALTRND
 40
0.0
  9
$DIMAZIN
 70
     0
  9
$DIMDSEP
 70
    44
  9
$DIMATFIT
 70
     3
  9
$DIMFRAC
 70
     0
  9
$DIMLDRBLK
  1

  9
$DIMLUNIT
 70
     2
  9
$DIMLWD
 70
    -2
  9
$DIMLWE
 70
    -2
  9
$DIMTMOVE
 70
     0
  9
$LUNITS
 70
     2
  9
$LUPREC
 70
     4
  9
$SKETCHINC
 40
1.0
  9
$FILLETRAD
 40
10.0
  9
$AUNITS
 70
     0
  9
$AUPREC
 70
     2
  9
$MENU
  1
.
  9
$ELEVATION
 40
0.0
  9
$PELEVATION
 40
0.0
  9
$THICKNESS
 40
0.0
  9
$LIMCHECK
 70
     0
  9
$CHAMFERA
 40
10.0
  9
$CHAMFERB
 40
10.0
  9
$CHAMFERC
 40
20.0
  9
$CHAMFERD
 40
0.0
  9
$SKPOLY
 70
     0
  9
$TDCREATE
 40
2460412.594262408
  9
$TDUCREATE
 40
2460412.260929074
  9
$TDUPDATE
 40
2460412.594263715
  9
$TDUUPDATE
 40
2460412.260930382
  9
$TDINDWG
 40
0.0000000116
  9
$TDUSRTIMER
 40
0.0000000116
  9
$USRTIMER
 70
     1
  9
$ANGBASE
 50
0.0
  9
$ANGDIR
 70
     0
  9
$PDMODE
 70
     0
  9
$PDSIZE
 40
-1.0
  9
$PLINEWID
 40
0.0
  9
$SPLFRAME
 70
     0
  9
$SPLINETYPE
 70
     6
  9
$SPLINESEGS
 70
     8
  9
$HANDSEED
  5
282
  9
$SURFTAB1
 70
     6
  9
$SURFTAB2
 70
     6
  9
$SURFTYPE
 70
     6
  9
$SURFU
 70
     6
  9
$SURFV
 70
     6
  9
$UCSBASE
  2

  9
$UCSNAME
  2

  9
$UCSORG
 10
0.0
 20
0.0
 30
0.0
  9
$UCSXDIR
 10
1.0
 20
0.0
 30
0.0
  9
$UCSYDIR
 10
0.0
 20
1.0
 30
0.0
  9
$UCSORTHOREF
  2

  9
$UCSORTHOVIEW
 70
     0
  9
$UCSORGTOP
 10
0.0
 20
0.0
 30
0.0
  9
$UCSORGBOTTOM
 10
0.0
 20
0.0
 30
0.0
  9
$UCSORGLEFT
 10
0.0
 20
0.0
 30
0.0
  9
$UCSORGRIGHT
 10
0.0
 20
0.0
 30
0.0
  9
$UCSORGFRONT
 10
0.0
 20
0.0
 30
0.0
  9
$UCSORGBACK
 10
0.0
 20
0.0
 30
0.0
  9
$PUCSBASE
  2

  9
$PUCSNAME
  2

  9
$PUCSORG
 10
0.0
 20
0.0
 30
0.0
  9
$PUCSXDIR
 10
1.0
 20
0.0
 30
0.0
  9
$PUCSYDIR
 10
0.0
 20
1.0
 30
0.0
  9
$PUCSORTHOREF
  2

  9
$PUCSORTHOVIEW
 70
     0
  9
$PUCSORGTOP
 10
0.0
 20
0.0
 30
0.0
  9
$PUCSORGBOTTOM
 10
0.0
 20
0.0
 30
0.0
  9
$PUCSORGLEFT
 10
0.0
 20
0.0
 30
0.0
  9
$PUCSORGRIGHT
 10
0.0
 20
0.0
 30
0.0
  9
$PUCSORGFRONT
 10
0.0
 20
0.0
 30
0.0
  9
$PUCSORGBACK
 10
0.0
 20
0.0
 30
0.0
  9
$USERI1
 70
     0
  9
$USERI2
 70
     0
  9
$USERI3
 70
     0
  9
$USERI4
 70
     0
  9
$USERI5
 70
     0
  9
$USERR1
 40
0.0
  9
$USERR2
 40
0.0
  9
$USERR3
 40
0.0
  9
$USERR4
 40
0.0
  9
$USERR5
 40
0.0
  9
$WORLDVIEW
 70
     1
  9
$SHADEDGE
 70
     3
  9
$SHADEDIF
 70
    70
  9
$TILEMODE
 70
     1
  9
$MAXACTVP
 70
    64
  9
$PINSBASE
 10
0.0
 20
0.0
 30
0.0
  9
$PLIMCHECK
 70
     0
  9
$PEXTMIN
 10
1.0000000000E+20
 20
1.0000000000E+20
 30
1.0000000000E+20
  9
$PEXTMAX
 10
-1.0000000000E+20
 20
-1.0000000000E+20
 30
-1.0000000000E+20
  9
$PLIMMIN
 10
0.0
 20
0.0
  9
$PLIMMAX
 10
420.0
 20
297.0
  9
$UNITMODE
 70
     0
  9
$VISRETAIN
 70
     1
  9
$PLINEGEN
 70
     0
  9
$PSLTSCALE
 70
     1
  9
$TREEDEPTH
 70
  3020
  9
$CMLSTYLE
  2
Standard
  9
$CMLJUST
 70
     0
  9
$CMLSCALE
 40
20.0
  9
$PROXYGRAPHICS
 70
     1
  9
$MEASUREMENT
 70
     1
  9
$CELWEIGHT
370
    -1
  9
$ENDCAPS
280
     0
  9
$JOINSTYLE
280
     0
  9
$LWDISPLAY
290
     1
  9
$INSUNITS
 70
     4
  9
$HYPERLINKBASE
  1

  9
$STYLESHEET
  1

  9
$XEDIT
290
     1
  9
$CEPSNTYPE
380
     0
  9
$PSTYLEMODE
290
     1
  9
$FINGERPRINTGUID
  2
{E5284F10-B493-4794-B1B1-A0F6D140FD02}
  9
$VERSIONGUID
  2
{FAEB1C32-E019-11D5-929B-00C0DF256EC4}
  9
$EXTNAMES
290
     1
  9
$PSVPSCALE
 40
0.0
  9
$OLESTARTUP
290
     0
  0
ENDSEC
  0
SECTION
  2
CLASSES
  0
CLASS
  1
ACDBDICTIONARYWDFLT
  2
AcDbDictionaryWithDefault
  3
ObjectDBX Classes
 90
        0
280
     0
281
     0
  0
CLASS
  1
VISUALSTYLE
  2
AcDbVisualStyle
  3
ObjectDBX Classes
 90
     4095
280
     0
281
     0
  0
CLASS
  1
MATERIAL
  2
AcDbMaterial
  3
ObjectDBX Classes
 90
     1153
280
     0
281
     0
  0
CLASS
  1
ACDBPLACEHOLDER
  2
AcDbPlaceHolder
  3
ObjectDBX Classes
 90
        0
280
     0
281
     0
  0
CLASS
  1
LAYOUT
  2
AcDbLayout
  3
ObjectDBX Classes
 90
        0
280
     0
281
     0
  0
ENDSEC
  0
SECTION
  2
TABLES
  0
TABLE
  2
VPORT
  5
8
330
0
100
AcDbSymbolTable
 70
     1
  0
VPORT
  5
29
330
8
100
AcDbSymbolTableRecord
100
AcDbViewportTableRecord
  2
*Active
 70
     0
 10
0.0
 20
0.0
 11
1.0
 21
1.0
 12
148.5
 22
105.0
 13
0.0
 23
0.0
 14
10.0
 24
10.0
 15
10.0
 25
10.0
 16
0.0
 26
0.0
 36
1.0
 17
0.0
 27
0.0
 37
0.0
 40
210.0
 41
1.4142857143
 42
50.0
 43
0.0
 44
0.0
 50
0.0
 51
0.0
 71
     0
 72
  2000
 73
     1
 74
     3
 75
     0
 76
     0
 77
     0
 78
     0
281
     0
 65
     1
110
0.0
120
0.0
130
0.0
111
1.0
121
0.0
131
0.0
112
0.0
122
1.0
132
0.0
 79
     0
146
0.0
  0
ENDTAB
  0
TABLE
  2
LTYPE
  5
5
330
0
100
AcDbSymbolTable
 70
     6
  0
LTYPE
  5
14
330
5
100
AcDbSymbolTableRecord
100
AcDbLinetypeTableRecord
  2
ByBlock
 70
     0
  3

 72
    65
 73
     0
 40
0.0
  0
LTYPE
  5
15
330
5
100
AcDbSymbolTableRecord
100
AcDbLinetypeTableRecord
  2
ByLayer
 70
     0
  3

 72
    65
 73
     0
 40
0.0
  0
LTYPE
  5
16
330
5
100
AcDbSymbolTableRecord
100
AcDbLinetypeTableRecord
  2
Continuous
 70
     0
  3
Solid line
 72
    65
 73
     0
 40
0.0
  0
LTYPE
  5
3F
330
5
100
AcDbSymbolTableRecord
100
AcDbLinetypeTableRecord
  2
HIDDEN
 70
     0
  3
Hidden __ __ __ __ __ __ __ __ __ __ __ __ __ __
 72
    65
 73
     2
 40
1.905
 49
1.27
 74
     0
 49
-0.635
 74
     0
  0
LTYPE
  5
40
330
5
100
AcDbSymbolTableRecord
100
AcDbLinetypeTableRecord
  2
PHANTOM
 70
     0
  3
Phantom ______  __  __  ______  __  __  ______
 72
    65
 73
     6
 40
12.7
 49
6.35
 74
     0
 49
-1.27
 74
     0
 49
1.27
 74
     0
 49
-1.27
 74
     0
 49
1.27
 74
     0
 49
-1.27
 74
     0
  0
LTYPE
  5
41
330
5
100
AcDbSymbolTableRecord
100
AcDbLinetypeTableRecord
  2
CENTER
 70
     0
  3
Center ____ _ ____ _ ____ _ ____ _ ____ _ ____
 72
    65
 73
     4
 40
10.16
 49
6.35
 74
     0
 49
-1.27
 74
     0
 49
1.27
 74
     0
 49
-1.27
 74
     0
  0
LTYPE
  5
42
330
5
100
AcDbSymbolTableRecord
100
AcDbLinetypeTableRecord
  2
CENTERX2
 70
     0
  3
Center (2x) ________  __  ________  __  _____
 72
    65
 73
     4
 40
20.32
 49
12.7
 74
     0
 49
-2.54
 74
     0
 49
2.54
 74
     0
 49
-2.54
 74
     0
  0
LTYPE
  5
43
330
5
100
AcDbSymbolTableRecord
100
AcDbLinetypeTableRecord
  2
DOT2
 70
     0
  3
Dot (.5x) ........................................
 72
    65
 73
     2
 40
0.635
 49
0.0
 74
     0
 49
-0.635
 74
     0
  0
ENDTAB
  0
TABLE
  2
LAYER
  5
2
330
0
100
AcDbSymbolTable
 70
    16
  0
LAYER
  5
10
330
2
100
AcDbSymbolTableRecord
100
AcDbLayerTableRecord
  2
0
 70
     0
 62
     7
  6
Continuous
370
    -3
390
F
  0
LAYER
  5
44
330
2
100
AcDbSymbolTableRecord
100
AcDbLayerTableRecord
  2
´ÖĘµĎß˛ă
 70
     0
 62
     7
  6
Continuous
370
    30
390
F
  0
LAYER
  5
45
330
2
100
AcDbSymbolTableRecord
100
AcDbLayerTableRecord
  2
Ď¸ĘµĎß˛ă
 70
     0
 62
     7
  6
Continuous
370
    -3
390
F
  0
LAYER
  5
46
330
2
100
AcDbSymbolTableRecord
100
AcDbLayerTableRecord
  2
ÖĐĐÄĎß˛ă
 70
     0
 62
     7
  6
CENTERX2
370
    -3
390
F
  0
LAYER
  5
47
330
2
100
AcDbSymbolTableRecord
100
AcDbLayerTableRecord
  2
ĐéĎß˛ă
 70
     0
 62
     7
  6
HIDDEN
370
    -3
390
F
  0
LAYER
  5
48
330
2
100
AcDbSymbolTableRecord
100
AcDbLayerTableRecord
  2
Ë«µă»®Ďß˛ă
 70
     0
 62
     7
  6
PHANTOM
370
    -3
390
F
  0
LAYER
  5
49
330
2
100
AcDbSymbolTableRecord
100
AcDbLayerTableRecord
  2
µă»®Ďß˛ă
 70
     0
 62
     7
  6
CENTER
370
    -3
390
F
  0
LAYER
  5
4A
330
2
100
AcDbSymbolTableRecord
100
AcDbLayerTableRecord
  2
ÍĽżň
 70
     0
 62
     7
  6
Continuous
370
    -3
390
F
  0
LAYER
  5
4B
330
2
100
AcDbSymbolTableRecord
100
AcDbLayerTableRecord
  2
ÂÖŔŞĘµĎß˛ă
 70
     0
 62
     7
  6
Continuous
370
    40
390
F
  0
LAYER
  5
4C
330
2
100
AcDbSymbolTableRecord
100
AcDbLayerTableRecord
  2
Ď¸Ďß˛ă
 70
     0
 62
     4
  6
Continuous
370
    15
390
F
  0
LAYER
  5
4D
330
2
100
AcDbSymbolTableRecord
100
AcDbLayerTableRecord
  2
ĆĘĂćĎß˛ă
 70
     0
 62
     2
  6
Continuous
370
    15
390
F
  0
LAYER
  5
4E
330
2
100
AcDbSymbolTableRecord
100
AcDbLayerTableRecord
  2
ÎÄ×Ö˛ă
 70
     0
 62
     3
  6
Continuous
370
    15
390
F
  0
LAYER
  5
4F
330
2
100
AcDbSymbolTableRecord
100
AcDbLayerTableRecord
  2
±ę×˘˛ă
 70
     0
 62
     4
  6
Continuous
370
    15
390
F
  0
LAYER
  5
50
330
2
100
AcDbSymbolTableRecord
100
AcDbLayerTableRecord
  2
·űşĹ±ę×˘˛ă
 70
     0
 62
    31
  6
Continuous
370
    15
390
F
  0
LAYER
  5
51
330
2
100
AcDbSymbolTableRecord
100
AcDbLayerTableRecord
  2
şěÉ«
 70
     0
 62
     1
  6
Continuous
370
   158
390
F
  0
LAYER
  5
52
330
2
100
AcDbSymbolTableRecord
100
AcDbLayerTableRecord
  2
Ŕ¶É«
 70
     0
 62
   150
  6
Continuous
370
   158
390
F
  0
ENDTAB
  0
TABLE
  2
STYLE
  5
3
330
0
100
AcDbSymbolTable
 70
     5
  0
STYLE
  5
11
330
3
100
AcDbSymbolTableRecord
100
AcDbTextStyleTableRecord
  2
Standard
 70
     0
 40
0.0
 41
1.0
 50
0.0
 71
     0
 42
3.5
  3
txt
  4

  0
STYLE
  5
192
330
3
100
AcDbSymbolTableRecord
100
AcDbTextStyleTableRecord
  2
SLDTEXTSTYLE0
 70
     0
 40
0.0
 41
0.7
 50
0.0
 71
     0
 42
0.2
  3
TXT
  4
bigfont
  0
STYLE
  5
1A2
330
3
100
AcDbSymbolTableRecord
100
AcDbTextStyleTableRecord
  2
SLDTEXTSTYLE1
 70
     0
 40
0.0
 41
0.7
 50
0.0
 71
     0
 42
0.2
  3
TXT
  4

  0
STYLE
  5
1D3
330
3
100
AcDbSymbolTableRecord
100
AcDbTextStyleTableRecord
  2
SLDTEXTSTYLE2
 70
     0
 40
0.0
 41
0.5666666667
 50
0.0
 71
     0
 42
0.2
  3
TXT
  4
bigfont
  0
STYLE
  5
1D5
330
3
100
AcDbSymbolTableRecord
100
AcDbTextStyleTableRecord
  2
SLDTEXTSTYLE3
 70
     0
 40
0.0
 41
0.5571428571
 50
0.0
 71
     0
 42
0.2
  3
TXT
  4
bigfont
  0
ENDTAB
  0
TABLE
  2
VIEW
  5
6
330
0
100
AcDbSymbolTable
 70
     0
  0
ENDTAB
  0
TABLE
  2
UCS
  5
7
330
0
100
AcDbSymbolTable
 70
     0
  0
ENDTAB
  0
TABLE
  2
APPID
  5
9
330
0
100
AcDbSymbolTable
 70
     1
  0
APPID
  5
12
330
9
100
AcDbSymbolTableRecord
100
AcDbRegAppTableRecord
  2
ACAD
 70
     0
  0
ENDTAB
  0
TABLE
  2
DIMSTYLE
  5
A
330
0
100
AcDbSymbolTable
 70
     5
100
AcDbDimStyleTable
  0
DIMSTYLE
105
27
330
A
100
AcDbSymbolTableRecord
100
AcDbDimStyleTableRecord
  2
ISO-25
 70
     0
 41
2.5
 42
0.625
 43
3.75
 44
1.25
 73
     0
 74
     0
 77
     1
 78
     8
140
2.5
141
2.5
143
0.0393700787
147
0.625
171
     3
172
     1
178
     0
271
     2
272
     2
274
     3
278
    44
283
     0
284
     8
340
11
  0
DIMSTYLE
105
203
102
{ACAD_REACTORS
330
202
330
20F
102
}
330
A
100
AcDbSymbolTableRecord
100
AcDbDimStyleTableRecord
  2
SLDDIMSTYLE0
 70
     0
 41
3.5
 44
0.0
 45
0.000000001
 78
    12
 79
     3
140
3.5
141
0.0
144
2.0
147
0.875
172
     1
173
     1
178
     0
271
     1
272
     1
276
     2
284
    12
340
1A2
  0
DIMSTYLE
105
21F
102
{ACAD_REACTORS
330
21E
102
}
330
A
100
AcDbSymbolTableRecord
100
AcDbDimStyleTableRecord
  2
SLDDIMSTYLE1
 70
     0
 41
3.5
 44
0.0
 45
0.000000001
 78
    12
 79
     3
140
3.5
141
0.0
144
2.0
147
0.875
172
     1
173
     1
178
     0
271
     2
272
     2
276
     2
284
    12
340
1A2
  0
DIMSTYLE
105
22C
102
{ACAD_REACTORS
330
22B
102
}
330
A
100
AcDbSymbolTableRecord
100
AcDbDimStyleTableRecord
  2
SLDDIMSTYLE2
 70
     0
 41
3.5
 44
0.0
 45
0.000000001
 47
0.1
 71
     1
 78
    12
 79
     3
140
3.5
141
0.0
144
2.0
147
0.875
172
     1
173
     1
178
     0
271
     1
272
     1
276
     2
284
     8
340
1A2
  0
DIMSTYLE
105
273
102
{ACAD_REACTORS
330
272
102
}
330
A
100
AcDbSymbolTableRecord
100
AcDbDimStyleTableRecord
  2
SLDDIMSTYLE3
 70
     0
 41
3.5
 44
0.0
 45
0.000000001
 73
     0
 74
     0
 77
     2
 78
    12
 79
     3
140
3.5
144
2.0
147
0.875
172
     1
173
     1
178
     0
271
     1
272
     1
276
     2
284
    12
289
     0
340
1A2
  0
ENDTAB
  0
TABLE
  2
BLOCK_RECORD
  5
1
330
0
100
AcDbSymbolTable
 70
    13
  0
BLOCK_RECORD
  5
1F
330
1
100
AcDbSymbolTableRecord
100
AcDbBlockTableRecord
  2
*Model_Space
340
22
  0
BLOCK_RECORD
  5
1B
330
1
100
AcDbSymbolTableRecord
100
AcDbBlockTableRecord
  2
*Paper_Space
340
1E
  0
BLOCK_RECORD
  5
23
330
1
100
AcDbSymbolTableRecord
100
AcDbBlockTableRecord
  2
*Paper_Space0
340
26
  0
BLOCK_RECORD
  5
53
330
1
100
AcDbSymbolTableRecord
100
AcDbBlockTableRecord
  2
żé2
340
0
102
{BLKREFS
331
191
102
}
  0
BLOCK_RECORD
  5
194
330
1
100
AcDbSymbolTableRecord
100
AcDbBlockTableRecord
  2
SW_NOTE_0
340
0
102
{BLKREFS
331
19E
102
}
  0
BLOCK_RECORD
  5
19F
330
1
100
AcDbSymbolTableRecord
100
AcDbBlockTableRecord
  2
SW_NOTE_1
340
0
102
{BLKREFS
331
1A5
102
}
  0
BLOCK_RECORD
  5
1B6
330
1
100
AcDbSymbolTableRecord
100
AcDbBlockTableRecord
  2
SW_NOTE_2
340
0
102
{BLKREFS
331
1BB
102
}
  0
BLOCK_RECORD
  5
1CC
330
1
100
AcDbSymbolTableRecord
100
AcDbBlockTableRecord
  2
SW_NOTE_3
340
0
102
{BLKREFS
331
1D1
102
}
  0
BLOCK_RECORD
  5
1F4
330
1
100
AcDbSymbolTableRecord
100
AcDbBlockTableRecord
  2
SW_SFSYMBOL_0
340
0
102
{BLKREFS
331
1FB
102
}
  0
BLOCK_RECORD
  5
204
330
1
100
AcDbSymbolTableRecord
100
AcDbBlockTableRecord
  2
_D
340
0
  0
BLOCK_RECORD
  5
210
330
1
100
AcDbSymbolTableRecord
100
AcDbBlockTableRecord
  2
_D_1
340
0
  0
BLOCK_RECORD
  5
220
330
1
100
AcDbSymbolTableRecord
100
AcDbBlockTableRecord
  2
_D_2
340
0
  0
BLOCK_RECORD
  5
22D
330
1
100
AcDbSymbolTableRecord
100
AcDbBlockTableRecord
  2
_D_3
340
0
  0
BLOCK_RECORD
  5
23E
330
1
100
AcDbSymbolTableRecord
100
AcDbBlockTableRecord
  2
SW_CENTERMARKSYMBOL_0
340
0
102
{BLKREFS
331
265
102
}
  0
BLOCK_RECORD
  5
274
330
1
100
AcDbSymbolTableRecord
100
AcDbBlockTableRecord
  2
_D_4
340
0
  0
ENDTAB
  0
ENDSEC
  0
SECTION
  2
BLOCKS
  0
BLOCK
  5
20
330
1F
100
AcDbEntity
  8
0
100
AcDbBlockBegin
  2
*Model_Space
 70
     0
 10
0.0
 20
0.0
 30
0.0
  3
*Model_Space
  1

  0
ENDBLK
  5
21
330
1F
100
AcDbEntity
  8
0
100
AcDbBlockEnd
  0
BLOCK
  5
1C
330
1B
100
AcDbEntity
 67
     1
  8
0
100
AcDbBlockBegin
  2
*Paper_Space
 70
     0
 10
0.0
 20
0.0
 30
0.0
  3
*Paper_Space
  1

  0
ENDBLK
  5
1D
330
1B
100
AcDbEntity
 67
     1
  8
0
100
AcDbBlockEnd
  0
BLOCK
  5
24
330
23
100
AcDbEntity
  8
0
100
AcDbBlockBegin
  2
*Paper_Space0
 70
     0
 10
0.0
 20
0.0
 30
0.0
  3
*Paper_Space0
  1

  0
ENDBLK
  5
25
330
23
100
AcDbEntity
  8
0
100
AcDbBlockEnd
  0
BLOCK
  5
54
330
53
100
AcDbEntity
  8
0
100
AcDbBlockBegin
  2
żé2
 70
     0
 10
0.0
 20
0.0
 30
0.0
  3
żé2
  1

  0
CIRCLE
  5
56
330
53
100
AcDbEntity
  8
ÍĽżň
100
AcDbCircle
 10
12.51984546
 20
3.2305113411
 30
0.0
 40
2.146655703597844
  0
CIRCLE
  5
57
330
53
100
AcDbEntity
  8
ÍĽżň
100
AcDbCircle
 10
12.51984546
 20
3.2305113411
 30
0.0
 40
1.292204536433417
  0
LINE
  5
58
330
53
100
AcDbEntity
  8
ÍĽżň
  6
CENTER
100
AcDbLine
 10
12.51984546
 20
0.0
 30
0.0
 11
12.51984546
 21
6.4610226821
 31
0.0
  0
LINE
  5
59
330
53
100
AcDbEntity
  8
ÍĽżň
  6
CENTER
100
AcDbLine
 10
0.0
 20
3.2305113411
 30
0.0
 11
15.465041008
 21
3.2305113411
 31
0.0
  0
LINE
  5
5A
330
53
100
AcDbEntity
  8
ÍĽżň
100
AcDbLine
 10
8.7716992021
 20
5.3771670447
 30
0.0
 11
8.7716992021
 21
1.0838556375
 31
0.0
  0
LINE
  5
5B
330
53
100
AcDbEntity
  8
ÍĽżň
100
AcDbLine
 10
0.7270909789
 20
4.6336303579
 30
0.0
 11
8.7716992021
 21
5.3771670447
 31
0.0
  0
LINE
  5
5C
330
53
100
AcDbEntity
  8
ÍĽżň
100
AcDbLine
 10
0.7270909789
 20
2.0492212851
 30
0.0
 11
8.7716992021
 21
1.0838556375
 31
0.0
  0
LINE
  5
5D
330
53
100
AcDbEntity
  8
ÍĽżň
100
AcDbLine
 10
0.7270909789
 20
2.0492212851
 30
0.0
 11
0.7270909789
 21
4.6336303579
 31
0.0
  0
ENDBLK
  5
55
330
53
100
AcDbEntity
  8
0
100
AcDbBlockEnd
  0
BLOCK
  5
195
330
194
100
AcDbEntity
  8
0
100
AcDbBlockBegin
  2
SW_NOTE_0
 70
     0
 10
0.0
 20
0.0
 30
0.0
  3
SW_NOTE_0
  1

  0
MTEXT
  5
197
330
194
100
AcDbEntity
  8
Ď¸ĘµĎß˛ă
 62
     0
100
AcDbMText
 10
0.0
 20
4.5117370892
 30
0.0
 40
3.5
 41
0.0
 71
     1
 72
     1
  1
\M+18B5AĘő\M+19776\M+18B81\M+18146
  7
SLDTEXTSTYLE0
 73
     1
 44
1.0
  0
MTEXT
  5
198
330
194
100
AcDbEntity
  8
Ď¸ĘµĎß˛ă
 62
     0
100
AcDbMText
 10
0.0
 20
-0.488262799
 30
0.0
 40
3.5
 41
0.0
 71
     1
 72
     1
  1
1.\M+196A2\M+1928D\M+18EDA\M+190A1\M+18CF6\M+18DB7Ó¦\M+19584\M+18D87GB/T 1804-2000-m\M+19349\M+19776\M+18B81\M+18147
  7
SLDTEXTSTYLE0
 73
     1
 44
1.0
  0
MTEXT
  5
199
330
194
100
AcDbEntity
  8
Ď¸ĘµĎß˛ă
 62
     0
100
AcDbMText
 10
0.0
 20
-5.4882626873
 30
0.0
 40
3.5
 41
0.0
 71
     1
 72
     1
  1
2.\M+196A2\M+1928D\M+18C60\M+188CA\M+18CF6\M+18DB7Ó¦\M+19584\M+18D87GB/T 1184-1996-K\M+19349\M+19776\M+18B81\M+18147
  7
SLDTEXTSTYLE0
 73
     1
 44
1.0
  0
MTEXT
  5
19A
330
194
100
AcDbEntity
  8
Ď¸ĘµĎß˛ă
 62
     0
100
AcDbMText
 10
0.0
 20
-10.4882625755
 30
0.0
 40
3.5
 41
0.0
 71
     1
 72
     1
  1
3.Čń\M+18A70Ŕâ±ß\M+1937C¶Ű\M+191A6\M+189C2\M+18143\M+19668\M+18E7E\M+19989ÉË\M+1906C\M+18EE8\M+18147
  7
SLDTEXTSTYLE0
 73
     1
 44
1.0
  0
MTEXT
  5
19B
330
194
100
AcDbEntity
  8
Ď¸ĘµĎß˛ă
 62
     0
100
AcDbMText
 10
0.0
 20
-15.4882624638
 30
0.0
 40
3.5
 41
0.0
 71
     1
 72
     1
  1
4.\M+197EB\M+18C8F\M+1955C\M+196CA\M+18B8E\M+18F9C\M+194E2·ć\M+196D1\M+18E68·É±ß\M+18147
  7
SLDTEXTSTYLE0
 73
     1
 44
1.0
  0
MTEXT
  5
19C
330
194
100
AcDbEntity
  8
Ď¸ĘµĎß˛ă
 62
     0
100
AcDbMText
 10
0.0
 20
-20.488262352
 30
0.0
 40
3.5
 41
0.0
 71
     1
 72
     1
  1
5.\M+197EB\M+18C8F\M+189C1\M+18D48\M+1955C\M+196CA\M+18FE3\M+18143\M+19573Ó¦\M+1974C»®\M+18DAD\M+18141\M+18E43ÉË\M+19399ËđÉË\M+197EB
  7
SLDTEXTSTYLE0
 73
     1
 44
1.0
  0
MTEXT
  5
19D
330
194
100
AcDbEntity
  8
Ď¸ĘµĎß˛ă
 62
     0
100
AcDbMText
 10
0.0
 20
-25.4882622402
 30
0.0
 40
3.5
 41
0.0
 71
     1
 72
     1
  1
\M+18C8F\M+1955C\M+196CA\M+19349\M+1E39E\M+1E89C\M+18142
  7
SLDTEXTSTYLE0
 73
     1
 44
1.0
  0
ENDBLK
  5
196
330
194
100
AcDbEntity
  8
0
100
AcDbBlockEnd
  0
BLOCK
  5
1A0
330
19F
100
AcDbEntity
  8
0
100
AcDbBlockBegin
  2
SW_NOTE_1
 70
     0
 10
0.0
 20
0.0
 30
0.0
  3
SW_NOTE_1
  1

  0
MTEXT
  5
1A3
330
19F
100
AcDbEntity
  8
Ď¸ĘµĎß˛ă
 62
     0
100
AcDbMText
 10
0.0
 20
4.5117370892
 30
0.0
 40
3.5
 41
0.0
 71
     1
 72
     1
  1
2024/4/1
  7
SLDTEXTSTYLE1
 73
     1
 44
1.0
  0
MTEXT
  5
1A4
330
19F
100
AcDbEntity
  8
Ď¸ĘµĎß˛ă
 62
     0
100
AcDbMText
 10
0.0
 20
-0.488262799
 30
0.0
 40
3.5
 41
0.0
 71
     1
 72
     1
  1
1
  7
SLDTEXTSTYLE1
 73
     1
 44
1.0
  0
ENDBLK
  5
1A1
330
19F
100
AcDbEntity
  8
0
100
AcDbBlockEnd
  0
BLOCK
  5
1B7
330
1B6
100
AcDbEntity
  8
0
100
AcDbBlockBegin
  2
SW_NOTE_2
 70
     0
 10
0.0
 20
0.0
 30
0.0
  3
SW_NOTE_2
  1

  0
MTEXT
  5
1B9
330
1B6
100
AcDbEntity
  8
ÍĽżň
 62
     0
100
AcDbMText
 10
4.046875
 20
4.5117370892
 30
0.0
 40
3.5
 41
0.0
 71
     2
 72
     1
  1
\M+1955C\M+196CA
  7
SLDTEXTSTYLE0
 73
     1
 44
1.0
  0
MTEXT
  5
1BA
330
1B6
100
AcDbEntity
  8
ÍĽżň
 62
     0
100
AcDbMText
 10
4.046875
 20
-0.488262799
 30
0.0
 40
3.5
 41
0.0
 71
     2
 72
     1
  1
´¦\M+1979D
  7
SLDTEXTSTYLE0
 73
     1
 44
1.0
  0
ENDBLK
  5
1B8
330
1B6
100
AcDbEntity
  8
0
100
AcDbBlockEnd
  0
BLOCK
  5
1CD
330
1CC
100
AcDbEntity
  8
0
100
AcDbBlockBegin
  2
SW_NOTE_3
 70
     0
 10
0.0
 20
0.0
 30
0.0
  3
SW_NOTE_3
  1

  0
MTEXT
  5
1CF
330
1CC
100
AcDbEntity
  8
ÍĽżň
 62
     0
100
AcDbMText
 10
1.2567708333
 20
2.7285267159
 30
0.0
 40
2.1166666667
 41
0.0
 71
     1
 72
     1
  1
\M+18D58\M+189FC
  7
SLDTEXTSTYLE0
 73
     1
 44
1.0
  0
MTEXT
  5
1D0
330
1CC
100
AcDbEntity
  8
ÍĽżň
 62
     0
100
AcDbMText
 10
0.0
 20
-0.0936954723
 30
0.0
 40
2.1166666667
 41
0.0
 71
     1
 72
     1
  1
\M+195B6\M+18C8F\M+18D86
  7
SLDTEXTSTYLE0
 73
     1
 44
1.0
  0
ENDBLK
  5
1CE
330
1CC
100
AcDbEntity
  8
0
100
AcDbBlockEnd
  0
BLOCK
  5
1F5
330
1F4
100
AcDbEntity
  8
0
100
AcDbBlockBegin
  2
SW_SFSYMBOL_0
 70
     0
 10
0.0
 20
0.0
 30
0.0
  3
SW_SFSYMBOL_0
  1

  0
LINE
  5
1F7
330
1F4
100
AcDbEntity
  8
Ď¸ĘµĎß˛ă
 62
     0
100
AcDbLine
 10
3.1592166667
 20
-4.9997497672
 30
0.0
 11
0.2097666667
 21
0.0000002328
 31
0.0
  0
LINE
  5
1F8
330
1F4
100
AcDbEntity
  8
Ď¸ĘµĎß˛ă
 62
     0
100
AcDbLine
 10
6.1086666667
 20
0.0000002328
 30
0.0
 11
0.2097666667
 21
0.0000002328
 31
0.0
  0
LINE
  5
1F9
330
1F4
100
AcDbEntity
  8
Ď¸ĘµĎß˛ă
 62
     0
100
AcDbLine
 10
3.1592166667
 20
-4.9997497672
 30
0.0
 11
9.0581166667
 21
4.9997502328
 31
0.0
  0
MTEXT
  5
1FA
330
1F4
100
AcDbEntity
  8
Ď¸ĘµĎß˛ă
 62
     0
100
AcDbMText
 10
0.0
 20
4.5117370892
 30
0.0
 40
3.5
 41
0.0
 71
     1
 72
     1
  1
3.2
  7
SLDTEXTSTYLE1
 73
     1
 44
1.0
  0
ENDBLK
  5
1F6
330
1F4
100
AcDbEntity
  8
0
100
AcDbBlockEnd
  0
BLOCK
  5
205
330
204
100
AcDbEntity
  8
0
100
AcDbBlockBegin
  2
_D
 70
     0
 10
0.0
 20
0.0
 30
0.0
  3
_D
  1

  0
SOLID
  5
207
330
204
100
AcDbEntity
  8
Ď¸ĘµĎß˛ă
100
AcDbTrace
 10
89.035355285
 20
124.8262816197
 30
0.0
 11
85.5787079525
 21
124.0835910926
 31
0.0
 12
85.9249271934
 22
123.1454374606
 32
0.0
 13
85.9249271934
 23
123.1454374606
 33
0.0
  0
SOLID
  5
208
330
204
100
AcDbEntity
  8
Ď¸ĘµĎß˛ă
100
AcDbTrace
 10
119.0562715092
 20
135.9052973277
 30
0.0
 11
122.5129188417
 21
136.6479878547
 31
0.0
 12
122.1666996008
 22
137.5861414867
 32
0.0
 13
122.1666996008
 23
137.5861414867
 33
0.0
  0
LINE
  5
209
330
204
100
AcDbEntity
  8
Ď¸ĘµĎß˛ă
100
AcDbLine
 10
89.035355285
 20
124.8262816197
 30
0.0
 11
83.406433493
 21
122.7489661745
 31
0.0
  0
LINE
  5
20A
330
204
100
AcDbEntity
  8
Ď¸ĘµĎß˛ă
100
AcDbLine
 10
119.0562715092
 20
135.9052973277
 30
0.0
 11
135.0420165063
 21
141.8047281979
 31
0.0
  0
LINE
  5
20B
330
204
100
AcDbEntity
  8
Ď¸ĘµĎß˛ă
100
AcDbLine
 10
89.035355285
 20
124.8262816197
 30
0.0
 11
119.0562715092
 21
135.9052973277
 31
0.0
  0
LINE
  5
20C
330
204
100
AcDbEntity
  8
Ď¸ĘµĎß˛ă
100
AcDbLine
 10
135.0420165063
 20
141.8047281979
 30
0.0
 11
146.6098635138
 21
141.8047281979
 31
0.0
  0
MTEXT
  5
20D
330
204
100
AcDbEntity
  8
Ď¸ĘµĎß˛ă
100
AcDbMText
 10
136.6295165063
 20
146.3164655199
 30
-0.025
 40
3.5
 41
0.0
 71
     1
 72
     1
  1
%%c
  7
SLDTEXTSTYLE1
 73
     1
 44
1.0
  0
MTEXT
  5
20E
330
204
100
AcDbEntity
  8
Ď¸ĘµĎß˛ă
100
AcDbMText
 10
140.4994472542
 20
146.3164655199
 30
-0.025
 40
3.5
 41
0.0
 71
     1
 72
     1
  1
64
  7
SLDTEXTSTYLE1
 73
     1
 44
1.0
  0
ENDBLK
  5
206
330
204
100
AcDbEntity
  8
0
100
AcDbBlockEnd
  0
BLOCK
  5
211
330
210
100
AcDbEntity
  8
0
100
AcDbBlockBegin
  2
_D_1
 70
     0
 10
0.0
 20
0.0
 30
0.0
  3
_D_1
  1

  0
ARC
  5
213
330
210
100
AcDbEntity
  8
Ď¸ĘµĎß˛ă
100
AcDbCircle
 10
104.0458133971
 20
130.3657894737
 30
0.0
 40
25.50122546074996
100
AcDbArc
 50
86.0642468318
 51
213.7956435974
  0
SOLID
  5
214
330
210
100
AcDbEntity
  8
Ď¸ĘµĎß˛ă
100
AcDbTrace
 10
82.0582901154
 20
117.4507277265
 30
0.0
 11
78.7871582581
 21
116.1092001
 31
0.0
 12
79.2936312678
 22
115.2469442851
 32
0.0
 13
79.2936312678
 23
115.2469442851
 33
0.0
  0
SOLID
  5
215
330
210
100
AcDbEntity
  8
Ď¸ĘµĎß˛ă
100
AcDbTrace
 10
126.0333366789
 20
143.2808512209
 30
0.0
 11
129.3044685361
 21
144.6223788473
 31
0.0
 12
128.7979955264
 22
145.4846346623
 32
0.0
 13
128.7979955264
 23
145.4846346623
 33
0.0
  0
LINE
  5
216
330
210
100
AcDbEntity
  8
Ď¸ĘµĎß˛ă
100
AcDbLine
 10
82.0582901154
 20
117.4507277265
 30
0.0
 11
76.8847552256
 21
114.4118896683
 31
0.0
  0
LINE
  5
217
330
210
100
AcDbEntity
  8
Ď¸ĘµĎß˛ă
100
AcDbLine
 10
126.0333366789
 20
143.2808512209
 30
0.0
 11
134.0693731571
 21
148.0010694096
 31
0.0
  0
LINE
  5
218
330
210
100
AcDbEntity
  8
Ď¸ĘµĎß˛ă
100
AcDbLine
 10
82.0582901154
 20
117.4507277265
 30
0.0
 11
126.0333366789
 21
143.2808512209
 31
0.0
  0
LINE
  5
219
330
210
100
AcDbEntity
  8
Ď¸ĘµĎß˛ă
100
AcDbLine
 10
134.0693731571
 20
148.0010694096
 30
0.0
 11
158.265415972
 21
148.0010694096
 31
0.0
  0
MTEXT
  5
21A
330
210
100
AcDbEntity
  8
Ď¸ĘµĎß˛ă
100
AcDbMText
 10
135.6568731571
 20
152.5128067316
 30
-0.025
 40
3.5
 41
0.0
 71
     1
 72
     1
  1
%%c
  7
SLDTEXTSTYLE1
 73
     1
 44
1.0
  0
MTEXT
  5
21B
330
210
100
AcDbEntity
  8
Ď¸ĘµĎß˛ă
100
AcDbMText
 10
139.526803905
 20
152.5128067316
 30
-0.025
 40
3.5
 41
0.0
 71
     1
 72
     1
  1
102
  7
SLDTEXTSTYLE1
 73
     1
 44
1.0
  0
MTEXT
  5
21C
330
210
100
AcDbEntity
  8
Ď¸ĘµĎß˛ă
100
AcDbMText
 10
147.6740263606
 20
152.5128067316
 30
-0.025
 40
3.5
 41
0.0
 71
     1
 72
     1
  1
%%p
  7
SLDTEXTSTYLE1
 73
     1
 44
1.0
  0
MTEXT
  5
21D
330
210
100
AcDbEntity
  8
Ď¸ĘµĎß˛ă
100
AcDbMText
 10
150.1181930507
 20
152.5128067316
 30
-0.025
 40
3.5
 41
0.0
 71
     1
 72
     1
  1
0.05
  7
SLDTEXTSTYLE1
 73
     1
 44
1.0
  0
ENDBLK
  5
212
330
210
100
AcDbEntity
  8
0
100
AcDbBlockEnd
  0
BLOCK
  5
221
330
220
100
AcDbEntity
  8
0
100
AcDbBlockBegin
  2
_D_2
 70
     0
 10
0.0
 20
0.0
 30
0.0
  3
_D_2
  1

  0
SOLID
  5
223
330
220
100
AcDbEntity
  8
Ď¸ĘµĎß˛ă
100
AcDbTrace
 10
80.0053502989
 20
110.7939695782
 30
0.0
 11
76.9754299508
 21
108.9719973819
 31
0.0
 12
77.6067789797
 22
108.1964985723
 32
0.0
 13
77.6067789797
 23
108.1964985723
 33
0.0
  0
SOLID
  5
224
330
220
100
AcDbEntity
  8
Ď¸ĘµĎß˛ă
100
AcDbTrace
 10
128.0862764954
 20
149.9376093692
 30
0.0
 11
131.1161968435
 21
151.7595815655
 31
0.0
 12
130.4848478146
 22
152.5350803751
 32
0.0
 13
130.4848478146
 23
152.5350803751
 33
0.0
  0
LINE
  5
225
330
220
100
AcDbEntity
  8
Ď¸ĘµĎß˛ă
100
AcDbLine
 10
80.0053502989
 20
110.7939695782
 30
0.0
 11
75.3523574412
 21
107.0058754049
 31
0.0
  0
LINE
  5
226
330
220
100
AcDbEntity
  8
Ď¸ĘµĎß˛ă
100
AcDbLine
 10
128.0862764954
 20
149.9376093692
 30
0.0
 11
135.9174303817
 21
156.313107745
 31
0.0
  0
LINE
  5
227
330
220
100
AcDbEntity
  8
Ď¸ĘµĎß˛ă
100
AcDbLine
 10
80.0053502989
 20
110.7939695782
 30
0.0
 11
128.0862764954
 21
149.9376093692
 31
0.0
  0
LINE
  5
228
330
220
100
AcDbEntity
  8
Ď¸ĘµĎß˛ă
100
AcDbLine
 10
135.9174303817
 20
156.313107745
 30
0.0
 11
149.5220826538
 21
156.313107745
 31
0.0
  0
MTEXT
  5
229
330
220
100
AcDbEntity
  8
Ď¸ĘµĎß˛ă
100
AcDbMText
 10
137.5049303817
 20
160.824845067
 30
-0.025
 40
3.5
 41
0.0
 71
     1
 72
     1
  1
%%c
  7
SLDTEXTSTYLE1
 73
     1
 44
1.0
  0
MTEXT
  5
22A
330
220
100
AcDbEntity
  8
Ď¸ĘµĎß˛ă
100
AcDbMText
 10
141.3748611296
 20
160.824845067
 30
-0.025
 40
3.5
 41
0.0
 71
     1
 72
     1
  1
124
  7
SLDTEXTSTYLE1
 73
     1
 44
1.0
  0
ENDBLK
  5
222
330
220
100
AcDbEntity
  8
0
100
AcDbBlockEnd
  0
BLOCK
  5
22E
330
22D
100
AcDbEntity
  8
0
100
AcDbBlockBegin
  2
_D_3
 70
     0
 10
0.0
 20
0.0
 30
0.0
  3
_D_3
  1

  0
SOLID
  5
230
330
22D
100
AcDbEntity
  8
Ď¸ĘµĎß˛ă
100
AcDbTrace
 10
102.1821282923
 20
153.8436179108
 30
0.0
 11
99.4424978746
 21
151.6087968498
 31
0.0
 12
100.1778329884
 22
150.9310931753
 32
0.0
 13
100.1778329884
 23
150.9310931753
 33
0.0
  0
SOLID
  5
231
330
22D
100
AcDbEntity
  8
Ď¸ĘµĎß˛ă
100
AcDbTrace
 10
105.909498502
 20
157.8879610366
 30
0.0
 11
108.6491289197
 21
160.1227820976
 31
0.0
 12
107.9137938059
 22
160.8004857721
 32
0.0
 13
107.9137938059
 23
160.8004857721
 33
0.0
  0
LINE
  5
232
330
22D
100
AcDbEntity
  8
Ď¸ĘµĎß˛ă
100
AcDbLine
 10
102.1821282923
 20
153.8436179108
 30
0.0
 11
98.1159062452
 21
149.431607228
 31
0.0
  0
LINE
  5
233
330
22D
100
AcDbEntity
  8
Ď¸ĘµĎß˛ă
100
AcDbLine
 10
105.909498502
 20
157.8879610366
 30
0.0
 11
111.5506864932
 21
164.0088716492
 31
0.0
  0
LINE
  5
234
330
22D
100
AcDbEntity
  8
Ď¸ĘµĎß˛ă
100
AcDbLine
 10
102.1821282923
 20
153.8436179108
 30
0.0
 11
105.909498502
 21
157.8879610366
 31
0.0
  0
LINE
  5
235
330
22D
100
AcDbEntity
  8
Ď¸ĘµĎß˛ă
100
AcDbLine
 10
111.5506864932
 20
164.0088716492
 30
0.0
 11
133.3025607553
 21
164.0088716492
 31
0.0
  0
MTEXT
  5
236
330
22D
100
AcDbEntity
  8
Ď¸ĘµĎß˛ă
100
AcDbMText
 10
113.1381864932
 20
168.5206089712
 30
-0.025
 40
3.5
 41
0.0
 71
     1
 72
     1
  1
4-
  7
SLDTEXTSTYLE1
 73
     1
 44
1.0
  0
MTEXT
  5
237
330
22D
100
AcDbEntity
  8
Ď¸ĘµĎß˛ă
100
AcDbMText
 10
117.2117974882
 20
168.5206089712
 30
-0.025
 40
3.5
 41
0.0
 71
     1
 72
     1
  1
%%c
  7
SLDTEXTSTYLE1
 73
     1
 44
1.0
  0
MTEXT
  5
238
330
22D
100
AcDbEntity
  8
Ď¸ĘµĎß˛ă
100
AcDbMText
 10
121.0817282361
 20
168.5206089712
 30
-0.025
 40
3.5
 41
0.0
 71
     1
 72
     1
  1
11
  7
SLDTEXTSTYLE1
 73
     1
 44
1.0
  0
MTEXT
  5
239
330
22D
100
AcDbEntity
  8
Ď¸ĘµĎß˛ă
100
AcDbMText
 10
129.2702699614
 20
168.5206089712
 30
-0.025
 40
3.5
 41
0.0
 71
     1
 72
     1
  1

  7
SLDTEXTSTYLE1
 73
     1
 44
1.0
  0
MTEXT
  5
23A
330
22D
100
AcDbEntity
  8
Ď¸ĘµĎß˛ă
100
AcDbMText
 10
129.228950226
 20
168.588351484
 30
-0.025
 40
1.75
 41
0.0
 71
     1
 72
     1
  1
+
  7
SLDTEXTSTYLE1
 73
     1
 44
1.0
  0
MTEXT
  5
23B
330
22D
100
AcDbEntity
  8
Ď¸ĘµĎß˛ă
100
AcDbMText
 10
130.268012726
 20
166.5515459865
 30
-0.025
 40
1.75
 41
0.0
 71
     1
 72
     1
  1

  7
SLDTEXTSTYLE1
 73
     1
 44
1.0
  0
MTEXT
  5
23C
330
22D
100
AcDbEntity
  8
Ď¸ĘµĎß˛ă
100
AcDbMText
 10
130.247353324
 20
168.588351484
 30
-0.025
 40
1.75
 41
0.0
 71
     1
 72
     1
  1
0.1
  7
SLDTEXTSTYLE1
 73
     1
 44
1.0
  0
MTEXT
  5
23D
330
22D
100
AcDbEntity
  8
Ď¸ĘµĎß˛ă
100
AcDbMText
 10
130.247353324
 20
166.5515459865
 30
-0.025
 40
1.75
 41
0.0
 71
     1
 72
     1
  1
0
  7
SLDTEXTSTYLE1
 73
     1
 44
1.0
  0
ENDBLK
  5
22F
330
22D
100
AcDbEntity
  8
0
100
AcDbBlockEnd
  0
BLOCK
  5
23F
330
23E
100
AcDbEntity
  8
0
100
AcDbBlockBegin
  2
SW_CENTERMARKSYMBOL_0
 70
     0
 10
0.0
 20
0.0
 30
0.0
  3
SW_CENTERMARKSYMBOL_0
  1

  0
ARC
  5
241
330
23E
100
AcDbEntity
  8
Ď¸ĘµĎß˛ă
 62
     0
100
AcDbCircle
 10
0.0
 20
-25.5
 30
0.0
 40
25.5
100
AcDbArc
 50
90.0
 51
91.1234466571
  0
ARC
  5
242
330
23E
100
AcDbEntity
  8
Ď¸ĘµĎß˛ă
 62
     0
100
AcDbCircle
 10
0.0
 20
-25.5
 30
0.0
 40
25.5
100
AcDbArc
 50
88.8765533429
 51
90.0
  0
ARC
  5
243
330
23E
100
AcDbEntity
  8
Ď¸ĘµĎß˛ă
 62
     0
100
AcDbCircle
 10
0.0
 20
-25.5
 30
0.0
 40
25.49999999999979
100
AcDbArc
 50
180.0
 51
181.1234466571
  0
ARC
  5
244
330
23E
100
AcDbEntity
  8
Ď¸ĘµĎß˛ă
 62
     0
100
AcDbCircle
 10
0.0
 20
-25.5
 30
0.0
 40
25.49999999999979
100
AcDbArc
 50
178.8765533429
 51
180.0
  0
ARC
  5
245
330
23E
100
AcDbEntity
  8
Ď¸ĘµĎß˛ă
 62
     0
100
AcDbCircle
 10
0.0
 20
-25.5
 30
0.0
 40
25.5
100
AcDbArc
 50
270.0
 51
271.1234466571
  0
ARC
  5
246
330
23E
100
AcDbEntity
  8
Ď¸ĘµĎß˛ă
 62
     0
100
AcDbCircle
 10
0.0
 20
-25.5
 30
0.0
 40
25.5
100
AcDbArc
 50
268.8765533429
 51
270.0
  0
ARC
  5
247
330
23E
100
AcDbEntity
  8
Ď¸ĘµĎß˛ă
 62
     0
100
AcDbCircle
 10
0.0
 20
-25.5
 30
0.0
 40
25.50000000000022
100
AcDbArc
 50
0.0
 51
1.1234466571
  0
ARC
  5
248
330
23E
100
AcDbEntity
  8
Ď¸ĘµĎß˛ă
 62
     0
100
AcDbCircle
 10
0.0
 20
-25.5
 30
0.0
 40
25.50000000000022
100
AcDbArc
 50
358.8765533429
 51
0.0
  0
ARC
  5
249
330
23E
100
AcDbEntity
  8
Ď¸ĘµĎß˛ă
 62
     0
100
AcDbCircle
 10
0.0
 20
-25.5
 30
0.0
 40
25.50000000000022
100
AcDbArc
 50
2.2468933142
 51
87.7531066858
  0
ARC
  5
24A
330
23E
100
AcDbEntity
  8
Ď¸ĘµĎß˛ă
 62
     0
100
AcDbCircle
 10
0.0
 20
-25.5
 30
0.0
 40
25.49999999999999
100
AcDbArc
 50
92.2468933142
 51
177.7531066858
  0
ARC
  5
24B
330
23E
100
AcDbEntity
  8
Ď¸ĘµĎß˛ă
 62
     0
100
AcDbCircle
 10
0.0
 20
-25.5
 30
0.0
 40
25.5
100
AcDbArc
 50
182.2468933142
 51
267.7531066858
  0
ARC
  5
24C
330
23E
100
AcDbEntity
  8
Ď¸ĘµĎß˛ă
 62
     0
100
AcDbCircle
 10
0.0
 20
-25.5
 30
0.0
 40
25.5000000000002
100
AcDbArc
 50
272.2468933142
 51
357.7531066858
  0
LINE
  5
24D
330
23E
100
AcDbEntity
  8
Ď¸ĘµĎß˛ă
 62
     0
100
AcDbLine
 10
0.0
 20
0.0
 30
0.0
 11
0.0
 21
0.5
 31
0.0
  0
LINE
  5
24E
330
23E
100
AcDbEntity
  8
Ď¸ĘµĎß˛ă
 62
     0
100
AcDbLine
 10
0.0
 20
0.0
 30
0.0
 11
0.0
 21
-0.5
 31
0.0
  0
LINE
  5
24F
330
23E
100
AcDbEntity
  8
Ď¸ĘµĎß˛ă
 62
     0
100
AcDbLine
 10
0.0
 20
1.0
 30
0.0
 11
0.0
 21
3.25
 31
0.0
  0
LINE
  5
250
330
23E
100
AcDbEntity
  8
Ď¸ĘµĎß˛ă
 62
     0
100
AcDbLine
 10
0.0
 20
-1.0
 30
0.0
 11
0.0
 21
-3.25
 31
0.0
  0
LINE
  5
251
330
23E
100
AcDbEntity
  8
Ď¸ĘµĎß˛ă
 62
     0
100
AcDbLine
 10
-25.5
 20
-25.5
 30
0.0
 11
-26.0
 21
-25.5
 31
0.0
  0
LINE
  5
252
330
23E
100
AcDbEntity
  8
Ď¸ĘµĎß˛ă
 62
     0
100
AcDbLine
 10
-25.5
 20
-25.5
 30
0.0
 11
-25.0
 21
-25.5
 31
0.0
  0
LINE
  5
253
330
23E
100
AcDbEntity
  8
Ď¸ĘµĎß˛ă
 62
     0
100
AcDbLine
 10
-26.5
 20
-25.5
 30
0.0
 11
-28.75
 21
-25.5
 31
0.0
  0
LINE
  5
254
330
23E
100
AcDbEntity
  8
Ď¸ĘµĎß˛ă
 62
     0
100
AcDbLine
 10
-24.5
 20
-25.5
 30
0.0
 11
-22.25
 21
-25.5
 31
0.0
  0
LINE
  5
255
330
23E
100
AcDbEntity
  8
Ď¸ĘµĎß˛ă
 62
     0
100
AcDbLine
 10
0.0
 20
-51.0
 30
0.0
 11
0.0
 21
-51.5
 31
0.0
  0
LINE
  5
256
330
23E
100
AcDbEntity
  8
Ď¸ĘµĎß˛ă
 62
     0
100
AcDbLine
 10
0.0
 20
-51.0
 30
0.0
 11
0.0
 21
-50.5
 31
0.0
  0
LINE
  5
257
330
23E
100
AcDbEntity
  8
Ď¸ĘµĎß˛ă
 62
     0
100
AcDbLine
 10
0.0
 20
-52.0
 30
0.0
 11
0.0
 21
-54.25
 31
0.0
  0
LINE
  5
258
330
23E
100
AcDbEntity
  8
Ď¸ĘµĎß˛ă
 62
     0
100
AcDbLine
 10
0.0
 20
-50.0
 30
0.0
 11
0.0
 21
-47.75
 31
0.0
  0
LINE
  5
259
330
23E
100
AcDbEntity
  8
Ď¸ĘµĎß˛ă
 62
     0
100
AcDbLine
 10
25.5
 20
-25.5
 30
0.0
 11
26.0
 21
-25.5
 31
0.0
  0
LINE
  5
25A
330
23E
100
AcDbEntity
  8
Ď¸ĘµĎß˛ă
 62
     0
100
AcDbLine
 10
25.5
 20
-25.5
 30
0.0
 11
25.0
 21
-25.5
 31
0.0
  0
LINE
  5
25B
330
23E
100
AcDbEntity
  8
Ď¸ĘµĎß˛ă
 62
     0
100
AcDbLine
 10
26.5
 20
-25.5
 30
0.0
 11
28.75
 21
-25.5
 31
0.0
  0
LINE
  5
25C
330
23E
100
AcDbEntity
  8
Ď¸ĘµĎß˛ă
 62
     0
100
AcDbLine
 10
24.5
 20
-25.5
 30
0.0
 11
22.25
 21
-25.5
 31
0.0
  0
LINE
  5
25D
330
23E
100
AcDbEntity
  8
Ď¸ĘµĎß˛ă
 62
     0
100
AcDbLine
 10
0.0
 20
-25.5
 30
0.0
 11
0.0
 21
-25.0
 31
0.0
  0
LINE
  5
25E
330
23E
100
AcDbEntity
  8
Ď¸ĘµĎß˛ă
 62
     0
100
AcDbLine
 10
0.0
 20
-25.5
 30
0.0
 11
-0.5
 21
-25.5
 31
0.0
  0
LINE
  5
25F
330
23E
100
AcDbEntity
  8
Ď¸ĘµĎß˛ă
 62
     0
100
AcDbLine
 10
0.0
 20
-25.5
 30
0.0
 11
0.0
 21
-26.0
 31
0.0
  0
LINE
  5
260
330
23E
100
AcDbEntity
  8
Ď¸ĘµĎß˛ă
 62
     0
100
AcDbLine
 10
0.0
 20
-25.5
 30
0.0
 11
0.5
 21
-25.5
 31
0.0
  0
LINE
  5
261
330
23E
100
AcDbEntity
  8
Ď¸ĘµĎß˛ă
 62
     0
100
AcDbLine
 10
0.0
 20
-24.5
 30
0.0
 11
0.0
 21
6.0
 31
0.0
  0
LINE
  5
262
330
23E
100
AcDbEntity
  8
Ď¸ĘµĎß˛ă
 62
     0
100
AcDbLine
 10
-1.0
 20
-25.5
 30
0.0
 11
-31.5
 21
-25.5
 31
0.0
  0
LINE
  5
263
330
23E
100
AcDbEntity
  8
Ď¸ĘµĎß˛ă
 62
     0
100
AcDbLine
 10
0.0
 20
-26.5
 30
0.0
 11
0.0
 21
-57.0
 31
0.0
  0
LINE
  5
264
330
23E
100
AcDbEntity
  8
Ď¸ĘµĎß˛ă
 62
     0
100
AcDbLine
 10
1.0
 20
-25.5
 30
0.0
 11
31.5
 21
-25.5
 31
0.0
  0
ENDBLK
  5
240
330
23E
100
AcDbEntity
  8
0
100
AcDbBlockEnd
  0
BLOCK
  5
275
330
274
100
AcDbEntity
  8
0
100
AcDbBlockBegin
  2
_D_4
 70
     0
 10
0.0
 20
0.0
 30
0.0
  3
_D_4
  1

  0
SOLID
  5
277
330
274
100
AcDbEntity
  8
Ď¸ĘµĎß˛ă
100
AcDbTrace
 10
195.092219933
 20
91.8963342949
 30
0.0
 11
191.592219933
 21
92.3963342949
 31
0.0
 12
191.592219933
 22
91.3963342949
 32
0.0
 13
191.592219933
 23
91.3963342949
 33
0.0
  0
SOLID
  5
278
330
274
100
AcDbEntity
  8
Ď¸ĘµĎß˛ă
100
AcDbTrace
 10
195.342219933
 20
91.8963342949
 30
0.0
 11
198.842219933
 21
91.3963342949
 31
0.0
 12
198.842219933
 22
92.3963342949
 32
0.0
 13
198.842219933
 23
92.3963342949
 33
0.0
  0
LINE
  5
279
330
274
100
AcDbEntity
  8
Ď¸ĘµĎß˛ă
100
AcDbLine
 10
195.092219933
 20
97.8657894737
 30
0.0
 11
195.092219933
 21
90.3963342949
 31
0.0
  0
LINE
  5
27A
330
274
100
AcDbEntity
  8
Ď¸ĘµĎß˛ă
100
AcDbLine
 10
195.342219933
 20
97.8657894737
 30
0.0
 11
195.342219933
 21
90.3963342949
 31
0.0
  0
LINE
  5
27B
330
274
100
AcDbEntity
  8
Ď¸ĘµĎß˛ă
100
AcDbLine
 10
195.092219933
 20
91.8963342949
 30
0.0
 11
189.092219933
 21
91.8963342949
 31
0.0
  0
LINE
  5
27C
330
274
100
AcDbEntity
  8
Ď¸ĘµĎß˛ă
100
AcDbLine
 10
195.092219933
 20
91.8963342949
 30
0.0
 11
195.342219933
 21
91.8963342949
 31
0.0
  0
LINE
  5
27D
330
274
100
AcDbEntity
  8
Ď¸ĘµĎß˛ă
100
AcDbLine
 10
195.342219933
 20
91.8963342949
 30
0.0
 11
220.711525268
 21
91.8963342949
 31
0.0
  0
MTEXT
  5
27E
330
274
100
AcDbEntity
  8
Ď¸ĘµĎß˛ă
100
AcDbMText
 10
201.972914598
 20
96.4080716169
 30
0.05
 40
3.5
 41
0.0
 71
     1
 72
     1
  1
0.5
  7
SLDTEXTSTYLE1
 73
     1
 44
1.0
  0
MTEXT
  5
27F
330
274
100
AcDbEntity
  8
Ď¸ĘµĎß˛ă
100
AcDbMText
 10
210.1201365879
 20
96.4080716169
 30
0.05
 40
3.5
 41
0.0
 71
     1
 72
     1
  1
%%p
  7
SLDTEXTSTYLE1
 73
     1
 44
1.0
  0
MTEXT
  5
280
330
274
100
AcDbEntity
  8
Ď¸ĘµĎß˛ă
100
AcDbMText
 10
212.564303278
 20
96.4080716169
 30
0.05
 40
3.5
 41
0.0
 71
     1
 72
     1
  1
0.05
  7
SLDTEXTSTYLE1
 73
     1
 44
1.0
  0
ENDBLK
  5
276
330
274
100
AcDbEntity
  8
0
100
AcDbBlockEnd
  0
ENDSEC
  0
SECTION
  2
ENTITIES
  0
HATCH
  5
5E
330
1F
100
AcDbEntity
  8
ÍĽżň
100
AcDbHatch
 10
0.0
 20
0.0
 30
0.0
210
0.0
220
0.0
230
1.0
  2
ANSI31
 70
     0
 71
     0
 91
        1
 92
        0
 93
        4
 72
     4
 94
        3
 73
     1
 74
     0
 95
       14
 96
       10
 40
0.0
 40
0.0
 40
0.0
 40
0.0
 40
1.0
 40
2.0
 40
3.0
 40
4.0
 40
5.0
 40
6.0
 40
7.0
 40
7.0
 40
7.0
 40
7.0
 10
253.35555414759
 20
56.05564880344375
 42
1.0
 10
252.8063663075833
 20
55.57010713252091
 42
1.0
 10
251.798526194257
 20
55.4259611743207
 42
1.0
 10
251.4633805788207
 20
56.16762600848139
 42
1.0
 10
251.2441545727969
 20
56.65276504033065
 42
1.0
 10
251.4715000605254
 20
57.54590802783566
 42
1.0
 10
251.8977728500163
 20
58.01683796670185
 42
1.0
 10
252.2194296504413
 20
58.37219214621906
 42
1.0
 10
253.0791574380343
 20
58.83893548929155
 42
1.0
 10
253.7752019013535
 20
58.10170498586146
 42
1.0
 72
     1
 10
253.7752019013535
 20
58.10170498586146
 11
254.5092585296924
 21
58.75251424045936
 72
     4
 94
        3
 73
     1
 74
     0
 95
       16
 96
       12
 40
0.0
 40
0.0
 40
0.0
 40
0.0
 40
1.0
 40
2.0
 40
3.0
 40
4.0
 40
5.0
 40
6.0
 40
7.0
 40
8.0
 40
9.0
 40
9.0
 40
9.0
 40
9.0
 10
254.5092585296924
 20
58.75251424045935
 42
1.0
 10
253.7381887030568
 20
59.67591872833975
 42
1.0
 10
252.3037469352461
 20
59.51894208205115
 42
1.0
 10
251.3781260209226
 20
58.83690561886547
 42
1.0
 10
250.7201983200748
 20
58.35211678666192
 42
1.0
 10
250.2639502915531
 20
57.56809723322714
 42
1.0
 10
250.207159741334
 20
56.72589033441703
 42
1.0
 10
250.0602672802349
 20
54.54746727558749
 42
1.0
 10
252.6856423379172
 20
54.20261205352126
 42
1.0
 10
253.9407164037906
 20
55.45066645717804
 42
1.0
 10
253.7937834973422
 20
55.64082386411024
 42
1.0
 10
253.4866539260832
 20
56.04634125051921
 42
1.0
 72
     1
 10
253.4866539260832
 20
56.04634125051921
 11
253.35555414759
 21
56.05564880344375
 97
        0
 75
     0
 76
     1
 52
0.0
 41
1.0
 77
     0
 78
     1
 53
45.0
 43
0.0
 44
0.0
 45
-2.245064030267288
 46
2.245064030267288
 79
     0
 98
        1
 10
0.0
 20
0.0
  0
HATCH
  5
5F
330
1F
100
AcDbEntity
  8
ÍĽżň
100
AcDbHatch
 10
0.0
 20
0.0
 30
0.0
210
0.0
220
0.0
230
1.0
  2
ANSI31
 70
     0
 71
     0
 91
        1
 92
        0
 93
        9
 72
     1
 10
248.0086837286545
 20
55.66194092596361
 11
248.7068165401125
 21
59.272312825274
 72
     1
 10
248.7068165401125
 20
59.272312825274
 11
248.6230843850337
 21
59.37672010047331
 72
     4
 94
        2
 73
     1
 74
     0
 95
        6
 96
        3
 40
0.0
 40
0.0
 40
0.0
 40
1.0
 40
1.0
 40
1.0
 10
248.6230843850337
 20
59.37672010047331
 42
1.0
 10
248.6112751319949
 20
59.3767204079707
 42
1.0
 10
247.5742654673644
 20
59.37673783100391
 42
1.0
 72
     1
 10
247.5742654673644
 20
59.37673783100391
 11
246.6952149478003
 21
54.85358341790756
 72
     1
 10
246.6952149478003
 20
54.85358341790756
 11
246.7794545704853
 21
54.74808152051846
 72
     4
 94
        2
 73
     1
 74
     0
 95
        6
 96
        3
 40
0.0
 40
0.0
 40
0.0
 40
1.0
 40
1.0
 40
1.0
 10
246.7794545704853
 20
54.74808152051846
 42
1.0
 10
246.7794127801649
 20
54.74876315770086
 42
1.0
 10
249.8247676837504
 20
54.74870784833085
 42
1.0
 72
     1
 10
249.8247676837504
 20
54.74870784833085
 11
249.9828169708174
 21
55.5593096630079
 72
     1
 10
249.9828169708174
 20
55.5593096630079
 11
249.900284827373
 21
55.66193079423185
 72
     4
 94
        3
 73
     1
 74
     0
 95
        8
 96
        4
 40
0.0
 40
0.0
 40
0.0
 40
0.0
 40
1.0
 40
1.0
 40
1.0
 40
1.0
 10
249.900284827373
 20
55.66193079423185
 42
1.0
 10
249.3095111491277
 20
55.6619459918294
 42
1.0
 10
248.02909410222
 20
55.66194092596361
 42
1.0
 10
248.0086837286545
 20
55.66194092596361
 42
1.0
 97
        0
 75
     0
 76
     1
 52
0.0
 41
1.0
 77
     0
 78
     1
 53
45.0
 43
0.0
 44
0.0
 45
-2.245064030267288
 46
2.245064030267288
 79
     0
 98
        1
 10
0.0
 20
0.0
  0
HATCH
  5
60
330
1F
100
AcDbEntity
  8
şěÉ«
 62
     1
100
AcDbHatch
 10
0.0
 20
0.0
 30
0.0
210
0.0
220
0.0
230
1.0
  2
SOLID
 70
     1
 71
     0
 91
        2
 92
        0
 93
       10
 72
     4
 94
        3
 73
     1
 74
     0
 95
       20
 96
       16
 40
0.0
 40
0.0
 40
0.0
 40
0.0
 40
1.0
 40
2.0
 40
3.0
 40
4.0
 40
5.0
 40
6.0
 40
7.0
 40
8.0
 40
9.0
 40
10.0
 40
11.0
 40
12.0
 40
13.0
 40
13.0
 40
13.0
 40
13.0
 10
244.4238837345677
 20
56.32288567582181
 42
1.0
 10
244.424632216249
 20
56.04912881747151
 42
1.0
 10
244.683340920051
 20
55.90246440191371
 42
1.0
 10
245.0378476802715
 20
55.90246440191371
 42
1.0
 10
245.6747536660059
 20
55.90246440191371
 42
1.0
 10
246.5183799071145
 20
56.41086456827971
 42
1.0
 10
246.7183650938223
 20
57.41304481212846
 42
1.0
 10
246.9456983573962
 20
58.55207688935651
 42
1.0
 10
246.2628690311392
 20
59.34890466161461
 42
1.0
 10
244.9280463041385
 20
59.34890466161461
 42
1.0
 10
243.4271113025287
 20
59.34890466161461
 42
1.0
 10
241.9467456160261
 20
58.34186878533531
 42
1.0
 10
241.6404063749055
 20
56.80685063819361
 42
1.0
 10
241.3643236508905
 20
55.42340319769865
 42
1.0
 10
242.3198276399026
 20
54.74385528605491
 42
1.0
 10
243.5715302730423
 20
54.74385528605491
 42
1.0
 72
     4
 94
        3
 73
     1
 74
     0
 95
        8
 96
        4
 40
0.0
 40
0.0
 40
0.0
 40
0.0
 40
1.0
 40
1.0
 40
1.0
 40
1.0
 10
243.5715302730423
 20
54.74385528605491
 42
1.0
 10
244.0146010332278
 20
54.74385528605491
 42
1.0
 10
244.4299501089399
 20
54.82697601314916
 42
1.0
 10
244.8436375806483
 20
55.01274891317586
 42
1.0
 72
     1
 10
244.8436375806483
 20
55.01274891317586
 11
244.7399051118203
 21
55.40873245015685
 72
     4
 94
        3
 73
     1
 74
     0
 95
       23
 96
       19
 40
0.0
 40
0.0
 40
0.0
 40
0.0
 40
1.0
 40
2.0
 40
3.0
 40
4.0
 40
5.0
 40
6.0
 40
7.0
 40
8.0
 40
9.0
 40
10.0
 40
11.0
 40
12.0
 40
13.0
 40
14.0
 40
15.0
 40
16.0
 40
16.0
 40
16.0
 40
16.0
 10
244.7399051118203
 20
55.40873245015685
 42
1.0
 10
244.4496512612843
 20
55.28650577152631
 42
1.0
 10
244.0645973299048
 20
55.18871176395736
 42
1.0
 10
243.7212304087189
 20
55.18871176395736
 42
1.0
 10
242.7187633102159
 20
55.18871176395736
 42
1.0
 10
241.9861428548491
 20
55.73626854051801
 42
1.0
 10
242.2037097622707
 20
56.82642514389141
 42
1.0
 10
242.4553959095191
 20
58.08764590575615
 42
1.0
 10
243.6882300920155
 20
58.90894940893526
 42
1.0
 10
244.7738185508458
 20
58.90894940893526
 42
1.0
 10
245.9812170208399
 20
58.90894940893526
 42
1.0
 10
246.3632757590277
 20
58.21477634254271
 42
1.0
 10
246.1984084209545
 20
57.38860707520101
 42
1.0
 10
246.0716097983818
 20
56.75307140618246
 42
1.0
 10
245.5928398814539
 20
56.35222717090536
 42
1.0
 10
245.2106532301533
 20
56.35222717090536
 42
1.0
 10
244.9115885724131
 20
56.35222717090536
 42
1.0
 10
244.8450509572242
 20
56.51842303230141
 42
1.0
 10
245.0159466756756
 20
56.87530061774626
 42
1.0
 72
     1
 10
245.0159466756756
 20
56.87530061774626
 11
245.5253878774761
 21
58.06811192698486
 72
     1
 10
245.5253878774761
 20
58.06811192698486
 11
245.0269180746701
 21
58.06811192698486
 72
     1
 10
245.0269180746701
 20
58.06811192698486
 11
244.8924699946431
 21
57.8383242513999
 72
     1
 10
244.8924699946431
 20
57.8383242513999
 11
244.8813757484013
 21
57.8383242513999
 72
     4
 94
        3
 73
     1
 74
     0
 95
       17
 96
       13
 40
0.0
 40
0.0
 40
0.0
 40
0.0
 40
1.0
 40
2.0
 40
3.0
 40
4.0
 40
5.0
 40
6.0
 40
7.0
 40
8.0
 40
9.0
 40
10.0
 40
10.0
 40
10.0
 40
10.0
 10
244.8813757484013
 20
57.8383242513999
 42
1.0
 10
244.8086438457273
 20
58.02900344251581
 42
1.0
 10
244.6590703566971
 20
58.1121241696102
 42
1.0
 10
244.4486114923158
 20
58.1121241696102
 42
1.0
 10
243.7230579198296
 20
58.1121241696102
 42
1.0
 10
243.0603419807516
 20
57.42771555966991
 42
1.0
 10
242.9295951489715
 20
56.77264591188057
 42
1.0
 10
242.8281467524148
 20
56.26420268565496
 42
1.0
 10
243.0980377218777
 20
55.95133987576856
 42
1.0
 10
243.5687877399103
 20
55.95133987576856
 42
1.0
 10
243.8346481798455
 20
55.95133987576856
 42
1.0
 10
244.1815466427713
 20
56.10777128071165
 42
1.0
 10
244.4072575628026
 20
56.32288567582181
 42
1.0
 72
     1
 10
244.4072575628026
 20
56.32288567582181
 11
244.4238837345677
 21
56.32288567582181
 97
        0
 92
        0
 93
        3
 72
     4
 94
        3
 73
     1
 74
     0
 95
        8
 96
        4
 40
0.0
 40
0.0
 40
0.0
 40
0.0
 40
1.0
 40
1.0
 40
1.0
 40
1.0
 10
244.3510682451069
 20
56.67975819540086
 42
1.0
 10
244.1348330271744
 20
56.48422083892156
 42
1.0
 10
243.980771180989
 20
56.4060064029162
 42
1.0
 10
243.836766978243
 20
56.4060064029162
 42
1.0
 72
     4
 94
        3
 73
     1
 74
     0
 95
       14
 96
       10
 40
0.0
 40
0.0
 40
0.0
 40
0.0
 40
1.0
 40
2.0
 40
3.0
 40
4.0
 40
5.0
 40
6.0
 40
7.0
 40
7.0
 40
7.0
 40
7.0
 10
243.836766978243
 20
56.4060064029162
 42
1.0
 10
243.6152100682203
 20
56.4060064029162
 42
1.0
 10
243.4975547002988
 20
56.53800007093225
 42
1.0
 10
243.5522046280049
 20
56.81175186341671
 42
1.0
 10
243.6233958742231
 20
57.1686294488614
 42
1.0
 10
243.9727924422535
 20
57.64278942785351
 42
1.0
 10
244.3771283255772
 20
57.64278942785351
 42
1.0
 10
244.5211331615563
 20
57.64278942785351
 42
1.0
 10
244.6100720355953
 20
57.58900766290976
 42
1.0
 10
244.6677988435804
 20
57.46191775305007
 42
1.0
 72
     1
 10
244.6677988435804
 20
57.46191775305007
 11
244.3510682451069
 21
56.67975819540086
 97
        0
 75
     0
 76
     1
 98
        1
 10
0.0
 20
0.0
  0
HATCH
  5
61
330
1F
100
AcDbEntity
  8
Ŕ¶É«
100
AcDbHatch
 10
0.0
 20
0.0
 30
0.0
210
0.0
220
0.0
230
1.0
  2
SOLID
 70
     1
 71
     0
 91
        1
 92
        0
 93
        3
 72
     4
 94
        2
 73
     1
 74
     0
 95
        6
 96
        3
 40
0.0
 40
0.0
 40
0.0
 40
1.0
 40
1.0
 40
1.0
 10
253.9382675182
 20
59.61884185710355
 42
1.0
 10
250.8062364239405
 20
65.34246734353313
 42
1.0
 10
241.604196198944
 20
60.35927134469941
 42
1.0
 72
     4
 94
        2
 73
     1
 74
     0
 95
        6
 96
        3
 40
0.0
 40
0.0
 40
0.0
 40
1.0
 40
1.0
 40
1.0
 10
241.604196198944
 20
60.35927134469941
 42
1.0
 10
248.1860211561061
 20
63.27545982563013
 42
1.0
 10
250.4142777173884
 20
59.61884185710355
 42
1.0
 72
     1
 10
250.4142777173884
 20
59.61884185710355
 11
253.9382675182
 21
59.61884185710355
 97
        0
 75
     0
 76
     1
 98
        1
 10
0.0
 20
0.0
  0
HATCH
  5
62
330
1F
100
AcDbEntity
  8
Ŕ¶É«
100
AcDbHatch
 10
0.0
 20
0.0
 30
0.0
210
0.0
220
0.0
230
1.0
  2
SOLID
 70
     1
 71
     0
 91
        1
 92
        0
 93
        6
 72
     1
 10
253.7752019013535
 20
58.10170498586145
 11
254.5092585296924
 21
58.7525142404593
 72
     4
 94
        3
 73
     1
 74
     0
 95
       14
 96
       10
 40
0.0
 40
0.0
 40
0.0
 40
0.0
 40
1.0
 40
2.0
 40
3.0
 40
4.0
 40
5.0
 40
6.0
 40
6.262644086920563
 40
6.262644086920563
 40
6.262644086920563
 40
6.262644086920563
 10
254.5092585296924
 20
58.75251424045935
 42
1.0
 10
253.7381887030568
 20
59.67591872833975
 42
1.0
 10
252.3037469352461
 20
59.51894208205115
 42
1.0
 10
251.3781260209226
 20
58.83690561886547
 42
1.0
 10
250.7201983200748
 20
58.35211678666192
 42
1.0
 10
250.2639502915531
 20
57.56809723322714
 42
1.0
 10
250.207159741334
 20
56.72589033441703
 42
1.0
 10
250.0963712884943
 20
55.08289165012635
 42
1.0
 10
250.7711708539084
 20
54.65323437887375
 42
1.0
 10
250.9309004653627
 20
54.58421467134932
 42
1.0
 72
     1
 10
250.9309004583355
 20
54.58421465508682
 11
252.8115916634266
 21
54.58421465508682
 72
     4
 94
        3
 73
     1
 74
     0
 95
        9
 96
        5
 40
7.19630042691264
 40
7.19630042691264
 40
7.19630042691264
 40
7.19630042691264
 40
8.0
 40
9.0
 40
9.0
 40
9.0
 40
9.0
 10
252.8115916663081
 20
54.58421464836043
 42
1.0
 10
253.2587721293534
 20
54.77577574573672
 42
1.0
 10
253.926294907659
 20
55.46933044725874
 42
1.0
 10
253.7937834973422
 20
55.64082386411024
 42
1.0
 10
253.4866539260832
 20
56.04634125051921
 42
1.0
 72
     1
 10
253.4866539260832
 20
56.04634125051921
 11
253.35555414759
 21
56.05564880344375
 72
     4
 94
        3
 73
     1
 74
     0
 95
       14
 96
       10
 40
0.0
 40
0.0
 40
0.0
 40
0.0
 40
1.0
 40
2.0
 40
3.0
 40
4.0
 40
5.0
 40
6.0
 40
7.0
 40
7.0
 40
7.0
 40
7.0
 10
253.35555414759
 20
56.05564880344375
 42
1.0
 10
252.8063663075833
 20
55.57010713252091
 42
1.0
 10
251.798526194257
 20
55.4259611743207
 42
1.0
 10
251.4633805788207
 20
56.16762600848139
 42
1.0
 10
251.2441545727969
 20
56.65276504033065
 42
1.0
 10
251.4715000605254
 20
57.54590802783566
 42
1.0
 10
251.8977728500163
 20
58.01683796670185
 42
1.0
 10
252.2194296504413
 20
58.37219214621906
 42
1.0
 10
253.0791574380343
 20
58.83893548929155
 42
1.0
 10
253.7752019013535
 20
58.10170498586146
 42
1.0
 97
        0
 75
     0
 76
     1
 98
        1
 10
0.0
 20
0.0
  0
HATCH
  5
63
330
1F
100
AcDbEntity
  8
Ŕ¶É«
100
AcDbHatch
 10
0.0
 20
0.0
 30
0.0
210
0.0
220
0.0
230
1.0
  2
SOLID
 70
     1
 71
     0
 91
        1
 92
        0
 93
        9
 72
     1
 10
249.9828169708174
 20
55.5593096630079
 11
249.900284827373
 21
55.66193079423184
 72
     4
 94
        3
 73
     1
 74
     0
 95
        8
 96
        4
 40
0.0
 40
0.0
 40
0.0
 40
0.0
 40
1.0
 40
1.0
 40
1.0
 40
1.0
 10
249.900284827373
 20
55.66193079423185
 42
1.0
 10
249.3095111491277
 20
55.6619459918294
 42
1.0
 10
248.02909410222
 20
55.66194092596361
 42
1.0
 10
248.0086837286545
 20
55.66194092596361
 42
1.0
 72
     1
 10
248.0086837286545
 20
55.66194092596361
 11
248.7068165401125
 21
59.27231282527399
 72
     1
 10
248.7068165401125
 20
59.27231282527399
 11
248.6230843850337
 21
59.37672010047334
 72
     1
 10
248.6230843850337
 20
59.37672010047334
 11
247.5742654673644
 21
59.37673783100391
 72
     1
 10
247.5742654673644
 20
59.37673783100391
 11
246.6952149478003
 21
54.85358341790754
 72
     1
 10
246.6952149478003
 20
54.85358341790754
 11
246.7794545704854
 21
54.74808152051845
 72
     4
 94
        2
 73
     1
 74
     0
 95
        8
 96
        5
 40
0.0003195388716829
 40
0.0003195388716829
 40
0.0003195388716829
 40
0.000694178044796
 40
0.000694178044796
 40
1.0
 40
1.0
 40
1.0
 10
246.7794544272934
 20
54.7480819561658
 42
1.0
 10
246.7794552036421
 20
54.74808221134214
 42
1.0
 10
246.7794559799909
 20
54.74808246651848
 42
1.0
 10
246.7815267986776
 20
54.7487631193063
 42
1.0
 10
249.8247676837504
 20
54.74870784833085
 42
1.0
 72
     1
 10
249.8247676837503
 20
54.74870784833085
 11
249.9828169708174
 21
55.5593096630079
 97
        0
 75
     0
 76
     1
 98
        1
 10
0.0
 20
0.0
  0
HATCH
  5
64
330
1F
100
AcDbEntity
  8
Ŕ¶É«
100
AcDbHatch
 10
0.0
 20
0.0
 30
0.0
210
0.0
220
0.0
230
1.0
  2
SOLID
 70
     1
 71
     0
 91
        1
 92
        0
 93
        7
 72
     4
 94
        2
 73
     1
 74
     0
 95
        6
 96
        3
 40
0.0
 40
0.0
 40
0.0
 40
1.0
 40
1.0
 40
1.0
 10
244.5881330370055
 20
49.6186174742639
 42
1.0
 10
251.4863529790273
 20
50.12949738197022
 42
1.0
 10
253.5992775051202
 20
54.58421465508682
 42
1.0
 72
     1
 10
253.5992775051202
 20
54.58421465508682
 11
252.8115916634266
 21
54.58421465508682
 72
     4
 94
        3
 73
     1
 74
     0
 95
        9
 96
        5
 40
1.803699573087347
 40
1.803699573087347
 40
1.803699573087347
 40
1.803699573087347
 40
2.0
 40
2.737355913079422
 40
2.737355913079422
 40
2.737355913079422
 40
2.737355913079422
 10
252.8115916663081
 20
54.58421464836044
 42
1.0
 10
252.7023696152553
 20
54.53742661156906
 42
1.0
 10
252.1403927682439
 20
54.3482230182907
 42
1.0
 10
251.3793307912863
 20
54.39044640472339
 42
1.0
 10
250.9309004653627
 20
54.58421467134931
 42
1.0
 72
     1
 10
250.9309004583355
 20
54.58421465508682
 11
250.0949369315286
 21
54.58421465508682
 72
     4
 94
        2
 73
     1
 74
     0
 95
        6
 96
        3
 40
0.0
 40
0.0
 40
0.0
 40
1.0
 40
1.0
 40
1.0
 10
250.0949369315286
 20
54.58421465508682
 42
1.0
 10
248.0337842880979
 20
51.31476814987055
 42
1.0
 10
243.3366108753374
 20
51.35658433964396
 42
1.0
 72
     4
 94
        2
 73
     1
 74
     0
 95
        6
 96
        3
 40
0.0
 40
0.0
 40
0.0
 40
1.0
 40
1.0
 40
1.0
 10
243.3366108753374
 20
51.35658433964396
 42
1.0
 10
238.9865455257031
 20
51.15334180118565
 42
1.0
 10
238.0802057648997
 20
54.33599229362326
 42
1.0
 72
     4
 94
        2
 73
     1
 74
     0
 95
        6
 96
        3
 40
0.0
 40
0.0
 40
0.0
 40
1.0
 40
1.0
 40
1.0
 10
238.0802057648997
 20
54.33599229362326
 42
1.0
 10
238.4188554151164
 20
49.34686163292977
 42
1.0
 10
244.5881330370055
 20
49.6186174742639
 42
1.0
 97
        0
 75
     0
 76
     1
 98
        1
 10
0.0
 20
0.0
  0
HATCH
  5
65
330
1F
100
AcDbEntity
  8
Ŕ¶É«
100
AcDbHatch
 10
0.0
 20
0.0
 30
0.0
210
0.0
220
0.0
230
1.0
  2
SOLID
 70
     1
 71
     0
 91
        1
 92
        0
 93
        9
 72
     4
 94
        3
 73
     1
 74
     0
 95
       12
 96
        8
 40
0.0
 40
0.0
 40
0.0
 40
0.0
 40
1.0
 40
2.0
 40
3.0
 40
4.0
 40
5.0
 40
5.0
 40
5.0
 40
5.0
 10
241.9814594618581
 20
59.14234904688131
 42
1.0
 10
241.9975644826724
 20
59.24251387967465
 42
1.0
 10
242.0013657817702
 20
59.28343594412301
 42
1.0
 10
242.0015361215098
 20
59.28510261399215
 42
1.0
 10
241.9156791936159
 20
59.36323093027775
 42
1.0
 10
241.9149535083308
 20
59.36323093027775
 42
1.0
 10
241.5040725263107
 20
59.36323093027775
 42
1.0
 10
240.4187126646771
 20
59.36323093027775
 42
1.0
 72
     1
 10
240.4187126646771
 20
59.36323093027774
 11
239.8588401349681
 21
55.79648142217596
 72
     4
 94
        3
 73
     1
 74
     0
 95
       20
 96
       16
 40
0.0
 40
0.0
 40
0.0
 40
0.0
 40
1.0
 40
2.0
 40
3.0
 40
4.0
 40
5.0
 40
6.0
 40
7.0
 40
8.0
 40
9.0
 40
10.0
 40
11.0
 40
12.0
 40
13.0
 40
13.0
 40
13.0
 40
13.0
 10
239.8588401349681
 20
55.79648142217597
 42
1.0
 10
239.8853656418645
 20
55.9518819234159
 42
1.0
 10
239.8047607504049
 20
55.36872730743001
 42
1.0
 10
239.6460307088258
 20
55.19799243021986
 42
1.0
 10
239.5254865308954
 20
55.06839491675765
 42
1.0
 10
239.4124619976066
 20
55.02533758984771
 42
1.0
 10
239.1938451894849
 20
55.03174591016556
 42
1.0
 10
239.0861575458837
 20
55.0349070104643
 42
1.0
 10
238.9519450286195
 20
55.10141423045825
 42
1.0
 10
238.874629783805
 20
55.17804558338101
 42
1.0
 10
238.7866781203763
 20
55.26514301517836
 42
1.0
 10
238.7051765706589
 20
55.39516859430625
 42
1.0
 10
238.7083800975846
 20
55.57705344228275
 42
1.0
 10
238.7097485146008
 20
55.654920866476
 42
1.0
 10
238.7276468519311
 20
55.71925229708111
 42
1.0
 10
238.7616046172832
 20
55.79648142217597
 42
1.0
 72
     1
 10
238.7616046172832
 20
55.79648142217597
 11
237.551431635879
 21
55.79725143378731
 72
     1
 10
237.551431635879
 20
55.79725143378731
 11
237.4951736123774
 21
55.46629081810224
 72
     4
 94
        3
 73
     1
 74
     0
 95
       17
 96
       13
 40
0.0
 40
0.0
 40
0.0
 40
0.0
 40
1.0
 40
2.0
 40
3.0
 40
4.0
 40
5.0
 40
6.0
 40
7.0
 40
8.0
 40
9.0
 40
10.0
 40
10.0
 40
10.0
 40
10.0
 10
237.4951736123774
 20
55.46629081810225
 42
1.0
 10
237.4617708759542
 20
55.24190588846076
 42
1.0
 10
237.642586193
 20
55.06356714658906
 42
1.0
 10
237.9843108237961
 20
54.93119353863346
 42
1.0
 10
238.2968592333827
 20
54.81342482196336
 42
1.0
 10
238.6885187372321
 20
54.75464811327755
 42
1.0
 10
239.1594568255345
 20
54.75464811327755
 42
1.0
 10
239.634411512234
 20
54.75464811327755
 42
1.0
 10
240.0448226351952
 20
54.81342482196336
 42
1.0
 10
240.3907763141375
 20
54.93119353863346
 42
1.0
 10
240.7783353161869
 20
55.06356714658906
 42
1.0
 10
240.9887074276155
 20
55.24190588846076
 42
1.0
 10
241.0221123803549
 20
55.46629081810225
 42
1.0
 72
     1
 10
241.0221123803549
 20
55.46629081810225
 11
241.5689130764353
 21
58.9217204567781
 72
     4
 94
        3
 73
     1
 74
     0
 95
       11
 96
        7
 40
0.0
 40
0.0
 40
0.0
 40
0.0
 40
1.0
 40
2.0
 40
3.0
 40
4.0
 40
4.0
 40
4.0
 40
4.0
 10
241.5689130764354
 20
58.92172045677812
 42
1.0
 10
241.5814289312853
 20
58.97687000550516
 42
1.0
 10
241.6167557468871
 20
59.02735642470446
 42
1.0
 10
241.6751905096268
 20
59.07340514540697
 42
1.0
 10
241.7334954595535
 20
59.11936521345681
 42
1.0
 10
241.7939382048751
 20
59.14234904688131
 42
1.0
 10
241.8564332591048
 20
59.14234904688131
 42
1.0
 72
     1
 10
241.8564332591048
 20
59.14234904688131
 11
241.9814594618581
 21
59.14234904688131
 97
        0
 75
     0
 76
     1
 98
        1
 10
0.0
 20
0.0
  0
HATCH
  5
66
330
1F
100
AcDbEntity
  8
Ŕ¶É«
100
AcDbHatch
 10
0.0
 20
0.0
 30
0.0
210
0.0
220
0.0
230
1.0
  2
SOLID
 70
     1
 71
     0
 91
        1
 92
        0
 93
       16
 72
     1
 10
259.2530740308422
 20
59.12066710122287
 11
255.7427434655804
 21
59.12066710122287
 72
     1
 10
255.7427434655804
 20
59.12066710122287
 11
255.7427434655804
 21
58.37055559950661
 72
     1
 10
255.7427434655804
 20
58.37055559950661
 11
264.0193922604667
 21
58.37055559950661
 72
     1
 10
264.0193922604667
 20
58.37055559950661
 11
264.0193922604667
 21
59.12066710122287
 72
     1
 10
264.0193922604667
 20
59.12066710122287
 11
260.5090655473156
 21
59.12066710122287
 72
     1
 10
260.5090655473156
 20
59.12066710122287
 11
260.5090655473156
 21
59.53858142947501
 72
     1
 10
260.5090655473156
 20
59.53858142947501
 11
264.5454067046126
 21
59.53858142947501
 72
     1
 10
264.5454067046126
 20
59.53858142947501
 11
264.5454067046126
 21
60.37442109200775
 72
     1
 10
264.5454067046126
 20
60.37442109200775
 11
260.5090655473156
 21
60.37442109200775
 72
     1
 10
260.5090655473156
 20
60.37442109200775
 11
260.5090655473156
 21
61.04952210391385
 72
     1
 10
260.5090655473156
 20
61.04952210391385
 11
259.2530740308422
 21
61.04952210391385
 72
     1
 10
259.2530740308422
 20
61.04952210391385
 11
259.2530740308422
 21
60.37442109200775
 72
     1
 10
259.2530740308422
 20
60.37442109200775
 11
255.2274648523889
 21
60.37442109200775
 72
     1
 10
255.2274648523889
 20
60.37442109200775
 11
255.2274648523889
 21
59.53858142947501
 72
     1
 10
255.2274648523889
 20
59.53858142947501
 11
259.2530740308422
 21
59.53858142947501
 72
     1
 10
259.2530740308422
 20
59.53858142947501
 11
259.2530740308422
 21
59.12066710122287
 97
        0
 75
     0
 76
     1
 98
        1
 10
0.0
 20
0.0
  0
HATCH
  5
67
330
1F
100
AcDbEntity
  8
Ŕ¶É«
100
AcDbHatch
 10
0.0
 20
0.0
 30
0.0
210
0.0
220
0.0
230
1.0
  2
SOLID
 70
     1
 71
     0
 91
        3
 92
        0
 93
       14
 72
     4
 94
        3
 73
     1
 74
     0
 95
        8
 96
        4
 40
0.0
 40
0.0
 40
0.0
 40
0.0
 40
1.0
 40
1.0
 40
1.0
 40
1.0
 10
262.1193081180936
 20
55.54156591427326
 42
1.0
 10
262.2194453720313
 20
55.6843867497439
 42
1.0
 10
262.2981109640604
 20
55.80946146411136
 42
1.0
 10
262.3554776888363
 20
55.9166205645287
 42
1.0
 72
     1
 10
262.3554776888363
 20
55.9166205645287
 11
261.8831396479541
 21
56.1630851747655
 72
     1
 10
261.8831396479541
 20
56.1630851747655
 11
263.5255869600877
 21
56.1630851747655
 72
     1
 10
263.5255869600877
 20
56.1630851747655
 11
263.5255869600877
 21
57.95263686884301
 72
     1
 10
263.5255869600877
 20
57.95263686884301
 11
256.2365515174666
 21
57.95263686884301
 72
     1
 10
256.2365515174666
 20
57.95263686884301
 11
256.2365515174666
 21
56.1630851747655
 72
     1
 10
256.2365515174666
 20
56.1630851747655
 11
257.9219399522114
 21
56.16308517476548
 72
     1
 10
257.9219399522114
 20
56.16308517476548
 11
257.3744565976642
 21
55.9059028935225
 72
     1
 10
257.3744565976642
 20
55.9059028935225
 11
257.6750356511176
 21
55.54156591427326
 72
     1
 10
257.6750356511176
 20
55.54156591427326
 11
255.023500573303
 21
55.54156591427326
 72
     1
 10
255.023500573303
 20
55.54156591427326
 11
255.023500573303
 21
54.71644172154141
 72
     1
 10
255.023500573303
 20
54.71644172154141
 11
264.7386373539498
 21
54.71644172154141
 72
     1
 10
264.7386373539498
 20
54.71644172154141
 11
264.7386373539498
 21
55.54156591427326
 72
     1
 10
264.7386373539498
 20
55.54156591427326
 11
262.1193081180936
 21
55.54156591427326
 97
        0
 92
        0
 93
        6
 72
     4
 94
        3
 73
     1
 74
     0
 95
       11
 96
        7
 40
0.0
 40
0.0
 40
0.0
 40
0.0
 40
1.0
 40
2.0
 40
3.0
 40
4.0
 40
4.0
 40
4.0
 40
4.0
 10
260.9814024875946
 20
55.86304101431986
 42
1.0
 10
260.938460264381
 20
55.79874599431046
 42
1.0
 10
260.8955235441815
 20
55.73980650799586
 42
1.0
 10
260.8525835221738
 20
55.68622695778721
 42
1.0
 10
260.8096412989597
 20
55.63264960878431
 42
1.0
 10
260.7702265080291
 20
55.5844277934757
 42
1.0
 10
260.7344998374051
 20
55.54156591427326
 42
1.0
 72
     1
 10
260.7344998374051
 20
55.54156591427326
 11
259.0383750214046
 21
55.54156591427326
 72
     1
 10
259.0383750214046
 20
55.54156591427326
 11
258.7700007093071
 21
55.89518742372177
 72
     1
 10
258.7700007093071
 20
55.89518742372177
 11
258.5445664192173
 21
56.1630851747655
 72
     1
 10
258.5445664192173
 20
56.1630851747655
 11
261.2068367776845
 21
56.16308517476551
 72
     1
 10
261.2068367776845
 20
56.16308517476551
 11
260.9814024875946
 21
55.86304101431985
 97
        0
 92
        0
 93
        4
 72
     1
 10
257.4388666306761
 20
56.85961712627321
 11
257.4388666306761
 21
57.26682038713641
 72
     1
 10
257.4388666306761
 20
57.26682038713641
 11
262.323272947481
 21
57.26682038713641
 72
     1
 10
262.323272947481
 20
57.26682038713641
 11
262.323272947481
 21
56.85961712627321
 72
     1
 10
262.323272947481
 20
56.85961712627321
 11
257.4388666306761
 21
56.85961712627321
 97
        0
 75
     0
 76
     1
 98
        1
 10
0.0
 20
0.0
  0
HATCH
  5
68
330
1F
100
AcDbEntity
  8
Ŕ¶É«
100
AcDbHatch
 10
0.0
 20
0.0
 30
0.0
210
0.0
220
0.0
230
1.0
  2
SOLID
 70
     1
 71
     0
 91
        1
 92
        0
 93
       14
 72
     4
 94
        3
 73
     1
 74
     0
 95
       14
 96
       10
 40
0.0
 40
0.0
 40
0.0
 40
0.0
 40
1.0
 40
2.0
 40
3.0
 40
4.0
 40
5.0
 40
6.0
 40
7.0
 40
7.0
 40
7.0
 40
7.0
 10
256.5908031220735
 20
53.22693418790886
 42
1.0
 10
256.5049252792631
 20
52.9767869603805
 42
1.0
 10
256.3903629734623
 20
52.7731842293462
 42
1.0
 10
256.2472845969137
 20
52.61613039721765
 42
1.0
 10
256.1327239420172
 20
52.4945732097077
 42
1.0
 10
255.9609638539851
 20
52.36062323358276
 42
1.0
 10
255.7320087352291
 20
52.2142848712551
 42
1.0
 10
255.5028841236275
 20
52.06794430772119
 42
1.0
 10
255.2274648523889
 20
51.91256559320091
 42
1.0
 10
254.9054168885346
 20
51.74814432528331
 42
1.0
 72
     1
 10
254.9054168885346
 20
51.74814432528331
 11
255.6353928602592
 21
50.89087372314907
 72
     4
 94
        3
 73
     1
 74
     0
 95
       14
 96
       10
 40
0.0
 40
0.0
 40
0.0
 40
0.0
 40
1.0
 40
2.0
 40
3.0
 40
4.0
 40
5.0
 40
6.0
 40
7.0
 40
7.0
 40
7.0
 40
7.0
 10
255.6353928602593
 20
50.89087372314906
 42
1.0
 10
256.0146397069473
 20
51.0981612726812
 42
1.0
 10
256.3313189298721
 20
51.29991939326082
 42
1.0
 10
256.5854371326514
 20
51.49631977894045
 42
1.0
 10
256.8393863928858
 20
51.69288965746606
 42
1.0
 10
257.048716661394
 20
51.89113465359991
 42
1.0
 10
257.2134312399835
 20
52.09105256613656
 42
1.0
 10
257.4496013610278
 20
52.38389658243315
 42
1.0
 10
257.610626168407
 20
52.76246875954566
 42
1.0
 10
257.6965045615186
 20
53.22693418790886
 42
1.0
 72
     1
 10
257.6965045615186
 20
53.22693418790886
 11
258.8451454726705
 21
53.22693418790886
 72
     4
 94
        3
 73
     1
 74
     0
 95
       29
 96
       25
 40
0.0
 40
0.0
 40
0.0
 40
0.0
 40
1.0
 40
2.0
 40
3.0
 40
4.0
 40
5.0
 40
6.0
 40
7.0
 40
8.0
 40
9.0
 40
10.0
 40
11.0
 40
12.0
 40
13.0
 40
14.0
 40
15.0
 40
16.0
 40
17.0
 40
18.0
 40
19.0
 40
20.0
 40
21.0
 40
22.0
 40
22.0
 40
22.0
 40
22.0
 10
258.8451454726705
 20
53.22693418790886
 42
1.0
 10
258.8307209711089
 20
53.10537700039907
 42
1.0
 10
258.8199856904558
 20
52.98398710452971
 42
1.0
 10
258.8129407313153
 20
52.86259500745425
 42
1.0
 10
258.8057284805342
 20
52.7410356187384
 42
1.0
 10
258.7949943004843
 20
52.63036119266982
 42
1.0
 10
258.7807359899597
 20
52.53040223640132
 42
1.0
 10
258.7663114883981
 20
52.44467627679085
 42
1.0
 10
258.7520542784762
 20
52.37669863948977
 42
1.0
 10
258.7377970685545
 20
52.32680170657274
 42
1.0
 10
258.7233714663899
 20
52.27690477365596
 42
1.0
 10
258.6930113354893
 20
52.23571581085595
 42
1.0
 10
258.6465493842124
 20
52.20356940145455
 42
1.0
 10
258.5999201412955
 20
52.17142079084672
 42
1.0
 10
258.5355084573786
 20
52.14831473363726
 42
1.0
 10
258.4533198354778
 20
52.13391664654481
 42
1.0
 10
258.3709628213335
 20
52.11968364988711
 42
1.0
 10
258.2617687061604
 20
52.11248350573756
 42
1.0
 10
258.1259036809957
 20
52.11248350573756
 42
1.0
 10
258.0041280238112
 20
52.11248350573756
 42
1.0
 10
257.8932565898234
 20
52.11432591498666
 42
1.0
 10
257.7931198861875
 20
52.11784124063802
 42
1.0
 10
257.6928153406099
 20
52.12152605913566
 42
1.0
 10
257.5747311055396
 20
52.13039911968766
 42
1.0
 10
257.4388666306761
 20
52.14463211634557
 42
1.0
 72
     1
 10
257.438866630676
 20
52.14463211634557
 11
257.6320950788079
 21
51.137338333386
 72
     4
 94
        3
 73
     1
 74
     0
 95
       23
 96
       19
 40
0.0
 40
0.0
 40
0.0
 40
0.0
 40
1.0
 40
2.0
 40
3.0
 40
4.0
 40
5.0
 40
6.0
 40
7.0
 40
8.0
 40
9.0
 40
10.0
 40
11.0
 40
12.0
 40
13.0
 40
14.0
 40
15.0
 40
16.0
 40
16.0
 40
16.0
 40
16.0
 10
257.6320950788079
 20
51.137338333386
 42
1.0
 10
257.7966407148529
 20
51.1303076820829
 42
1.0
 10
257.9772909227824
 20
51.1303076820829
 42
1.0
 10
258.1742113433302
 20
51.137338333386
 42
1.0
 10
258.3709628213335
 20
51.14453847753474
 42
1.0
 10
258.5623477596134
 20
51.15877147419295
 42
1.0
 10
258.7485312486044
 20
51.18020241379411
 42
1.0
 10
259.1277780952927
 20
51.22306649420221
 42
1.0
 10
259.3979959172424
 20
51.32855047701101
 42
1.0
 10
259.5590207246217
 20
51.49631977894045
 42
1.0
 10
259.7200455320009
 20
51.66425857371586
 42
1.0
 10
259.8183370748806
 20
51.91959844570996
 42
1.0
 10
259.8542321377483
 20
52.2625066865632
 42
1.0
 10
259.8827443563857
 20
52.46962474324904
 42
1.0
 10
259.9079074404091
 20
52.73936270233622
 42
1.0
 10
259.9293769011118
 20
53.07155547338922
 42
1.0
 10
259.950847462417
 20
53.40374604323625
 42
1.0
 10
259.9686266016076
 20
53.76976254250521
 42
1.0
 10
259.9830522037722
 20
54.16993295085896
 42
1.0
 72
     1
 10
259.9830522037722
 20
54.16993295085896
 11
257.7716493248817
 21
54.16993295085896
 72
     4
 94
        3
 73
     1
 74
     0
 95
       11
 96
        7
 40
0.0
 40
0.0
 40
0.0
 40
0.0
 40
1.0
 40
2.0
 40
3.0
 40
4.0
 40
4.0
 40
4.0
 40
4.0
 10
257.7716493248817
 20
54.16993295085896
 42
1.0
 10
257.7786953846256
 20
54.25565891046971
 42
1.0
 10
257.7823851558362
 20
54.33954466203685
 42
1.0
 10
257.7823851558362
 20
54.42175529599621
 42
1.0
 10
257.7823851558362
 20
54.50379863831461
 42
1.0
 10
257.7859076354064
 20
54.56993606757296
 42
1.0
 10
257.7931198861875
 20
54.61999809092475
 42
1.0
 72
     1
 10
257.7931198861875
 20
54.61999809092475
 11
256.708889558349
 21
54.61999809092475
 72
     1
 10
256.708889558349
 20
54.61999809092475
 11
256.708889558349
 21
54.16993295085896
 72
     1
 10
256.708889558349
 20
54.16993295085896
 11
255.3455501880615
 21
54.16993295085896
 72
     1
 10
255.3455501880615
 20
54.16993295085896
 11
255.3455501880615
 21
53.22693418790886
 72
     1
 10
255.3455501880615
 20
53.22693418790886
 11
256.5908031220735
 21
53.22693418790886
 97
        0
 75
     0
 76
     1
 98
        1
 10
0.0
 20
0.0
  0
HATCH
  5
69
330
1F
100
AcDbEntity
  8
Ŕ¶É«
100
AcDbHatch
 10
0.0
 20
0.0
 30
0.0
210
0.0
220
0.0
230
1.0
  2
SOLID
 70
     1
 71
     0
 91
        2
 92
        0
 93
        4
 72
     1
 10
264.1052756062915
 20
54.20207936026106
 11
260.3802454812912
 21
54.20207936026106
 72
     1
 10
260.3802454812912
 20
54.20207936026106
 11
260.3802454812912
 21
51.39452061462887
 72
     1
 10
260.3802454812912
 20
51.39452061462887
 11
264.1052756062915
 21
51.39452061462887
 72
     1
 10
264.1052756062915
 20
51.39452061462887
 11
264.1052756062915
 21
54.20207936026106
 97
        0
 92
        0
 93
        4
 72
     1
 10
261.4537416290798
 20
52.2732221563639
 11
261.4537416290798
 21
53.301944677719
 72
     1
 10
261.4537416290798
 20
53.301944677719
 11
263.0317794585029
 21
53.301944677719
 72
     1
 10
263.0317794585029
 20
53.301944677719
 11
263.0317794585029
 21
52.2732221563639
 72
     1
 10
263.0317794585029
 20
52.2732221563639
 11
261.4537416290798
 21
52.2732221563639
 97
        0
 75
     0
 76
     1
 98
        1
 10
0.0
 20
0.0
  0
HATCH
  5
6A
330
1F
100
AcDbEntity
  8
Ŕ¶É«
100
AcDbHatch
 10
0.0
 20
0.0
 30
0.0
210
0.0
220
0.0
230
1.0
  2
SOLID
 70
     1
 71
     0
 91
        1
 92
        0
 93
        8
 72
     4
 94
        3
 73
     1
 74
     0
 95
       11
 96
        7
 40
0.0
 40
0.0
 40
0.0
 40
0.0
 40
1.0
 40
2.0
 40
3.0
 40
4.0
 40
4.0
 40
4.0
 40
4.0
 10
270.4492992832643
 20
60.8244906344845
 42
1.0
 10
270.5207548257185
 20
60.61720748736411
 42
1.0
 10
270.5834869896147
 20
60.4100894306779
 42
1.0
 10
270.6371611916724
 20
60.20296917278647
 42
1.0
 10
270.6908353937305
 20
59.99568382446046
 42
1.0
 10
270.7391408548587
 20
59.77433937473415
 42
1.0
 10
270.7820819774699
 20
59.53858583188641
 42
1.0
 72
     1
 10
270.7820819774699
 20
59.53858583188641
 11
266.8852906638342
 21
59.53858583188641
 72
     1
 10
266.8852906638342
 20
59.53858583188641
 11
266.8852906638342
 21
58.33840919010471
 72
     1
 10
266.8852906638342
 20
58.33840919010471
 11
275.6879577549769
 21
58.33840919010471
 72
     1
 10
275.6879577549769
 20
58.33840919010471
 11
275.6879577549769
 21
59.53858583188641
 72
     1
 10
275.6879577549769
 20
59.53858583188641
 11
272.0702738328868
 21
59.53858583188641
 72
     4
 94
        3
 73
     1
 74
     0
 95
       11
 96
        7
 40
0.0
 40
0.0
 40
0.0
 40
0.0
 40
1.0
 40
2.0
 40
3.0
 40
4.0
 40
4.0
 40
4.0
 40
4.0
 10
272.0702738328868
 20
59.53858583188641
 42
1.0
 10
272.0343831724312
 20
59.7671348281736
 42
1.0
 10
271.9860733088908
 20
60.01360163961581
 42
1.0
 10
271.9253530470895
 20
60.27798186380221
 42
1.0
 10
271.8644676948534
 20
60.5421947963483
 42
1.0
 10
271.8019050238033
 20
60.79585955073396
 42
1.0
 10
271.737491138681
 20
61.03880883531937
 42
1.0
 72
     1
 10
271.737491138681
 20
61.03880883531936
 11
270.4492992832643
 21
60.82449063448449
 97
        0
 75
     0
 76
     1
 98
        1
 10
0.0
 20
0.0
  0
HATCH
  5
6B
330
1F
100
AcDbEntity
  8
Ŕ¶É«
100
AcDbHatch
 10
0.0
 20
0.0
 30
0.0
210
0.0
220
0.0
230
1.0
  2
SOLID
 70
     1
 71
     0
 91
        1
 92
        0
 93
        4
 72
     4
 94
        3
 73
     1
 74
     0
 95
       29
 96
       25
 40
0.0
 40
0.0
 40
0.0
 40
0.0
 40
1.0
 40
2.0
 40
3.0
 40
4.0
 40
5.0
 40
6.0
 40
7.0
 40
8.0
 40
9.0
 40
10.0
 40
11.0
 40
12.0
 40
13.0
 40
14.0
 40
15.0
 40
16.0
 40
17.0
 40
18.0
 40
19.0
 40
20.0
 40
21.0
 40
22.0
 40
22.0
 40
22.0
 40
22.0
 10
267.9695220922763
 20
57.50257172877791
 42
1.0
 10
268.0481909861137
 20
57.32391746420206
 42
1.0
 10
268.1198116190027
 20
57.16133860553276
 42
1.0
 10
268.1842233029188
 20
57.01499804199901
 42
1.0
 10
268.2486327856291
 20
56.86849458923631
 42
1.0
 10
268.3111976578857
 20
56.7166267979563
 42
1.0
 10
268.3720852113269
 20
56.55957516703356
 42
1.0
 10
268.4328032719229
 20
56.4023540432645
 42
1.0
 10
268.495535435819
 20
56.23625765773785
 42
1.0
 10
268.5599471197353
 20
56.06128601045421
 42
1.0
 10
268.6243566024459
 20
55.88614927273556
 42
1.0
 10
268.6958099436944
 20
55.68087362529861
 42
1.0
 10
268.7746461291724
 20
55.44512228365666
 42
1.0
 10
268.8533128218046
 20
55.20937314322061
 42
1.0
 10
268.9230888442386
 20
55.00041487849145
 42
1.0
 10
268.9839763976802
 20
54.8182452882644
 42
1.0
 10
269.044694458276
 20
54.63607569803685
 42
1.0
 10
269.1002154719941
 20
54.4609367591126
 42
1.0
 10
269.1503699459892
 20
54.29316525597771
 42
1.0
 10
269.2003527259315
 20
54.12522866240806
 42
1.0
 10
269.2486581870604
 20
53.96097468613031
 42
1.0
 10
269.2952907317858
 20
53.80023823670976
 42
1.0
 10
269.341753783666
 20
53.6394973848779
 42
1.0
 10
269.3865373155254
 20
53.46971838206007
 42
1.0
 10
269.4294784381365
 20
53.29123140912421
 42
1.0
 72
     1
 10
269.4294784381365
 20
53.29123140912419
 11
270.6639960914956
 21
53.70915234099311
 72
     4
 94
        3
 73
     1
 74
     0
 95
       11
 96
        7
 40
0.0
 40
0.0
 40
0.0
 40
0.0
 40
1.0
 40
2.0
 40
3.0
 40
4.0
 40
4.0
 40
4.0
 40
4.0
 10
270.6639960914956
 20
53.70915234099311
 42
1.0
 10
270.5351793272804
 20
54.27340943398481
 42
1.0
 10
270.2990097565382
 20
55.01280326469514
 42
1.0
 10
269.9554895804737
 20
55.9273382355354
 42
1.0
 10
269.626226614331
 20
56.8274707168715
 42
1.0
 10
269.325649762084
 20
57.52751799403061
 42
1.0
 10
269.0537546213197
 20
58.02764955985881
 42
1.0
 72
     1
 10
269.0537546213197
 20
58.02764955985879
 11
267.9695220922763
 21
57.5025717287779
 97
        0
 75
     0
 76
     1
 98
        1
 10
0.0
 20
0.0
  0
HATCH
  5
6C
330
1F
100
AcDbEntity
  8
Ŕ¶É«
100
AcDbHatch
 10
0.0
 20
0.0
 30
0.0
210
0.0
220
0.0
230
1.0
  2
SOLID
 70
     1
 71
     0
 91
        1
 92
        0
 93
        8
 72
     4
 94
        3
 73
     1
 74
     0
 95
       17
 96
       13
 40
0.0
 40
0.0
 40
0.0
 40
0.0
 40
1.0
 40
2.0
 40
3.0
 40
4.0
 40
5.0
 40
6.0
 40
7.0
 40
8.0
 40
9.0
 40
10.0
 40
10.0
 40
10.0
 40
10.0
 10
272.8109905882782
 20
52.73400716864156
 42
1.0
 10
272.9325962023158
 20
53.02685118493766
 42
1.0
 10
273.0632619793971
 20
53.3464860769413
 42
1.0
 10
273.2028162254711
 20
53.6930769350866
 42
1.0
 10
273.342368270339
 20
54.03950270279751
 42
1.0
 10
273.4943373170859
 20
54.41991508795311
 42
1.0
 10
273.6590513453742
 20
54.83431849296525
 42
1.0
 10
273.9022669758605
 20
55.45583775345706
 42
1.0
 10
274.1062285034388
 20
55.99699099044464
 42
1.0
 10
274.270942531727
 20
56.45777380151615
 42
1.0
 10
274.4354914695808
 20
56.91855661258831
 42
1.0
 10
274.5785698461298
 20
57.33463293400281
 42
1.0
 10
274.7003427518069
 20
57.70617225860656
 42
1.0
 72
     1
 10
274.7003427518069
 20
57.70617225860658
 11
273.3906781338792
 21
58.13480866027637
 72
     4
 94
        3
 73
     1
 74
     0
 95
       17
 96
       13
 40
0.0
 40
0.0
 40
0.0
 40
0.0
 40
1.0
 40
2.0
 40
3.0
 40
4.0
 40
5.0
 40
6.0
 40
7.0
 40
8.0
 40
9.0
 40
10.0
 40
10.0
 40
10.0
 40
10.0
 10
273.3906781338792
 20
58.13480866027636
 42
1.0
 10
273.2761163783796
 20
57.77046947982161
 42
1.0
 10
273.1384067427609
 20
57.34535060500916
 42
1.0
 10
272.9773819353807
 20
56.85961932747915
 42
1.0
 10
272.8163549267961
 20
56.37372075830851
 42
1.0
 10
272.6248037974786
 20
55.8272119876266
 42
1.0
 10
272.40306313071
 20
55.22009081422661
 42
1.0
 10
272.2168763399101
 20
54.71276130545531
 42
1.0
 10
272.0469630635385
 20
54.25381870242676
 42
1.0
 10
271.8931494063367
 20
53.84310011591221
 42
1.0
 10
271.7391706587015
 20
53.43221423775771
 42
1.0
 10
271.594249872904
 20
53.0625151211969
 42
1.0
 10
271.4583848477392
 20
52.73400716864156
 42
1.0
 72
     1
 10
271.4583848477392
 20
52.73400716864156
 11
266.5632443508849
 21
52.73400716864156
 72
     1
 10
266.5632443508849
 20
52.73400716864156
 11
266.5632443508849
 21
51.48025097665145
 72
     1
 10
266.5632443508849
 20
51.48025097665145
 11
275.9992742902887
 21
51.48025097665145
 72
     1
 10
275.9992742902887
 20
51.48025097665145
 11
275.9992742902887
 21
52.73400716864156
 72
     1
 10
275.9992742902887
 20
52.73400716864156
 11
272.8109905882782
 21
52.73400716864156
 97
        0
 75
     0
 76
     1
 98
        1
 10
0.0
 20
0.0
  0
HATCH
  5
6D
330
1F
100
AcDbEntity
  8
Ŕ¶É«
100
AcDbHatch
 10
0.0
 20
0.0
 30
0.0
210
0.0
220
0.0
230
1.0
  2
SOLID
 70
     1
 71
     0
 91
        2
 92
        0
 93
       17
 72
     4
 94
        3
 73
     1
 74
     0
 95
       53
 96
       49
 40
0.0
 40
0.0
 40
0.0
 40
0.0
 40
1.0
 40
2.0
 40
3.0
 40
4.0
 40
5.0
 40
6.0
 40
7.0
 40
8.0
 40
9.0
 40
10.0
 40
11.0
 40
12.0
 40
13.0
 40
14.0
 40
15.0
 40
16.0
 40
17.0
 40
18.0
 40
19.0
 40
20.0
 40
21.0
 40
22.0
 40
23.0
 40
24.0
 40
25.0
 40
26.0
 40
27.0
 40
28.0
 40
29.0
 40
30.0
 40
31.0
 40
32.0
 40
33.0
 40
34.0
 40
35.0
 40
36.0
 40
37.0
 40
38.0
 40
39.0
 40
40.0
 40
41.0
 40
42.0
 40
43.0
 40
44.0
 40
45.0
 40
46.0
 40
46.0
 40
46.0
 40
46.0
 10
278.6833299824895
 20
52.862599409866
 42
1.0
 10
278.6833299824895
 20
52.56958810192926
 42
1.0
 10
278.7064778626093
 20
52.3251309913759
 42
1.0
 10
278.7531060049236
 20
52.12856111285031
 42
1.0
 10
278.799566855598
 20
51.93216072717096
 42
1.0
 10
278.8765562294159
 20
51.7749396034021
 42
1.0
 10
278.9839090359423
 20
51.65706503318386
 42
1.0
 10
279.0912574400583
 20
51.53918826176032
 42
1.0
 10
279.234335816607
 20
51.45346230214971
 42
1.0
 10
279.4133070548169
 20
51.39988275194086
 42
1.0
 10
279.5921110013871
 20
51.34630320173235
 42
1.0
 10
279.8140211610019
 20
51.31248167472202
 42
1.0
 10
280.0788724432281
 20
51.29808358762971
 42
1.0
 10
280.2291619699545
 20
51.29105073512101
 42
1.0
 10
280.3901889785399
 20
51.28569079901496
 42
1.0
 10
280.561946865366
 20
51.28200818172277
 42
1.0
 10
280.733704752192
 20
51.27849065486526
 42
1.0
 10
280.9000983005014
 20
51.27665044682261
 42
1.0
 10
281.0611231078801
 20
51.27665044682261
 42
1.0
 10
281.2221457140531
 20
51.27665044682261
 42
1.0
 10
281.3724352407801
 20
51.27849065486526
 42
1.0
 10
281.5119894868537
 20
51.28200818172277
 42
1.0
 10
281.6515459341332
 20
51.28569079901496
 42
1.0
 10
281.7677828072418
 20
51.29105073512101
 42
1.0
 10
281.8608762026414
 20
51.29808358762971
 42
1.0
 10
282.1757124660161
 20
51.31951452723072
 42
1.0
 10
282.4333503968579
 20
51.35534575513011
 42
1.0
 10
282.6337921963735
 20
51.405240486841
 42
1.0
 10
282.8340667042489
 20
51.45530471139846
 42
1.0
 10
282.9969361220831
 20
51.52847279195957
 42
1.0
 10
283.1222353594408
 20
51.62491422137056
 42
1.0
 10
283.2473629027472
 20
51.7213600531931
 42
1.0
 10
283.3386116876925
 20
51.84643256635461
 42
1.0
 10
283.395977311865
 20
51.9999710728316
 42
1.0
 10
283.4531734431918
 20
52.15367907215491
 42
1.0
 10
283.4961123645966
 20
52.35175457544265
 42
1.0
 10
283.5247940760808
 20
52.59470165882241
 42
1.0
 10
283.5318379346182
 20
52.64459859173925
 42
1.0
 10
283.5390534872075
 20
52.71073602099757
 42
1.0
 10
283.5462668385914
 20
52.79294665495632
 42
1.0
 10
283.5533084959234
 20
52.87498999727486
 42
1.0
 10
283.5605218473073
 20
52.96071595688542
 42
1.0
 10
283.567735198691
 20
53.05012893619945
 42
1.0
 10
283.5747790572291
 20
53.1393702214614
 42
1.0
 10
283.5819924086136
 20
53.23045611717791
 42
1.0
 10
283.5892035587908
 20
53.32338222093721
 42
1.0
 10
283.596249618535
 20
53.41614103305682
 42
1.0
 10
283.5999388394443
 20
53.49483634136446
 42
1.0
 10
283.5999388394443
 20
53.55913136137371
 42
1.0
 72
     1
 10
283.5999388394442
 20
53.55913136137372
 11
282.4942401515054
 21
53.80559597161053
 72
     1
 10
282.4942401515054
 20
53.80559597161053
 11
282.4512990288952
 21
53.1304971609097
 72
     4
 94
        3
 73
     1
 74
     0
 95
       35
 96
       31
 40
0.0
 40
0.0
 40
0.0
 40
0.0
 40
1.0
 40
2.0
 40
3.0
 40
4.0
 40
5.0
 40
6.0
 40
7.0
 40
8.0
 40
9.0
 40
10.0
 40
11.0
 40
12.0
 40
13.0
 40
14.0
 40
15.0
 40
16.0
 40
17.0
 40
18.0
 40
19.0
 40
20.0
 40
21.0
 40
22.0
 40
23.0
 40
24.0
 40
25.0
 40
26.0
 40
27.0
 40
28.0
 40
28.0
 40
28.0
 40
28.0
 10
282.4512990288952
 20
53.13049716090971
 42
1.0
 10
282.436874527333
 20
52.98047398008396
 42
1.0
 10
282.4207705057512
 20
52.8607570006174
 42
1.0
 10
282.4029913665603
 20
52.7715135141495
 42
1.0
 10
282.3850449357303
 20
52.68210493724721
 42
1.0
 10
282.3600524451554
 20
52.61429239038016
 42
1.0
 10
282.3278466031974
 20
52.56791298432051
 42
1.0
 10
282.2956407612394
 20
52.52136628662071
 42
1.0
 10
282.2527018398339
 20
52.49106008526226
 42
1.0
 10
282.1990276377761
 20
52.476827088604
 42
1.0
 10
282.145351234513
 20
52.4624290015117
 42
1.0
 10
282.0790993425535
 20
52.45171353171116
 42
1.0
 10
282.0004304487148
 20
52.4446806792026
 42
1.0
 10
281.6354419125515
 20
52.42324753839551
 42
1.0
 10
281.3204383575365
 20
52.41420718620366
 42
1.0
 10
281.0557543669505
 20
52.417892004701
 42
1.0
 10
280.7909030847248
 20
52.42140512914661
 42
1.0
 10
280.4975373826553
 20
52.43028039090436
 42
1.0
 10
280.1754877678969
 20
52.4446806792026
 42
1.0
 10
280.1038649338024
 20
52.45171353171116
 42
1.0
 10
280.0448241920212
 20
52.4642714107606
 42
1.0
 10
279.9983611401412
 20
52.48218702471026
 42
1.0
 10
279.951730796621
 20
52.49993314581376
 42
1.0
 10
279.9141584149395
 20
52.53576657491912
 42
1.0
 10
279.8856439950964
 20
52.58934612512745
 42
1.0
 10
279.8569622836134
 20
52.642923474131
 42
1.0
 10
279.8373385339675
 20
52.71793616514646
 42
1.0
 10
279.8266010521091
 20
52.8143775945576
 42
1.0
 10
279.8158657714562
 20
52.91082122517421
 42
1.0
 10
279.8104992317334
 20
53.04108638280135
 42
1.0
 10
279.8104992317334
 20
53.2055076507194
 42
1.0
 72
     1
 10
279.8104992317334
 20
53.2055076507194
 11
279.8104992317334
 21
56.65601879765031
 72
     1
 10
279.8104992317334
 20
56.65601879765031
 11
281.7320550360147
 21
56.65601879765031
 72
     4
 94
        3
 73
     1
 74
     0
 95
       29
 96
       25
 40
0.0
 40
0.0
 40
0.0
 40
0.0
 40
1.0
 40
2.0
 40
3.0
 40
4.0
 40
5.0
 40
6.0
 40
7.0
 40
8.0
 40
9.0
 40
10.0
 40
11.0
 40
12.0
 40
13.0
 40
14.0
 40
15.0
 40
16.0
 40
17.0
 40
18.0
 40
19.0
 40
20.0
 40
21.0
 40
22.0
 40
22.0
 40
22.0
 40
22.0
 10
281.7320550360147
 20
56.65601879765031
 42
1.0
 10
281.7320550360147
 20
56.3774077780116
 42
1.0
 10
281.7283658151052
 20
56.13981622832701
 42
1.0
 10
281.7213219565678
 20
55.94341364144171
 42
1.0
 10
281.7141108063894
 20
55.74684376291616
 42
1.0
 10
281.7033755257373
 20
55.55579891093132
 42
1.0
 10
281.6891183158153
 20
55.37011399505241
 42
1.0
 10
281.6746938142537
 20
55.25575695169161
 42
1.0
 10
281.6604344031256
 20
55.16818638162651
 42
1.0
 10
281.6461771932038
 20
55.1075739789091
 42
1.0
 10
281.6317526916421
 20
55.04679648575706
 42
1.0
 10
281.606760201068
 20
55.00041707969756
 42
1.0
 10
281.5710324298408
 20
54.96826846908971
 42
1.0
 10
281.5351373669741
 20
54.93612205968845
 42
1.0
 10
281.4868319058453
 20
54.91820644573865
 42
1.0
 10
281.426111644044
 20
54.91468891888135
 42
1.0
 10
281.3652218893963
 20
54.91100630158916
 42
1.0
 10
281.2847105863094
 20
54.90933338518635
 42
1.0
 10
281.1845733323717
 20
54.90933338518635
 42
1.0
 10
281.0485432167728
 20
54.90933338518635
 42
1.0
 10
280.9162023220825
 20
54.91284650963232
 42
1.0
 10
280.7873811554558
 20
54.92004885498711
 42
1.0
 10
280.6585599888291
 20
54.92707950629036
 42
1.0
 10
280.5225298732295
 20
54.93779497609096
 42
1.0
 10
280.3794514966815
 20
54.95219526438915
 42
1.0
 72
     1
 10
280.3794514966815
 20
54.95219526438915
 11
280.5834152254656
 21
53.82702911241711
 72
     4
 94
        3
 73
     1
 74
     0
 95
       41
 96
       37
 40
0.0
 40
0.0
 40
0.0
 40
0.0
 40
1.0
 40
2.0
 40
3.0
 40
4.0
 40
5.0
 40
6.0
 40
7.0
 40
8.0
 40
9.0
 40
10.0
 40
11.0
 40
12.0
 40
13.0
 40
14.0
 40
15.0
 40
16.0
 40
17.0
 40
18.0
 40
19.0
 40
20.0
 40
21.0
 40
22.0
 40
23.0
 40
24.0
 40
25.0
 40
26.0
 40
27.0
 40
28.0
 40
29.0
 40
30.0
 40
31.0
 40
32.0
 40
33.0
 40
34.0
 40
34.0
 40
34.0
 40
34.0
 10
280.5834152254656
 20
53.82702911241711
 42
1.0
 10
280.7479641633194
 20
53.81982896826825
 42
1.0
 10
280.910833581153
 20
53.81982896826825
 42
1.0
 10
281.0718561873268
 20
53.82702911241711
 42
1.0
 10
281.2328809947061
 20
53.8340619649257
 42
1.0
 10
281.3955831209
 20
53.8484600520183
 42
1.0
 10
281.5602971491886
 20
53.86989099161961
 42
1.0
 10
281.8107239298526
 20
53.8983569849354
 42
1.0
 10
282.0093211189134
 20
53.9377035384862
 42
1.0
 10
282.1560865151653
 20
53.98776556183756
 42
1.0
 10
282.3026868209829
 20
54.03766249475471
 42
1.0
 10
282.4154061672333
 20
54.10915765891331
 42
1.0
 10
282.4942401515054
 20
54.20208376267225
 42
1.0
 10
282.5729068441381
 20
54.29484257479176
 42
1.0
 10
282.6265810461958
 20
54.40920181935832
 42
1.0
 10
282.6552649588854
 20
54.544992003526
 42
1.0
 10
282.6837771775225
 20
54.68061489605356
 42
1.0
 10
282.7052477388276
 20
54.84503836517725
 42
1.0
 10
282.719674441596
 20
55.03792342520521
 42
1.0
 10
282.7339294503119
 20
55.23080848523331
 42
1.0
 10
282.7465115426245
 20
55.42185333721811
 42
1.0
 10
282.7572446220721
 20
55.61122087038906
 42
1.0
 10
282.7679821039297
 20
55.80042331312516
 42
1.0
 10
282.7768705729229
 20
55.99866830925932
 42
1.0
 10
282.7840817231006
 20
56.20595145637941
 42
1.0
 10
282.7911299840495
 20
56.41306951306525
 42
1.0
 10
282.7983411342279
 20
56.63626077445196
 42
1.0
 10
282.8055544856118
 20
56.87569473338565
 42
1.0
 10
282.8125983441498
 20
57.11495919947325
 42
1.0
 10
282.8162875650585
 20
57.38469935976556
 42
1.0
 10
282.8162875650585
 20
57.68474352021099
 42
1.0
 10
282.8734836963854
 20
57.62748135271046
 42
1.0
 10
282.9253154891948
 20
57.57038427564446
 42
1.0
 10
282.9719458327145
 20
57.51328939978441
 42
1.0
 10
283.0184066833883
 20
57.45602723228371
 42
1.0
 10
283.0667143457227
 20
57.40244768207486
 42
1.0
 10
283.116866618512
 20
57.35255074915821
 42
1.0
 72
     1
 10
283.116866618512
 20
57.35255074915823
 11
283.8575789714915
 21
58.27411637130135
 72
     4
 94
        3
 73
     1
 74
     0
 95
       17
 96
       13
 40
0.0
 40
0.0
 40
0.0
 40
0.0
 40
1.0
 40
2.0
 40
3.0
 40
4.0
 40
5.0
 40
6.0
 40
7.0
 40
8.0
 40
9.0
 40
10.0
 40
10.0
 40
10.0
 40
10.0
 10
283.8575789714915
 20
58.27411637130136
 42
1.0
 10
283.7143355045087
 20
58.43837034757916
 42
1.0
 10
283.535529356733
 20
58.62238454826101
 42
1.0
 10
283.3208325485015
 20
58.82598287688361
 42
1.0
 10
283.1061335390652
 20
59.02958560791807
 42
1.0
 10
282.8555372655547
 20
59.25629219495637
 42
1.0
 10
282.569384914869
 20
59.50644382489636
 42
1.0
 10
282.3617297639695
 20
59.6921287407753
 42
1.0
 10
282.1703437250866
 20
59.86006533434445
 42
1.0
 10
281.995061707786
 20
60.010090716376
 42
1.0
 10
281.8196146000505
 20
60.16010949479005
 42
1.0
 10
281.6532210517418
 20
60.29573458852327
 42
1.0
 10
281.495887666478
 20
60.41729177603335
 42
1.0
 72
     1
 10
281.4958876664779
 20
60.41729177603334
 11
281.6891183158153
 21
60.76020001688646
 72
     1
 10
281.6891183158153
 20
60.76020001688646
 11
280.5726821460189
 21
61.29599331776797
 72
     4
 94
        3
 73
     1
 74
     0
 95
       14
 96
       10
 40
0.0
 40
0.0
 40
0.0
 40
0.0
 40
1.0
 40
2.0
 40
3.0
 40
4.0
 40
5.0
 40
6.0
 40
7.0
 40
7.0
 40
7.0
 40
7.0
 10
280.5726821460188
 20
61.29599331776799
 42
1.0
 10
280.4223926192918
 20
61.00298200983141
 42
1.0
 10
280.2398994518128
 20
60.70293784938626
 42
1.0
 10
280.0252004423759
 20
60.39586083643191
 42
1.0
 10
279.8104992317334
 20
60.08861433063161
 42
1.0
 10
279.5599029582229
 20
59.77065675744247
 42
1.0
 10
279.2737528087434
 20
59.44214440247556
 42
1.0
 10
278.7083224730637
 20
58.77776326278116
 42
1.0
 10
278.1393680069099
 20
58.22405214674426
 42
1.0
 10
277.5668938126932
 20
57.78118715082811
 42
1.0
 72
     1
 10
277.5668938126932
 20
57.78118715082811
 11
278.2968708850203
 21
56.85962152868465
 72
     1
 10
278.2968708850203
 20
56.85962152868465
 11
278.6833299824895
 21
57.1489502193295
 72
     1
 10
278.6833299824895
 20
57.1489502193295
 11
278.6833299824895
 21
52.862599409866
 97
        0
 92
        0
 93
        3
 72
     4
 94
        3
 73
     1
 74
     0
 95
        8
 96
        4
 40
0.0
 40
0.0
 40
0.0
 40
0.0
 40
1.0
 40
1.0
 40
1.0
 40
1.0
 10
281.8394078425416
 20
58.67060416236379
 42
1.0
 10
282.1899718771434
 20
58.32769592151021
 42
1.0
 10
282.4942401515054
 20
58.02396914377271
 42
1.0
 10
282.751878082348
 20
57.75975621122666
 42
1.0
 72
     1
 10
282.751878082348
 20
57.75975621122666
 11
279.3918342923063
 21
57.75975621122666
 72
     4
 94
        3
 73
     1
 74
     0
 95
       11
 96
        7
 40
0.0
 40
0.0
 40
0.0
 40
0.0
 40
1.0
 40
2.0
 40
3.0
 40
4.0
 40
4.0
 40
4.0
 40
4.0
 10
279.3918342923063
 20
57.75975621122666
 42
1.0
 10
279.9785678976501
 20
58.28834716675321
 42
1.0
 10
280.4903240312714
 20
58.86348922239156
 42
1.0
 10
280.9269354015299
 20
59.48500848288349
 42
1.0
 10
281.1988327434992
 20
59.25629219495637
 42
1.0
 10
281.5029315250161
 20
58.98487911826125
 42
1.0
 10
281.8394078425416
 20
58.67060416236379
 42
1.0
 97
        0
 75
     0
 76
     1
 98
        1
 10
0.0
 20
0.0
  0
HATCH
  5
6E
330
1F
100
AcDbEntity
  8
Ŕ¶É«
100
AcDbHatch
 10
0.0
 20
0.0
 30
0.0
210
0.0
220
0.0
230
1.0
  2
SOLID
 70
     1
 71
     0
 91
        1
 92
        0
 93
        4
 72
     1
 10
285.0491599046516
 20
60.11724541438196
 11
283.9219906554082
 21
60.11724541438196
 72
     1
 10
283.9219906554082
 20
60.11724541438196
 11
283.9219906554082
 21
53.83774458221786
 72
     1
 10
283.9219906554082
 20
53.83774458221786
 11
285.0491599046516
 21
53.83774458221786
 72
     1
 10
285.0491599046516
 20
53.83774458221786
 11
285.0491599046516
 21
60.11724541438196
 97
        0
 75
     0
 76
     1
 98
        1
 10
0.0
 20
0.0
  0
HATCH
  5
6F
330
1F
100
AcDbEntity
  8
Ŕ¶É«
100
AcDbHatch
 10
0.0
 20
0.0
 30
0.0
210
0.0
220
0.0
230
1.0
  2
SOLID
 70
     1
 71
     0
 91
        1
 92
        0
 93
        6
 72
     4
 94
        3
 73
     1
 74
     0
 95
       22
 96
       18
 40
0.0
 40
0.0
 40
0.0
 40
0.0
 40
1.0
 40
2.0
 40
3.0
 40
4.0
 40
5.0
 40
6.0
 40
7.0
 40
8.0
 40
9.0
 40
10.0
 40
11.0
 40
12.0
 40
13.0
 40
14.0
 40
14.69601189790356
 40
14.69601189790356
 40
14.69601189790356
 40
14.69601189790356
 10
284.5660854825131
 20
51.10519632639551
 42
1.0
 10
284.7378433693398
 20
51.09816567509255
 42
1.0
 10
284.9273847977684
 20
51.09983859149556
 42
1.0
 10
285.1350399486673
 20
51.1105540612958
 42
1.0
 10
285.3425256067211
 20
51.12126953109637
 42
1.0
 10
285.5464915367112
 20
51.13734273579741
 42
1.0
 10
285.7469311350209
 20
51.15877587660486
 42
1.0
 10
285.990144564301
 20
51.18020681620565
 42
1.0
 10
286.1959573059517
 20
51.2195555709624
 42
1.0
 10
286.3641910623033
 20
51.27665044682261
 42
1.0
 10
286.532261929426
 20
51.33391261432332
 42
1.0
 10
286.6647701157566
 20
51.41779836589031
 42
1.0
 10
286.7613854404252
 20
51.52847279195957
 42
1.0
 10
286.8580007650939
 20
51.63931671087501
 42
1.0
 10
286.9277789887334
 20
51.78565507320251
 42
1.0
 10
286.9663649582382
 20
51.94936553409893
 42
1.0
 10
286.990640798234
 20
52.05235279825294
 42
1.0
 10
286.9999999912151
 20
52.10380013561439
 42
1.0
 72
     1
 10
287.0
 20
52.10380013401618
 11
287.0
 21
60.95308507691441
 72
     1
 10
287.0
 20
60.95308507691441
 11
285.9079559423994
 21
60.95308507691441
 72
     1
 10
285.9079559423994
 20
60.95308507691441
 11
285.9079559423994
 21
52.90546349027425
 72
     4
 94
        3
 73
     1
 74
     0
 95
       23
 96
       19
 40
0.0
 40
0.0
 40
0.0
 40
0.0
 40
1.0
 40
2.0
 40
3.0
 40
4.0
 40
5.0
 40
6.0
 40
7.0
 40
8.0
 40
9.0
 40
10.0
 40
11.0
 40
12.0
 40
13.0
 40
14.0
 40
15.0
 40
16.0
 40
16.0
 40
16.0
 40
16.0
 10
285.9079559423994
 20
52.90546349027425
 42
1.0
 10
285.9079559423994
 20
52.78390410155821
 42
1.0
 10
285.9025894026767
 20
52.68746267214751
 42
1.0
 10
285.8918519208184
 20
52.61613479962922
 42
1.0
 10
285.8811188413708
 20
52.54463963547047
 42
1.0
 10
285.8542795391362
 20
52.49106008526226
 42
1.0
 10
285.8113428189369
 20
52.455396149003
 42
1.0
 10
285.768401696326
 20
52.41956492110365
 42
1.0
 10
285.70566953243
 20
52.39461645464515
 42
1.0
 10
285.6234809105285
 20
52.380385659193
 42
1.0
 10
285.5411227957817
 20
52.36598537089496
 42
1.0
 10
285.4319275800058
 20
52.35895251838641
 42
1.0
 10
285.2960625548411
 20
52.35895251838641
 42
1.0
 10
285.1385596767308
 20
52.35895251838641
 42
1.0
 10
284.977537070557
 20
52.36247004524356
 42
1.0
 10
284.8129881327033
 20
52.3696701893921
 42
1.0
 10
284.6482741044147
 20
52.37670304190132
 42
1.0
 10
284.4837295689725
 20
52.3874185117019
 42
1.0
 10
284.3191828323242
 20
52.4018165987943
 42
1.0
 72
     1
 10
284.3191828323242
 20
52.4018165987943
 11
284.5660854825131
 21
51.10519632639551
 97
        0
 75
     0
 76
     1
 98
        1
 10
0.0
 20
0.0
  0
LINE
  5
70
330
1F
100
AcDbEntity
  8
ÍĽżň
100
AcDbLine
 10
0.0
 20
0.0
 30
0.0
 11
0.0
 21
210.0
 31
0.0
  0
LINE
  5
71
330
1F
100
AcDbEntity
  8
ÍĽżň
100
AcDbLine
 10
0.0
 20
210.0
 30
0.0
 11
297.0
 21
210.0
 31
0.0
  0
LINE
  5
72
330
1F
100
AcDbEntity
  8
ÍĽżň
100
AcDbLine
 10
297.0
 20
210.0
 30
0.0
 11
297.0
 21
0.0
 31
0.0
  0
LINE
  5
73
330
1F
100
AcDbEntity
  8
ÍĽżň
100
AcDbLine
 10
297.0
 20
0.0
 30
0.0
 11
0.0
 21
0.0
 31
0.0
  0
LINE
  5
74
330
1F
100
AcDbEntity
  8
´ÖĘµĎß˛ă
100
AcDbLine
 10
10.0
 20
200.0
 30
0.0
 11
287.0
 21
200.0
 31
0.0
  0
LINE
  5
75
330
1F
100
AcDbEntity
  8
´ÖĘµĎß˛ă
100
AcDbLine
 10
287.0
 20
200.0
 30
0.0
 11
287.0
 21
10.0
 31
0.0
  0
LINE
  5
76
330
1F
100
AcDbEntity
  8
´ÖĘµĎß˛ă
100
AcDbLine
 10
10.0
 20
10.0
 30
0.0
 11
287.0
 21
10.0
 31
0.0
  0
LINE
  5
77
330
1F
100
AcDbEntity
  8
´ÖĘµĎß˛ă
100
AcDbLine
 10
10.0
 20
200.0
 30
0.0
 11
10.0
 21
10.0
 31
0.0
  0
LINE
  5
78
330
1F
100
AcDbEntity
  8
ÍĽżň
100
AcDbLine
 10
0.0
 20
183.5
 30
0.0
 11
10.0
 21
183.5
 31
0.0
  0
LINE
  5
79
330
1F
100
AcDbEntity
  8
ÍĽżň
100
AcDbLine
 10
0.0
 20
157.0
 30
0.0
 11
10.0
 21
157.0
 31
0.0
  0
LINE
  5
7A
330
1F
100
AcDbEntity
  8
ÍĽżň
100
AcDbLine
 10
0.0
 20
130.5
 30
0.0
 11
10.0
 21
130.5
 31
0.0
  0
LINE
  5
7B
330
1F
100
AcDbEntity
  8
ÍĽżň
100
AcDbLine
 10
0.0
 20
104.0
 30
0.0
 11
10.0
 21
104.0
 31
0.0
  0
LINE
  5
7C
330
1F
100
AcDbEntity
  8
ÍĽżň
100
AcDbLine
 10
0.0
 20
77.5
 30
0.0
 11
10.0
 21
77.5
 31
0.0
  0
LINE
  5
7D
330
1F
100
AcDbEntity
  8
ÍĽżň
100
AcDbLine
 10
0.0
 20
51.0
 30
0.0
 11
10.0
 21
51.0
 31
0.0
  0
LINE
  5
7E
330
1F
100
AcDbEntity
  8
ÍĽżň
100
AcDbLine
 10
0.0
 20
24.5
 30
0.0
 11
10.0
 21
24.5
 31
0.0
  0
LINE
  5
7F
330
1F
100
AcDbEntity
  8
ÍĽżň
100
AcDbLine
 10
29.7
 20
210.0
 30
0.0
 11
29.7
 21
200.0
 31
0.0
  0
LINE
  5
80
330
1F
100
AcDbEntity
  8
ÍĽżň
100
AcDbLine
 10
59.4
 20
210.0
 30
0.0
 11
59.4
 21
200.0
 31
0.0
  0
LINE
  5
81
330
1F
100
AcDbEntity
  8
ÍĽżň
100
AcDbLine
 10
89.1
 20
210.0
 30
0.0
 11
89.1
 21
200.0
 31
0.0
  0
LINE
  5
82
330
1F
100
AcDbEntity
  8
ÍĽżň
100
AcDbLine
 10
118.8
 20
210.0
 30
0.0
 11
118.8
 21
200.0
 31
0.0
  0
LINE
  5
83
330
1F
100
AcDbEntity
  8
ÍĽżň
100
AcDbLine
 10
148.5
 20
210.0
 30
0.0
 11
148.5
 21
200.0
 31
0.0
  0
LINE
  5
84
330
1F
100
AcDbEntity
  8
ÍĽżň
100
AcDbLine
 10
178.2
 20
210.0
 30
0.0
 11
178.2
 21
200.0
 31
0.0
  0
LINE
  5
85
330
1F
100
AcDbEntity
  8
ÍĽżň
100
AcDbLine
 10
207.9
 20
210.0
 30
0.0
 11
207.9
 21
200.0
 31
0.0
  0
LINE
  5
86
330
1F
100
AcDbEntity
  8
ÍĽżň
100
AcDbLine
 10
237.6
 20
210.0
 30
0.0
 11
237.6
 21
200.0
 31
0.0
  0
LINE
  5
87
330
1F
100
AcDbEntity
  8
ÍĽżň
100
AcDbLine
 10
267.3
 20
210.0
 30
0.0
 11
267.3
 21
200.0
 31
0.0
  0
LINE
  5
88
330
1F
100
AcDbEntity
  8
ÍĽżň
100
AcDbLine
 10
29.7
 20
10.0
 30
0.0
 11
29.7
 21
0.0
 31
0.0
  0
LINE
  5
89
330
1F
100
AcDbEntity
  8
ÍĽżň
100
AcDbLine
 10
59.4
 20
10.0
 30
0.0
 11
59.4
 21
0.0
 31
0.0
  0
LINE
  5
8A
330
1F
100
AcDbEntity
  8
ÍĽżň
100
AcDbLine
 10
89.1
 20
10.0
 30
0.0
 11
89.1
 21
0.0
 31
0.0
  0
LINE
  5
8B
330
1F
100
AcDbEntity
  8
ÍĽżň
100
AcDbLine
 10
118.8
 20
10.0
 30
0.0
 11
118.8
 21
0.0
 31
0.0
  0
LINE
  5
8C
330
1F
100
AcDbEntity
  8
ÍĽżň
100
AcDbLine
 10
148.5
 20
10.0
 30
0.0
 11
148.5
 21
0.0
 31
0.0
  0
LINE
  5
8D
330
1F
100
AcDbEntity
  8
ÍĽżň
100
AcDbLine
 10
178.2
 20
10.0
 30
0.0
 11
178.2
 21
0.0
 31
0.0
  0
LINE
  5
8E
330
1F
100
AcDbEntity
  8
ÍĽżň
100
AcDbLine
 10
207.9
 20
10.0
 30
0.0
 11
207.9
 21
0.0
 31
0.0
  0
LINE
  5
8F
330
1F
100
AcDbEntity
  8
ÍĽżň
100
AcDbLine
 10
237.6
 20
10.0
 30
0.0
 11
237.6
 21
0.0
 31
0.0
  0
LINE
  5
90
330
1F
100
AcDbEntity
  8
ÍĽżň
100
AcDbLine
 10
267.3
 20
10.0
 30
0.0
 11
267.3
 21
0.0
 31
0.0
  0
LINE
  5
91
330
1F
100
AcDbEntity
  8
ÍĽżň
100
AcDbLine
 10
287.0
 20
183.5
 30
0.0
 11
297.0
 21
183.5
 31
0.0
  0
LINE
  5
92
330
1F
100
AcDbEntity
  8
ÍĽżň
100
AcDbLine
 10
287.0
 20
157.0
 30
0.0
 11
297.0
 21
157.0
 31
0.0
  0
LINE
  5
93
330
1F
100
AcDbEntity
  8
ÍĽżň
100
AcDbLine
 10
287.0
 20
130.5
 30
0.0
 11
297.0
 21
130.5
 31
0.0
  0
LINE
  5
94
330
1F
100
AcDbEntity
  8
ÍĽżň
100
AcDbLine
 10
287.0
 20
104.0
 30
0.0
 11
297.0
 21
104.0
 31
0.0
  0
LINE
  5
95
330
1F
100
AcDbEntity
  8
ÍĽżň
100
AcDbLine
 10
287.0
 20
77.5
 30
0.0
 11
297.0
 21
77.5
 31
0.0
  0
LINE
  5
96
330
1F
100
AcDbEntity
  8
ÍĽżň
100
AcDbLine
 10
287.0
 20
51.0
 30
0.0
 11
297.0
 21
51.0
 31
0.0
  0
LINE
  5
97
330
1F
100
AcDbEntity
  8
ÍĽżň
100
AcDbLine
 10
287.0
 20
24.5
 30
0.0
 11
297.0
 21
24.5
 31
0.0
  0
LINE
  5
98
330
1F
100
AcDbEntity
  8
ÍĽżň
100
AcDbLine
 10
107.0
 20
66.0
 30
0.0
 11
237.0
 21
66.0
 31
0.0
  0
LINE
  5
99
330
1F
100
AcDbEntity
  8
ÍĽżň
100
AcDbLine
 10
107.0
 20
10.0
 30
0.0
 11
107.0
 21
66.0
 31
0.0
  0
LINE
  5
9A
330
1F
100
AcDbEntity
  8
ÍĽżň
100
AcDbLine
 10
107.0
 20
58.5070941979
 30
0.0
 11
117.0
 21
58.5070941979
 31
0.0
  0
LINE
  5
9B
330
1F
100
AcDbEntity
  8
ÍĽżň
100
AcDbLine
 10
117.0
 20
66.0
 30
0.0
 11
117.0
 21
58.5070941979
 31
0.0
  0
LINE
  5
9C
330
1F
100
AcDbEntity
  8
ÍĽżň
100
AcDbLine
 10
117.0
 20
58.5070941979
 30
0.0
 11
117.0
 21
52.0
 31
0.0
  0
LINE
  5
9D
330
1F
100
AcDbEntity
  8
ÍĽżň
100
AcDbLine
 10
117.0
 20
52.0
 30
0.0
 11
107.0
 21
52.0
 31
0.0
  0
LINE
  5
9E
330
1F
100
AcDbEntity
  8
ÍĽżň
100
AcDbLine
 10
117.0
 20
52.0
 30
0.0
 11
117.0
 21
44.5070941979
 31
0.0
  0
LINE
  5
9F
330
1F
100
AcDbEntity
  8
ÍĽżň
100
AcDbLine
 10
117.0
 20
44.5070941979
 30
0.0
 11
107.0
 21
44.5070941979
 31
0.0
  0
LINE
  5
A0
330
1F
100
AcDbEntity
  8
ÍĽżň
100
AcDbLine
 10
117.0
 20
44.5070941979
 30
0.0
 11
117.0
 21
38.0
 31
0.0
  0
LINE
  5
A1
330
1F
100
AcDbEntity
  8
ÍĽżň
100
AcDbLine
 10
117.0
 20
38.0
 30
0.0
 11
107.0
 21
38.0
 31
0.0
  0
LINE
  5
A2
330
1F
100
AcDbEntity
  8
ÍĽżň
100
AcDbLine
 10
117.0
 20
58.5070941979
 30
0.0
 11
127.0
 21
58.5070941979
 31
0.0
  0
LINE
  5
A3
330
1F
100
AcDbEntity
  8
ÍĽżň
100
AcDbLine
 10
117.0
 20
52.0
 30
0.0
 11
127.0
 21
52.0
 31
0.0
  0
LINE
  5
A4
330
1F
100
AcDbEntity
  8
ÍĽżň
100
AcDbLine
 10
117.0
 20
44.5070941979
 30
0.0
 11
127.0
 21
44.5070941979
 31
0.0
  0
LINE
  5
A5
330
1F
100
AcDbEntity
  8
ÍĽżň
100
AcDbLine
 10
117.0
 20
38.0
 30
0.0
 11
127.0
 21
38.0
 31
0.0
  0
LINE
  5
A6
330
1F
100
AcDbEntity
  8
ÍĽżň
100
AcDbLine
 10
127.0
 20
66.0
 30
0.0
 11
127.0
 21
38.0
 31
0.0
  0
LINE
  5
A7
330
1F
100
AcDbEntity
  8
ÍĽżň
100
AcDbLine
 10
127.0
 20
58.5070941979
 30
0.0
 11
143.0
 21
58.5070941979
 31
0.0
  0
LINE
  5
A8
330
1F
100
AcDbEntity
  8
ÍĽżň
100
AcDbLine
 10
127.0
 20
52.0
 30
0.0
 11
143.0
 21
52.0
 31
0.0
  0
LINE
  5
A9
330
1F
100
AcDbEntity
  8
ÍĽżň
100
AcDbLine
 10
127.0
 20
44.5070941979
 30
0.0
 11
143.0
 21
44.5070941979
 31
0.0
  0
LINE
  5
AA
330
1F
100
AcDbEntity
  8
ÍĽżň
100
AcDbLine
 10
127.0
 20
38.0
 30
0.0
 11
143.0
 21
38.0
 31
0.0
  0
LINE
  5
AB
330
1F
100
AcDbEntity
  8
ÍĽżň
100
AcDbLine
 10
143.0
 20
66.0
 30
0.0
 11
143.0
 21
38.0
 31
0.0
  0
LINE
  5
AC
330
1F
100
AcDbEntity
  8
ÍĽżň
100
AcDbLine
 10
143.0
 20
58.5070941979
 30
0.0
 11
159.0
 21
58.5070941979
 31
0.0
  0
LINE
  5
AD
330
1F
100
AcDbEntity
  8
ÍĽżň
100
AcDbLine
 10
143.0
 20
52.0
 30
0.0
 11
159.0
 21
52.0
 31
0.0
  0
LINE
  5
AE
330
1F
100
AcDbEntity
  8
ÍĽżň
100
AcDbLine
 10
143.0
 20
44.5070941979
 30
0.0
 11
159.0
 21
44.5070941979
 31
0.0
  0
LINE
  5
AF
330
1F
100
AcDbEntity
  8
ÍĽżň
100
AcDbLine
 10
143.0
 20
38.0
 30
0.0
 11
159.0
 21
38.0
 31
0.0
  0
LINE
  5
B0
330
1F
100
AcDbEntity
  8
ÍĽżň
100
AcDbLine
 10
159.0
 20
38.0
 30
0.0
 11
159.0
 21
66.0
 31
0.0
  0
LINE
  5
B1
330
1F
100
AcDbEntity
  8
ÍĽżň
100
AcDbLine
 10
159.0
 20
58.5070941979
 30
0.0
 11
187.0
 21
58.5070941979
 31
0.0
  0
LINE
  5
B2
330
1F
100
AcDbEntity
  8
ÍĽżň
100
AcDbLine
 10
159.0
 20
52.0
 30
0.0
 11
187.0
 21
52.0
 31
0.0
  0
LINE
  5
B3
330
1F
100
AcDbEntity
  8
ÍĽżň
100
AcDbLine
 10
159.0
 20
44.5070941979
 30
0.0
 11
187.0
 21
44.5070941979
 31
0.0
  0
LINE
  5
B4
330
1F
100
AcDbEntity
  8
ÍĽżň
100
AcDbLine
 10
159.0
 20
38.0
 30
0.0
 11
187.0
 21
38.0
 31
0.0
  0
LINE
  5
B5
330
1F
100
AcDbEntity
  8
ÍĽżň
100
AcDbLine
 10
187.0
 20
38.0
 30
0.0
 11
187.0
 21
66.0
 31
0.0
  0
LINE
  5
B6
330
1F
100
AcDbEntity
  8
ÍĽżň
100
AcDbLine
 10
187.0
 20
66.0
 30
0.0
 11
187.0
 21
38.0
 31
0.0
  0
LINE
  5
B7
330
1F
100
AcDbEntity
  8
ÍĽżň
100
AcDbLine
 10
187.0
 20
52.0
 30
0.0
 11
202.0
 21
52.0
 31
0.0
  0
LINE
  5
B8
330
1F
100
AcDbEntity
  8
ÍĽżň
100
AcDbLine
 10
202.0
 20
52.0
 30
0.0
 11
202.0
 21
66.0
 31
0.0
  0
LINE
  5
B9
330
1F
100
AcDbEntity
  8
ÍĽżň
100
AcDbLine
 10
202.0
 20
52.0
 30
0.0
 11
237.0
 21
52.0
 31
0.0
  0
LINE
  5
BA
330
1F
100
AcDbEntity
  8
ÍĽżň
100
AcDbLine
 10
237.0
 20
52.0
 30
0.0
 11
237.0
 21
66.0
 31
0.0
  0
LINE
  5
BB
330
1F
100
AcDbEntity
  8
ÍĽżň
100
AcDbLine
 10
237.0
 20
66.0
 30
0.0
 11
237.0
 21
48.0
 31
0.0
  0
LINE
  5
BC
330
1F
100
AcDbEntity
  8
ÍĽżň
100
AcDbLine
 10
237.0
 20
48.0
 30
0.0
 11
287.0
 21
48.0
 31
0.0
  0
LINE
  5
BD
330
1F
100
AcDbEntity
  8
ÍĽżň
100
AcDbLine
 10
237.0
 20
48.0
 30
0.0
 11
237.0
 21
30.0
 31
0.0
  0
LINE
  5
BE
330
1F
100
AcDbEntity
  8
ÍĽżň
100
AcDbLine
 10
237.0
 20
30.0
 30
0.0
 11
287.0
 21
30.0
 31
0.0
  0
LINE
  5
BF
330
1F
100
AcDbEntity
  8
ÍĽżň
100
AcDbLine
 10
237.0
 20
30.0
 30
0.0
 11
237.0
 21
10.0
 31
0.0
  0
LINE
  5
C0
330
1F
100
AcDbEntity
  8
ÍĽżň
100
AcDbLine
 10
187.0
 20
38.0
 30
0.0
 11
237.0
 21
38.0
 31
0.0
  0
LINE
  5
C1
330
1F
100
AcDbEntity
  8
ÍĽżň
100
AcDbLine
 10
202.0
 20
52.0
 30
0.0
 11
202.0
 21
38.0
 31
0.0
  0
LINE
  5
C2
330
1F
100
AcDbEntity
  8
ÍĽżň
100
AcDbLine
 10
119.0
 20
30.5070941979
 30
0.0
 11
119.0
 21
23.5070941979
 31
0.0
  0
LINE
  5
C3
330
1F
100
AcDbEntity
  8
ÍĽżň
100
AcDbLine
 10
107.0
 20
30.5070941979
 30
0.0
 11
119.0
 21
30.5070941979
 31
0.0
  0
LINE
  5
C4
330
1F
100
AcDbEntity
  8
ÍĽżň
100
AcDbLine
 10
119.0
 20
30.5070941979
 30
0.0
 11
119.0
 21
38.0
 31
0.0
  0
LINE
  5
C5
330
1F
100
AcDbEntity
  8
ÍĽżň
100
AcDbLine
 10
119.0
 20
23.5070941979
 30
0.0
 11
107.0
 21
23.5070941979
 31
0.0
  0
LINE
  5
C6
330
1F
100
AcDbEntity
  8
ÍĽżň
100
AcDbLine
 10
119.0
 20
23.5070941979
 30
0.0
 11
119.0
 21
16.5070941979
 31
0.0
  0
LINE
  5
C7
330
1F
100
AcDbEntity
  8
ÍĽżň
100
AcDbLine
 10
119.0
 20
16.5070941979
 30
0.0
 11
107.0
 21
16.5070941979
 31
0.0
  0
LINE
  5
C8
330
1F
100
AcDbEntity
  8
ÍĽżň
100
AcDbLine
 10
119.0
 20
16.5070941979
 30
0.0
 11
119.0
 21
10.0
 31
0.0
  0
LINE
  5
C9
330
1F
100
AcDbEntity
  8
ÍĽżň
100
AcDbLine
 10
119.0
 20
30.5070941979
 30
0.0
 11
131.0
 21
30.5070941979
 31
0.0
  0
LINE
  5
CA
330
1F
100
AcDbEntity
  8
ÍĽżň
100
AcDbLine
 10
131.0
 20
23.5070941979
 30
0.0
 11
119.0
 21
23.5070941979
 31
0.0
  0
LINE
  5
CB
330
1F
100
AcDbEntity
  8
ÍĽżň
100
AcDbLine
 10
131.0
 20
16.5070941979
 30
0.0
 11
119.0
 21
16.5070941979
 31
0.0
  0
LINE
  5
CC
330
1F
100
AcDbEntity
  8
ÍĽżň
100
AcDbLine
 10
131.0
 20
16.5070941979
 30
0.0
 11
131.0
 21
10.0
 31
0.0
  0
LINE
  5
CD
330
1F
100
AcDbEntity
  8
ÍĽżň
100
AcDbLine
 10
131.0
 20
30.5070941979
 30
0.0
 11
131.0
 21
38.0
 31
0.0
  0
LINE
  5
CE
330
1F
100
AcDbEntity
  8
ÍĽżň
100
AcDbLine
 10
131.0
 20
30.5070941979
 30
0.0
 11
131.0
 21
23.5070941979
 31
0.0
  0
LINE
  5
CF
330
1F
100
AcDbEntity
  8
ÍĽżň
100
AcDbLine
 10
131.0
 20
23.5070941979
 30
0.0
 11
131.0
 21
16.5070941979
 31
0.0
  0
LINE
  5
D0
330
1F
100
AcDbEntity
  8
ÍĽżň
100
AcDbLine
 10
131.0
 20
30.5070941979
 30
0.0
 11
147.0
 21
30.5070941979
 31
0.0
  0
LINE
  5
D1
330
1F
100
AcDbEntity
  8
ÍĽżň
100
AcDbLine
 10
147.0
 20
30.5070941979
 30
0.0
 11
147.0
 21
23.5070941979
 31
0.0
  0
LINE
  5
D2
330
1F
100
AcDbEntity
  8
ÍĽżň
100
AcDbLine
 10
147.0
 20
23.5070941979
 30
0.0
 11
131.0
 21
23.5070941979
 31
0.0
  0
LINE
  5
D3
330
1F
100
AcDbEntity
  8
ÍĽżň
100
AcDbLine
 10
147.0
 20
23.5070941979
 30
0.0
 11
147.0
 21
16.5070941979
 31
0.0
  0
LINE
  5
D4
330
1F
100
AcDbEntity
  8
ÍĽżň
100
AcDbLine
 10
147.0
 20
16.5070941979
 30
0.0
 11
131.0
 21
16.5070941979
 31
0.0
  0
LINE
  5
D5
330
1F
100
AcDbEntity
  8
ÍĽżň
100
AcDbLine
 10
147.0
 20
16.5070941979
 30
0.0
 11
147.0
 21
10.0
 31
0.0
  0
LINE
  5
D6
330
1F
100
AcDbEntity
  8
ÍĽżň
100
AcDbLine
 10
147.0
 20
30.5070941979
 30
0.0
 11
147.0
 21
38.0
 31
0.0
  0
LINE
  5
D7
330
1F
100
AcDbEntity
  8
ÍĽżň
100
AcDbLine
 10
147.0
 20
30.5070941979
 30
0.0
 11
159.0
 21
30.5070941979
 31
0.0
  0
LINE
  5
D8
330
1F
100
AcDbEntity
  8
ÍĽżň
100
AcDbLine
 10
159.0
 20
30.5070941979
 30
0.0
 11
159.0
 21
38.0
 31
0.0
  0
LINE
  5
D9
330
1F
100
AcDbEntity
  8
ÍĽżň
100
AcDbLine
 10
147.0
 20
23.5070941979
 30
0.0
 11
159.0
 21
23.5070941979
 31
0.0
  0
LINE
  5
DA
330
1F
100
AcDbEntity
  8
ÍĽżň
100
AcDbLine
 10
159.0
 20
23.5070941979
 30
0.0
 11
159.0
 21
30.5070941979
 31
0.0
  0
LINE
  5
DB
330
1F
100
AcDbEntity
  8
ÍĽżň
100
AcDbLine
 10
147.0
 20
16.5070941979
 30
0.0
 11
159.0
 21
16.5070941979
 31
0.0
  0
LINE
  5
DC
330
1F
100
AcDbEntity
  8
ÍĽżň
100
AcDbLine
 10
159.0
 20
16.5070941979
 30
0.0
 11
159.0
 21
23.5070941979
 31
0.0
  0
LINE
  5
DD
330
1F
100
AcDbEntity
  8
ÍĽżň
100
AcDbLine
 10
159.0
 20
16.5070941979
 30
0.0
 11
159.0
 21
10.0
 31
0.0
  0
LINE
  5
DE
330
1F
100
AcDbEntity
  8
ÍĽżň
100
AcDbLine
 10
187.0
 20
38.0
 30
0.0
 11
187.0
 21
30.5070941979
 31
0.0
  0
LINE
  5
DF
330
1F
100
AcDbEntity
  8
ÍĽżň
100
AcDbLine
 10
187.0
 20
30.5070941979
 30
0.0
 11
187.0
 21
23.5070941979
 31
0.0
  0
LINE
  5
E0
330
1F
100
AcDbEntity
  8
ÍĽżň
100
AcDbLine
 10
187.0
 20
23.5070941979
 30
0.0
 11
187.0
 21
16.5070941979
 31
0.0
  0
LINE
  5
E1
330
1F
100
AcDbEntity
  8
ÍĽżň
100
AcDbLine
 10
187.0
 20
16.5070941979
 30
0.0
 11
187.0
 21
10.0
 31
0.0
  0
LINE
  5
E2
330
1F
100
AcDbEntity
  8
ÍĽżň
100
AcDbLine
 10
159.0
 20
16.5070941979
 30
0.0
 11
187.0
 21
16.5070941979
 31
0.0
  0
LINE
  5
E3
330
1F
100
AcDbEntity
  8
ÍĽżň
100
AcDbLine
 10
237.0
 20
30.0
 30
0.0
 11
225.0
 21
30.0
 31
0.0
  0
LINE
  5
E4
330
1F
100
AcDbEntity
  8
ÍĽżň
100
AcDbLine
 10
159.0
 20
23.5070941979
 30
0.0
 11
187.0
 21
23.5070941979
 31
0.0
  0
LINE
  5
E5
330
1F
100
AcDbEntity
  8
ÍĽżň
100
AcDbLine
 10
159.0
 20
30.5070941979
 30
0.0
 11
187.0
 21
30.5070941979
 31
0.0
  0
LINE
  5
E6
330
1F
100
AcDbEntity
  8
ÍĽżň
100
AcDbLine
 10
225.0
 20
30.0
 30
0.0
 11
225.0
 21
38.0
 31
0.0
  0
LINE
  5
E7
330
1F
100
AcDbEntity
  8
ÍĽżň
100
AcDbLine
 10
225.0
 20
30.0
 30
0.0
 11
213.0
 21
30.0
 31
0.0
  0
LINE
  5
E8
330
1F
100
AcDbEntity
  8
ÍĽżň
100
AcDbLine
 10
213.0
 20
30.0
 30
0.0
 11
213.0
 21
38.0
 31
0.0
  0
LINE
  5
E9
330
1F
100
AcDbEntity
  8
ÍĽżň
100
AcDbLine
 10
213.0
 20
30.0
 30
0.0
 11
213.0
 21
20.0
 31
0.0
  0
LINE
  5
EA
330
1F
100
AcDbEntity
  8
ÍĽżň
100
AcDbLine
 10
213.0
 20
20.0
 30
0.0
 11
237.0
 21
20.0
 31
0.0
  0
LINE
  5
EB
330
1F
100
AcDbEntity
  8
ÍĽżň
100
AcDbLine
 10
225.0
 20
30.0
 30
0.0
 11
225.0
 21
20.0
 31
0.0
  0
LINE
  5
EC
330
1F
100
AcDbEntity
  8
ÍĽżň
100
AcDbLine
 10
213.0
 20
20.0
 30
0.0
 11
213.0
 21
10.0
 31
0.0
  0
LINE
  5
ED
330
1F
100
AcDbEntity
  8
ÍĽżň
100
AcDbLine
 10
213.0
 20
20.0
 30
0.0
 11
187.0
 21
20.0
 31
0.0
  0
LINE
  5
EE
330
1F
100
AcDbEntity
  8
ÍĽżň
100
AcDbLine
 10
213.0
 20
30.0
 30
0.0
 11
187.0
 21
30.0
 31
0.0
  0
LINE
  5
EF
330
1F
100
AcDbEntity
  8
ÍĽżň
100
AcDbLine
 10
237.0
 20
66.0
 30
0.0
 11
287.0
 21
66.0
 31
0.0
  0
LINE
  5
F0
330
1F
100
AcDbEntity
  8
ÍĽżň
100
AcDbLine
 10
237.0
 20
66.0
 30
0.0
 11
237.0
 21
10.0
 31
0.0
  0
LINE
  5
F1
330
1F
100
AcDbEntity
  8
ÍĽżň
100
AcDbLine
 10
195.0
 20
38.0
 30
0.0
 11
195.0
 21
20.0
 31
0.0
  0
LINE
  5
F2
330
1F
100
AcDbEntity
  8
ÍĽżň
100
AcDbLine
 10
171.0
 20
66.0
 30
0.0
 11
171.0
 21
10.0
 31
0.0
  0
LINE
  5
F3
330
1F
100
AcDbEntity
  8
ÍĽżň
100
AcDbLine
 10
253.7752019014
 20
58.1017049859
 30
0.0
 11
254.5092585297
 21
58.7525142405
 31
0.0
  0
LINE
  5
F4
330
1F
100
AcDbEntity
  8
ÍĽżň
100
AcDbLine
 10
253.4866539261
 20
56.0463412505
 30
0.0
 11
253.3555541476
 21
56.0556488034
 31
0.0
  0
LINE
  5
F5
330
1F
100
AcDbEntity
  8
ÍĽżň
100
AcDbLine
 10
248.7068165401
 20
59.2723128253
 30
0.0
 11
248.623084385
 21
59.3767201005
 31
0.0
  0
LINE
  5
F6
330
1F
100
AcDbEntity
  8
ÍĽżň
100
AcDbLine
 10
247.5742654674
 20
59.376737831
 30
0.0
 11
246.6952149478
 21
54.8535834179
 31
0.0
  0
LINE
  5
F7
330
1F
100
AcDbEntity
  8
ÍĽżň
100
AcDbLine
 10
246.6952149478
 20
54.8535834179
 30
0.0
 11
246.7794545705
 21
54.7480815205
 31
0.0
  0
LINE
  5
F8
330
1F
100
AcDbEntity
  8
ÍĽżň
100
AcDbLine
 10
249.8247676838
 20
54.7487078483
 30
0.0
 11
249.9828169708
 21
55.559309663
 31
0.0
  0
LINE
  5
F9
330
1F
100
AcDbEntity
  8
ÍĽżň
100
AcDbLine
 10
249.9828169708
 20
55.559309663
 30
0.0
 11
249.9002848274
 21
55.6619307942
 31
0.0
  0
LINE
  5
FA
330
1F
100
AcDbEntity
  8
ÍĽżň
100
AcDbLine
 10
248.0086837287
 20
55.661940926
 30
0.0
 11
248.7068165401
 21
59.2723128253
 31
0.0
  0
LINE
  5
FB
330
1F
100
AcDbEntity
  8
ÍĽżň
100
AcDbLine
 10
244.8436375806
 20
55.0127489132
 30
0.0
 11
244.7399051118
 21
55.4087324502
 31
0.0
  0
LINE
  5
FC
330
1F
100
AcDbEntity
  8
ÍĽżň
100
AcDbLine
 10
245.0159466757
 20
56.8753006177
 30
0.0
 11
245.5253878775
 21
58.068111927
 31
0.0
  0
LINE
  5
FD
330
1F
100
AcDbEntity
  8
ÍĽżň
100
AcDbLine
 10
245.5253878775
 20
58.068111927
 30
0.0
 11
245.0269180747
 21
58.068111927
 31
0.0
  0
LINE
  5
FE
330
1F
100
AcDbEntity
  8
ÍĽżň
100
AcDbLine
 10
245.0269180747
 20
58.068111927
 30
0.0
 11
244.8924699946
 21
57.8383242514
 31
0.0
  0
LINE
  5
FF
330
1F
100
AcDbEntity
  8
ÍĽżň
100
AcDbLine
 10
244.8924699946
 20
57.8383242514
 30
0.0
 11
244.8813757484
 21
57.8383242514
 31
0.0
  0
LINE
  5
100
330
1F
100
AcDbEntity
  8
ÍĽżň
100
AcDbLine
 10
244.4072575628
 20
56.3228856758
 30
0.0
 11
244.4238837346
 21
56.3228856758
 31
0.0
  0
LINE
  5
101
330
1F
100
AcDbEntity
  8
ÍĽżň
100
AcDbLine
 10
244.6677988436
 20
57.4619177531
 30
0.0
 11
244.3510682451
 21
56.6797581954
 31
0.0
  0
LINE
  5
102
330
1F
100
AcDbEntity
  8
ÍĽżň
100
AcDbLine
 10
285.9079559424
 20
52.9054634903
 30
0.0
 11
285.9079559424
 21
60.9530850769
 31
0.0
  0
LINE
  5
103
330
1F
100
AcDbEntity
  8
ÍĽżň
100
AcDbLine
 10
285.9079559424
 20
60.9530850769
 30
0.0
 11
287.0351273928
 21
60.9530850769
 31
0.0
  0
LINE
  5
104
330
1F
100
AcDbEntity
  8
ÍĽżň
100
AcDbLine
 10
287.0351273928
 20
60.9530850769
 30
0.0
 11
287.0351273928
 21
52.6589966788
 31
0.0
  0
LINE
  5
105
330
1F
100
AcDbEntity
  8
ÍĽżň
100
AcDbLine
 10
284.5660854825
 20
51.1051963264
 30
0.0
 11
284.3191828323
 21
52.4018165988
 31
0.0
  0
LINE
  5
106
330
1F
100
AcDbEntity
  8
ÍĽżň
100
AcDbLine
 10
285.0491599047
 20
60.1172454144
 30
0.0
 11
285.0491599047
 21
53.8377445822
 31
0.0
  0
LINE
  5
107
330
1F
100
AcDbEntity
  8
ÍĽżň
100
AcDbLine
 10
285.0491599047
 20
53.8377445822
 30
0.0
 11
283.9219906554
 21
53.8377445822
 31
0.0
  0
LINE
  5
108
330
1F
100
AcDbEntity
  8
ÍĽżň
100
AcDbLine
 10
283.9219906554
 20
53.8377445822
 30
0.0
 11
283.9219906554
 21
60.1172454144
 31
0.0
  0
LINE
  5
109
330
1F
100
AcDbEntity
  8
ÍĽżň
100
AcDbLine
 10
283.9219906554
 20
60.1172454144
 30
0.0
 11
285.0491599047
 21
60.1172454144
 31
0.0
  0
LINE
  5
10A
330
1F
100
AcDbEntity
  8
ÍĽżň
100
AcDbLine
 10
279.3918342923
 20
57.7597562112
 30
0.0
 11
282.7518780823
 21
57.7597562112
 31
0.0
  0
LINE
  5
10B
330
1F
100
AcDbEntity
  8
ÍĽżň
100
AcDbLine
 10
280.572682146
 20
61.2959933178
 30
0.0
 11
281.6891183158
 21
60.7602000169
 31
0.0
  0
LINE
  5
10C
330
1F
100
AcDbEntity
  8
ÍĽżň
100
AcDbLine
 10
281.6891183158
 20
60.7602000169
 30
0.0
 11
281.4958876665
 21
60.417291776
 31
0.0
  0
LINE
  5
10D
330
1F
100
AcDbEntity
  8
ÍĽżň
100
AcDbLine
 10
283.8575789715
 20
58.2741163713
 30
0.0
 11
283.1168666185
 21
57.3525507492
 31
0.0
  0
LINE
  5
10E
330
1F
100
AcDbEntity
  8
ÍĽżň
100
AcDbLine
 10
280.5834152255
 20
53.8270291124
 30
0.0
 11
280.3794514967
 21
54.9521952644
 31
0.0
  0
LINE
  5
10F
330
1F
100
AcDbEntity
  8
ÍĽżň
100
AcDbLine
 10
281.732055036
 20
56.6560187977
 30
0.0
 11
279.8104992317
 21
56.6560187977
 31
0.0
  0
LINE
  5
110
330
1F
100
AcDbEntity
  8
ÍĽżň
100
AcDbLine
 10
279.8104992317
 20
56.6560187977
 30
0.0
 11
279.8104992317
 21
53.2055076507
 31
0.0
  0
LINE
  5
111
330
1F
100
AcDbEntity
  8
ÍĽżň
100
AcDbLine
 10
282.4512990289
 20
53.1304971609
 30
0.0
 11
282.4942401515
 21
53.8055959716
 31
0.0
  0
LINE
  5
112
330
1F
100
AcDbEntity
  8
ÍĽżň
100
AcDbLine
 10
282.4942401515
 20
53.8055959716
 30
0.0
 11
283.5999388394
 21
53.5591313614
 31
0.0
  0
LINE
  5
113
330
1F
100
AcDbEntity
  8
ÍĽżň
100
AcDbLine
 10
278.6833299825
 20
52.8625994099
 30
0.0
 11
278.6833299825
 21
57.1489502193
 31
0.0
  0
LINE
  5
114
330
1F
100
AcDbEntity
  8
ÍĽżň
100
AcDbLine
 10
278.6833299825
 20
57.1489502193
 30
0.0
 11
278.296870885
 21
56.8596215287
 31
0.0
  0
LINE
  5
115
330
1F
100
AcDbEntity
  8
ÍĽżň
100
AcDbLine
 10
278.296870885
 20
56.8596215287
 30
0.0
 11
277.5668938127
 21
57.7811871508
 31
0.0
  0
LINE
  5
116
330
1F
100
AcDbEntity
  8
ÍĽżň
100
AcDbLine
 10
270.6639960915
 20
53.709152341
 30
0.0
 11
269.4294784381
 21
53.2912314091
 31
0.0
  0
LINE
  5
117
330
1F
100
AcDbEntity
  8
ÍĽżň
100
AcDbLine
 10
267.9695220923
 20
57.5025717288
 30
0.0
 11
269.0537546213
 21
58.0276495599
 31
0.0
  0
LINE
  5
118
330
1F
100
AcDbEntity
  8
ÍĽżň
100
AcDbLine
 10
272.0702738329
 20
59.5385858319
 30
0.0
 11
275.687957755
 21
59.5385858319
 31
0.0
  0
LINE
  5
119
330
1F
100
AcDbEntity
  8
ÍĽżň
100
AcDbLine
 10
275.687957755
 20
59.5385858319
 30
0.0
 11
275.687957755
 21
58.3384091901
 31
0.0
  0
LINE
  5
11A
330
1F
100
AcDbEntity
  8
ÍĽżň
100
AcDbLine
 10
275.687957755
 20
58.3384091901
 30
0.0
 11
266.8852906638
 21
58.3384091901
 31
0.0
  0
LINE
  5
11B
330
1F
100
AcDbEntity
  8
ÍĽżň
100
AcDbLine
 10
266.8852906638
 20
58.3384091901
 30
0.0
 11
266.8852906638
 21
59.5385858319
 31
0.0
  0
LINE
  5
11C
330
1F
100
AcDbEntity
  8
ÍĽżň
100
AcDbLine
 10
266.8852906638
 20
59.5385858319
 30
0.0
 11
270.7820819775
 21
59.5385858319
 31
0.0
  0
LINE
  5
11D
330
1F
100
AcDbEntity
  8
ÍĽżň
100
AcDbLine
 10
270.4492992833
 20
60.8244906345
 30
0.0
 11
271.7374911387
 21
61.0388088353
 31
0.0
  0
LINE
  5
11E
330
1F
100
AcDbEntity
  8
ÍĽżň
100
AcDbLine
 10
273.3906781339
 20
58.1348086603
 30
0.0
 11
274.7003427518
 21
57.7061722586
 31
0.0
  0
LINE
  5
11F
330
1F
100
AcDbEntity
  8
ÍĽżň
100
AcDbLine
 10
272.8109905883
 20
52.7340071686
 30
0.0
 11
275.9992742903
 21
52.7340071686
 31
0.0
  0
LINE
  5
120
330
1F
100
AcDbEntity
  8
ÍĽżň
100
AcDbLine
 10
275.9992742903
 20
52.7340071686
 30
0.0
 11
275.9992742903
 21
51.4802509767
 31
0.0
  0
LINE
  5
121
330
1F
100
AcDbEntity
  8
ÍĽżň
100
AcDbLine
 10
275.9992742903
 20
51.4802509767
 30
0.0
 11
266.5632443509
 21
51.4802509767
 31
0.0
  0
LINE
  5
122
330
1F
100
AcDbEntity
  8
ÍĽżň
100
AcDbLine
 10
266.5632443509
 20
51.4802509767
 30
0.0
 11
266.5632443509
 21
52.7340071686
 31
0.0
  0
LINE
  5
123
330
1F
100
AcDbEntity
  8
ÍĽżň
100
AcDbLine
 10
266.5632443509
 20
52.7340071686
 30
0.0
 11
271.4583848477
 21
52.7340071686
 31
0.0
  0
LINE
  5
124
330
1F
100
AcDbEntity
  8
ÍĽżň
100
AcDbLine
 10
261.4537416291
 20
52.2732221564
 30
0.0
 11
263.0317794585
 21
52.2732221564
 31
0.0
  0
LINE
  5
125
330
1F
100
AcDbEntity
  8
ÍĽżň
100
AcDbLine
 10
263.0317794585
 20
52.2732221564
 30
0.0
 11
263.0317794585
 21
53.3019446777
 31
0.0
  0
LINE
  5
126
330
1F
100
AcDbEntity
  8
ÍĽżň
100
AcDbLine
 10
263.0317794585
 20
53.3019446777
 30
0.0
 11
261.4537416291
 21
53.3019446777
 31
0.0
  0
LINE
  5
127
330
1F
100
AcDbEntity
  8
ÍĽżň
100
AcDbLine
 10
261.4537416291
 20
53.3019446777
 30
0.0
 11
261.4537416291
 21
52.2732221564
 31
0.0
  0
LINE
  5
128
330
1F
100
AcDbEntity
  8
ÍĽżň
100
AcDbLine
 10
264.1052756063
 20
54.2020793603
 30
0.0
 11
264.1052756063
 21
51.3945206146
 31
0.0
  0
LINE
  5
129
330
1F
100
AcDbEntity
  8
ÍĽżň
100
AcDbLine
 10
264.1052756063
 20
51.3945206146
 30
0.0
 11
260.3802454813
 21
51.3945206146
 31
0.0
  0
LINE
  5
12A
330
1F
100
AcDbEntity
  8
ÍĽżň
100
AcDbLine
 10
260.3802454813
 20
51.3945206146
 30
0.0
 11
260.3802454813
 21
54.2020793603
 31
0.0
  0
LINE
  5
12B
330
1F
100
AcDbEntity
  8
ÍĽżň
100
AcDbLine
 10
260.3802454813
 20
54.2020793603
 30
0.0
 11
264.1052756063
 21
54.2020793603
 31
0.0
  0
LINE
  5
12C
330
1F
100
AcDbEntity
  8
ÍĽżň
100
AcDbLine
 10
259.0383750214
 20
55.5415659143
 30
0.0
 11
260.7344998374
 21
55.5415659143
 31
0.0
  0
LINE
  5
12D
330
1F
100
AcDbEntity
  8
ÍĽżň
100
AcDbLine
 10
260.9814024876
 20
55.8630410143
 30
0.0
 11
261.2068367777
 21
56.1630851748
 31
0.0
  0
LINE
  5
12E
330
1F
100
AcDbEntity
  8
ÍĽżň
100
AcDbLine
 10
261.2068367777
 20
56.1630851748
 30
0.0
 11
258.5445664192
 21
56.1630851748
 31
0.0
  0
LINE
  5
12F
330
1F
100
AcDbEntity
  8
ÍĽżň
100
AcDbLine
 10
258.5445664192
 20
56.1630851748
 30
0.0
 11
258.7700007093
 21
55.8951874237
 31
0.0
  0
LINE
  5
130
330
1F
100
AcDbEntity
  8
ÍĽżň
100
AcDbLine
 10
258.7700007093
 20
55.8951874237
 30
0.0
 11
259.0383750214
 21
55.5415659143
 31
0.0
  0
LINE
  5
131
330
1F
100
AcDbEntity
  8
ÍĽżň
100
AcDbLine
 10
257.4388666307
 20
56.8596171263
 30
0.0
 11
262.3232729475
 21
56.8596171263
 31
0.0
  0
LINE
  5
132
330
1F
100
AcDbEntity
  8
ÍĽżň
100
AcDbLine
 10
262.3232729475
 20
56.8596171263
 30
0.0
 11
262.3232729475
 21
57.2668203871
 31
0.0
  0
LINE
  5
133
330
1F
100
AcDbEntity
  8
ÍĽżň
100
AcDbLine
 10
262.3232729475
 20
57.2668203871
 30
0.0
 11
257.4388666307
 21
57.2668203871
 31
0.0
  0
LINE
  5
134
330
1F
100
AcDbEntity
  8
ÍĽżň
100
AcDbLine
 10
257.4388666307
 20
57.2668203871
 30
0.0
 11
257.4388666307
 21
56.8596171263
 31
0.0
  0
LINE
  5
135
330
1F
100
AcDbEntity
  8
ÍĽżň
100
AcDbLine
 10
259.2530740308
 20
59.1206671012
 30
0.0
 11
259.2530740308
 21
59.5385814295
 31
0.0
  0
LINE
  5
136
330
1F
100
AcDbEntity
  8
ÍĽżň
100
AcDbLine
 10
259.2530740308
 20
59.5385814295
 30
0.0
 11
255.2274648524
 21
59.5385814295
 31
0.0
  0
LINE
  5
137
330
1F
100
AcDbEntity
  8
ÍĽżň
100
AcDbLine
 10
255.2274648524
 20
59.5385814295
 30
0.0
 11
255.2274648524
 21
60.374421092
 31
0.0
  0
LINE
  5
138
330
1F
100
AcDbEntity
  8
ÍĽżň
100
AcDbLine
 10
255.2274648524
 20
60.374421092
 30
0.0
 11
259.2530740308
 21
60.374421092
 31
0.0
  0
LINE
  5
139
330
1F
100
AcDbEntity
  8
ÍĽżň
100
AcDbLine
 10
259.2530740308
 20
60.374421092
 30
0.0
 11
259.2530740308
 21
61.0495221039
 31
0.0
  0
LINE
  5
13A
330
1F
100
AcDbEntity
  8
ÍĽżň
100
AcDbLine
 10
259.2530740308
 20
61.0495221039
 30
0.0
 11
260.5090655473
 21
61.0495221039
 31
0.0
  0
LINE
  5
13B
330
1F
100
AcDbEntity
  8
ÍĽżň
100
AcDbLine
 10
260.5090655473
 20
61.0495221039
 30
0.0
 11
260.5090655473
 21
60.374421092
 31
0.0
  0
LINE
  5
13C
330
1F
100
AcDbEntity
  8
ÍĽżň
100
AcDbLine
 10
260.5090655473
 20
60.374421092
 30
0.0
 11
264.5454067046
 21
60.374421092
 31
0.0
  0
LINE
  5
13D
330
1F
100
AcDbEntity
  8
ÍĽżň
100
AcDbLine
 10
264.5454067046
 20
60.374421092
 30
0.0
 11
264.5454067046
 21
59.5385814295
 31
0.0
  0
LINE
  5
13E
330
1F
100
AcDbEntity
  8
ÍĽżň
100
AcDbLine
 10
264.5454067046
 20
59.5385814295
 30
0.0
 11
260.5090655473
 21
59.5385814295
 31
0.0
  0
LINE
  5
13F
330
1F
100
AcDbEntity
  8
ÍĽżň
100
AcDbLine
 10
260.5090655473
 20
59.5385814295
 30
0.0
 11
260.5090655473
 21
59.1206671012
 31
0.0
  0
LINE
  5
140
330
1F
100
AcDbEntity
  8
ÍĽżň
100
AcDbLine
 10
260.5090655473
 20
59.1206671012
 30
0.0
 11
264.0193922605
 21
59.1206671012
 31
0.0
  0
LINE
  5
141
330
1F
100
AcDbEntity
  8
ÍĽżň
100
AcDbLine
 10
264.0193922605
 20
59.1206671012
 30
0.0
 11
264.0193922605
 21
58.3705555995
 31
0.0
  0
LINE
  5
142
330
1F
100
AcDbEntity
  8
ÍĽżň
100
AcDbLine
 10
264.0193922605
 20
58.3705555995
 30
0.0
 11
255.7427434656
 21
58.3705555995
 31
0.0
  0
LINE
  5
143
330
1F
100
AcDbEntity
  8
ÍĽżň
100
AcDbLine
 10
255.7427434656
 20
58.3705555995
 30
0.0
 11
255.7427434656
 21
59.1206671012
 31
0.0
  0
LINE
  5
144
330
1F
100
AcDbEntity
  8
ÍĽżň
100
AcDbLine
 10
255.7427434656
 20
59.1206671012
 30
0.0
 11
259.2530740308
 21
59.1206671012
 31
0.0
  0
LINE
  5
145
330
1F
100
AcDbEntity
  8
ÍĽżň
100
AcDbLine
 10
263.5255869601
 20
57.9526368688
 30
0.0
 11
263.5255869601
 21
56.1630851748
 31
0.0
  0
LINE
  5
146
330
1F
100
AcDbEntity
  8
ÍĽżň
100
AcDbLine
 10
263.5255869601
 20
56.1630851748
 30
0.0
 11
261.883139648
 21
56.1630851748
 31
0.0
  0
LINE
  5
147
330
1F
100
AcDbEntity
  8
ÍĽżň
100
AcDbLine
 10
261.883139648
 20
56.1630851748
 30
0.0
 11
262.3554776888
 21
55.9166205645
 31
0.0
  0
LINE
  5
148
330
1F
100
AcDbEntity
  8
ÍĽżň
100
AcDbLine
 10
262.1193081181
 20
55.5415659143
 30
0.0
 11
264.7386373539
 21
55.5415659143
 31
0.0
  0
LINE
  5
149
330
1F
100
AcDbEntity
  8
ÍĽżň
100
AcDbLine
 10
264.7386373539
 20
55.5415659143
 30
0.0
 11
264.7386373539
 21
54.7164417215
 31
0.0
  0
LINE
  5
14A
330
1F
100
AcDbEntity
  8
ÍĽżň
100
AcDbLine
 10
264.7386373539
 20
54.7164417215
 30
0.0
 11
255.0235005733
 21
54.7164417215
 31
0.0
  0
LINE
  5
14B
330
1F
100
AcDbEntity
  8
ÍĽżň
100
AcDbLine
 10
255.0235005733
 20
54.7164417215
 30
0.0
 11
255.0235005733
 21
55.5415659143
 31
0.0
  0
LINE
  5
14C
330
1F
100
AcDbEntity
  8
ÍĽżň
100
AcDbLine
 10
255.0235005733
 20
55.5415659143
 30
0.0
 11
257.6750356511
 21
55.5415659143
 31
0.0
  0
LINE
  5
14D
330
1F
100
AcDbEntity
  8
ÍĽżň
100
AcDbLine
 10
257.6750356511
 20
55.5415659143
 30
0.0
 11
257.3744565977
 21
55.9059028935
 31
0.0
  0
LINE
  5
14E
330
1F
100
AcDbEntity
  8
ÍĽżň
100
AcDbLine
 10
257.3744565977
 20
55.9059028935
 30
0.0
 11
257.9219399522
 21
56.1630851748
 31
0.0
  0
LINE
  5
14F
330
1F
100
AcDbEntity
  8
ÍĽżň
100
AcDbLine
 10
257.9219399522
 20
56.1630851748
 30
0.0
 11
256.2365515175
 21
56.1630851748
 31
0.0
  0
LINE
  5
150
330
1F
100
AcDbEntity
  8
ÍĽżň
100
AcDbLine
 10
256.2365515175
 20
56.1630851748
 30
0.0
 11
256.2365515175
 21
57.9526368688
 31
0.0
  0
LINE
  5
151
330
1F
100
AcDbEntity
  8
ÍĽżň
100
AcDbLine
 10
256.2365515175
 20
57.9526368688
 30
0.0
 11
263.5255869601
 21
57.9526368688
 31
0.0
  0
LINE
  5
152
330
1F
100
AcDbEntity
  8
ÍĽżň
100
AcDbLine
 10
256.7088895583
 20
54.1699329509
 30
0.0
 11
256.7088895583
 21
54.6199980909
 31
0.0
  0
LINE
  5
153
330
1F
100
AcDbEntity
  8
ÍĽżň
100
AcDbLine
 10
256.7088895583
 20
54.6199980909
 30
0.0
 11
257.7931198862
 21
54.6199980909
 31
0.0
  0
LINE
  5
154
330
1F
100
AcDbEntity
  8
ÍĽżň
100
AcDbLine
 10
257.7716493249
 20
54.1699329509
 30
0.0
 11
259.9830522038
 21
54.1699329509
 31
0.0
  0
LINE
  5
155
330
1F
100
AcDbEntity
  8
ÍĽżň
100
AcDbLine
 10
257.6320950788
 20
51.1373383334
 30
0.0
 11
257.4388666307
 21
52.1446321163
 31
0.0
  0
LINE
  5
156
330
1F
100
AcDbEntity
  8
ÍĽżň
100
AcDbLine
 10
258.8451454727
 20
53.2269341879
 30
0.0
 11
257.6965045615
 21
53.2269341879
 31
0.0
  0
LINE
  5
157
330
1F
100
AcDbEntity
  8
ÍĽżň
100
AcDbLine
 10
255.6353928603
 20
50.8908737231
 30
0.0
 11
254.9054168885
 21
51.7481443253
 31
0.0
  0
LINE
  5
158
330
1F
100
AcDbEntity
  8
ÍĽżň
100
AcDbLine
 10
256.5908031221
 20
53.2269341879
 30
0.0
 11
255.3455501881
 21
53.2269341879
 31
0.0
  0
LINE
  5
159
330
1F
100
AcDbEntity
  8
ÍĽżň
100
AcDbLine
 10
255.3455501881
 20
53.2269341879
 30
0.0
 11
255.3455501881
 21
54.1699329509
 31
0.0
  0
LINE
  5
15A
330
1F
100
AcDbEntity
  8
ÍĽżň
100
AcDbLine
 10
255.3455501881
 20
54.1699329509
 30
0.0
 11
256.7088895583
 21
54.1699329509
 31
0.0
  0
LINE
  5
15B
330
1F
100
AcDbEntity
  8
ÍĽżň
100
AcDbLine
 10
241.9814594619
 20
59.1423490469
 30
0.0
 11
241.8564332591
 21
59.1423490469
 31
0.0
  0
LINE
  5
15C
330
1F
100
AcDbEntity
  8
ÍĽżň
100
AcDbLine
 10
241.5689130764
 20
58.9217204568
 30
0.0
 11
241.0221123804
 21
55.4662908181
 31
0.0
  0
LINE
  5
15D
330
1F
100
AcDbEntity
  8
ÍĽżň
100
AcDbLine
 10
237.4951736124
 20
55.4662908181
 30
0.0
 11
237.5514316359
 21
55.7972514338
 31
0.0
  0
LINE
  5
15E
330
1F
100
AcDbEntity
  8
ÍĽżň
100
AcDbLine
 10
237.5514316359
 20
55.7972514338
 30
0.0
 11
238.7616046173
 21
55.7964814222
 31
0.0
  0
LINE
  5
15F
330
1F
100
AcDbEntity
  8
ÍĽżň
100
AcDbLine
 10
239.858840135
 20
55.7964814222
 30
0.0
 11
240.4187126647
 21
59.3632309303
 31
0.0
  0
LINE
  5
160
330
1F
100
AcDbEntity
  8
ÍĽżň
100
AcDbLine
 10
253.9382675182
 20
59.6188418571
 30
0.0
 11
250.4142777174
 21
59.6188418571
 31
0.0
  0
LINE
  5
161
330
1F
100
AcDbEntity
  8
ÍĽżň
100
AcDbLine
 10
250.0949369315
 20
54.5842146551
 30
0.0
 11
253.5992775051
 21
54.5842146551
 31
0.0
  0
LINE
  5
162
330
1F
100
AcDbEntity
  8
´ÖĘµĎß˛ă
100
AcDbLine
 10
0.0
 20
104.0
 30
0.0
 11
15.0
 21
104.0
 31
0.0
  0
LINE
  5
163
330
1F
100
AcDbEntity
  8
´ÖĘµĎß˛ă
100
AcDbLine
 10
148.5
 20
210.0
 30
0.0
 11
148.5
 21
195.0
 31
0.0
  0
LINE
  5
164
330
1F
100
AcDbEntity
  8
´ÖĘµĎß˛ă
100
AcDbLine
 10
297.0
 20
104.0
 30
0.0
 11
282.0
 21
104.0
 31
0.0
  0
SPLINE
  5
165
330
1F
100
AcDbEntity
  8
ÍĽżň
100
AcDbSpline
210
0.0
220
0.0
230
1.0
 70
     8
 71
     3
 72
    14
 73
    10
 74
     0
 42
0.00000001
 43
0.00000001
 12
1.0
 22
0.0
 32
0.0
 13
1.0
 23
0.0
 33
0.0
 40
0.0
 40
0.0
 40
0.0
 40
0.0
 40
1.0
 40
2.0
 40
3.0
 40
4.0
 40
5.0
 40
6.0
 40
7.0
 40
7.0
 40
7.0
 40
7.0
 10
253.35555414759
 20
56.05564880344375
 30
0.0
 10
252.8063663075833
 20
55.57010713252091
 30
0.0
 10
251.798526194257
 20
55.4259611743207
 30
0.0
 10
251.4633805788207
 20
56.16762600848139
 30
0.0
 10
251.2441545727969
 20
56.65276504033065
 30
0.0
 10
251.4715000605254
 20
57.54590802783566
 30
0.0
 10
251.8977728500163
 20
58.01683796670185
 30
0.0
 10
252.2194296504413
 20
58.37219214621906
 30
0.0
 10
253.0791574380343
 20
58.83893548929155
 30
0.0
 10
253.7752019013535
 20
58.10170498586146
 30
0.0
  0
SPLINE
  5
166
330
1F
100
AcDbEntity
  8
ÍĽżň
100
AcDbSpline
210
0.0
220
0.0
230
1.0
 70
     8
 71
     3
 72
    16
 73
    12
 74
     0
 42
0.00000001
 43
0.00000001
 12
1.0
 22
0.0
 32
0.0
 13
1.0
 23
0.0
 33
0.0
 40
0.0
 40
0.0
 40
0.0
 40
0.0
 40
1.0
 40
2.0
 40
3.0
 40
4.0
 40
5.0
 40
6.0
 40
7.0
 40
8.0
 40
9.0
 40
9.0
 40
9.0
 40
9.0
 10
254.5092585296924
 20
58.75251424045935
 30
0.0
 10
253.7381887030568
 20
59.67591872833975
 30
0.0
 10
252.3037469352461
 20
59.51894208205115
 30
0.0
 10
251.3781260209226
 20
58.83690561886547
 30
0.0
 10
250.7201983200748
 20
58.35211678666192
 30
0.0
 10
250.2639502915531
 20
57.56809723322714
 30
0.0
 10
250.207159741334
 20
56.72589033441703
 30
0.0
 10
250.0602672802349
 20
54.54746727558749
 30
0.0
 10
252.6856423379172
 20
54.20261205352126
 30
0.0
 10
253.9407164037906
 20
55.45066645717804
 30
0.0
 10
253.7937834973422
 20
55.64082386411024
 30
0.0
 10
253.4866539260832
 20
56.04634125051921
 30
0.0
  0
SPLINE
  5
167
330
1F
100
AcDbEntity
  8
ÍĽżň
100
AcDbSpline
210
0.0
220
0.0
230
1.0
 70
     8
 71
     2
 72
     6
 73
     3
 74
     0
 42
0.00000001
 43
0.00000001
 12
1.0
 22
0.0
 32
0.0
 13
1.0
 23
0.0
 33
0.0
 40
0.0
 40
0.0
 40
0.0
 40
1.0
 40
1.0
 40
1.0
 10
248.6230843850337
 20
59.37672010047331
 30
0.0
 10
248.6112751319949
 20
59.3767204079707
 30
0.0
 10
247.5742654673644
 20
59.37673783100391
 30
0.0
  0
SPLINE
  5
168
330
1F
100
AcDbEntity
  8
ÍĽżň
100
AcDbSpline
210
0.0
220
0.0
230
1.0
 70
     8
 71
     2
 72
     6
 73
     3
 74
     0
 42
0.00000001
 43
0.00000001
 12
1.0
 22
0.0
 32
0.0
 13
1.0
 23
0.0
 33
0.0
 40
0.0
 40
0.0
 40
0.0
 40
1.0
 40
1.0
 40
1.0
 10
246.7794545704853
 20
54.74808152051846
 30
0.0
 10
246.7794127801649
 20
54.74876315770086
 30
0.0
 10
249.8247676837504
 20
54.74870784833085
 30
0.0
  0
SPLINE
  5
169
330
1F
100
AcDbEntity
  8
ÍĽżň
100
AcDbSpline
210
0.0
220
0.0
230
1.0
 70
     8
 71
     3
 72
     8
 73
     4
 74
     0
 42
0.00000001
 43
0.00000001
 12
1.0
 22
0.0
 32
0.0
 13
1.0
 23
0.0
 33
0.0
 40
0.0
 40
0.0
 40
0.0
 40
0.0
 40
1.0
 40
1.0
 40
1.0
 40
1.0
 10
249.900284827373
 20
55.66193079423185
 30
0.0
 10
249.3095111491277
 20
55.6619459918294
 30
0.0
 10
248.02909410222
 20
55.66194092596361
 30
0.0
 10
248.0086837286545
 20
55.66194092596361
 30
0.0
  0
SPLINE
  5
16A
330
1F
100
AcDbEntity
  8
ÍĽżň
100
AcDbSpline
210
0.0
220
0.0
230
1.0
 70
     8
 71
     3
 72
     8
 73
     4
 74
     0
 42
0.00000001
 43
0.00000001
 12
1.0
 22
0.0
 32
0.0
 13
1.0
 23
0.0
 33
0.0
 40
0.0
 40
0.0
 40
0.0
 40
0.0
 40
1.0
 40
1.0
 40
1.0
 40
1.0
 10
243.5715302730423
 20
54.74385528605491
 30
0.0
 10
244.0146010332278
 20
54.74385528605491
 30
0.0
 10
244.4299501089399
 20
54.82697601314916
 30
0.0
 10
244.8436375806483
 20
55.01274891317586
 30
0.0
  0
SPLINE
  5
16B
330
1F
100
AcDbEntity
  8
ÍĽżň
100
AcDbSpline
210
0.0
220
0.0
230
1.0
 70
     8
 71
     3
 72
    23
 73
    19
 74
     0
 42
0.00000001
 43
0.00000001
 12
1.0
 22
0.0
 32
0.0
 13
1.0
 23
0.0
 33
0.0
 40
0.0
 40
0.0
 40
0.0
 40
0.0
 40
1.0
 40
2.0
 40
3.0
 40
4.0
 40
5.0
 40
6.0
 40
7.0
 40
8.0
 40
9.0
 40
10.0
 40
11.0
 40
12.0
 40
13.0
 40
14.0
 40
15.0
 40
16.0
 40
16.0
 40
16.0
 40
16.0
 10
244.7399051118203
 20
55.40873245015685
 30
0.0
 10
244.4496512612843
 20
55.28650577152631
 30
0.0
 10
244.0645973299048
 20
55.18871176395736
 30
0.0
 10
243.7212304087189
 20
55.18871176395736
 30
0.0
 10
242.7187633102159
 20
55.18871176395736
 30
0.0
 10
241.9861428548491
 20
55.73626854051801
 30
0.0
 10
242.2037097622707
 20
56.82642514389141
 30
0.0
 10
242.4553959095191
 20
58.08764590575615
 30
0.0
 10
243.6882300920155
 20
58.90894940893526
 30
0.0
 10
244.7738185508458
 20
58.90894940893526
 30
0.0
 10
245.9812170208399
 20
58.90894940893526
 30
0.0
 10
246.3632757590277
 20
58.21477634254271
 30
0.0
 10
246.1984084209545
 20
57.38860707520101
 30
0.0
 10
246.0716097983818
 20
56.75307140618246
 30
0.0
 10
245.5928398814539
 20
56.35222717090536
 30
0.0
 10
245.2106532301533
 20
56.35222717090536
 30
0.0
 10
244.9115885724131
 20
56.35222717090536
 30
0.0
 10
244.8450509572242
 20
56.51842303230141
 30
0.0
 10
245.0159466756756
 20
56.87530061774626
 30
0.0
  0
SPLINE
  5
16C
330
1F
100
AcDbEntity
  8
ÍĽżň
100
AcDbSpline
210
0.0
220
0.0
230
1.0
 70
     8
 71
     3
 72
    17
 73
    13
 74
     0
 42
0.00000001
 43
0.00000001
 12
1.0
 22
0.0
 32
0.0
 13
1.0
 23
0.0
 33
0.0
 40
0.0
 40
0.0
 40
0.0
 40
0.0
 40
1.0
 40
2.0
 40
3.0
 40
4.0
 40
5.0
 40
6.0
 40
7.0
 40
8.0
 40
9.0
 40
10.0
 40
10.0
 40
10.0
 40
10.0
 10
244.8813757484013
 20
57.8383242513999
 30
0.0
 10
244.8086438457273
 20
58.02900344251581
 30
0.0
 10
244.6590703566971
 20
58.1121241696102
 30
0.0
 10
244.4486114923158
 20
58.1121241696102
 30
0.0
 10
243.7230579198296
 20
58.1121241696102
 30
0.0
 10
243.0603419807516
 20
57.42771555966991
 30
0.0
 10
242.9295951489715
 20
56.77264591188057
 30
0.0
 10
242.8281467524148
 20
56.26420268565496
 30
0.0
 10
243.0980377218777
 20
55.95133987576856
 30
0.0
 10
243.5687877399103
 20
55.95133987576856
 30
0.0
 10
243.8346481798455
 20
55.95133987576856
 30
0.0
 10
244.1815466427713
 20
56.10777128071165
 30
0.0
 10
244.4072575628026
 20
56.32288567582181
 30
0.0
  0
SPLINE
  5
16D
330
1F
100
AcDbEntity
  8
ÍĽżň
100
AcDbSpline
210
0.0
220
0.0
230
1.0
 70
     8
 71
     3
 72
    20
 73
    16
 74
     0
 42
0.00000001
 43
0.00000001
 12
1.0
 22
0.0
 32
0.0
 13
1.0
 23
0.0
 33
0.0
 40
0.0
 40
0.0
 40
0.0
 40
0.0
 40
1.0
 40
2.0
 40
3.0
 40
4.0
 40
5.0
 40
6.0
 40
7.0
 40
8.0
 40
9.0
 40
10.0
 40
11.0
 40
12.0
 40
13.0
 40
13.0
 40
13.0
 40
13.0
 10
244.4238837345677
 20
56.32288567582181
 30
0.0
 10
244.424632216249
 20
56.04912881747151
 30
0.0
 10
244.683340920051
 20
55.90246440191371
 30
0.0
 10
245.0378476802715
 20
55.90246440191371
 30
0.0
 10
245.6747536660059
 20
55.90246440191371
 30
0.0
 10
246.5183799071145
 20
56.41086456827971
 30
0.0
 10
246.7183650938223
 20
57.41304481212846
 30
0.0
 10
246.9456983573962
 20
58.55207688935651
 30
0.0
 10
246.2628690311392
 20
59.34890466161461
 30
0.0
 10
244.9280463041385
 20
59.34890466161461
 30
0.0
 10
243.4271113025287
 20
59.34890466161461
 30
0.0
 10
241.9467456160261
 20
58.34186878533531
 30
0.0
 10
241.6404063749055
 20
56.80685063819361
 30
0.0
 10
241.3643236508905
 20
55.42340319769865
 30
0.0
 10
242.3198276399026
 20
54.74385528605491
 30
0.0
 10
243.5715302730423
 20
54.74385528605491
 30
0.0
  0
SPLINE
  5
16E
330
1F
100
AcDbEntity
  8
ÍĽżň
100
AcDbSpline
210
0.0
220
0.0
230
1.0
 70
     8
 71
     3
 72
    14
 73
    10
 74
     0
 42
0.00000001
 43
0.00000001
 12
1.0
 22
0.0
 32
0.0
 13
1.0
 23
0.0
 33
0.0
 40
0.0
 40
0.0
 40
0.0
 40
0.0
 40
1.0
 40
2.0
 40
3.0
 40
4.0
 40
5.0
 40
6.0
 40
7.0
 40
7.0
 40
7.0
 40
7.0
 10
243.836766978243
 20
56.4060064029162
 30
0.0
 10
243.6152100682203
 20
56.4060064029162
 30
0.0
 10
243.4975547002988
 20
56.53800007093225
 30
0.0
 10
243.5522046280049
 20
56.81175186341671
 30
0.0
 10
243.6233958742231
 20
57.1686294488614
 30
0.0
 10
243.9727924422535
 20
57.64278942785351
 30
0.0
 10
244.3771283255772
 20
57.64278942785351
 30
0.0
 10
244.5211331615563
 20
57.64278942785351
 30
0.0
 10
244.6100720355953
 20
57.58900766290976
 30
0.0
 10
244.6677988435804
 20
57.46191775305007
 30
0.0
  0
SPLINE
  5
16F
330
1F
100
AcDbEntity
  8
ÍĽżň
100
AcDbSpline
210
0.0
220
0.0
230
1.0
 70
     8
 71
     3
 72
     8
 73
     4
 74
     0
 42
0.00000001
 43
0.00000001
 12
1.0
 22
0.0
 32
0.0
 13
1.0
 23
0.0
 33
0.0
 40
0.0
 40
0.0
 40
0.0
 40
0.0
 40
1.0
 40
1.0
 40
1.0
 40
1.0
 10
244.3510682451069
 20
56.67975819540086
 30
0.0
 10
244.1348330271744
 20
56.48422083892156
 30
0.0
 10
243.980771180989
 20
56.4060064029162
 30
0.0
 10
243.836766978243
 20
56.4060064029162
 30
0.0
  0
SPLINE
  5
170
330
1F
100
AcDbEntity
  8
ÍĽżň
100
AcDbSpline
210
0.0
220
0.0
230
1.0
 70
     8
 71
     3
 72
    23
 73
    19
 74
     0
 42
0.00000001
 43
0.00000001
 12
1.0
 22
0.0
 32
0.0
 13
1.0
 23
0.0
 33
0.0
 40
0.0
 40
0.0
 40
0.0
 40
0.0
 40
1.0
 40
2.0
 40
3.0
 40
4.0
 40
5.0
 40
6.0
 40
7.0
 40
8.0
 40
9.0
 40
10.0
 40
11.0
 40
12.0
 40
13.0
 40
14.0
 40
15.0
 40
16.0
 40
16.0
 40
16.0
 40
16.0
 10
284.3191828323242
 20
52.4018165987943
 30
0.0
 10
284.4837295689725
 20
52.3874185117019
 30
0.0
 10
284.6482741044147
 20
52.37670304190132
 30
0.0
 10
284.8129881327033
 20
52.3696701893921
 30
0.0
 10
284.977537070557
 20
52.36247004524356
 30
0.0
 10
285.1385596767308
 20
52.35895251838641
 30
0.0
 10
285.2960625548411
 20
52.35895251838641
 30
0.0
 10
285.4319275800058
 20
52.35895251838641
 30
0.0
 10
285.5411227957817
 20
52.36598537089496
 30
0.0
 10
285.6234809105285
 20
52.380385659193
 30
0.0
 10
285.70566953243
 20
52.39461645464515
 30
0.0
 10
285.768401696326
 20
52.41956492110365
 30
0.0
 10
285.8113428189369
 20
52.455396149003
 30
0.0
 10
285.8542795391362
 20
52.49106008526226
 30
0.0
 10
285.8811188413708
 20
52.54463963547047
 30
0.0
 10
285.8918519208184
 20
52.61613479962922
 30
0.0
 10
285.9025894026767
 20
52.68746267214751
 30
0.0
 10
285.9079559423994
 20
52.78390410155821
 30
0.0
 10
285.9079559423994
 20
52.90546349027425
 30
0.0
  0
SPLINE
  5
171
330
1F
100
AcDbEntity
  8
ÍĽżň
100
AcDbSpline
210
0.0
220
0.0
230
1.0
 70
     8
 71
     3
 72
    23
 73
    19
 74
     0
 42
0.00000001
 43
0.00000001
 12
1.0
 22
0.0
 32
0.0
 13
1.0
 23
0.0
 33
0.0
 40
0.0
 40
0.0
 40
0.0
 40
0.0
 40
1.0
 40
2.0
 40
3.0
 40
4.0
 40
5.0
 40
6.0
 40
7.0
 40
8.0
 40
9.0
 40
10.0
 40
11.0
 40
12.0
 40
13.0
 40
14.0
 40
15.0
 40
16.0
 40
16.0
 40
16.0
 40
16.0
 10
287.0351273928494
 20
52.65899667883185
 30
0.0
 10
287.0351273928494
 20
52.380385659193
 30
0.0
 10
287.0136568315436
 20
52.1499942536574
 30
0.0
 10
286.9707157089328
 20
51.96782466342989
 30
0.0
 10
286.9277789887334
 20
51.78565507320251
 30
0.0
 10
286.8580007650939
 20
51.63931671087501
 30
0.0
 10
286.7613854404252
 20
51.52847279195957
 30
0.0
 10
286.6647701157566
 20
51.41779836589031
 30
0.0
 10
286.532261929426
 20
51.33391261432332
 30
0.0
 10
286.3641910623033
 20
51.27665044682261
 30
0.0
 10
286.1959573059517
 20
51.2195555709624
 30
0.0
 10
285.990144564301
 20
51.18020681620565
 30
0.0
 10
285.7469311350209
 20
51.15877587660486
 30
0.0
 10
285.5464915367112
 20
51.13734273579741
 30
0.0
 10
285.3425256067211
 20
51.12126953109637
 30
0.0
 10
285.1350399486673
 20
51.1105540612958
 30
0.0
 10
284.9273847977684
 20
51.09983859149556
 30
0.0
 10
284.7378433693398
 20
51.09816567509255
 30
0.0
 10
284.5660854825131
 20
51.10519632639551
 30
0.0
  0
SPLINE
  5
172
330
1F
100
AcDbEntity
  8
ÍĽżň
100
AcDbSpline
210
0.0
220
0.0
230
1.0
 70
     8
 71
     3
 72
    11
 73
     7
 74
     0
 42
0.00000001
 43
0.00000001
 12
1.0
 22
0.0
 32
0.0
 13
1.0
 23
0.0
 33
0.0
 40
0.0
 40
0.0
 40
0.0
 40
0.0
 40
1.0
 40
2.0
 40
3.0
 40
4.0
 40
4.0
 40
4.0
 40
4.0
 10
281.8394078425416
 20
58.67060416236379
 30
0.0
 10
281.5029315250161
 20
58.98487911826125
 30
0.0
 10
281.1988327434992
 20
59.25629219495637
 30
0.0
 10
280.9269354015299
 20
59.48500848288349
 30
0.0
 10
280.4903240312714
 20
58.86348922239156
 30
0.0
 10
279.9785678976501
 20
58.28834716675321
 30
0.0
 10
279.3918342923063
 20
57.75975621122666
 30
0.0
  0
SPLINE
  5
173
330
1F
100
AcDbEntity
  8
ÍĽżň
100
AcDbSpline
210
0.0
220
0.0
230
1.0
 70
     8
 71
     3
 72
     8
 73
     4
 74
     0
 42
0.00000001
 43
0.00000001
 12
1.0
 22
0.0
 32
0.0
 13
1.0
 23
0.0
 33
0.0
 40
0.0
 40
0.0
 40
0.0
 40
0.0
 40
1.0
 40
1.0
 40
1.0
 40
1.0
 10
282.751878082348
 20
57.75975621122666
 30
0.0
 10
282.4942401515054
 20
58.02396914377271
 30
0.0
 10
282.1899718771434
 20
58.32769592151021
 30
0.0
 10
281.8394078425416
 20
58.67060416236379
 30
0.0
  0
SPLINE
  5
174
330
1F
100
AcDbEntity
  8
ÍĽżň
100
AcDbSpline
210
0.0
220
0.0
230
1.0
 70
     8
 71
     3
 72
    14
 73
    10
 74
     0
 42
0.00000001
 43
0.00000001
 12
1.0
 22
0.0
 32
0.0
 13
1.0
 23
0.0
 33
0.0
 40
0.0
 40
0.0
 40
0.0
 40
0.0
 40
1.0
 40
2.0
 40
3.0
 40
4.0
 40
5.0
 40
6.0
 40
7.0
 40
7.0
 40
7.0
 40
7.0
 10
277.5668938126932
 20
57.78118715082811
 30
0.0
 10
278.1393680069099
 20
58.22405214674426
 30
0.0
 10
278.7083224730637
 20
58.77776326278116
 30
0.0
 10
279.2737528087434
 20
59.44214440247556
 30
0.0
 10
279.5599029582229
 20
59.77065675744247
 30
0.0
 10
279.8104992317334
 20
60.08861433063161
 30
0.0
 10
280.0252004423759
 20
60.39586083643191
 30
0.0
 10
280.2398994518128
 20
60.70293784938626
 30
0.0
 10
280.4223926192918
 20
61.00298200983141
 30
0.0
 10
280.5726821460188
 20
61.29599331776799
 30
0.0
  0
SPLINE
  5
175
330
1F
100
AcDbEntity
  8
ÍĽżň
100
AcDbSpline
210
0.0
220
0.0
230
1.0
 70
     8
 71
     3
 72
    17
 73
    13
 74
     0
 42
0.00000001
 43
0.00000001
 12
1.0
 22
0.0
 32
0.0
 13
1.0
 23
0.0
 33
0.0
 40
0.0
 40
0.0
 40
0.0
 40
0.0
 40
1.0
 40
2.0
 40
3.0
 40
4.0
 40
5.0
 40
6.0
 40
7.0
 40
8.0
 40
9.0
 40
10.0
 40
10.0
 40
10.0
 40
10.0
 10
281.495887666478
 20
60.41729177603335
 30
0.0
 10
281.6532210517418
 20
60.29573458852327
 30
0.0
 10
281.8196146000505
 20
60.16010949479005
 30
0.0
 10
281.995061707786
 20
60.010090716376
 30
0.0
 10
282.1703437250866
 20
59.86006533434445
 30
0.0
 10
282.3617297639695
 20
59.6921287407753
 30
0.0
 10
282.569384914869
 20
59.50644382489636
 30
0.0
 10
282.8555372655547
 20
59.25629219495637
 30
0.0
 10
283.1061335390652
 20
59.02958560791807
 30
0.0
 10
283.3208325485015
 20
58.82598287688361
 30
0.0
 10
283.535529356733
 20
58.62238454826101
 30
0.0
 10
283.7143355045087
 20
58.43837034757916
 30
0.0
 10
283.8575789714915
 20
58.27411637130136
 30
0.0
  0
SPLINE
  5
176
330
1F
100
AcDbEntity
  8
ÍĽżň
100
AcDbSpline
210
0.0
220
0.0
230
1.0
 70
     8
 71
     3
 72
    41
 73
    37
 74
     0
 42
0.00000001
 43
0.00000001
 12
1.0
 22
0.0
 32
0.0
 13
1.0
 23
0.0
 33
0.0
 40
0.0
 40
0.0
 40
0.0
 40
0.0
 40
1.0
 40
2.0
 40
3.0
 40
4.0
 40
5.0
 40
6.0
 40
7.0
 40
8.0
 40
9.0
 40
10.0
 40
11.0
 40
12.0
 40
13.0
 40
14.0
 40
15.0
 40
16.0
 40
17.0
 40
18.0
 40
19.0
 40
20.0
 40
21.0
 40
22.0
 40
23.0
 40
24.0
 40
25.0
 40
26.0
 40
27.0
 40
28.0
 40
29.0
 40
30.0
 40
31.0
 40
32.0
 40
33.0
 40
34.0
 40
34.0
 40
34.0
 40
34.0
 10
283.116866618512
 20
57.35255074915821
 30
0.0
 10
283.0667143457227
 20
57.40244768207486
 30
0.0
 10
283.0184066833883
 20
57.45602723228371
 30
0.0
 10
282.9719458327145
 20
57.51328939978441
 30
0.0
 10
282.9253154891948
 20
57.57038427564446
 30
0.0
 10
282.8734836963854
 20
57.62748135271046
 30
0.0
 10
282.8162875650585
 20
57.68474352021099
 30
0.0
 10
282.8162875650585
 20
57.38469935976556
 30
0.0
 10
282.8125983441498
 20
57.11495919947325
 30
0.0
 10
282.8055544856118
 20
56.87569473338565
 30
0.0
 10
282.7983411342279
 20
56.63626077445196
 30
0.0
 10
282.7911299840495
 20
56.41306951306525
 30
0.0
 10
282.7840817231006
 20
56.20595145637941
 30
0.0
 10
282.7768705729229
 20
55.99866830925932
 30
0.0
 10
282.7679821039297
 20
55.80042331312516
 30
0.0
 10
282.7572446220721
 20
55.61122087038906
 30
0.0
 10
282.7465115426245
 20
55.42185333721811
 30
0.0
 10
282.7339294503119
 20
55.23080848523331
 30
0.0
 10
282.719674441596
 20
55.03792342520521
 30
0.0
 10
282.7052477388276
 20
54.84503836517725
 30
0.0
 10
282.6837771775225
 20
54.68061489605356
 30
0.0
 10
282.6552649588854
 20
54.544992003526
 30
0.0
 10
282.6265810461958
 20
54.40920181935832
 30
0.0
 10
282.5729068441381
 20
54.29484257479176
 30
0.0
 10
282.4942401515054
 20
54.20208376267225
 30
0.0
 10
282.4154061672333
 20
54.10915765891331
 30
0.0
 10
282.3026868209829
 20
54.03766249475471
 30
0.0
 10
282.1560865151653
 20
53.98776556183756
 30
0.0
 10
282.0093211189134
 20
53.9377035384862
 30
0.0
 10
281.8107239298526
 20
53.8983569849354
 30
0.0
 10
281.5602971491886
 20
53.86989099161961
 30
0.0
 10
281.3955831209
 20
53.8484600520183
 30
0.0
 10
281.2328809947061
 20
53.8340619649257
 30
0.0
 10
281.0718561873268
 20
53.82702911241711
 30
0.0
 10
280.910833581153
 20
53.81982896826825
 30
0.0
 10
280.7479641633194
 20
53.81982896826825
 30
0.0
 10
280.5834152254656
 20
53.82702911241711
 30
0.0
  0
SPLINE
  5
177
330
1F
100
AcDbEntity
  8
ÍĽżň
100
AcDbSpline
210
0.0
220
0.0
230
1.0
 70
     8
 71
     3
 72
    29
 73
    25
 74
     0
 42
0.00000001
 43
0.00000001
 12
1.0
 22
0.0
 32
0.0
 13
1.0
 23
0.0
 33
0.0
 40
0.0
 40
0.0
 40
0.0
 40
0.0
 40
1.0
 40
2.0
 40
3.0
 40
4.0
 40
5.0
 40
6.0
 40
7.0
 40
8.0
 40
9.0
 40
10.0
 40
11.0
 40
12.0
 40
13.0
 40
14.0
 40
15.0
 40
16.0
 40
17.0
 40
18.0
 40
19.0
 40
20.0
 40
21.0
 40
22.0
 40
22.0
 40
22.0
 40
22.0
 10
280.3794514966815
 20
54.95219526438915
 30
0.0
 10
280.5225298732295
 20
54.93779497609096
 30
0.0
 10
280.6585599888291
 20
54.92707950629036
 30
0.0
 10
280.7873811554558
 20
54.92004885498711
 30
0.0
 10
280.9162023220825
 20
54.91284650963232
 30
0.0
 10
281.0485432167728
 20
54.90933338518635
 30
0.0
 10
281.1845733323717
 20
54.90933338518635
 30
0.0
 10
281.2847105863094
 20
54.90933338518635
 30
0.0
 10
281.3652218893963
 20
54.91100630158916
 30
0.0
 10
281.426111644044
 20
54.91468891888135
 30
0.0
 10
281.4868319058453
 20
54.91820644573865
 30
0.0
 10
281.5351373669741
 20
54.93612205968845
 30
0.0
 10
281.5710324298408
 20
54.96826846908971
 30
0.0
 10
281.606760201068
 20
55.00041707969756
 30
0.0
 10
281.6317526916421
 20
55.04679648575706
 30
0.0
 10
281.6461771932038
 20
55.1075739789091
 30
0.0
 10
281.6604344031256
 20
55.16818638162651
 30
0.0
 10
281.6746938142537
 20
55.25575695169161
 30
0.0
 10
281.6891183158153
 20
55.37011399505241
 30
0.0
 10
281.7033755257373
 20
55.55579891093132
 30
0.0
 10
281.7141108063894
 20
55.74684376291616
 30
0.0
 10
281.7213219565678
 20
55.94341364144171
 30
0.0
 10
281.7283658151052
 20
56.13981622832701
 30
0.0
 10
281.7320550360147
 20
56.3774077780116
 30
0.0
 10
281.7320550360147
 20
56.65601879765031
 30
0.0
  0
SPLINE
  5
178
330
1F
100
AcDbEntity
  8
ÍĽżň
100
AcDbSpline
210
0.0
220
0.0
230
1.0
 70
     8
 71
     3
 72
    35
 73
    31
 74
     0
 42
0.00000001
 43
0.00000001
 12
1.0
 22
0.0
 32
0.0
 13
1.0
 23
0.0
 33
0.0
 40
0.0
 40
0.0
 40
0.0
 40
0.0
 40
1.0
 40
2.0
 40
3.0
 40
4.0
 40
5.0
 40
6.0
 40
7.0
 40
8.0
 40
9.0
 40
10.0
 40
11.0
 40
12.0
 40
13.0
 40
14.0
 40
15.0
 40
16.0
 40
17.0
 40
18.0
 40
19.0
 40
20.0
 40
21.0
 40
22.0
 40
23.0
 40
24.0
 40
25.0
 40
26.0
 40
27.0
 40
28.0
 40
28.0
 40
28.0
 40
28.0
 10
279.8104992317334
 20
53.2055076507194
 30
0.0
 10
279.8104992317334
 20
53.04108638280135
 30
0.0
 10
279.8158657714562
 20
52.91082122517421
 30
0.0
 10
279.8266010521091
 20
52.8143775945576
 30
0.0
 10
279.8373385339675
 20
52.71793616514646
 30
0.0
 10
279.8569622836134
 20
52.642923474131
 30
0.0
 10
279.8856439950964
 20
52.58934612512745
 30
0.0
 10
279.9141584149395
 20
52.53576657491912
 30
0.0
 10
279.951730796621
 20
52.49993314581376
 30
0.0
 10
279.9983611401412
 20
52.48218702471026
 30
0.0
 10
280.0448241920212
 20
52.4642714107606
 30
0.0
 10
280.1038649338024
 20
52.45171353171116
 30
0.0
 10
280.1754877678969
 20
52.4446806792026
 30
0.0
 10
280.4975373826553
 20
52.43028039090436
 30
0.0
 10
280.7909030847248
 20
52.42140512914661
 30
0.0
 10
281.0557543669505
 20
52.417892004701
 30
0.0
 10
281.3204383575365
 20
52.41420718620366
 30
0.0
 10
281.6354419125515
 20
52.42324753839551
 30
0.0
 10
282.0004304487148
 20
52.4446806792026
 30
0.0
 10
282.0790993425535
 20
52.45171353171116
 30
0.0
 10
282.145351234513
 20
52.4624290015117
 30
0.0
 10
282.1990276377761
 20
52.476827088604
 30
0.0
 10
282.2527018398339
 20
52.49106008526226
 30
0.0
 10
282.2956407612394
 20
52.52136628662071
 30
0.0
 10
282.3278466031974
 20
52.56791298432051
 30
0.0
 10
282.3600524451554
 20
52.61429239038016
 30
0.0
 10
282.3850449357303
 20
52.68210493724721
 30
0.0
 10
282.4029913665603
 20
52.7715135141495
 30
0.0
 10
282.4207705057512
 20
52.8607570006174
 30
0.0
 10
282.436874527333
 20
52.98047398008396
 30
0.0
 10
282.4512990288952
 20
53.13049716090971
 30
0.0
  0
SPLINE
  5
179
330
1F
100
AcDbEntity
  8
ÍĽżň
100
AcDbSpline
210
0.0
220
0.0
230
1.0
 70
     8
 71
     3
 72
    53
 73
    49
 74
     0
 42
0.00000001
 43
0.00000001
 12
1.0
 22
0.0
 32
0.0
 13
1.0
 23
0.0
 33
0.0
 40
0.0
 40
0.0
 40
0.0
 40
0.0
 40
1.0
 40
2.0
 40
3.0
 40
4.0
 40
5.0
 40
6.0
 40
7.0
 40
8.0
 40
9.0
 40
10.0
 40
11.0
 40
12.0
 40
13.0
 40
14.0
 40
15.0
 40
16.0
 40
17.0
 40
18.0
 40
19.0
 40
20.0
 40
21.0
 40
22.0
 40
23.0
 40
24.0
 40
25.0
 40
26.0
 40
27.0
 40
28.0
 40
29.0
 40
30.0
 40
31.0
 40
32.0
 40
33.0
 40
34.0
 40
35.0
 40
36.0
 40
37.0
 40
38.0
 40
39.0
 40
40.0
 40
41.0
 40
42.0
 40
43.0
 40
44.0
 40
45.0
 40
46.0
 40
46.0
 40
46.0
 40
46.0
 10
283.5999388394443
 20
53.55913136137371
 30
0.0
 10
283.5999388394443
 20
53.49483634136446
 30
0.0
 10
283.596249618535
 20
53.41614103305682
 30
0.0
 10
283.5892035587908
 20
53.32338222093721
 30
0.0
 10
283.5819924086136
 20
53.23045611717791
 30
0.0
 10
283.5747790572291
 20
53.1393702214614
 30
0.0
 10
283.567735198691
 20
53.05012893619945
 30
0.0
 10
283.5605218473073
 20
52.96071595688542
 30
0.0
 10
283.5533084959234
 20
52.87498999727486
 30
0.0
 10
283.5462668385914
 20
52.79294665495632
 30
0.0
 10
283.5390534872075
 20
52.71073602099757
 30
0.0
 10
283.5318379346182
 20
52.64459859173925
 30
0.0
 10
283.5247940760808
 20
52.59470165882241
 30
0.0
 10
283.4961123645966
 20
52.35175457544265
 30
0.0
 10
283.4531734431918
 20
52.15367907215491
 30
0.0
 10
283.395977311865
 20
51.9999710728316
 30
0.0
 10
283.3386116876925
 20
51.84643256635461
 30
0.0
 10
283.2473629027472
 20
51.7213600531931
 30
0.0
 10
283.1222353594408
 20
51.62491422137056
 30
0.0
 10
282.9969361220831
 20
51.52847279195957
 30
0.0
 10
282.8340667042489
 20
51.45530471139846
 30
0.0
 10
282.6337921963735
 20
51.405240486841
 30
0.0
 10
282.4333503968579
 20
51.35534575513011
 30
0.0
 10
282.1757124660161
 20
51.31951452723072
 30
0.0
 10
281.8608762026414
 20
51.29808358762971
 30
0.0
 10
281.7677828072418
 20
51.29105073512101
 30
0.0
 10
281.6515459341332
 20
51.28569079901496
 30
0.0
 10
281.5119894868537
 20
51.28200818172277
 30
0.0
 10
281.3724352407801
 20
51.27849065486526
 30
0.0
 10
281.2221457140531
 20
51.27665044682261
 30
0.0
 10
281.0611231078801
 20
51.27665044682261
 30
0.0
 10
280.9000983005014
 20
51.27665044682261
 30
0.0
 10
280.733704752192
 20
51.27849065486526
 30
0.0
 10
280.561946865366
 20
51.28200818172277
 30
0.0
 10
280.3901889785399
 20
51.28569079901496
 30
0.0
 10
280.2291619699545
 20
51.29105073512101
 30
0.0
 10
280.0788724432281
 20
51.29808358762971
 30
0.0
 10
279.8140211610019
 20
51.31248167472202
 30
0.0
 10
279.5921110013871
 20
51.34630320173235
 30
0.0
 10
279.4133070548169
 20
51.39988275194086
 30
0.0
 10
279.234335816607
 20
51.45346230214971
 30
0.0
 10
279.0912574400583
 20
51.53918826176032
 30
0.0
 10
278.9839090359423
 20
51.65706503318386
 30
0.0
 10
278.8765562294159
 20
51.7749396034021
 30
0.0
 10
278.799566855598
 20
51.93216072717096
 30
0.0
 10
278.7531060049236
 20
52.12856111285031
 30
0.0
 10
278.7064778626093
 20
52.3251309913759
 30
0.0
 10
278.6833299824895
 20
52.56958810192926
 30
0.0
 10
278.6833299824895
 20
52.862599409866
 30
0.0
  0
SPLINE
  5
17A
330
1F
100
AcDbEntity
  8
ÍĽżň
100
AcDbSpline
210
0.0
220
0.0
230
1.0
 70
     8
 71
     3
 72
    11
 73
     7
 74
     0
 42
0.00000001
 43
0.00000001
 12
1.0
 22
0.0
 32
0.0
 13
1.0
 23
0.0
 33
0.0
 40
0.0
 40
0.0
 40
0.0
 40
0.0
 40
1.0
 40
2.0
 40
3.0
 40
4.0
 40
4.0
 40
4.0
 40
4.0
 10
269.0537546213197
 20
58.02764955985881
 30
0.0
 10
269.325649762084
 20
57.52751799403061
 30
0.0
 10
269.626226614331
 20
56.8274707168715
 30
0.0
 10
269.9554895804737
 20
55.9273382355354
 30
0.0
 10
270.2990097565382
 20
55.01280326469514
 30
0.0
 10
270.5351793272804
 20
54.27340943398481
 30
0.0
 10
270.6639960914956
 20
53.70915234099311
 30
0.0
  0
SPLINE
  5
17B
330
1F
100
AcDbEntity
  8
ÍĽżň
100
AcDbSpline
210
0.0
220
0.0
230
1.0
 70
     8
 71
     3
 72
    29
 73
    25
 74
     0
 42
0.00000001
 43
0.00000001
 12
1.0
 22
0.0
 32
0.0
 13
1.0
 23
0.0
 33
0.0
 40
0.0
 40
0.0
 40
0.0
 40
0.0
 40
1.0
 40
2.0
 40
3.0
 40
4.0
 40
5.0
 40
6.0
 40
7.0
 40
8.0
 40
9.0
 40
10.0
 40
11.0
 40
12.0
 40
13.0
 40
14.0
 40
15.0
 40
16.0
 40
17.0
 40
18.0
 40
19.0
 40
20.0
 40
21.0
 40
22.0
 40
22.0
 40
22.0
 40
22.0
 10
269.4294784381365
 20
53.29123140912421
 30
0.0
 10
269.3865373155254
 20
53.46971838206007
 30
0.0
 10
269.341753783666
 20
53.6394973848779
 30
0.0
 10
269.2952907317858
 20
53.80023823670976
 30
0.0
 10
269.2486581870604
 20
53.96097468613031
 30
0.0
 10
269.2003527259315
 20
54.12522866240806
 30
0.0
 10
269.1503699459892
 20
54.29316525597771
 30
0.0
 10
269.1002154719941
 20
54.4609367591126
 30
0.0
 10
269.044694458276
 20
54.63607569803685
 30
0.0
 10
268.9839763976802
 20
54.8182452882644
 30
0.0
 10
268.9230888442386
 20
55.00041487849145
 30
0.0
 10
268.8533128218046
 20
55.20937314322061
 30
0.0
 10
268.7746461291724
 20
55.44512228365666
 30
0.0
 10
268.6958099436944
 20
55.68087362529861
 30
0.0
 10
268.6243566024459
 20
55.88614927273556
 30
0.0
 10
268.5599471197353
 20
56.06128601045421
 30
0.0
 10
268.495535435819
 20
56.23625765773785
 30
0.0
 10
268.4328032719229
 20
56.4023540432645
 30
0.0
 10
268.3720852113269
 20
56.55957516703356
 30
0.0
 10
268.3111976578857
 20
56.7166267979563
 30
0.0
 10
268.2486327856291
 20
56.86849458923631
 30
0.0
 10
268.1842233029188
 20
57.01499804199901
 30
0.0
 10
268.1198116190027
 20
57.16133860553276
 30
0.0
 10
268.0481909861137
 20
57.32391746420206
 30
0.0
 10
267.9695220922763
 20
57.50257172877791
 30
0.0
  0
SPLINE
  5
17C
330
1F
100
AcDbEntity
  8
ÍĽżň
100
AcDbSpline
210
0.0
220
0.0
230
1.0
 70
     8
 71
     3
 72
    11
 73
     7
 74
     0
 42
0.00000001
 43
0.00000001
 12
1.0
 22
0.0
 32
0.0
 13
1.0
 23
0.0
 33
0.0
 40
0.0
 40
0.0
 40
0.0
 40
0.0
 40
1.0
 40
2.0
 40
3.0
 40
4.0
 40
4.0
 40
4.0
 40
4.0
 10
271.737491138681
 20
61.03880883531937
 30
0.0
 10
271.8019050238033
 20
60.79585955073396
 30
0.0
 10
271.8644676948534
 20
60.5421947963483
 30
0.0
 10
271.9253530470895
 20
60.27798186380221
 30
0.0
 10
271.9860733088908
 20
60.01360163961581
 30
0.0
 10
272.0343831724312
 20
59.7671348281736
 30
0.0
 10
272.0702738328868
 20
59.53858583188641
 30
0.0
  0
SPLINE
  5
17D
330
1F
100
AcDbEntity
  8
ÍĽżň
100
AcDbSpline
210
0.0
220
0.0
230
1.0
 70
     8
 71
     3
 72
    11
 73
     7
 74
     0
 42
0.00000001
 43
0.00000001
 12
1.0
 22
0.0
 32
0.0
 13
1.0
 23
0.0
 33
0.0
 40
0.0
 40
0.0
 40
0.0
 40
0.0
 40
1.0
 40
2.0
 40
3.0
 40
4.0
 40
4.0
 40
4.0
 40
4.0
 10
270.7820819774699
 20
59.53858583188641
 30
0.0
 10
270.7391408548587
 20
59.77433937473415
 30
0.0
 10
270.6908353937305
 20
59.99568382446046
 30
0.0
 10
270.6371611916724
 20
60.20296917278647
 30
0.0
 10
270.5834869896147
 20
60.4100894306779
 30
0.0
 10
270.5207548257185
 20
60.61720748736411
 30
0.0
 10
270.4492992832643
 20
60.8244906344845
 30
0.0
  0
SPLINE
  5
17E
330
1F
100
AcDbEntity
  8
ÍĽżň
100
AcDbSpline
210
0.0
220
0.0
230
1.0
 70
     8
 71
     3
 72
    17
 73
    13
 74
     0
 42
0.00000001
 43
0.00000001
 12
1.0
 22
0.0
 32
0.0
 13
1.0
 23
0.0
 33
0.0
 40
0.0
 40
0.0
 40
0.0
 40
0.0
 40
1.0
 40
2.0
 40
3.0
 40
4.0
 40
5.0
 40
6.0
 40
7.0
 40
8.0
 40
9.0
 40
10.0
 40
10.0
 40
10.0
 40
10.0
 10
271.4583848477392
 20
52.73400716864156
 30
0.0
 10
271.594249872904
 20
53.0625151211969
 30
0.0
 10
271.7391706587015
 20
53.43221423775771
 30
0.0
 10
271.8931494063367
 20
53.84310011591221
 30
0.0
 10
272.0469630635385
 20
54.25381870242676
 30
0.0
 10
272.2168763399101
 20
54.71276130545531
 30
0.0
 10
272.40306313071
 20
55.22009081422661
 30
0.0
 10
272.6248037974786
 20
55.8272119876266
 30
0.0
 10
272.8163549267961
 20
56.37372075830851
 30
0.0
 10
272.9773819353807
 20
56.85961932747915
 30
0.0
 10
273.1384067427609
 20
57.34535060500916
 30
0.0
 10
273.2761163783796
 20
57.77046947982161
 30
0.0
 10
273.3906781338792
 20
58.13480866027636
 30
0.0
  0
SPLINE
  5
17F
330
1F
100
AcDbEntity
  8
ÍĽżň
100
AcDbSpline
210
0.0
220
0.0
230
1.0
 70
     8
 71
     3
 72
    17
 73
    13
 74
     0
 42
0.00000001
 43
0.00000001
 12
1.0
 22
0.0
 32
0.0
 13
1.0
 23
0.0
 33
0.0
 40
0.0
 40
0.0
 40
0.0
 40
0.0
 40
1.0
 40
2.0
 40
3.0
 40
4.0
 40
5.0
 40
6.0
 40
7.0
 40
8.0
 40
9.0
 40
10.0
 40
10.0
 40
10.0
 40
10.0
 10
274.7003427518069
 20
57.70617225860656
 30
0.0
 10
274.5785698461298
 20
57.33463293400281
 30
0.0
 10
274.4354914695808
 20
56.91855661258831
 30
0.0
 10
274.270942531727
 20
56.45777380151615
 30
0.0
 10
274.1062285034388
 20
55.99699099044464
 30
0.0
 10
273.9022669758605
 20
55.45583775345706
 30
0.0
 10
273.6590513453742
 20
54.83431849296525
 30
0.0
 10
273.4943373170859
 20
54.41991508795311
 30
0.0
 10
273.342368270339
 20
54.03950270279751
 30
0.0
 10
273.2028162254711
 20
53.6930769350866
 30
0.0
 10
273.0632619793971
 20
53.3464860769413
 30
0.0
 10
272.9325962023158
 20
53.02685118493766
 30
0.0
 10
272.8109905882782
 20
52.73400716864156
 30
0.0
  0
SPLINE
  5
180
330
1F
100
AcDbEntity
  8
ÍĽżň
100
AcDbSpline
210
0.0
220
0.0
230
1.0
 70
     8
 71
     3
 72
    11
 73
     7
 74
     0
 42
0.00000001
 43
0.00000001
 12
1.0
 22
0.0
 32
0.0
 13
1.0
 23
0.0
 33
0.0
 40
0.0
 40
0.0
 40
0.0
 40
0.0
 40
1.0
 40
2.0
 40
3.0
 40
4.0
 40
4.0
 40
4.0
 40
4.0
 10
260.7344998374051
 20
55.54156591427326
 30
0.0
 10
260.7702265080291
 20
55.5844277934757
 30
0.0
 10
260.8096412989597
 20
55.63264960878431
 30
0.0
 10
260.8525835221738
 20
55.68622695778721
 30
0.0
 10
260.8955235441815
 20
55.73980650799586
 30
0.0
 10
260.938460264381
 20
55.79874599431046
 30
0.0
 10
260.9814024875946
 20
55.86304101431986
 30
0.0
  0
SPLINE
  5
181
330
1F
100
AcDbEntity
  8
ÍĽżň
100
AcDbSpline
210
0.0
220
0.0
230
1.0
 70
     8
 71
     3
 72
     8
 73
     4
 74
     0
 42
0.00000001
 43
0.00000001
 12
1.0
 22
0.0
 32
0.0
 13
1.0
 23
0.0
 33
0.0
 40
0.0
 40
0.0
 40
0.0
 40
0.0
 40
1.0
 40
1.0
 40
1.0
 40
1.0
 10
262.3554776888363
 20
55.9166205645287
 30
0.0
 10
262.2981109640604
 20
55.80946146411136
 30
0.0
 10
262.2194453720313
 20
55.6843867497439
 30
0.0
 10
262.1193081180936
 20
55.54156591427326
 30
0.0
  0
SPLINE
  5
182
330
1F
100
AcDbEntity
  8
ÍĽżň
100
AcDbSpline
210
0.0
220
0.0
230
1.0
 70
     8
 71
     3
 72
    11
 73
     7
 74
     0
 42
0.00000001
 43
0.00000001
 12
1.0
 22
0.0
 32
0.0
 13
1.0
 23
0.0
 33
0.0
 40
0.0
 40
0.0
 40
0.0
 40
0.0
 40
1.0
 40
2.0
 40
3.0
 40
4.0
 40
4.0
 40
4.0
 40
4.0
 10
257.7931198861875
 20
54.61999809092475
 30
0.0
 10
257.7859076354064
 20
54.56993606757296
 30
0.0
 10
257.7823851558362
 20
54.50379863831461
 30
0.0
 10
257.7823851558362
 20
54.42175529599621
 30
0.0
 10
257.7823851558362
 20
54.33954466203685
 30
0.0
 10
257.7786953846256
 20
54.25565891046971
 30
0.0
 10
257.7716493248817
 20
54.16993295085896
 30
0.0
  0
SPLINE
  5
183
330
1F
100
AcDbEntity
  8
ÍĽżň
100
AcDbSpline
210
0.0
220
0.0
230
1.0
 70
     8
 71
     3
 72
    23
 73
    19
 74
     0
 42
0.00000001
 43
0.00000001
 12
1.0
 22
0.0
 32
0.0
 13
1.0
 23
0.0
 33
0.0
 40
0.0
 40
0.0
 40
0.0
 40
0.0
 40
1.0
 40
2.0
 40
3.0
 40
4.0
 40
5.0
 40
6.0
 40
7.0
 40
8.0
 40
9.0
 40
10.0
 40
11.0
 40
12.0
 40
13.0
 40
14.0
 40
15.0
 40
16.0
 40
16.0
 40
16.0
 40
16.0
 10
259.9830522037722
 20
54.16993295085896
 30
0.0
 10
259.9686266016076
 20
53.76976254250521
 30
0.0
 10
259.950847462417
 20
53.40374604323625
 30
0.0
 10
259.9293769011118
 20
53.07155547338922
 30
0.0
 10
259.9079074404091
 20
52.73936270233622
 30
0.0
 10
259.8827443563857
 20
52.46962474324904
 30
0.0
 10
259.8542321377483
 20
52.2625066865632
 30
0.0
 10
259.8183370748806
 20
51.91959844570996
 30
0.0
 10
259.7200455320009
 20
51.66425857371586
 30
0.0
 10
259.5590207246217
 20
51.49631977894045
 30
0.0
 10
259.3979959172424
 20
51.32855047701101
 30
0.0
 10
259.1277780952927
 20
51.22306649420221
 30
0.0
 10
258.7485312486044
 20
51.18020241379411
 30
0.0
 10
258.5623477596134
 20
51.15877147419295
 30
0.0
 10
258.3709628213335
 20
51.14453847753474
 30
0.0
 10
258.1742113433302
 20
51.137338333386
 30
0.0
 10
257.9772909227824
 20
51.1303076820829
 30
0.0
 10
257.7966407148529
 20
51.1303076820829
 30
0.0
 10
257.6320950788079
 20
51.137338333386
 30
0.0
  0
SPLINE
  5
184
330
1F
100
AcDbEntity
  8
ÍĽżň
100
AcDbSpline
210
0.0
220
0.0
230
1.0
 70
     8
 71
     3
 72
    29
 73
    25
 74
     0
 42
0.00000001
 43
0.00000001
 12
1.0
 22
0.0
 32
0.0
 13
1.0
 23
0.0
 33
0.0
 40
0.0
 40
0.0
 40
0.0
 40
0.0
 40
1.0
 40
2.0
 40
3.0
 40
4.0
 40
5.0
 40
6.0
 40
7.0
 40
8.0
 40
9.0
 40
10.0
 40
11.0
 40
12.0
 40
13.0
 40
14.0
 40
15.0
 40
16.0
 40
17.0
 40
18.0
 40
19.0
 40
20.0
 40
21.0
 40
22.0
 40
22.0
 40
22.0
 40
22.0
 10
257.4388666306761
 20
52.14463211634557
 30
0.0
 10
257.5747311055396
 20
52.13039911968766
 30
0.0
 10
257.6928153406099
 20
52.12152605913566
 30
0.0
 10
257.7931198861875
 20
52.11784124063802
 30
0.0
 10
257.8932565898234
 20
52.11432591498666
 30
0.0
 10
258.0041280238112
 20
52.11248350573756
 30
0.0
 10
258.1259036809957
 20
52.11248350573756
 30
0.0
 10
258.2617687061604
 20
52.11248350573756
 30
0.0
 10
258.3709628213335
 20
52.11968364988711
 30
0.0
 10
258.4533198354778
 20
52.13391664654481
 30
0.0
 10
258.5355084573786
 20
52.14831473363726
 30
0.0
 10
258.5999201412955
 20
52.17142079084672
 30
0.0
 10
258.6465493842124
 20
52.20356940145455
 30
0.0
 10
258.6930113354893
 20
52.23571581085595
 30
0.0
 10
258.7233714663899
 20
52.27690477365596
 30
0.0
 10
258.7377970685545
 20
52.32680170657274
 30
0.0
 10
258.7520542784762
 20
52.37669863948977
 30
0.0
 10
258.7663114883981
 20
52.44467627679085
 30
0.0
 10
258.7807359899597
 20
52.53040223640132
 30
0.0
 10
258.7949943004843
 20
52.63036119266982
 30
0.0
 10
258.8057284805342
 20
52.7410356187384
 30
0.0
 10
258.8129407313153
 20
52.86259500745425
 30
0.0
 10
258.8199856904558
 20
52.98398710452971
 30
0.0
 10
258.8307209711089
 20
53.10537700039907
 30
0.0
 10
258.8451454726705
 20
53.22693418790886
 30
0.0
  0
SPLINE
  5
185
330
1F
100
AcDbEntity
  8
ÍĽżň
100
AcDbSpline
210
0.0
220
0.0
230
1.0
 70
     8
 71
     3
 72
    14
 73
    10
 74
     0
 42
0.00000001
 43
0.00000001
 12
1.0
 22
0.0
 32
0.0
 13
1.0
 23
0.0
 33
0.0
 40
0.0
 40
0.0
 40
0.0
 40
0.0
 40
1.0
 40
2.0
 40
3.0
 40
4.0
 40
5.0
 40
6.0
 40
7.0
 40
7.0
 40
7.0
 40
7.0
 10
257.6965045615186
 20
53.22693418790886
 30
0.0
 10
257.610626168407
 20
52.76246875954566
 30
0.0
 10
257.4496013610278
 20
52.38389658243315
 30
0.0
 10
257.2134312399835
 20
52.09105256613656
 30
0.0
 10
257.048716661394
 20
51.89113465359991
 30
0.0
 10
256.8393863928858
 20
51.69288965746606
 30
0.0
 10
256.5854371326514
 20
51.49631977894045
 30
0.0
 10
256.3313189298721
 20
51.29991939326082
 30
0.0
 10
256.0146397069473
 20
51.0981612726812
 30
0.0
 10
255.6353928602593
 20
50.89087372314906
 30
0.0
  0
SPLINE
  5
186
330
1F
100
AcDbEntity
  8
ÍĽżň
100
AcDbSpline
210
0.0
220
0.0
230
1.0
 70
     8
 71
     3
 72
    14
 73
    10
 74
     0
 42
0.00000001
 43
0.00000001
 12
1.0
 22
0.0
 32
0.0
 13
1.0
 23
0.0
 33
0.0
 40
0.0
 40
0.0
 40
0.0
 40
0.0
 40
1.0
 40
2.0
 40
3.0
 40
4.0
 40
5.0
 40
6.0
 40
7.0
 40
7.0
 40
7.0
 40
7.0
 10
254.9054168885346
 20
51.74814432528331
 30
0.0
 10
255.2274648523889
 20
51.91256559320091
 30
0.0
 10
255.5028841236275
 20
52.06794430772119
 30
0.0
 10
255.7320087352291
 20
52.2142848712551
 30
0.0
 10
255.9609638539851
 20
52.36062323358276
 30
0.0
 10
256.1327239420172
 20
52.4945732097077
 30
0.0
 10
256.2472845969137
 20
52.61613039721765
 30
0.0
 10
256.3903629734623
 20
52.7731842293462
 30
0.0
 10
256.5049252792631
 20
52.9767869603805
 30
0.0
 10
256.5908031220735
 20
53.22693418790886
 30
0.0
  0
SPLINE
  5
187
330
1F
100
AcDbEntity
  8
ÍĽżň
100
AcDbSpline
210
0.0
220
0.0
230
1.0
 70
     8
 71
     3
 72
    11
 73
     7
 74
     0
 42
0.00000001
 43
0.00000001
 12
1.0
 22
0.0
 32
0.0
 13
1.0
 23
0.0
 33
0.0
 40
0.0
 40
0.0
 40
0.0
 40
0.0
 40
1.0
 40
2.0
 40
3.0
 40
4.0
 40
4.0
 40
4.0
 40
4.0
 10
241.8564332591048
 20
59.14234904688131
 30
0.0
 10
241.7939382048751
 20
59.14234904688131
 30
0.0
 10
241.7334954595535
 20
59.11936521345681
 30
0.0
 10
241.6751905096268
 20
59.07340514540697
 30
0.0
 10
241.6167557468871
 20
59.02735642470446
 30
0.0
 10
241.5814289312853
 20
58.97687000550516
 30
0.0
 10
241.5689130764354
 20
58.92172045677812
 30
0.0
  0
SPLINE
  5
188
330
1F
100
AcDbEntity
  8
ÍĽżň
100
AcDbSpline
210
0.0
220
0.0
230
1.0
 70
     8
 71
     3
 72
    17
 73
    13
 74
     0
 42
0.00000001
 43
0.00000001
 12
1.0
 22
0.0
 32
0.0
 13
1.0
 23
0.0
 33
0.0
 40
0.0
 40
0.0
 40
0.0
 40
0.0
 40
1.0
 40
2.0
 40
3.0
 40
4.0
 40
5.0
 40
6.0
 40
7.0
 40
8.0
 40
9.0
 40
10.0
 40
10.0
 40
10.0
 40
10.0
 10
241.0221123803549
 20
55.46629081810225
 30
0.0
 10
240.9887074276155
 20
55.24190588846076
 30
0.0
 10
240.7783353161869
 20
55.06356714658906
 30
0.0
 10
240.3907763141375
 20
54.93119353863346
 30
0.0
 10
240.0448226351952
 20
54.81342482196336
 30
0.0
 10
239.634411512234
 20
54.75464811327755
 30
0.0
 10
239.1594568255345
 20
54.75464811327755
 30
0.0
 10
238.6885187372321
 20
54.75464811327755
 30
0.0
 10
238.2968592333827
 20
54.81342482196336
 30
0.0
 10
237.9843108237961
 20
54.93119353863346
 30
0.0
 10
237.642586193
 20
55.06356714658906
 30
0.0
 10
237.4617708759542
 20
55.24190588846076
 30
0.0
 10
237.4951736123774
 20
55.46629081810225
 30
0.0
  0
SPLINE
  5
189
330
1F
100
AcDbEntity
  8
ÍĽżň
100
AcDbSpline
210
0.0
220
0.0
230
1.0
 70
     8
 71
     3
 72
    20
 73
    16
 74
     0
 42
0.00000001
 43
0.00000001
 12
1.0
 22
0.0
 32
0.0
 13
1.0
 23
0.0
 33
0.0
 40
0.0
 40
0.0
 40
0.0
 40
0.0
 40
1.0
 40
2.0
 40
3.0
 40
4.0
 40
5.0
 40
6.0
 40
7.0
 40
8.0
 40
9.0
 40
10.0
 40
11.0
 40
12.0
 40
13.0
 40
13.0
 40
13.0
 40
13.0
 10
238.7616046172832
 20
55.79648142217597
 30
0.0
 10
238.7276468519311
 20
55.71925229708111
 30
0.0
 10
238.7097485146008
 20
55.654920866476
 30
0.0
 10
238.7083800975846
 20
55.57705344228275
 30
0.0
 10
238.7051765706589
 20
55.39516859430625
 30
0.0
 10
238.7866781203763
 20
55.26514301517836
 30
0.0
 10
238.874629783805
 20
55.17804558338101
 30
0.0
 10
238.9519450286195
 20
55.10141423045825
 30
0.0
 10
239.0861575458837
 20
55.0349070104643
 30
0.0
 10
239.1938451894849
 20
55.03174591016556
 30
0.0
 10
239.4124619976066
 20
55.02533758984771
 30
0.0
 10
239.5254865308954
 20
55.06839491675765
 30
0.0
 10
239.6460307088258
 20
55.19799243021986
 30
0.0
 10
239.8047607504049
 20
55.36872730743001
 30
0.0
 10
239.8853656418645
 20
55.9518819234159
 30
0.0
 10
239.8588401349681
 20
55.79648142217597
 30
0.0
  0
SPLINE
  5
18A
330
1F
100
AcDbEntity
  8
ÍĽżň
100
AcDbSpline
210
0.0
220
0.0
230
1.0
 70
     8
 71
     3
 72
    12
 73
     8
 74
     0
 42
0.00000001
 43
0.00000001
 12
1.0
 22
0.0
 32
0.0
 13
1.0
 23
0.0
 33
0.0
 40
0.0
 40
0.0
 40
0.0
 40
0.0
 40
1.0
 40
2.0
 40
3.0
 40
4.0
 40
5.0
 40
5.0
 40
5.0
 40
5.0
 10
240.4187126646771
 20
59.36323093027775
 30
0.0
 10
241.5040725263107
 20
59.36323093027775
 30
0.0
 10
241.9149535083308
 20
59.36323093027775
 30
0.0
 10
241.9156791936159
 20
59.36323093027775
 30
0.0
 10
242.0015361215098
 20
59.28510261399215
 30
0.0
 10
242.0013657817702
 20
59.28343594412301
 30
0.0
 10
241.9975644826724
 20
59.24251387967465
 30
0.0
 10
241.9814594618581
 20
59.14234904688131
 30
0.0
  0
SPLINE
  5
18B
330
1F
100
AcDbEntity
  8
ÍĽżň
100
AcDbSpline
210
0.0
220
0.0
230
1.0
 70
     8
 71
     2
 72
     6
 73
     3
 74
     0
 42
0.00000001
 43
0.00000001
 12
1.0
 22
0.0
 32
0.0
 13
1.0
 23
0.0
 33
0.0
 40
0.0
 40
0.0
 40
0.0
 40
1.0
 40
1.0
 40
1.0
 10
250.4142777173884
 20
59.61884185710355
 30
0.0
 10
248.1860211561061
 20
63.27545982563013
 30
0.0
 10
241.604196198944
 20
60.35927134469941
 30
0.0
  0
SPLINE
  5
18C
330
1F
100
AcDbEntity
  8
ÍĽżň
100
AcDbSpline
210
0.0
220
0.0
230
1.0
 70
     8
 71
     2
 72
     6
 73
     3
 74
     0
 42
0.00000001
 43
0.00000001
 12
1.0
 22
0.0
 32
0.0
 13
1.0
 23
0.0
 33
0.0
 40
0.0
 40
0.0
 40
0.0
 40
1.0
 40
1.0
 40
1.0
 10
241.604196198944
 20
60.35927134469941
 30
0.0
 10
250.8062364239405
 20
65.34246734353313
 30
0.0
 10
253.9382675182
 20
59.61884185710355
 30
0.0
  0
SPLINE
  5
18D
330
1F
100
AcDbEntity
  8
ÍĽżň
100
AcDbSpline
210
0.0
220
0.0
230
1.0
 70
     8
 71
     2
 72
     6
 73
     3
 74
     0
 42
0.00000001
 43
0.00000001
 12
1.0
 22
0.0
 32
0.0
 13
1.0
 23
0.0
 33
0.0
 40
0.0
 40
0.0
 40
0.0
 40
1.0
 40
1.0
 40
1.0
 10
244.5881330370055
 20
49.6186174742639
 30
0.0
 10
238.4188554151164
 20
49.34686163292977
 30
0.0
 10
238.0802057648997
 20
54.33599229362326
 30
0.0
  0
SPLINE
  5
18E
330
1F
100
AcDbEntity
  8
ÍĽżň
100
AcDbSpline
210
0.0
220
0.0
230
1.0
 70
     8
 71
     2
 72
     6
 73
     3
 74
     0
 42
0.00000001
 43
0.00000001
 12
1.0
 22
0.0
 32
0.0
 13
1.0
 23
0.0
 33
0.0
 40
0.0
 40
0.0
 40
0.0
 40
1.0
 40
1.0
 40
1.0
 10
238.0802057648997
 20
54.33599229362326
 30
0.0
 10
238.9865455257031
 20
51.15334180118565
 30
0.0
 10
243.3366108753374
 20
51.35658433964396
 30
0.0
  0
SPLINE
  5
18F
330
1F
100
AcDbEntity
  8
ÍĽżň
100
AcDbSpline
210
0.0
220
0.0
230
1.0
 70
     8
 71
     2
 72
     6
 73
     3
 74
     0
 42
0.00000001
 43
0.00000001
 12
1.0
 22
0.0
 32
0.0
 13
1.0
 23
0.0
 33
0.0
 40
0.0
 40
0.0
 40
0.0
 40
1.0
 40
1.0
 40
1.0
 10
243.3366108753374
 20
51.35658433964396
 30
0.0
 10
248.0337842880979
 20
51.31476814987055
 30
0.0
 10
250.0949369315286
 20
54.58421465508682
 30
0.0
  0
SPLINE
  5
190
330
1F
100
AcDbEntity
  8
ÍĽżň
100
AcDbSpline
210
0.0
220
0.0
230
1.0
 70
     8
 71
     2
 72
     6
 73
     3
 74
     0
 42
0.00000001
 43
0.00000001
 12
1.0
 22
0.0
 32
0.0
 13
1.0
 23
0.0
 33
0.0
 40
0.0
 40
0.0
 40
0.0
 40
1.0
 40
1.0
 40
1.0
 10
253.5992775051202
 20
54.58421465508682
 30
0.0
 10
251.4863529790273
 20
50.12949738197022
 30
0.0
 10
244.5881330370055
 20
49.6186174742639
 30
0.0
  0
INSERT
  5
191
330
1F
100
AcDbEntity
  8
0
  6
Continuous
 62
     7
100
AcDbBlockReference
  2
żé2
 10
195.9034236312
 20
21.618234652
 30
0.0
  0
MTEXT
  5
193
330
1F
100
AcDbEntity
  8
Ď¸ĘµĎß˛ă
100
AcDbMText
 10
248.7861214438
 20
184.4143155759
 30
0.0
 40
3.5
 41
0.0
 71
     1
 72
     1
  1
\M+191B4\M+1975D
  7
SLDTEXTSTYLE0
 73
     1
 44
1.0
  0
INSERT
  5
19E
330
1F
100
AcDbEntity
  8
Ď¸ĘµĎß˛ă
100
AcDbBlockReference
  2
SW_NOTE_0
 10
16.9757188211
 20
57.5889284582
 30
0.0
  0
INSERT
  5
1A5
330
1F
100
AcDbEntity
  8
Ď¸ĘµĎß˛ă
100
AcDbBlockReference
  2
SW_NOTE_1
 10
130.8687803698
 20
24.8074565589
 30
0.0
  0
MTEXT
  5
1A6
330
1F
100
AcDbEntity
  8
Ď¸ĘµĎß˛ă
100
AcDbMText
 10
205.9436243362
 20
61.2659359943
 30
0.0
 40
3.5
 41
0.0
 71
     1
 72
     1
  1
\M+19573Đâ¸Ö
  7
SLDTEXTSTYLE0
 73
     1
 44
1.0
  0
MTEXT
  5
1A7
330
1F
100
AcDbEntity
  8
Ď¸ĘµĎß˛ă
100
AcDbMText
 10
205.9436243362
 20
46.4893618373
 30
0.0
 40
3.5
 41
0.0
 71
     1
 72
     1
  1
\M+19DD9
  7
SLDTEXTSTYLE0
 73
     1
 44
1.0
  0
MTEXT
  5
1A8
330
1F
100
AcDbEntity
  8
Ď¸ĘµĎß˛ă
100
AcDbMText
 10
244.5708958258
 20
41.1401507964
 30
0.0
 40
3.5
 41
0.0
 71
     1
 72
     1
  1
ÁŞÖá\M+18AED\M+1968C\M+195D0MP-D126
  7
SLDTEXTSTYLE0
 73
     1
 44
1.0
  0
MTEXT
  5
1A9
330
1F
100
AcDbEntity
  8
Ď¸ĘµĎß˛ă
100
AcDbMText
 10
244.5708958258
 20
21.9436316774
 30
0.0
 40
3.5
 41
0.0
 71
     1
 72
     1
  1
B-YMPS-126
  7
SLDTEXTSTYLE1
 73
     1
 44
1.0
  0
MTEXT
  5
1AA
330
1F
100
AcDbEntity
  8
Ď¸ĘµĎß˛ă
100
AcDbMText
 10
228.0199865803
 20
27.3172486435
 30
0.0
 40
3.5
 41
0.0
 71
     1
 72
     1
  1
1:1
  7
SLDTEXTSTYLE1
 73
     1
 44
1.0
  0
MTEXT
  5
1AB
330
1F
100
AcDbEntity
  8
ÍĽżň
100
AcDbMText
 10
4.8963714104
 20
174.150514539
 30
0.0
 40
6.35
 41
0.0
 71
     2
 72
     1
  1
B
  7
SLDTEXTSTYLE1
 73
     1
 44
1.0
  0
MTEXT
  5
1AC
330
1F
100
AcDbEntity
  8
ÍĽżň
100
AcDbMText
 10
2.149109816
 20
194.6451752144
 30
0.0
 40
6.35
 41
0.0
 71
     1
 72
     1
  1
A
  7
SLDTEXTSTYLE1
 73
     1
 44
1.0
  0
MTEXT
  5
1AD
330
1F
100
AcDbEntity
  8
ÍĽżň
100
AcDbMText
 10
2.2659721971
 20
148.3419339307
 30
0.0
 40
6.35
 41
0.0
 71
     1
 72
     1
  1
c
  7
SLDTEXTSTYLE1
 73
     1
 44
1.0
  0
MTEXT
  5
1AE
330
1F
100
AcDbEntity
  8
ÍĽżň
100
AcDbMText
 10
1.8308797106
 20
119.8131261262
 30
0.0
 40
6.35
 41
0.0
 71
     1
 72
     1
  1
D
  7
SLDTEXTSTYLE1
 73
     1
 44
1.0
  0
MTEXT
  5
1AF
330
1F
100
AcDbEntity
  8
ÍĽżň
100
AcDbMText
 10
1.8308797106
 20
93.9886350483
 30
0.0
 40
6.35
 41
0.0
 71
     1
 72
     1
  1
E
  7
SLDTEXTSTYLE1
 73
     1
 44
1.0
  0
MTEXT
  5
1B0
330
1F
100
AcDbEntity
  8
ÍĽżň
100
AcDbMText
 10
2.7892593015
 20
69.229194924
 30
0.0
 40
6.35
 41
0.0
 71
     1
 72
     1
  1
F
  7
SLDTEXTSTYLE1
 73
     1
 44
1.0
  0
MTEXT
  5
1B1
330
1F
100
AcDbEntity
  8
ÍĽżň
100
AcDbMText
 10
1.6368519235
 20
40.8472640657
 30
0.0
 40
6.35
 41
0.0
 71
     1
 72
     1
  1
G
  7
SLDTEXTSTYLE1
 73
     1
 44
1.0
  0
MTEXT
  5
1B2
330
1F
100
AcDbEntity
  8
ÍĽżň
100
AcDbMText
 10
1.6368519235
 20
16.570426786
 30
0.0
 40
6.35
 41
0.0
 71
     1
 72
     1
  1
H
  7
SLDTEXTSTYLE1
 73
     1
 44
1.0
  0
MTEXT
  5
1B3
330
1F
100
AcDbEntity
  8
ÍĽżň
100
AcDbMText
 10
13.7178621406
 20
208.4029124544
 30
0.0
 40
6.35
 41
0.0
 71
     1
 72
     1
  1
1
  7
SLDTEXTSTYLE1
 73
     1
 44
1.0
  0
MTEXT
  5
1B4
330
1F
100
AcDbEntity
  8
ÍĽżň
100
AcDbMText
 10
42.6339402586
 20
208.4029124544
 30
0.0
 40
6.35
 41
0.0
 71
     1
 72
     1
  1
2
  7
SLDTEXTSTYLE1
 73
     1
 44
1.0
  0
MTEXT
  5
1B5
330
1F
100
AcDbEntity
  8
ÍĽżň
100
AcDbMText
 10
194.0256398343
 20
61.0014627172
 30
0.0
 40
3.5
 41
0.0
 71
     2
 72
     1
  1
\M+18DDEÖĘ
  7
SLDTEXTSTYLE0
 73
     1
 44
1.0
  0
INSERT
  5
1BB
330
1F
100
AcDbEntity
  8
ÍĽżň
100
AcDbBlockReference
  2
SW_NOTE_2
 10
189.9763340823
 20
44.9581834037
 30
0.0
  0
MTEXT
  5
1BC
330
1F
100
AcDbEntity
  8
ÍĽżň
100
AcDbMText
 10
191.0525335896
 20
36.4311716754
 30
0.0
 40
3.5
 41
0.0
 71
     2
 72
     1
  1
\M+194C5\M+1967B
  7
SLDTEXTSTYLE0
 73
     1
 44
1.0
  0
MTEXT
  5
1BD
330
1F
100
AcDbEntity
  8
ÍĽżň
100
AcDbMText
 10
191.0525335896
 20
27.0553718014
 30
0.0
 40
3.5
 41
0.0
 71
     2
 72
     1
  1
ĘÓ\M+18A70
  7
SLDTEXTSTYLE0
 73
     1
 44
1.0
  0
MTEXT
  5
1BE
330
1F
100
AcDbEntity
  8
ÍĽżň
100
AcDbMText
 10
218.9669172315
 20
36.4223185197
 30
0.0
 40
3.5
 41
0.0
 71
     2
 72
     1
  1
\M+19094\M+197CA
  7
SLDTEXTSTYLE0
 73
     1
 44
1.0
  0
MTEXT
  5
1BF
330
1F
100
AcDbEntity
  8
ÍĽżň
100
AcDbMText
 10
230.4550373315
 20
36.4223185197
 30
0.0
 40
3.5
 41
0.0
 71
     2
 72
     1
  1
\M+194E4\M+197E1
  7
SLDTEXTSTYLE0
 73
     1
 44
1.0
  0
MTEXT
  5
1C0
330
1F
100
AcDbEntity
  8
ÍĽżň
100
AcDbMText
 10
148.9514167614
 20
15.6734680585
 30
0.0
 40
3.5
 41
0.0
 71
     1
 72
     1
  1
\M+194E1\M+18F79
  7
SLDTEXTSTYLE0
 73
     1
 44
1.0
  0
MTEXT
  5
1C1
330
1F
100
AcDbEntity
  8
ÍĽżň
100
AcDbMText
 10
108.8438664496
 20
22.7554760539
 30
0.0
 40
3.5
 41
0.0
 71
     1
 72
     1
  1
Éó\M+18A6A
  7
SLDTEXTSTYLE0
 73
     1
 44
1.0
  0
MTEXT
  5
1C2
330
1F
100
AcDbEntity
  8
ÍĽżň
100
AcDbMText
 10
112.973264005
 20
36.5206975416
 30
0.0
 40
3.5
 41
0.0
 71
     2
 72
     1
  1
ÉčĽĆ
  7
SLDTEXTSTYLE0
 73
     1
 44
1.0
  0
MTEXT
  5
1C3
330
1F
100
AcDbEntity
  8
ÍĽżň
100
AcDbMText
 10
125.3447202278
 20
36.5206975416
 30
0.0
 40
3.5
 41
0.0
 71
     2
 72
     1
  1
Ç©\M+196BC
  7
SLDTEXTSTYLE0
 73
     1
 44
1.0
  0
MTEXT
  5
1C4
330
1F
100
AcDbEntity
  8
ÍĽżň
100
AcDbMText
 10
132.7170065816
 20
36.5206975416
 30
0.0
 40
3.5
 41
0.0
 71
     1
 72
     1
  1
\M+1944E\M+18C8E\M+193FA
  7
SLDTEXTSTYLE0
 73
     1
 44
1.0
  0
MTEXT
  5
1C5
330
1F
100
AcDbEntity
  8
ÍĽżň
100
AcDbMText
 10
165.2236064292
 20
36.5206975416
 30
0.0
 40
3.5
 41
0.0
 71
     2
 72
     1
  1
Ç©\M+196BC
  7
SLDTEXTSTYLE0
 73
     1
 44
1.0
  0
MTEXT
  5
1C6
330
1F
100
AcDbEntity
  8
ÍĽżň
100
AcDbMText
 10
165.2236064292
 20
43.7273922162
 30
0.0
 40
3.5
 41
0.0
 71
     2
 72
     1
  1
Ç©\M+196BC
  7
SLDTEXTSTYLE0
 73
     1
 44
1.0
  0
MTEXT
  5
1C7
330
1F
100
AcDbEntity
  8
ÍĽżň
100
AcDbMText
 10
172.8512488481
 20
43.7273922162
 30
0.0
 40
3.5
 41
0.0
 71
     1
 72
     1
  1
\M+1944E\M+18C8E\M+193FA
  7
SLDTEXTSTYLE0
 73
     1
 44
1.0
  0
MTEXT
  5
1C8
330
1F
100
AcDbEntity
  8
ÍĽżň
100
AcDbMText
 10
172.8512488481
 20
36.5206975416
 30
0.0
 40
3.5
 41
0.0
 71
     1
 72
     1
  1
\M+1944E\M+18C8E\M+193FA
  7
SLDTEXTSTYLE0
 73
     1
 44
1.0
  0
MTEXT
  5
1C9
330
1F
100
AcDbEntity
  8
ÍĽżň
100
AcDbMText
 10
111.8439189727
 20
43.7273922162
 30
0.0
 40
3.5
 41
0.0
 71
     2
 72
     1
  1
±ęĽÇ
  7
SLDTEXTSTYLE0
 73
     1
 44
1.0
  0
MTEXT
  5
1CA
330
1F
100
AcDbEntity
  8
ÍĽżň
100
AcDbMText
 10
122.1008642261
 20
43.7273922162
 30
0.0
 40
3.5
 41
0.0
 71
     2
 72
     1
  1
´¦\M+19094
  7
SLDTEXTSTYLE0
 73
     1
 44
1.0
  0
MTEXT
  5
1CB
330
1F
100
AcDbEntity
  8
ÍĽżň
100
AcDbMText
 10
134.9056842973
 20
43.7273922162
 30
0.0
 40
3.5
 41
0.0
 71
     2
 72
     1
  1
\M+195AA\M+18BE6
  7
SLDTEXTSTYLE0
 73
     1
 44
1.0
  0
INSERT
  5
1D1
330
1F
100
AcDbEntity
  8
ÍĽżň
100
AcDbBlockReference
  2
SW_NOTE_3
 10
146.2898904772
 20
41.5721257001
 30
0.0
  0
MTEXT
  5
1D2
330
1F
100
AcDbEntity
  8
ÍĽżň
100
AcDbMText
 10
146.7499399924
 20
36.742318452
 30
0.0
 40
3.5
 41
0.0
 71
     1
 72
     1
  1
±ę\M+18F79\M+189BB
  7
SLDTEXTSTYLE0
 73
     1
 44
1.0
  0
MTEXT
  5
1D4
330
1F
100
AcDbEntity
  8
ÍĽżň
100
AcDbMText
 10
191.7446266697
 20
17.3750591273
 30
0.0
 40
3.5
 41
0.0
 71
     1
 72
     1
  1
\M+18BA4    ŐĹ
  7
SLDTEXTSTYLE2
 73
     1
 44
1.0
  0
MTEXT
  5
1D6
330
1F
100
AcDbEntity
  8
´ÖĘµĎß˛ă
100
AcDbMText
 10
215.6626615658
 20
17.366098498
 30
0.0
 40
3.5
 41
0.0
 71
     1
 72
     1
  1
\M+191E6     ŐĹ
  7
SLDTEXTSTYLE3
 73
     1
 44
1.0
  0
MTEXT
  5
1D7
330
1F
100
AcDbEntity
  8
ÍĽżň
100
AcDbMText
 10
71.677660969
 20
208.4029124544
 30
0.0
 40
6.35
 41
0.0
 71
     1
 72
     1
  1
3
  7
SLDTEXTSTYLE1
 73
     1
 44
1.0
  0
MTEXT
  5
1D8
330
1F
100
AcDbEntity
  8
ÍĽżň
100
AcDbMText
 10
100.5802484958
 20
208.4029124544
 30
0.0
 40
6.35
 41
0.0
 71
     1
 72
     1
  1
4
  7
SLDTEXTSTYLE1
 73
     1
 44
1.0
  0
MTEXT
  5
1D9
330
1F
100
AcDbEntity
  8
ÍĽżň
100
AcDbMText
 10
130.761450051
 20
208.4029124544
 30
0.0
 40
6.35
 41
0.0
 71
     1
 72
     1
  1
5
  7
SLDTEXTSTYLE1
 73
     1
 44
1.0
  0
MTEXT
  5
1DA
330
1F
100
AcDbEntity
  8
ÍĽżň
100
AcDbMText
 10
159.8422952995
 20
208.4029124544
 30
0.0
 40
6.35
 41
0.0
 71
     1
 72
     1
  1
6
  7
SLDTEXTSTYLE1
 73
     1
 44
1.0
  0
MTEXT
  5
1DB
330
1F
100
AcDbEntity
  8
ÍĽżň
100
AcDbMText
 10
188.4458753738
 20
208.4029124544
 30
0.0
 40
6.35
 41
0.0
 71
     1
 72
     1
  1
7
  7
SLDTEXTSTYLE1
 73
     1
 44
1.0
  0
MTEXT
  5
1DC
330
1F
100
AcDbEntity
  8
ÍĽżň
100
AcDbMText
 10
218.632760829
 20
208.4029124544
 30
0.0
 40
6.35
 41
0.0
 71
     1
 72
     1
  1
8
  7
SLDTEXTSTYLE1
 73
     1
 44
1.0
  0
MTEXT
  5
1DD
330
1F
100
AcDbEntity
  8
ÍĽżň
100
AcDbMText
 10
249.5999311747
 20
208.4029124544
 30
0.0
 40
6.35
 41
0.0
 71
     1
 72
     1
  1
9
  7
SLDTEXTSTYLE1
 73
     1
 44
1.0
  0
MTEXT
  5
1DE
330
1F
100
AcDbEntity
  8
ÍĽżň
100
AcDbMText
 10
273.4933824059
 20
208.4029124544
 30
0.0
 40
6.35
 41
0.0
 71
     1
 72
     1
  1
10
  7
SLDTEXTSTYLE1
 73
     1
 44
1.0
  0
MTEXT
  5
1DF
330
1F
100
AcDbEntity
  8
ÍĽżň
100
AcDbMText
 10
288.9946275115
 20
17.4439372723
 30
0.0
 40
6.35
 41
0.0
 71
     1
 72
     1
  1
H
  7
SLDTEXTSTYLE1
 73
     1
 44
1.0
  0
MTEXT
  5
1E0
330
1F
100
AcDbEntity
  8
ÍĽżň
100
AcDbMText
 10
288.9946275115
 20
41.7207745521
 30
0.0
 40
6.35
 41
0.0
 71
     1
 72
     1
  1
G
  7
SLDTEXTSTYLE1
 73
     1
 44
1.0
  0
MTEXT
  5
1E1
330
1F
100
AcDbEntity
  8
ÍĽżň
100
AcDbMText
 10
290.1470348895
 20
70.1027054103
 30
0.0
 40
6.35
 41
0.0
 71
     1
 72
     1
  1
F
  7
SLDTEXTSTYLE1
 73
     1
 44
1.0
  0
MTEXT
  5
1E2
330
1F
100
AcDbEntity
  8
ÍĽżň
100
AcDbMText
 10
289.1886552986
 20
94.8621455346
 30
0.0
 40
6.35
 41
0.0
 71
     1
 72
     1
  1
E
  7
SLDTEXTSTYLE1
 73
     1
 44
1.0
  0
MTEXT
  5
1E3
330
1F
100
AcDbEntity
  8
ÍĽżň
100
AcDbMText
 10
289.1886552986
 20
120.6866366125
 30
0.0
 40
6.35
 41
0.0
 71
     1
 72
     1
  1
D
  7
SLDTEXTSTYLE1
 73
     1
 44
1.0
  0
MTEXT
  5
1E4
330
1F
100
AcDbEntity
  8
ÍĽżň
100
AcDbMText
 10
289.623747785
 20
149.215444417
 30
0.0
 40
6.35
 41
0.0
 71
     1
 72
     1
  1
c
  7
SLDTEXTSTYLE1
 73
     1
 44
1.0
  0
MTEXT
  5
1E5
330
1F
100
AcDbEntity
  8
ÍĽżň
100
AcDbMText
 10
292.2541469984
 20
175.0240250253
 30
0.0
 40
6.35
 41
0.0
 71
     2
 72
     1
  1
B
  7
SLDTEXTSTYLE1
 73
     1
 44
1.0
  0
MTEXT
  5
1E6
330
1F
100
AcDbEntity
  8
ÍĽżň
100
AcDbMText
 10
289.5068854039
 20
195.5186857008
 30
0.0
 40
6.35
 41
0.0
 71
     1
 72
     1
  1
A
  7
SLDTEXTSTYLE1
 73
     1
 44
1.0
  0
MTEXT
  5
1E7
330
1F
100
AcDbEntity
  8
ÍĽżň
100
AcDbMText
 10
271.871867159
 20
7.390729594
 30
0.0
 40
6.35
 41
0.0
 71
     1
 72
     1
  1
10
  7
SLDTEXTSTYLE1
 73
     1
 44
1.0
  0
MTEXT
  5
1E8
330
1F
100
AcDbEntity
  8
ÍĽżň
100
AcDbMText
 10
247.9784159278
 20
7.390729594
 30
0.0
 40
6.35
 41
0.0
 71
     1
 72
     1
  1
9
  7
SLDTEXTSTYLE1
 73
     1
 44
1.0
  0
MTEXT
  5
1E9
330
1F
100
AcDbEntity
  8
ÍĽżň
100
AcDbMText
 10
217.0112455821
 20
7.390729594
 30
0.0
 40
6.35
 41
0.0
 71
     1
 72
     1
  1
8
  7
SLDTEXTSTYLE1
 73
     1
 44
1.0
  0
MTEXT
  5
1EA
330
1F
100
AcDbEntity
  8
ÍĽżň
100
AcDbMText
 10
186.8243601269
 20
7.390729594
 30
0.0
 40
6.35
 41
0.0
 71
     1
 72
     1
  1
7
  7
SLDTEXTSTYLE1
 73
     1
 44
1.0
  0
MTEXT
  5
1EB
330
1F
100
AcDbEntity
  8
ÍĽżň
100
AcDbMText
 10
158.2207800526
 20
7.390729594
 30
0.0
 40
6.35
 41
0.0
 71
     1
 72
     1
  1
6
  7
SLDTEXTSTYLE1
 73
     1
 44
1.0
  0
MTEXT
  5
1EC
330
1F
100
AcDbEntity
  8
ÍĽżň
100
AcDbMText
 10
129.1399348041
 20
7.390729594
 30
0.0
 40
6.35
 41
0.0
 71
     1
 72
     1
  1
5
  7
SLDTEXTSTYLE1
 73
     1
 44
1.0
  0
MTEXT
  5
1ED
330
1F
100
AcDbEntity
  8
ÍĽżň
100
AcDbMText
 10
98.9587332489
 20
7.390729594
 30
0.0
 40
6.35
 41
0.0
 71
     1
 72
     1
  1
4
  7
SLDTEXTSTYLE1
 73
     1
 44
1.0
  0
MTEXT
  5
1EE
330
1F
100
AcDbEntity
  8
ÍĽżň
100
AcDbMText
 10
70.0561457221
 20
7.390729594
 30
0.0
 40
6.35
 41
0.0
 71
     1
 72
     1
  1
3
  7
SLDTEXTSTYLE1
 73
     1
 44
1.0
  0
MTEXT
  5
1EF
330
1F
100
AcDbEntity
  8
ÍĽżň
100
AcDbMText
 10
41.0124250118
 20
7.390729594
 30
0.0
 40
6.35
 41
0.0
 71
     1
 72
     1
  1
2
  7
SLDTEXTSTYLE1
 73
     1
 44
1.0
  0
MTEXT
  5
1F0
330
1F
100
AcDbEntity
  8
ÍĽżň
100
AcDbMText
 10
12.0963468937
 20
7.390729594
 30
0.0
 40
6.35
 41
0.0
 71
     1
 72
     1
  1
1
  7
SLDTEXTSTYLE1
 73
     1
 44
1.0
  0
MTEXT
  5
1F1
330
1F
100
AcDbEntity
  8
ÍĽżň
100
AcDbMText
 10
113.0370955065
 20
29.2133737668
 30
0.0
 40
3.5
 41
0.0
 71
     2
 72
     1
  1
\M+18F99\M+19092\M+19090
  7
SLDTEXTSTYLE0
 73
     1
 44
1.0
  0
MTEXT
  5
1F2
330
1F
100
AcDbEntity
  8
Ď¸ĘµĎß˛ă
100
AcDbMText
 10
201.2862935853
 20
36.5206975416
 30
0.0
 40
3.5
 41
0.0
 71
     1
 72
     1
  1
A0
  7
SLDTEXTSTYLE1
 73
     1
 44
1.0
  0
MTEXT
  5
1F3
330
1F
100
AcDbEntity
  8
ÍĽżň
100
AcDbMText
 10
113.0504637368
 20
15.4619054106
 30
0.0
 40
3.5
 41
0.0
 71
     2
 72
     1
  1
\M+18D48ŇŐ
  7
SLDTEXTSTYLE0
 73
     1
 44
1.0
  0
INSERT
  5
1FB
330
1F
100
AcDbEntity
  8
Ď¸ĘµĎß˛ă
100
AcDbBlockReference
  2
SW_SFSYMBOL_0
 10
259.9904864248
 20
183.9704659395
 30
0.0
  0
CIRCLE
  5
1FC
330
1F
100
AcDbEntity
  8
0
  6
Continuous
 62
     7
100
AcDbCircle
 10
78.5458133971
 20
130.3657894737
 30
0.0
 40
2.75
  0
CIRCLE
  5
1FD
330
1F
100
AcDbEntity
  8
0
  6
Continuous
 62
     7
100
AcDbCircle
 10
129.5458133971
 20
130.3657894737
 30
0.0
 40
2.75
  0
CIRCLE
  5
1FE
330
1F
100
AcDbEntity
  8
0
  6
Continuous
 62
     7
100
AcDbCircle
 10
104.0458133971
 20
130.3657894737
 30
0.0
 40
16.0
  0
CIRCLE
  5
1FF
330
1F
100
AcDbEntity
  8
0
  6
Continuous
 62
     7
100
AcDbCircle
 10
104.0458133971
 20
130.3657894737
 30
0.0
 40
30.99999999999999
  0
CIRCLE
  5
200
330
1F
100
AcDbEntity
  8
0
  6
Continuous
 62
     7
100
AcDbCircle
 10
104.0458133971
 20
155.8657894737
 30
0.0
 40
2.75
  0
CIRCLE
  5
201
330
1F
100
AcDbEntity
  8
0
  6
Continuous
 62
     7
100
AcDbCircle
 10
104.0458133971
 20
104.8657894737
 30
0.0
 40
2.75
  0
DIMENSION
  5
202
330
1F
100
AcDbEntity
  8
Ď¸ĘµĎß˛ă
100
AcDbDimension
  2
_D
 10
119.0562715092
 20
135.9052973277
 30
0.0
 11
141.6196900101
 21
144.5915338183
 31
0.0
 70
   163
  1
<>
 71
     1
 42
-1.0
  3
SLDDIMSTYLE0
100
AcDbDiametricDimension
 15
89.035355285
 25
124.8262816197
 35
0.0
 40
0.0
  0
DIMENSION
  5
20F
330
1F
100
AcDbEntity
  8
Ď¸ĘµĎß˛ă
100
AcDbDimension
  2
_D_1
 10
126.0333366789
 20
143.2808512209
 30
0.0
 11
146.9611445645
 21
150.78787503
 31
0.0
 70
   163
  1
<>%%p0.05
 71
     1
 42
-1.0
  3
SLDDIMSTYLE0
100
AcDbDiametricDimension
 15
82.0582901154
 25
117.4507277265
 35
0.0
 40
0.0
  0
DIMENSION
  5
21E
330
1F
100
AcDbEntity
  8
Ď¸ĘµĎß˛ă
100
AcDbDimension
  2
_D_2
 10
128.0862764954
 20
149.9376093692
 30
0.0
 11
143.5135065177
 21
159.0999133654
 31
0.0
 70
   163
  1
<>
 71
     1
 42
-1.0
  3
SLDDIMSTYLE1
100
AcDbDiametricDimension
 15
80.0053502989
 25
110.7939695782
 35
0.0
 40
0.0
  0
DIMENSION
  5
22B
330
1F
100
AcDbEntity
  8
Ď¸ĘµĎß˛ă
100
AcDbDimension
  2
_D_3
 10
105.909498502
 20
157.8879610366
 30
0.0
 11
123.2203736243
 21
166.7956772696
 31
0.0
 70
   163
  1
4-<>
 71
     1
 42
-1.0
  3
SLDDIMSTYLE2
100
AcDbDiametricDimension
 15
102.1821282923
 25
153.8436179108
 35
0.0
 40
0.0
  0
INSERT
  5
265
330
1F
100
AcDbEntity
  8
Ď¸ĘµĎß˛ă
100
AcDbBlockReference
  2
SW_CENTERMARKSYMBOL_0
 10
104.0458133971
 20
155.8657894737
 30
0.0
  0
LINE
  5
266
330
1F
100
AcDbEntity
  8
0
  6
Continuous
 62
     7
100
AcDbLine
 10
195.092219933
 20
99.3657899803
 30
0.0
 11
195.3422199448
 21
99.3657899803
 31
0.0
  0
LINE
  5
267
330
1F
100
AcDbEntity
  8
0
  6
Continuous
 62
     7
100
AcDbLine
 10
195.3422199448
 20
161.365788967
 30
0.0
 11
195.092219933
 21
161.365788967
 31
0.0
  0
LINE
  5
268
330
1F
100
AcDbEntity
  8
0
  6
Continuous
 62
     7
100
AcDbLine
 10
195.092219933
 20
161.365788967
 30
0.0
 11
195.092219933
 21
99.3657899803
 31
0.0
  0
LINE
  5
269
330
1F
100
AcDbEntity
  8
0
  6
Continuous
 62
     7
100
AcDbLine
 10
195.3422199448
 20
161.365788967
 30
0.0
 11
195.3422199448
 21
99.3657899803
 31
0.0
  0
LINE
  5
26A
330
1F
100
AcDbEntity
  8
0
  6
HIDDEN
 62
     7
370
     0
100
AcDbLine
 10
195.092219933
 20
127.6157894886
 30
0.0
 11
195.3422199448
 21
127.6157894886
 31
0.0
  0
LINE
  5
26B
330
1F
100
AcDbEntity
  8
0
  6
HIDDEN
 62
     7
370
     0
100
AcDbLine
 10
195.3422199448
 20
133.1157894588
 30
0.0
 11
195.092219933
 21
133.1157894588
 31
0.0
  0
LINE
  5
26C
330
1F
100
AcDbEntity
  8
0
  6
HIDDEN
 62
     7
370
     0
100
AcDbLine
 10
195.092219933
 20
114.3657887137
 30
0.0
 11
195.3422199448
 21
114.3657887137
 31
0.0
  0
LINE
  5
26D
330
1F
100
AcDbEntity
  8
0
  6
HIDDEN
 62
     7
370
     0
100
AcDbLine
 10
195.3422199448
 20
146.3657902336
 30
0.0
 11
195.092219933
 21
146.3657902336
 31
0.0
  0
LINE
  5
26E
330
1F
100
AcDbEntity
  8
0
  6
HIDDEN
 62
     7
370
     0
100
AcDbLine
 10
195.092219933
 20
153.1157890117
 30
0.0
 11
195.3422199448
 21
153.1157890117
 31
0.0
  0
LINE
  5
26F
330
1F
100
AcDbEntity
  8
0
  6
HIDDEN
 62
     7
370
     0
100
AcDbLine
 10
195.3422199448
 20
158.6157889819
 30
0.0
 11
195.092219933
 21
158.6157889819
 31
0.0
  0
LINE
  5
270
330
1F
100
AcDbEntity
  8
0
  6
HIDDEN
 62
     7
370
     0
100
AcDbLine
 10
195.092219933
 20
102.1157899654
 30
0.0
 11
195.3422199448
 21
102.1157899654
 31
0.0
  0
LINE
  5
271
330
1F
100
AcDbEntity
  8
0
  6
HIDDEN
 62
     7
370
     0
100
AcDbLine
 10
195.3422199448
 20
107.6157899356
 30
0.0
 11
195.092219933
 21
107.6157899356
 31
0.0
  0
DIMENSION
  5
272
330
1F
100
AcDbEntity
  8
Ď¸ĘµĎß˛ă
100
AcDbDimension
  2
_D_4
 10
195.342219933
 20
91.8963342949
 30
0.0
 11
211.342219933
 21
91.8963342949
 31
0.0
 70
   160
  1
<>%%p0.05
 71
     2
 42
-1.0
  3
SLDDIMSTYLE3
100
AcDbAlignedDimension
 13
195.092219933
 23
99.3657894737
 33
0.0
 14
195.342219933
 24
99.3657894737
 34
0.0
100
AcDbRotatedDimension
  0
LINE
  5
281
330
1F
100
AcDbEntity
  8
Ď¸ĘµĎß˛ă
  6
CENTERX2
370
     0
100
AcDbLine
 10
196.342219933
 20
130.3657894737
 30
0.0
 11
194.092219933
 21
130.3657894737
 31
0.0
  0
ENDSEC
  0
SECTION
  2
OBJECTS
  0
DICTIONARY
  5
C
330
0
100
AcDbDictionary
281
     1
  3
ACAD_GROUP
350
D
  3
ACAD_LAYOUT
350
1A
  3
ACAD_MLINESTYLE
350
17
  3
ACAD_PLOTSETTINGS
350
19
  3
ACAD_PLOTSTYLENAME
350
E
  0
DICTIONARY
  5
D
102
{ACAD_REACTORS
330
C
102
}
330
C
100
AcDbDictionary
281
     1
  0
DICTIONARY
  5
1A
102
{ACAD_REACTORS
330
C
102
}
330
C
100
AcDbDictionary
281
     1
  3
Layout1
350
1E
  3
Layout2
350
26
  3
Model
350
22
  0
DICTIONARY
  5
17
102
{ACAD_REACTORS
330
C
102
}
330
C
100
AcDbDictionary
281
     1
  3
Standard
350
18
  0
DICTIONARY
  5
19
102
{ACAD_REACTORS
330
C
102
}
330
C
100
AcDbDictionary
281
     1
  0
ACDBDICTIONARYWDFLT
  5
E
102
{ACAD_REACTORS
330
C
102
}
330
C
100
AcDbDictionary
281
     1
  3
Normal
350
F
100
AcDbDictionaryWithDefault
340
F
  0
LAYOUT
  5
1E
102
{ACAD_REACTORS
330
1A
102
}
330
1A
100
AcDbPlotSettings
  1

  2
none_device
  4

  6

 40
0.0
 41
0.0
 42
0.0
 43
0.0
 44
0.0
 45
0.0
 46
0.0
 47
0.0
 48
0.0
 49
0.0
140
0.0
141
0.0
142
1.0
143
1.0
 70
   688
 72
     0
 73
     0
 74
     5
  7

 75
    16
147
1.0
148
0.0
149
0.0
100
AcDbLayout
  1
Layout1
 70
     1
 71
     1
 10
0.0
 20
0.0
 11
420.0
 21
297.0
 12
0.0
 22
0.0
 32
0.0
 14
1.0000000000E+20
 24
1.0000000000E+20
 34
1.0000000000E+20
 15
-1.0000000000E+20
 25
-1.0000000000E+20
 35
-1.0000000000E+20
146
0.0
 13
0.0
 23
0.0
 33
0.0
 16
1.0
 26
0.0
 36
0.0
 17
0.0
 27
1.0
 37
0.0
 76
     0
330
1B
  0
LAYOUT
  5
26
102
{ACAD_REACTORS
330
1A
102
}
330
1A
100
AcDbPlotSettings
  1

  2
none_device
  4

  6

 40
0.0
 41
0.0
 42
0.0
 43
0.0
 44
0.0
 45
0.0
 46
0.0
 47
0.0
 48
0.0
 49
0.0
140
0.0
141
0.0
142
1.0
143
1.0
 70
   688
 72
     0
 73
     0
 74
     5
  7

 75
    16
147
1.0
148
0.0
149
0.0
100
AcDbLayout
  1
Layout2
 70
     1
 71
     2
 10
0.0
 20
0.0
 11
0.0
 21
0.0
 12
0.0
 22
0.0
 32
0.0
 14
0.0
 24
0.0
 34
0.0
 15
0.0
 25
0.0
 35
0.0
146
0.0
 13
0.0
 23
0.0
 33
0.0
 16
1.0
 26
0.0
 36
0.0
 17
0.0
 27
1.0
 37
0.0
 76
     0
330
23
  0
LAYOUT
  5
22
102
{ACAD_REACTORS
330
1A
102
}
330
1A
100
AcDbPlotSettings
  1

  2
none_device
  4

  6

 40
0.0
 41
0.0
 42
0.0
 43
0.0
 44
0.0
 45
0.0
 46
0.0
 47
0.0
 48
0.0
 49
0.0
140
0.0
141
0.0
142
1.0
143
1.0
 70
  1712
 72
     0
 73
     0
 74
     0
  7

 75
     0
147
1.0
148
0.0
149
0.0
100
AcDbLayout
  1
Model
 70
     1
 71
     0
 10
0.0
 20
0.0
 11
297.0
 21
210.0
 12
0.0
 22
0.0
 32
0.0
 14
0.0
 24
0.0
 34
0.0
 15
297.0
 25
210.0
 35
0.0
146
0.0
 13
0.0
 23
0.0
 33
0.0
 16
1.0
 26
0.0
 36
0.0
 17
0.0
 27
1.0
 37
0.0
 76
     0
330
1F
331
29
  0
MLINESTYLE
  5
18
102
{ACAD_REACTORS
330
17
102
}
330
17
100
AcDbMlineStyle
  2
Standard
 70
     0
  3

 62
   256
 51
90.0
 52
90.0
 71
     2
 49
0.5
 62
   256
  6
BYLAYER
 49
-0.5
 62
   256
  6
BYLAYER
  0
ACDBPLACEHOLDER
  5
F
102
{ACAD_REACTORS
330
E
102
}
330
E
  0
ENDSEC
  0
EOF
